<svg xmlns="http://www.w3.org/2000/svg" width="23" height="23" viewBox="0 0 23 23" fill="none">
  <path fill-rule="evenodd" clip-rule="evenodd" d="M22.09 15.64V11.51C22.09 11.0209 22.0911 10.5317 22.0922 10.0426L22.0922 10.04C22.0944 9.06004 22.0967 8.08004 22.09 7.10004C22.07 3.23003 19.06 0.230038 15.19 0.230038C14.4901 0.230038 13.7901 0.229413 13.0902 0.228787C10.9901 0.226914 8.89006 0.225041 6.78999 0.240041C6.21999 0.250043 5.62999 0.330037 5.07999 0.480038C2.16999 1.27004 0.119995 3.97003 0.099995 7.02004C0.093327 8.90041 0.0955514 10.7852 0.0977741 12.6686C0.0988847 13.6097 0.099995 14.5504 0.099995 15.49C0.099995 19.81 3.04999 22.77 7.35999 22.77H14.96C19.07 22.77 22.08 19.75 22.09 15.64ZM21.4133 10.2372C21.4116 10.6715 21.41 11.1058 21.41 11.54C21.41 11.9945 21.4111 12.4478 21.4122 12.9C21.4144 13.8011 21.4167 14.6978 21.41 15.59C21.39 19.25 19.09 21.86 15.46 22.01C12.36 22.14 9.22999 22.09 6.12999 21.93C3.23999 21.79 0.809995 19.1 0.759995 16.16C0.709995 13.02 0.699995 9.89004 0.759995 6.75004C0.809995 3.61004 3.51999 0.95004 6.70999 0.890038C9.60999 0.830037 12.51 0.840039 15.4 0.890038C18.77 0.95004 21.35 3.61004 21.4 6.98004C21.4214 8.06576 21.4173 9.15147 21.4133 10.2372ZM10.3129 16.8254L10.314 16.8254C10.5666 16.8227 10.8187 16.82 11.07 16.82C11.07 16.82 11.07 16.83 11.06 16.84C11.3156 16.84 11.5722 16.8422 11.8292 16.8444H11.8304H11.8315C12.3481 16.8489 12.8663 16.8533 13.38 16.84C15.15 16.79 16.35 15.56 16.36 13.78C16.37 12.23 16.37 10.69 16.36 9.14001C16.34 7.41001 15.08 6.08001 13.37 6.04001C11.85 6.00001 10.33 6.00001 8.81 6.04001C7.23 6.08001 5.92 7.29001 5.88 8.78001C5.83 10.57 5.83 12.35 5.88 14.14C5.92 15.56 7.12 16.74 8.54 16.81C9.1283 16.838 9.7215 16.8317 10.3127 16.8254H10.3128H10.3129ZM15.4622 10.7707L15.4622 10.7712C15.4611 11.0277 15.46 11.2839 15.46 11.54C15.46 11.7904 15.4622 12.0408 15.4645 12.2908C15.4689 12.7896 15.4733 13.287 15.46 13.78C15.43 14.92 14.71 15.81 13.57 15.87C11.94 15.96 10.29 15.96 8.66 15.88C7.51 15.82 6.76 14.96 6.73 13.81C6.68 12.25 6.68 10.68 6.73 9.11001C6.76 7.95001 7.51 7.12 8.66 7.06001C10.27 6.98 11.89 6.97001 13.5 7.05001C14.73 7.11001 15.43 7.98001 15.46 9.22001C15.4667 9.74038 15.4644 10.2563 15.4622 10.7707ZM11.15 9.02995C12.5 9.04996 13.5 10.14 13.47 11.54C13.44 12.92 12.39 13.92 11.01 13.9C9.67999 13.87 8.71999 12.83 8.73999 11.43C8.74999 10.02 9.76999 9.00996 11.15 9.02995ZM12.54 11.44C12.53 10.71 11.8 9.97996 11.09 9.97996C10.32 9.98996 9.64999 10.71 9.66999 11.51C9.69999 12.28 10.38 12.94 11.13 12.92C11.85 12.92 12.55 12.17 12.54 11.44ZM14.1771 8.03448C14.1128 7.95876 14.0489 7.88347 14 7.81006C13.955 7.81006 13.9075 7.81256 13.86 7.81506C13.8125 7.81757 13.765 7.82006 13.72 7.82006C13.673 7.90156 13.6122 7.98403 13.5518 8.06595C13.4196 8.24538 13.2894 8.42215 13.31 8.58006C13.3305 8.74407 13.5004 8.88474 13.673 9.02758C13.753 9.09376 13.8335 9.16041 13.9 9.23007C13.961 9.15627 14.0374 9.08453 14.1137 9.01287C14.2752 8.86119 14.4364 8.70985 14.45 8.54006C14.4708 8.38042 14.323 8.20631 14.1771 8.03448Z" fill="#426C82"/>
</svg>