<svg xmlns="http://www.w3.org/2000/svg" width="23" height="23" viewBox="0 0 23 23" fill="none">
  <path fill-rule="evenodd" clip-rule="evenodd" d="M22.09 15.64V11.51C22.09 11.02 22.0911 10.53 22.0922 10.04C22.0944 9.06004 22.0967 8.08004 22.09 7.10004C22.07 3.23003 19.06 0.230042 15.19 0.230042C14.4899 0.230042 13.7897 0.229416 13.0896 0.228791C10.9897 0.226914 8.88986 0.225037 6.78999 0.240037C6.21999 0.250039 5.62999 0.330041 5.07999 0.480042C2.16999 1.27004 0.119995 3.97003 0.099995 7.02004C0.093327 8.90041 0.0955514 10.7852 0.0977741 12.6686C0.0988847 13.6097 0.099995 14.5504 0.099995 15.49C0.099995 19.81 3.04999 22.77 7.35999 22.77H14.96C19.07 22.77 22.08 19.75 22.09 15.64ZM21.4133 10.2372C21.4116 10.6715 21.41 11.1058 21.41 11.54C21.41 11.9945 21.4111 12.4478 21.4122 12.9C21.4144 13.8011 21.4167 14.6978 21.41 15.59C21.39 19.25 19.09 21.86 15.46 22.01C12.36 22.14 9.22999 22.09 6.12999 21.93C3.23999 21.79 0.809995 19.1 0.759995 16.16C0.709995 13.02 0.699995 9.89004 0.759995 6.75004C0.809995 3.61004 3.51999 0.950036 6.70999 0.890038C9.60999 0.830041 12.51 0.840035 15.4 0.890038C18.77 0.950036 21.35 3.61004 21.4 6.98004C21.4214 8.06576 21.4173 9.15147 21.4133 10.2372ZM12.8018 9.33309C13.4411 9.83189 14.2074 10.1005 14.9912 10.1005H15V8.39304C14.5752 8.39304 14.1592 8.25875 13.8046 7.99976C13.301 7.64484 12.9507 7.0789 12.8412 6.43141C12.815 6.29232 12.8062 6.14364 12.8062 5.99976H11.2342V12.8247C11.2342 12.9734 11.2123 13.1173 11.1729 13.2611C10.954 14.0285 10.2052 14.4554 9.50462 14.2156C8.80402 13.9758 8.41431 13.1556 8.63325 12.3882C8.85219 11.6209 9.60096 11.194 10.3016 11.4338V9.67841C10.1702 9.65923 10.0345 9.64964 9.90309 9.64964C8.30046 9.64964 6.99997 11.0693 6.99997 12.8247C6.99997 14.5801 8.29608 15.9998 9.89871 15.9998C11.5013 15.9998 12.8018 14.5801 12.8018 12.8247V9.33309Z" fill="#426C82"/>
</svg>