<svg xmlns="http://www.w3.org/2000/svg" width="40" height="40" viewBox="0 0 40 40" fill="none">
  <path fill-rule="evenodd" clip-rule="evenodd" d="M25.7286 14.0612H36.7154C38.5247 14.0612 39.9964 15.533 39.9964 17.3422V32.4971C39.9964 34.306 38.5247 35.778 36.7154 35.778H35.2312V39.2149C35.2312 39.517 35.0573 39.7916 34.7845 39.921C34.678 39.9714 34.5638 39.9961 34.45 39.9961C34.273 39.9961 34.0976 39.9363 33.9554 39.8197L29.0153 35.778H17.9668C16.1579 35.778 14.6862 34.306 14.6862 32.4971V25.6566C14.0994 25.7386 13.5004 25.7823 12.891 25.7823C10.0919 25.7823 7.34889 24.8601 5.12191 23.1778L1.79976 24.0463C1.50804 24.1226 1.19862 24.0243 1.00455 23.7936C0.810474 23.5629 0.766227 23.2413 0.891338 22.967L2.1992 20.0934C0.758904 17.9619 0 15.4814 0 12.891C0 10.6207 0.598701 8.38792 1.73111 6.43436C1.94776 6.06086 2.42562 5.93391 2.79882 6.15026C3.17202 6.36661 3.29926 6.84448 3.08291 7.21798C2.08813 8.93383 1.56236 10.8956 1.56236 12.891C1.56236 15.3032 2.31089 17.6061 3.72678 19.5509C3.89247 19.7788 3.92299 20.0778 3.80611 20.3342L2.99381 22.1193L5.06729 21.577C5.31324 21.5017 5.5833 21.5508 5.78714 21.715C7.81973 23.3536 10.2762 24.2199 12.891 24.2199C19.1377 24.2199 24.2199 19.1377 24.2199 12.891C24.2199 6.6443 19.1377 1.56236 12.891 1.56236C10.9008 1.56236 8.9439 2.08538 7.23171 3.07498C6.85821 3.29072 6.38035 3.16317 6.1643 2.78936C5.94856 2.41586 6.07642 1.938 6.44992 1.72226C8.39951 0.595649 10.6268 0 12.891 0C19.9991 0 25.7823 5.78287 25.7823 12.891C25.7823 13.2855 25.7634 13.6758 25.7286 14.0612ZM36.7154 34.2157C37.6632 34.2157 38.434 33.4446 38.434 32.4971V17.3422C38.434 16.3944 37.6632 15.6236 36.7154 15.6236H25.4896C24.4695 20.3323 20.8694 24.0899 16.2485 25.3377V32.4971C16.2485 33.4446 17.0193 34.2157 17.9668 34.2157H28.9934C29.4117 34.2157 29.5979 34.2157 29.8105 34.4097L33.6688 37.5665V34.9968C33.6688 34.5654 34.0185 34.2157 34.45 34.2157H36.7154ZM31.6771 26.5262C31.6771 26.8387 31.4934 27.1075 31.2286 27.2324L32.1669 29.3708C32.3405 29.766 32.1605 30.2268 31.7656 30.4001C31.6634 30.445 31.5569 30.466 31.4522 30.466C31.1514 30.466 30.8648 30.2915 30.7364 29.9985L29.5554 27.3074H25.1274L23.9465 29.9985C23.7732 30.3937 23.3124 30.5734 22.9172 30.4001C22.5224 30.2268 22.3427 29.766 22.516 29.3708L23.4543 27.2324C23.1894 27.1075 23.0057 26.8387 23.0057 26.5262C23.0057 26.0951 23.3554 25.7451 23.7869 25.7451H24.1067L26.626 20.0034C26.7505 19.7193 27.0313 19.5359 27.3413 19.5359C27.6513 19.5359 27.9321 19.7193 28.0569 20.0034L30.5762 25.7451H30.896C31.3274 25.7451 31.6771 26.0951 31.6771 26.5262ZM27.3413 22.2615L25.8128 25.7451H28.8698L27.3413 22.2615ZM4.32792 5.10879C4.53328 5.10879 4.73468 5.02518 4.88024 4.87993C5.02549 4.73468 5.1091 4.53328 5.1091 4.32761C5.1091 4.12225 5.02549 3.92085 4.88024 3.7753C4.73468 3.63004 4.53328 3.54643 4.32792 3.54643C4.12164 3.54643 3.92085 3.63004 3.7756 3.7753C3.63035 3.92085 3.54674 4.12225 3.54674 4.32761C3.54674 4.53328 3.63035 4.73468 3.7756 4.87993C3.92085 5.02549 4.12225 5.10879 4.32792 5.10879ZM7.9186 18.7059C7.7111 18.3275 7.84964 17.8527 8.22802 17.6452C10.2673 16.5271 11.6399 14.5281 11.9807 12.2697H9.24233C8.81085 12.2697 8.46115 11.92 8.46115 11.4885C8.46115 11.057 8.81085 10.7073 9.24233 10.7073H12.0643V7.45203C12.0643 7.02055 12.414 6.67085 12.8455 6.67085C13.277 6.67085 13.6267 7.02055 13.6267 7.45203V10.7073H17.1786C17.6101 10.7073 17.9598 11.057 17.9598 11.4885C17.9598 11.92 17.6101 12.2697 17.1786 12.2697H13.7103C14.0512 14.5281 15.4237 16.5268 17.463 17.6452C17.8414 17.8527 17.98 18.3275 17.7724 18.7059C17.6303 18.965 17.3626 19.1117 17.0868 19.1117C16.9598 19.1117 16.8311 19.0806 16.7118 19.0153C14.9697 18.0599 13.6298 16.5738 12.8455 14.8214C12.0616 16.5738 10.7214 18.0599 8.9793 19.0153C8.85998 19.0806 8.73121 19.1117 8.60427 19.1117C8.32841 19.1117 8.0608 18.965 7.9186 18.7059Z" fill="white"/>
</svg>