<svg xmlns="http://www.w3.org/2000/svg" width="36" height="36" viewBox="0 0 36 36" fill="none">
  <path fill-rule="evenodd" clip-rule="evenodd" d="M35.2417 20.6607C35.2103 19.7234 35.179 18.7869 35.179 17.855C35.2432 17.855 35.3235 17.855 35.3878 17.8864C35.3878 17.1173 35.3896 16.3464 35.3914 15.575C35.3949 14.0304 35.3984 12.4835 35.3878 10.9435C35.3557 4.75468 30.569 0.0580557 24.2562 0.0423487C23.2313 0.0386084 22.2064 0.0304163 21.1815 0.0222243C17.9016 -0.00399033 14.6217 -0.0302049 11.3418 0.0894736C9.63916 0.152304 7.84008 0.544998 6.31408 1.25185C2.18603 3.1839 0.274532 6.71815 0.0977744 11.0535C-0.0627481 15.2161 0.0014609 19.41 0.0977744 23.5726C0.130001 25.0648 0.354854 26.5885 0.78857 28.0179C2.15393 32.5417 6.23376 35.432 11.0526 35.432H24.6739C29.8622 35.4162 34.4562 31.8349 35.1147 26.8241C35.3799 24.7932 35.3107 22.7251 35.2417 20.6607ZM34.3508 15.2149C34.3473 16.0631 34.3437 16.9119 34.3437 17.7607C34.3597 20.1483 34.3597 22.5359 34.3597 24.9235C34.3437 29.9656 30.1352 34.2853 24.9791 34.3795C20.2085 34.4738 15.4377 34.4738 10.6671 34.3795C5.84826 34.2853 1.63989 30.5311 1.39892 25.8188C1.14196 20.6038 1.01342 15.3417 1.36682 10.1424C1.7362 4.64472 5.54309 1.34609 11.1811 1.18901C16.0321 1.06335 20.8831 1.12618 25.718 1.31468C30.1995 1.47176 34.2634 5.74427 34.3437 10.1424C34.3651 11.8278 34.358 13.5202 34.3508 15.2149ZM22.4368 15.5537C22.4535 15.4144 22.4712 15.2663 22.4897 15.1064C22.2423 15.1064 22.0041 15.1108 21.7722 15.1152C21.2512 15.125 20.7622 15.1341 20.2731 15.0907C19.9679 15.0749 19.5181 14.965 19.4056 14.7451C18.6025 13.2843 19.5824 11.5564 21.2368 11.5878C22.313 11.6035 22.6664 11.258 22.6182 10.2212L22.6118 10.0457C22.5561 8.49337 22.5561 8.49284 20.8513 8.47768C20.696 8.47768 20.5408 8.47594 20.3855 8.47419C20.0749 8.4707 19.7644 8.46721 19.4539 8.47768C17.7994 8.55622 16.3055 9.75001 15.9842 11.3365C15.8236 12.1219 15.7273 12.923 15.7915 13.7084C15.8718 14.7922 15.5184 15.2634 14.378 15.1221C14.0247 15.0907 13.334 15.2006 13.3179 15.3106C13.1893 16.2373 13.0769 17.1955 13.2054 18.1065C13.2375 18.3265 14.1531 18.5464 14.6511 18.5464C15.5024 18.5464 15.8076 18.8448 15.7755 19.6773C15.7112 21.3581 15.7273 23.0231 15.7594 24.6881C15.7833 26.007 15.6566 26.5931 15.8915 26.8548C16.1293 27.1197 16.7378 27.052 18.2491 27.0757C19.0684 27.0914 19.3253 26.7929 19.3093 26.0076C19.2932 24.939 19.2972 23.8744 19.3013 22.8118C19.3053 21.75 19.3092 20.6901 19.2932 19.6302C19.2772 18.8605 19.5502 18.5621 20.3694 18.5621C22.1495 18.5464 22.1523 18.5151 22.3123 16.7641L22.313 16.7557C22.3378 16.3814 22.3813 16.0164 22.4368 15.5537Z" fill="white"/>
</svg>