<svg xmlns="http://www.w3.org/2000/svg" width="36" height="36" viewBox="0 0 36 36" fill="none">
  <path fill-rule="evenodd" clip-rule="evenodd" d="M35.7242 24.2096V17.7223C35.7242 17.0007 35.7258 16.2791 35.7274 15.5576L35.7278 15.4132C35.7313 13.8739 35.7349 12.3345 35.7242 10.7952C35.6921 4.71625 30.8572 0.00392582 24.6409 0.00392582C23.5166 0.00392582 22.3923 0.00294544 21.2681 0.00196316C17.8948 -0.00098179 14.5215 -0.00392674 11.1482 0.0196366C10.2325 0.0353456 9.28491 0.161004 8.40137 0.39662C3.72717 1.63753 0.434326 5.87863 0.4021 10.6695C0.391479 13.6231 0.39502 16.5838 0.39856 19.5421L0.398926 19.821C0.400513 21.2062 0.4021 22.5908 0.4021 23.974C0.4021 30.7597 5.14062 35.4092 12.0637 35.4092H24.2715C30.8733 35.4092 35.7081 30.6655 35.7242 24.2096ZM34.6371 15.724C34.6345 16.4058 34.632 17.0876 34.632 17.7694C34.632 18.4833 34.6338 19.1953 34.6356 19.9057V19.9109V19.916C34.6392 21.328 34.6427 22.733 34.632 24.1311C34.5999 29.8801 30.9054 33.9798 25.0746 34.2154C20.0951 34.4196 15.0675 34.3411 10.088 34.0898C5.44592 33.8699 1.5426 29.6445 1.46228 25.0264C1.38196 20.0942 1.36597 15.1776 1.46228 10.2454C1.5426 5.31315 5.89563 1.13488 11.0197 1.04064C15.6779 0.946391 20.3361 0.9621 24.9783 1.04064C30.3914 1.13488 34.5356 5.31316 34.6158 10.6067C34.6503 12.3125 34.6437 14.0182 34.6371 15.724ZM16.8074 26.0714C17.2136 26.0672 17.6193 26.063 18.0234 26.063C18.0234 26.063 18.0234 26.0686 18.02 26.0764C18.019 26.0787 18.0177 26.0813 18.016 26.0839C18.0138 26.0873 18.011 26.0908 18.0073 26.0944C18.4189 26.0944 18.8324 26.0979 19.2465 26.1014C20.0764 26.1084 20.9087 26.1154 21.7339 26.0944C24.577 26.0159 26.5045 24.0838 26.5206 21.2878C26.5367 18.8531 26.5367 16.4341 26.5206 13.9994C26.4885 11.282 24.4646 9.19284 21.7179 9.13001C19.2764 9.06718 16.8347 9.06718 14.3932 9.13001C11.8553 9.19284 9.7511 11.0935 9.68677 13.4339C9.60657 16.2456 9.60657 19.0416 9.68677 21.8533C9.7511 24.0838 11.6786 25.9373 13.9595 26.0473C14.9047 26.0913 15.8575 26.0814 16.8074 26.0714ZM25.0786 16.5609V16.5627V16.5644C25.0768 16.9664 25.075 17.3679 25.075 17.7693C25.075 18.1626 25.0785 18.5558 25.082 18.9485C25.0892 19.7322 25.0963 20.5135 25.075 21.2878C25.0267 23.0785 23.8702 24.4765 22.0391 24.5708C19.4209 24.7121 16.7705 24.7121 14.1522 24.5865C12.3051 24.4922 11.1003 23.1413 11.0521 21.3349C10.9718 18.8845 10.9718 16.4184 11.0521 13.9523C11.1003 12.1302 12.3051 10.8264 14.1522 10.7322C16.7384 10.6065 19.3406 10.5908 21.9266 10.7165C23.9023 10.8107 25.0267 12.1773 25.075 14.1251C25.0857 14.9425 25.0822 15.7529 25.0786 16.5609ZM18.1516 13.827C20.3202 13.8584 21.9264 15.5706 21.8782 17.7696C21.8301 19.9373 20.1434 21.5081 17.9268 21.4767C15.7904 21.4296 14.2484 19.7959 14.2805 17.5969C14.2966 15.3821 15.9349 13.7956 18.1516 13.827ZM20.3844 17.6126C20.3683 16.4659 19.1957 15.3192 18.0553 15.3192C16.8185 15.3349 15.7422 16.4659 15.7744 17.7225C15.8225 18.932 16.9148 19.9687 18.1195 19.9373C19.276 19.9373 20.4004 18.7592 20.3844 17.6126ZM23.0137 12.2632C22.9104 12.1443 22.8077 12.026 22.7291 11.9106C22.6758 11.9106 22.6202 11.9128 22.5641 11.9155C22.4681 11.9201 22.3705 11.9264 22.2793 11.9264C22.2037 12.0544 22.1061 12.184 22.0092 12.3128C21.7969 12.5946 21.5878 12.8722 21.6207 13.1201C21.6537 13.3777 21.9266 13.5987 22.2039 13.823C22.3323 13.927 22.4617 14.0317 22.5685 14.1412C22.6664 14.0252 22.7891 13.9126 22.9116 13.8C23.1711 13.5617 23.4301 13.324 23.4519 13.0573C23.4854 12.8066 23.2479 12.5331 23.0137 12.2632Z" fill="white"/>
</svg>