<svg xmlns="http://www.w3.org/2000/svg" width="23" height="23" viewBox="0 0 23 23" fill="none">
<path fill-rule="evenodd" clip-rule="evenodd" d="M22.09 15.4125V11.2825C22.09 10.7925 22.0911 10.3025 22.0922 9.8125C22.0945 8.8325 22.0967 7.8525 22.09 6.8725C22.07 3.0025 19.06 0.00250275 15.19 0.00250275C14.4898 0.00250275 13.7896 0.00187706 13.0894 0.00125137C10.9896 -0.000625 8.88983 -0.00250137 6.79003 0.0124973C6.22003 0.0224973 5.63003 0.102503 5.08003 0.252503C2.17003 1.0425 0.120026 3.7425 0.100026 6.7925C0.0933578 8.67287 0.0955814 10.5577 0.0978049 12.441C0.0989156 13.3821 0.100026 14.3229 0.100026 15.2625C0.100026 19.5825 3.05003 22.5425 7.36003 22.5425H14.96C19.07 22.5425 22.08 19.5225 22.09 15.4125ZM21.4133 10.0096C21.4117 10.4439 21.41 10.8782 21.41 11.3125C21.41 11.767 21.4111 12.2203 21.4123 12.6725C21.4145 13.5736 21.4167 14.4703 21.41 15.3625C21.39 19.0225 19.09 21.6325 15.46 21.7825C12.36 21.9125 9.23003 21.8625 6.13003 21.7025C3.24003 21.5625 0.810026 18.8725 0.760026 15.9325C0.710026 12.7925 0.700026 9.6625 0.760026 6.5225C0.810026 3.3825 3.52003 0.722499 6.71003 0.662499C9.61003 0.602499 12.51 0.612499 15.4 0.662499C18.77 0.722499 21.35 3.3825 21.4 6.7525C21.4215 7.83822 21.4174 8.92393 21.4133 10.0096ZM11.0256 5C12.6229 5 14.1231 5.6202 15.2527 6.7429C16.3805 7.86735 17.0018 9.36076 17 10.9508C17 14.2293 14.319 16.8963 11.0256 16.8963H11.0238C10.0231 16.8963 9.04001 16.6469 8.16811 16.1725L5 17L5.84718 13.9183C5.32475 13.017 5.04942 11.9927 5.04942 10.9455C5.05118 7.66706 7.73217 5 11.0256 5ZM11.0238 15.8914H11.0256C13.7631 15.8914 15.9904 13.6758 15.9904 10.949C15.9922 9.62782 15.4751 8.38741 14.5379 7.45271C13.6007 6.51801 12.3546 6.00322 11.0274 6.00322C8.28813 6.00322 6.06074 8.2205 6.05898 10.9455C6.05898 11.8802 6.32196 12.7886 6.81791 13.5775L6.93617 13.7637L6.43492 15.5874L8.3146 15.0955L8.4964 15.2026C9.25886 15.6524 10.1325 15.8914 11.0238 15.8914ZM12.7288 11.7081C12.8664 11.7572 13.5989 12.1174 13.7489 12.1912C13.7772 12.2051 13.8036 12.2177 13.8281 12.2294C13.934 12.2798 14.0048 12.3135 14.0349 12.3634C14.0719 12.4249 14.0719 12.7218 13.9484 13.0697C13.8231 13.4176 13.2265 13.7338 12.9406 13.776C12.6829 13.8146 12.3581 13.8305 11.9999 13.718C11.7828 13.6495 11.5057 13.5581 11.1491 13.4053C9.74958 12.8047 8.80423 11.4546 8.62514 11.1988C8.61249 11.1807 8.60366 11.1681 8.59876 11.1616C8.59735 11.1597 8.59577 11.1576 8.59403 11.1553C8.50445 11.0346 7.98985 10.3413 7.98985 9.6243C7.98985 8.94429 8.32443 8.5867 8.48047 8.41994C8.49214 8.40746 8.50282 8.39605 8.51228 8.38565C8.64995 8.23631 8.81232 8.19941 8.91116 8.19941C9.01 8.19941 9.1106 8.20117 9.19709 8.20468C9.20744 8.20508 9.21817 8.20494 9.22925 8.2048C9.31634 8.20366 9.42439 8.20225 9.53243 8.45944C9.57661 8.56476 9.6423 8.7238 9.71046 8.88883C9.83561 9.19185 9.96909 9.51504 9.99309 9.56281C10.0302 9.6366 10.0549 9.72445 10.0054 9.82284C9.99581 9.84134 9.98712 9.85861 9.97887 9.87501C9.94321 9.94583 9.91561 10.0007 9.85542 10.0706C9.82611 10.1038 9.79602 10.1402 9.76625 10.1762C9.71893 10.2334 9.67244 10.2896 9.63127 10.3306L9.63119 10.3307C9.55708 10.4062 9.47951 10.4853 9.56597 10.6346C9.65421 10.7839 9.95426 11.2706 10.3973 11.6641C10.8774 12.0903 11.2937 12.2697 11.5027 12.3598C11.5419 12.3767 11.5738 12.3904 11.5974 12.402C11.7457 12.4758 11.8339 12.4635 11.9204 12.3652C12.0087 12.265 12.2946 11.9312 12.3934 11.7818C12.4923 11.6343 12.5911 11.6589 12.7288 11.7081Z" fill="white"/>
</svg>