<svg xmlns="http://www.w3.org/2000/svg" width="23" height="24" viewBox="0 0 23 24" fill="none">
  <path fill-rule="evenodd" clip-rule="evenodd" d="M21.939 14.1361C21.9195 13.5394 21.9 12.9433 21.9 12.35C21.94 12.35 21.99 12.35 22.03 12.37C22.03 11.8804 22.0311 11.3896 22.0322 10.8985C22.0344 9.91518 22.0367 8.93036 22.03 7.94999C22.01 4.00999 19.03 1.01999 15.1 1.00999C14.4619 1.00761 13.8238 1.0024 13.1857 0.997183C11.1438 0.980492 9.10191 0.963802 7.05999 1.03999C5.99999 1.07999 4.87999 1.32999 3.92999 1.77999C1.35999 3.00999 0.169995 5.25999 0.0599946 8.01999C-0.0400054 10.67 -5.43701e-06 13.34 0.0599946 15.99C0.0799946 16.94 0.219995 17.91 0.489995 18.82C1.33999 21.7 3.87999 23.54 6.87999 23.54H15.36C18.59 23.53 21.45 21.25 21.86 18.06C22.0251 16.767 21.982 15.4504 21.939 14.1361ZM21.3844 10.6693C21.3822 11.2093 21.38 11.7496 21.38 12.29C21.39 13.81 21.39 15.33 21.39 16.85C21.38 20.06 18.76 22.81 15.55 22.87C12.58 22.93 9.60999 22.93 6.63999 22.87C3.63999 22.81 1.01999 20.42 0.869995 17.42C0.709995 14.1 0.629995 10.75 0.849995 7.43999C1.07999 3.93999 3.44999 1.83999 6.95999 1.73999C9.97999 1.65999 13 1.69999 16.01 1.81999C18.8 1.91999 21.33 4.63999 21.38 7.43999C21.3933 8.51295 21.3889 9.59036 21.3844 10.6693ZM13.967 10.8851C13.9774 10.7963 13.9884 10.7019 14 10.6001C13.846 10.6001 13.6977 10.6029 13.5533 10.6057C13.229 10.6119 12.9245 10.6177 12.62 10.5901C12.43 10.5801 12.15 10.5101 12.08 10.3701C11.58 9.44005 12.19 8.34005 13.22 8.36005C13.89 8.37006 14.11 8.15005 14.08 7.49005C14.0786 7.45145 14.0773 7.4142 14.076 7.37825C14.0414 6.39005 14.0414 6.38971 12.98 6.38005C12.8833 6.38005 12.7867 6.37894 12.69 6.37783C12.4967 6.37561 12.3033 6.37339 12.11 6.38005C11.08 6.43005 10.15 7.19006 9.94999 8.20005C9.84999 8.70005 9.78999 9.21005 9.82999 9.71005C9.87999 10.4001 9.65999 10.7001 8.94999 10.6101C8.72999 10.5901 8.29999 10.6601 8.28999 10.7301C8.20999 11.3201 8.13999 11.9301 8.21999 12.5101C8.23999 12.6501 8.80999 12.7901 9.11999 12.7901C9.64999 12.7901 9.83999 12.9801 9.81999 13.5101C9.77999 14.5801 9.78999 15.6401 9.80999 16.7001C9.82498 17.5443 9.74514 17.9169 9.89457 18.0821C10.0443 18.2476 10.4241 18.205 11.36 18.2201C11.87 18.2301 12.03 18.0401 12.02 17.5401C12.01 16.8598 12.0125 16.1821 12.015 15.5056C12.0175 14.8296 12.02 14.1548 12.01 13.4801C12 12.9901 12.17 12.8001 12.68 12.8001C13.7882 12.7901 13.79 12.7701 13.8895 11.6554L13.89 11.6501C13.9054 11.4118 13.9325 11.1795 13.967 10.8851Z" fill="#426C82"/>
</svg>