<svg xmlns="http://www.w3.org/2000/svg" width="37" height="36" viewBox="0 0 37 36" fill="none">
  <path fill-rule="evenodd" clip-rule="evenodd" d="M36.0607 24.2096V17.7223C36.0607 16.9526 36.0625 16.1829 36.0642 15.4133C36.0677 13.8739 36.0713 12.3345 36.0607 10.7952C36.0286 4.71626 31.1936 0.00393105 24.9773 0.00393105C23.8525 0.00393105 22.7278 0.00294876 21.603 0.00196648C18.2302 -0.000982284 14.8574 -0.00392914 11.4846 0.0196304C10.569 0.0353374 9.62134 0.161009 8.73779 0.396626C4.0636 1.63754 0.770752 5.87863 0.738525 10.6695C0.727905 13.6231 0.731445 16.5838 0.734985 19.5421C0.736694 21.0203 0.738525 22.498 0.738525 23.974C0.738525 30.7597 5.47705 35.4092 12.4001 35.4092H24.6079C31.2097 35.4092 36.0446 30.6655 36.0607 24.2096ZM34.9735 15.724C34.9709 16.4058 34.9684 17.0876 34.9684 17.7694C34.9684 18.4833 34.9702 19.1953 34.972 19.9057C34.9756 21.3211 34.9791 22.7296 34.9684 24.1311C34.9363 29.8801 31.2418 33.9798 25.411 34.2155C20.4315 34.4197 15.4039 34.3411 10.4244 34.0898C5.78235 33.8699 1.87903 29.6445 1.79871 25.0264C1.71838 20.0942 1.70239 15.1776 1.79871 10.2454C1.87903 5.31315 6.23206 1.13488 11.3561 1.04064C16.0143 0.946392 20.6725 0.962099 25.3147 1.04064C30.7278 1.13488 34.8721 5.31316 34.9523 10.6067C34.9867 12.3125 34.9801 14.0182 34.9735 15.724ZM21.2059 14.2917C22.3217 15.1029 23.6591 15.5397 25.0269 15.5397H25.0421V12.7629C24.3009 12.7629 23.575 12.5445 22.9559 12.1233C22.0771 11.5461 21.4658 10.6257 21.2748 9.57272C21.2289 9.34653 21.2136 9.10473 21.2136 8.87073H18.4702V19.9701C18.4702 20.2119 18.432 20.4459 18.3633 20.6799C17.9811 21.9279 16.6744 22.622 15.4517 22.232C14.229 21.8421 13.5488 20.5083 13.9309 19.2603C14.3131 18.0123 15.6198 17.3181 16.8425 17.7081V14.8533C16.6133 14.8221 16.3763 14.8065 16.1471 14.8065C13.3502 14.8065 11.0806 17.1153 11.0806 19.9701C11.0806 22.8248 13.3425 25.1336 16.1394 25.1336C18.9364 25.1336 21.2059 22.8248 21.2059 19.9701V14.2917Z" fill="white"/>
</svg>