<svg xmlns="http://www.w3.org/2000/svg" width="420" height="130" viewBox="0 0 420 130" fill="none">
  <g clip-path="url(#clip0)">
  <path d="M145.113 36.2694C144.707 36.6769 144.301 36.6769 143.895 36.6769H137.807C136.792 36.6769 136.183 36.0657 136.183 34.8431V8.76159C136.183 6.31645 136.589 4.68635 137.604 3.66754C138.619 2.64873 140.242 2.24121 142.475 2.24121H146.737C152.014 2.24121 155.667 2.64873 157.696 3.46378C160.944 4.89011 162.567 7.94654 162.567 12.8368C162.567 15.282 162.161 17.5233 161.147 19.1534C160.335 20.7835 158.508 22.2099 155.87 23.0249C153.637 23.6362 150.796 24.0437 146.94 24.0437H145.316V35.0469C145.722 35.6581 145.519 36.0657 145.113 36.2694ZM147.549 16.9121C149.172 16.9121 150.39 16.7083 151.202 16.5045C152.623 16.097 153.231 15.0782 153.231 13.4481C153.231 11.6143 152.623 10.3917 151.405 9.98416C150.593 9.7804 149.375 9.57663 147.549 9.57663H146.737C145.925 9.57663 145.519 9.98416 145.519 11.003V16.9121H147.549Z" fill="#52BFB9"/>
  <path d="M173.324 36.2696C172.918 36.6771 172.512 36.6771 172.106 36.6771H166.017C165.003 36.6771 164.597 36.0658 164.597 35.047V16.9122C164.597 16.0972 164.8 15.2821 165.003 14.8746C165.206 14.2633 165.814 13.8558 166.423 13.4483C167.438 12.837 168.859 12.4295 170.888 12.0219C172.918 11.6144 174.947 11.4106 176.774 11.4106C178.804 11.4106 180.224 11.6144 181.036 11.8182C181.848 12.0219 182.051 12.6332 182.051 13.4483C182.051 15.2821 181.848 16.9122 181.645 17.931C181.442 18.5423 181.036 18.9498 180.021 18.9498C179.818 18.9498 179.209 18.9498 178.398 18.9498C177.586 18.9498 176.977 18.9498 176.571 18.9498C175.556 18.9498 174.947 18.9498 174.339 19.1536C174.136 19.1536 173.933 19.3574 173.73 19.5611C173.73 19.7649 173.527 20.1724 173.527 20.7837V35.047C173.73 35.6583 173.527 36.0658 173.324 36.2696Z" fill="#52BFB9"/>
  <path d="M220.613 36.2696C220.41 36.6771 220.004 36.6771 219.598 36.6771H213.306C212.494 36.6771 211.886 36.0658 211.886 35.047V19.1536H210.059C208.841 19.1536 208.232 18.5423 208.232 17.3198V13.8558C208.232 13.4483 208.435 13.0408 208.638 12.6332C208.841 12.2257 209.247 12.0219 209.856 12.0219H211.886V10.3918C211.886 6.72414 212.697 4.279 214.321 2.85266C216.554 1.01881 220.207 0 225.281 0C226.904 0 227.716 0.407524 227.716 1.42633C227.716 2.03762 227.716 3.26019 227.716 5.29781C227.716 6.31661 227.107 6.9279 226.093 6.9279C224.469 7.13166 223.251 7.13166 222.642 7.53919C222.033 7.74295 221.627 8.15047 221.425 8.55799C221.222 8.96552 221.019 9.78057 221.019 11.0031V12.2257H224.469C225.687 12.2257 226.093 12.837 226.093 14.0596V17.7273C226.093 18.7461 225.484 19.3574 224.266 19.3574H220.816V35.4545C221.019 35.6583 221.019 36.0658 220.613 36.2696Z" fill="#52BFB9"/>
  <path d="M249.026 35.0472C248.62 35.4547 248.012 35.8622 246.997 36.2697C245.982 36.6773 244.358 36.881 242.126 37.0848C239.893 37.2885 238.067 37.4923 236.443 37.4923C232.587 37.4923 230.151 36.6773 228.731 35.2509C227.31 33.8246 226.701 31.787 226.701 29.3418C226.701 26.4892 227.513 24.4515 229.34 23.0252C230.963 22.0064 233.602 21.3951 237.255 21.3951C238.27 21.3951 239.487 21.3951 240.705 21.5989V21.1914C240.705 20.5801 240.705 20.1725 240.502 19.765C240.299 19.1537 239.081 18.7462 237.255 18.7462C235.834 18.7462 234.413 18.7462 232.993 18.95C231.775 19.1537 230.963 19.1537 230.557 19.1537C229.746 19.1537 229.34 18.7462 229.137 17.9312C228.731 16.7086 228.731 15.486 228.731 14.0597C228.731 13.2446 229.137 12.6334 229.948 12.2258C231.978 11.4108 235.022 11.207 238.473 11.207C243.344 11.207 246.388 11.8183 247.809 13.2446C249.026 14.4672 249.635 16.7086 249.635 19.9688V31.9907C249.635 33.6208 249.432 34.6396 249.026 35.0472ZM238.473 26.8967C237.052 26.8967 236.037 27.1004 235.631 27.3042C235.225 27.7117 235.022 28.1193 235.022 28.9343C235.022 30.1569 235.834 30.7682 237.458 30.7682C238.676 30.7682 239.487 30.5644 240.096 30.3606C240.299 30.1569 240.502 29.9531 240.502 29.7494C240.502 29.3418 240.502 28.9343 240.502 28.1193V27.1004C240.096 27.1004 239.284 26.8967 238.473 26.8967Z" fill="#52BFB9"/>
  <path d="M253.897 13.6521C253.897 12.6333 254.303 12.022 255.318 12.022H261.407C262.421 12.022 262.827 12.6333 262.827 13.6521V26.8966C262.827 27.9154 262.827 28.5267 263.03 28.9342C263.233 29.7492 264.045 29.953 265.263 29.953C266.075 29.953 266.886 29.953 267.292 29.7493C267.901 29.5455 268.104 29.5455 268.307 29.3417C268.51 29.138 268.713 28.7304 268.713 28.3229V13.6521C268.713 13.0408 268.916 12.6333 269.119 12.4295C269.322 12.2257 269.728 12.022 270.337 12.022H276.425C277.44 12.022 277.846 12.6333 277.846 13.6521V32.6019C277.846 34.232 277.237 35.4546 275.816 35.8621C273.178 36.8809 269.322 37.2884 264.045 37.2884C260.798 37.2884 258.565 37.0847 257.145 36.4734C255.724 35.8621 254.912 35.0471 254.303 34.0282C253.897 32.8057 253.694 30.9718 253.694 28.3229V13.6521H253.897Z" fill="#52BFB9"/>
  <path d="M290.835 36.2697C290.633 36.4735 290.227 36.6773 289.618 36.6773H283.529C282.514 36.6773 282.108 36.066 282.108 35.0472V16.5048C282.108 14.8747 282.717 13.8559 284.138 13.2446C285.559 12.6334 287.791 12.2258 290.43 11.8183C293.271 11.4108 295.706 11.207 298.142 11.207C302.404 11.207 304.839 12.2258 305.651 14.2635C306.057 15.2823 306.26 16.7086 306.26 19.1537V35.0472C306.26 36.066 305.854 36.6773 304.839 36.6773H298.751C297.736 36.6773 297.33 36.066 297.33 35.0472V21.3951C297.33 20.5801 297.33 20.1725 297.127 19.765C296.924 18.95 296.112 18.7462 294.895 18.7462C294.286 18.7462 293.474 18.7462 292.662 18.95C292.256 19.1537 291.85 19.1537 291.647 19.3575C291.444 19.5613 291.241 19.9688 291.241 20.3763V35.0472C291.241 35.6584 291.241 36.066 290.835 36.2697Z" fill="#52BFB9"/>
  <path d="M332.035 35.0472C331.629 35.4547 331.02 35.8622 330.006 36.2697C328.991 36.6773 327.367 36.881 325.135 37.0848C322.902 37.2885 321.075 37.4923 319.452 37.4923C315.596 37.4923 313.16 36.6773 311.74 35.2509C310.319 33.8246 309.71 31.787 309.71 29.3418C309.71 26.4892 310.522 24.4515 312.348 23.0252C313.972 22.0064 316.61 21.3951 320.264 21.3951C321.278 21.3951 322.496 21.3951 323.714 21.5989V21.1914C323.714 20.5801 323.714 20.1725 323.511 19.765C323.308 19.1537 322.09 18.7462 320.264 18.7462C318.843 18.7462 317.219 18.7462 316.002 18.95C314.784 19.1537 313.972 19.1537 313.566 19.1537C312.754 19.1537 312.348 18.7462 312.145 17.9312C311.74 16.7086 311.74 15.486 311.74 14.0597C311.74 13.2446 312.145 12.6334 312.957 12.2258C314.987 11.4108 318.031 11.207 321.481 11.207C326.352 11.207 329.397 11.8183 330.817 13.2446C332.035 14.4672 332.644 16.7086 332.644 19.9688V31.9907C332.644 33.6208 332.441 34.6396 332.035 35.0472ZM321.481 26.8967C320.061 26.8967 319.046 27.1004 318.64 27.3042C318.234 27.7117 318.031 28.1193 318.031 28.9343C318.031 30.1569 318.843 30.7682 320.467 30.7682C321.684 30.7682 322.496 30.5644 323.105 30.3606C323.308 30.1569 323.511 29.9531 323.511 29.7494C323.511 29.3418 323.511 28.9343 323.511 28.1193V27.1004C323.105 27.1004 322.293 26.8967 321.481 26.8967Z" fill="#52BFB9"/>
  <path d="M153.232 107.383C152.623 107.994 151.811 108.198 150.999 108.198H139.431C137.401 108.198 136.386 107.179 136.386 104.937V53.9969C136.386 50.3292 137.401 47.4766 139.228 45.6427C141.257 43.8088 143.896 42.79 147.346 42.79H174.948C175.963 42.79 176.774 42.9938 177.383 43.4013C177.789 43.8088 178.195 44.6239 178.195 45.8465V55.0157C178.195 56.8496 177.18 57.6646 174.948 57.6646H156.885C155.058 57.6646 154.043 58.6835 154.043 60.9248V69.4828H171.092C172.106 69.4828 172.918 69.6866 173.527 70.0941C173.933 70.5016 174.339 71.3167 174.339 72.5392V81.7085C174.339 83.5424 173.324 84.3574 171.295 84.3574H154.246V104.937C154.043 105.956 153.84 106.771 153.232 107.383Z" fill="#456CAA"/>
  <path d="M221.831 104.937C221.019 105.752 219.801 106.567 217.974 106.975C215.945 107.586 212.901 108.197 208.639 108.605C204.376 109.013 200.926 109.216 197.882 109.216C190.778 109.216 185.907 107.79 183.269 105.141C180.631 102.288 179.21 98.6207 179.21 93.9341C179.21 88.6363 180.834 84.5611 184.284 82.1159C187.125 80.0783 192.199 78.8558 199.506 78.8558C201.535 78.8558 203.768 78.8558 206.203 79.0595V78.4482C206.203 77.2257 206 76.4106 205.797 75.5956C205.391 74.373 203.362 73.7617 199.708 73.7617C196.867 73.7617 194.026 73.9655 191.387 74.373C189.155 74.7805 187.531 74.9843 186.719 74.9843C185.299 74.9843 184.487 74.1692 184.081 72.5391C183.472 70.094 183.066 67.6489 183.066 65.2037C183.066 63.3699 183.878 62.3511 185.502 61.7398C189.561 60.3134 195.041 59.7021 201.738 59.7021C210.871 59.7021 216.757 61.1285 219.395 63.7774C221.831 66.2225 223.048 70.5015 223.048 76.6144V99.8432C223.251 102.288 222.845 104.122 221.831 104.937ZM201.941 89.6551C199.1 89.6551 197.476 90.0627 196.664 90.6739C195.852 91.2852 195.446 92.304 195.446 93.7304C195.446 96.1755 196.867 97.3981 199.911 97.3981C202.347 97.3981 203.971 97.1943 204.985 96.583C205.594 96.3793 205.797 95.9718 206 95.3605C206.203 94.7492 206.203 93.7304 206.203 92.1003V90.0627C204.985 89.6551 203.565 89.6551 201.941 89.6551Z" fill="#456CAA"/>
  <path d="M249.229 107.383C248.621 107.994 248.012 108.198 247.2 108.198H235.631C233.805 108.198 232.79 107.179 232.79 105.141V69.483C232.79 66.6304 234.008 64.7965 236.24 63.9815C243.547 61.3326 251.868 59.9062 261.407 59.9062C267.292 59.9062 271.149 61.1288 272.975 63.7777C276.628 61.3326 282.311 59.9062 290.429 59.9062C298.142 59.9062 302.607 61.9439 304.027 65.8153C304.636 67.6492 305.042 70.7056 305.042 74.9846V104.938C305.042 106.975 304.027 107.994 302.201 107.994H290.632C288.806 107.994 287.791 106.975 287.791 104.938V79.0598C287.791 77.6335 287.791 76.6147 287.588 76.0034C287.182 74.5771 285.761 73.9658 283.326 73.9658C282.311 73.9658 281.296 74.1696 280.282 74.3733C279.47 74.5771 278.658 74.9846 278.049 75.3921C277.643 75.7997 277.44 76.2072 277.44 77.0222C277.44 77.226 277.44 77.6335 277.44 78.041C277.44 78.6523 277.44 78.8561 277.44 79.0598V105.141C277.44 107.179 276.425 108.198 274.599 108.198H263.03C261.204 108.198 260.189 107.179 260.189 105.141V79.0598C260.189 77.6335 260.189 76.6147 259.986 76.0034C259.58 74.5771 258.159 73.9658 255.927 73.9658C254.912 73.9658 253.897 74.1696 252.68 74.3733C251.462 74.7809 250.65 75.1884 250.244 75.5959C250.041 76.0034 249.838 77.0222 249.838 78.6523V105.141C250.244 106.16 249.838 106.771 249.229 107.383Z" fill="#456CAA"/>
  <path d="M323.917 58.6835C318.437 58.6835 315.799 56.4421 315.799 52.1631C315.799 47.6803 318.437 45.439 323.917 45.439C326.556 45.439 328.585 45.8465 330.006 46.8653C331.427 47.8841 332.035 49.5142 332.035 51.9593C332.238 56.4421 329.397 58.6835 323.917 58.6835ZM329.803 108.198H318.234C316.408 108.198 315.393 107.179 315.393 105.141V64.3888C315.393 62.3512 316.408 61.3324 318.234 61.3324H329.803C330.818 61.3324 331.63 61.5361 331.832 62.1474C332.238 62.555 332.441 63.37 332.441 64.3888V105.141C332.644 107.179 331.63 108.198 329.803 108.198Z" fill="#456CAA"/>
  <path d="M360.855 93.1192C361.464 94.7493 363.291 95.7681 366.132 96.1757C367.756 96.3794 368.568 97.3982 368.568 99.2321C368.568 102.085 368.365 104.122 368.162 105.549C367.959 106.771 367.553 107.586 366.944 107.994C366.335 108.401 365.32 108.605 364.102 108.605C358.826 108.605 354.767 108.198 352.128 107.179C349.49 106.16 347.257 104.53 345.634 102.289C343.807 99.8434 342.995 95.3606 342.995 89.2478V41.975C342.995 39.9374 344.01 38.7148 345.836 38.7148H357.405C358.42 38.7148 359.232 38.9186 359.435 39.5299C359.84 39.9374 360.043 40.7525 360.043 41.7713V87.2101C360.246 90.0628 360.449 91.8967 360.855 93.1192Z" fill="#456CAA"/>
  <path d="M374.047 64.3889C374.047 62.3513 375.062 61.3325 376.889 61.3325H388.457C390.284 61.3325 391.298 62.3513 391.298 64.3889V90.2667C391.298 91.693 391.298 92.7118 391.501 93.3231C391.907 94.7494 393.328 95.3607 395.763 95.3607C397.184 95.3607 398.402 95.157 399.823 94.9532C400.634 94.7494 401.243 94.3419 401.649 94.1382C402.055 93.7306 402.258 93.1194 402.258 92.1005V64.3889C402.258 63.3701 402.461 62.5551 403.07 62.1476C403.679 61.5363 404.288 61.3325 405.099 61.3325H416.668C418.495 61.3325 419.509 62.3513 419.509 64.3889V103.104C419.509 109.013 419.306 113.088 418.697 115.329C417.48 120.831 413.624 124.499 407.332 126.74C401.04 128.981 392.719 130 382.165 130C380.948 130 379.933 129.796 379.527 129.389C378.918 128.981 378.715 128.166 378.512 127.148C378.309 125.314 378.106 122.869 378.106 120.22C378.106 117.775 379.121 116.552 381.151 116.348C388.66 115.941 393.937 115.533 396.575 114.718C399.417 114.107 401.04 112.884 401.243 111.662C401.446 110.847 401.649 109.624 401.649 108.198V107.383C398.605 108.809 394.546 109.42 389.066 109.42C381.151 109.42 376.483 107.383 374.859 103.511C374.25 101.677 373.844 98.6209 373.844 94.3419V64.3889H374.047Z" fill="#456CAA"/>
  <path d="M17.2512 71.1131C16.6423 72.7432 17.0483 74.3733 17.4542 76.0034C18.8749 80.6899 22.1221 83.1351 26.5872 84.3577C27.8049 84.7652 29.0226 84.9689 30.2404 85.1727C31.864 85.3765 32.6758 86.3953 33.2847 87.6178C35.3143 91.4893 37.9527 94.9533 41.2 98.0097C46.2739 102.696 51.9566 105.956 58.8571 107.383C63.3221 108.402 67.7872 109.217 72.4551 110.235C75.9054 111.05 78.5438 112.681 80.5734 115.737C81.7911 117.571 82.197 117.775 84.2266 117.367C93.3596 115.533 101.275 111.254 108.581 105.549C109.799 104.734 110.814 103.715 112.031 102.9C112.437 102.696 112.843 102.492 113.249 102.289C113.452 102.289 113.655 102.289 113.858 102.289C113.858 102.492 113.858 102.696 113.655 102.9C112.843 103.919 112.234 105.141 111.22 106.16C109.19 108.402 106.958 110.847 104.725 112.884C100.463 116.756 95.795 120.016 90.5182 122.461C86.4591 124.295 82.4 125.721 78.1379 126.74C75.7024 127.351 73.2669 127.759 70.6285 127.963C66.7724 128.166 62.7133 128.574 58.8571 128.37C55.6098 128.166 52.1596 127.759 49.1152 126.944C45.665 126.129 42.0118 125.11 38.7645 123.684C34.5024 122.054 30.4433 119.608 26.5872 116.96C22.934 114.311 19.4837 111.458 16.4394 107.994C13.598 104.734 10.9596 101.066 8.72708 97.3984C6.29161 93.3232 4.26206 89.2479 3.24728 84.7652C1.82659 78.8561 2.63841 73.1508 5.07388 67.853C6.90048 63.9815 9.33595 60.5175 12.1773 57.2573C12.3803 57.0536 12.3803 57.0536 12.3803 56.6461C11.9744 56.8498 11.7714 56.8498 11.3655 57.0536C8.72708 58.6837 6.69752 60.9251 4.87092 63.1664C4.0591 63.9815 3.45023 65.0003 2.63841 65.8153C2.02955 66.4266 1.21772 66.4266 0.811812 65.4078C0.202945 64.5928 -1.0582e-05 63.9815 -1.0582e-05 63.574C-1.0582e-05 60.5175 -0.202966 57.6649 1.01477 54.8122C2.02955 52.1633 3.65319 50.737 6.69752 50.5332C9.5389 50.3294 11.9744 50.9407 14.8157 51.3482C16.0335 51.552 17.4542 51.552 18.4689 50.737C20.7015 48.9031 23.3399 49.1069 25.9783 49.7182C28.6167 50.3294 31.2552 49.7182 33.6906 48.2918C35.1113 47.4768 36.532 46.458 38.1556 45.8467C38.5615 45.6429 39.3734 46.0504 39.7793 46.458C43.2295 50.3294 42.4177 55.6272 37.9527 58.0724C35.1113 59.7025 32.8788 61.7401 31.4581 64.7965C30.4433 66.8341 28.8197 67.0379 27.196 66.0191C25.3694 65.0003 23.9487 63.574 23.3399 61.5363H23.1369C23.1369 62.1476 23.1369 62.7589 23.3399 63.3702C24.5576 66.2229 26.7901 67.8529 29.0226 69.483C29.8345 70.0943 30.8492 70.7056 31.6611 71.3169C33.8936 73.1508 34.2995 76.0034 32.4729 78.4486C31.864 79.2636 31.0522 80.2824 30.2404 80.8937C28.2108 82.7276 26.5872 82.7276 24.1517 81.3012C20.7015 79.4674 18.4689 76.4109 17.6571 72.5395C17.6571 72.1319 17.6571 71.7244 17.4542 71.3169C17.4542 71.1131 17.2512 71.1131 17.2512 71.1131ZM29.4285 54.6084C29.4285 53.7934 28.8197 52.7746 28.4138 52.7746C27.6019 52.7746 26.7901 53.7934 26.7901 54.4047C26.7901 55.4235 27.399 56.0348 28.2108 56.2385C28.8197 56.2385 29.4285 55.4235 29.4285 54.6084Z" fill="#456CAA"/>
  <path d="M112.641 31.9907C113.655 34.4358 114.67 36.6772 115.482 38.9186C116.091 40.7524 116.7 42.5863 117.106 44.2164C117.511 45.2352 116.7 45.8465 115.685 45.439C114.264 45.0314 113.249 43.8089 112.641 42.5863C111.829 40.9562 111.423 38.9186 110.814 37.2885C109.596 33.6208 108.378 29.9531 105.943 26.8966C105.334 26.2853 104.725 25.6741 104.116 25.0628L103.913 25.2665C103.913 25.4703 104.116 25.6741 104.319 25.8778C105.537 28.1192 106.552 30.3606 107.161 32.8057C107.364 33.6208 107.364 34.6396 107.161 35.6584C106.958 36.2697 106.349 36.6772 105.943 36.881C104.928 37.2885 104.319 36.4734 103.913 35.6584C103.305 34.6396 103.102 33.417 102.493 32.3982C101.478 30.5643 100.463 28.9343 99.4484 27.1004C98.8396 26.2854 97.8248 25.6741 97.013 25.0628L96.81 25.2665C97.4189 26.6929 98.2307 28.1192 98.8396 29.5455C99.4485 31.1756 100.26 32.8057 100.057 34.6396C100.057 35.8622 99.0425 36.4734 98.0278 35.8622C97.4189 35.4546 97.013 34.8433 96.6071 34.2321C95.1864 31.3794 93.3598 28.7305 90.5184 27.1004C90.3154 26.8966 89.9095 26.8966 89.5036 26.6929C90.3154 27.7117 91.1273 28.5267 91.9391 29.5455C94.1716 32.3982 95.5923 35.6584 95.9982 39.1223C95.9982 39.9374 96.2012 40.7524 96.2012 41.7712C96.2012 42.5863 95.7952 43.6051 94.9834 43.6051C94.3746 43.6051 93.5627 43.1976 93.1568 42.7901C92.1421 41.16 91.3302 39.5299 90.7214 37.8998C89.5036 34.8433 88.0829 31.9907 85.6475 29.5455C85.4445 29.3418 85.2416 29.138 84.8356 28.9343C84.6327 28.7305 84.2268 28.7305 84.0238 28.7305C84.0238 28.9343 84.2268 29.3418 84.2268 29.5455C86.2563 32.1944 88.0829 35.2509 88.6918 38.5111C89.0977 39.9374 89.0977 41.3637 88.8948 42.7901C88.8948 43.1976 88.2859 43.8089 87.88 44.0126C87.677 44.2164 86.8652 43.6051 86.6623 43.4013C86.0534 42.3825 85.4445 41.16 85.0386 40.1412C83.212 36.6772 81.1824 33.6208 78.3411 30.9719C77.9352 30.5643 77.5293 30.1568 76.9204 29.9531C77.9352 31.3794 79.1529 32.8057 80.1677 34.2321C81.1824 35.8622 81.9943 37.696 82.8061 39.3261L83.0091 39.5299C82.8061 40.1411 83.0091 40.9562 82.6031 41.3637C81.9943 41.7712 81.5884 41.16 80.9795 40.7524C78.544 38.7148 76.1086 36.4734 73.6731 34.4358C73.0642 34.0283 72.4554 33.8245 71.6435 33.2132C72.6583 34.2321 73.2672 35.0471 74.079 35.8622C77.3263 39.1223 79.7618 42.9938 81.7913 47.069C83.8209 51.1443 85.0386 55.2195 85.8504 59.7023C86.2563 61.7399 86.2563 63.7775 86.4593 66.0189C86.4593 66.8339 86.6623 67.649 86.6623 68.6678C86.6623 74.7807 85.8504 80.6897 84.0238 86.3951C83.6179 87.8214 83.212 89.044 82.8061 90.2665C82.6031 90.6741 82.6031 90.8778 82.1972 91.0816C81.9943 91.2854 81.3854 91.2854 81.1824 91.4891C81.1824 91.0816 80.9795 90.8778 80.9795 90.4703C81.3854 88.6365 81.9943 86.5988 82.4002 84.765C82.4002 84.5612 82.4002 84.3574 82.4002 84.1537C81.7913 85.7838 81.3854 87.2101 80.7765 88.8402C79.3558 92.3042 77.9352 95.5643 75.0938 98.2133C72.8613 100.251 70.4258 101.677 67.5844 102.492H67.3815C66.7726 102.288 66.3667 102.288 65.7578 102.085C65.9608 101.677 66.1637 101.066 66.5696 100.862C70.0199 97.602 72.8613 93.7305 75.2967 89.6553C77.1233 86.3951 78.747 82.9311 80.5736 79.6709C80.3706 79.6709 80.3706 79.4672 80.1677 79.4672C79.9647 79.6709 79.7618 79.8747 79.7618 80.0785C77.7322 83.3386 75.4997 86.5988 72.6583 89.2477C72.0494 89.6553 71.4406 90.0628 70.8317 90.4703C70.4258 90.6741 70.0199 90.2665 69.614 90.2665C69.8169 89.859 69.8169 89.2477 70.0199 88.8402C70.6288 88.0252 71.2376 87.4139 71.8465 86.5988C75.4997 81.7085 77.7322 76.207 78.9499 70.2979C79.5588 67.2415 79.7618 64.185 79.5588 61.1286C79.5588 59.7023 79.3559 58.2759 78.9499 56.8496C78.747 56.2383 78.3411 55.627 77.7322 55.2195C76.9204 54.6082 75.9056 53.9969 74.8908 53.5894C74.6879 53.7932 74.6879 53.7932 74.6879 53.7932C74.6879 55.4233 73.6731 55.8308 72.2524 55.2195C71.6435 54.812 71.2376 54.2007 70.6288 53.5894C70.2228 53.1819 70.0199 52.9781 69.614 52.5706L69.411 52.7744C69.411 52.9781 69.614 53.1819 69.614 53.5894C69.614 53.9969 69.614 55.0158 69.2081 55.0158C68.8022 55.2195 67.9903 55.2195 67.5844 54.812C66.5696 54.2007 66.1637 53.1819 66.1637 51.9593C66.1637 51.348 65.9608 50.9405 65.5549 50.533C63.7283 49.1067 61.9017 47.6803 60.278 46.0502C56.8278 42.9938 53.3775 39.9374 49.3184 37.4922C47.8977 39.3261 46.0711 40.3449 43.4327 39.5299C44.0416 38.5111 44.6505 37.4922 44.0416 36.4734C44.0416 36.4734 44.4475 36.0659 44.6504 36.0659C46.0711 35.6584 47.4918 36.0659 48.7096 36.881C48.3036 35.6584 46.0711 34.8433 44.4475 35.2509C44.0416 34.6396 43.6357 34.2321 43.4327 33.8245C43.8386 33.2133 44.0416 32.602 44.2445 31.9907C44.2445 31.7869 43.6357 31.3794 43.2298 31.1756C42.4179 30.9719 42.215 31.7869 42.012 32.602C40.3884 31.5832 38.5618 31.1756 36.5322 31.3794C37.547 28.323 39.3736 26.2854 42.215 25.0628C44.4475 24.044 46.883 23.8402 49.3184 24.2477C51.348 24.6553 53.1746 25.0628 55.2041 25.4703C56.8278 25.8778 57.8426 25.4703 58.4514 23.8402C59.0603 22.4139 59.4662 20.7838 59.8721 19.1537C60.0751 17.7274 60.0751 16.301 60.0751 14.6709C60.0751 12.022 59.4662 9.57689 58.6544 6.92799C58.4514 6.11294 58.0455 5.29789 58.0455 4.48284C58.0455 2.44523 59.2633 1.22266 61.2928 1.22266C65.5549 1.22266 70.0199 1.42642 74.282 2.0377C80.9795 3.26027 87.2711 5.29789 93.1568 8.55808C96.6071 10.3919 100.057 12.6333 102.899 15.2822C105.334 17.5236 107.77 19.5612 110.002 22.0064C113.046 25.2665 115.685 28.9343 117.917 32.8057C120.962 38.1035 123.194 43.8089 124.615 49.9217C125.021 51.5518 125.224 53.1819 125.427 54.812C125.427 55.2195 125.224 55.627 125.021 55.8308C124.818 56.0346 124.209 55.8308 124.006 55.4233C123.397 54.6082 122.382 53.5894 122.179 52.5706C121.368 50.3292 120.759 47.8841 119.947 45.6427C118.526 40.5487 116.294 36.0659 113.452 31.5832C113.046 32.1944 113.046 32.1944 112.641 31.9907Z" fill="#456CAA"/>
  <path d="M45.4621 17.5234C47.0858 17.7271 48.9124 17.9309 50.536 18.3384C52.5656 18.9497 54.5952 19.7647 56.2188 21.3948C56.6247 21.8023 56.8277 22.2099 56.8277 22.6174C56.8277 23.0249 56.6247 23.4324 56.4218 23.84C56.2188 24.0437 55.8129 24.0437 55.6099 24.0437C52.5656 23.2287 49.5213 22.6174 46.274 22.6174C42.4178 22.8212 38.9676 23.84 36.5321 26.8964C35.5173 28.119 34.9085 29.7491 34.2996 31.1754C33.6907 32.8055 33.0819 34.6393 32.473 36.2694C31.4582 38.9183 29.6316 40.7522 26.9932 41.3635C26.7902 41.3635 26.5873 41.5672 26.3843 41.771C27.6021 41.5672 28.6168 41.3635 29.8346 41.3635C31.6612 41.3635 33.4878 41.1597 35.3144 41.3635C35.7203 41.3635 36.5321 41.771 36.7351 42.1785C36.938 42.3823 37.141 43.1973 36.938 43.6049C35.7203 45.0312 34.2996 45.8462 32.27 45.6425C30.6464 45.4387 28.8198 45.6425 26.9932 45.8462C24.9636 46.05 22.9341 46.4575 21.1075 46.865C20.2957 47.0688 19.4838 47.2726 18.672 47.4763C17.2513 47.8839 16.0336 47.6801 14.8159 46.6613C13.5981 46.865 12.1774 47.4763 10.5538 47.4763C8.52423 47.4763 6.29172 45.2349 6.69763 42.3823C6.90059 41.5672 7.91537 41.3635 8.72719 41.9748C9.74197 42.586 10.5538 42.9936 11.5686 43.4011C12.3804 43.8086 12.7863 43.4011 12.5833 42.3823C12.1774 40.3447 11.5686 38.307 11.5686 36.2694C11.5686 31.7867 12.5833 27.7114 15.8306 24.4513C19.0779 21.3948 22.9341 19.3572 27.3991 18.9497C29.2257 18.9497 30.4434 17.9309 31.6612 16.9121C34.7055 14.6707 37.9528 12.4293 41.403 10.7992C42.2149 10.5955 42.6208 10.3917 43.0267 10.1879C43.2296 10.1879 43.4326 9.98417 43.4326 9.78041C43.2296 9.57664 43.0267 9.37288 43.0267 9.37288C42.2149 9.37288 41.403 9.37288 40.7942 9.78041C39.1705 10.7992 37.5469 11.818 35.9232 13.0406C34.2996 14.2632 32.6759 15.6895 31.0523 16.7083C28.8198 18.3384 25.9784 18.5422 23.34 18.3384C22.9341 18.3384 22.3252 17.9309 22.1223 17.7271C21.9193 17.3196 22.3252 16.7083 22.7311 16.5045C24.9636 14.6707 27.1961 12.8368 29.6316 11.4105C32.6759 9.37288 35.9232 7.53903 39.5764 6.72398C41.403 6.31646 43.0267 6.1127 44.8533 5.90893C47.6947 5.50141 50.536 6.11269 53.3774 7.33527C54.3922 7.74279 55.407 8.35407 56.4218 8.7616C57.4365 9.37288 57.6395 10.3917 57.2336 11.6143C56.4218 14.2632 53.7833 16.097 50.942 16.7083C49.3183 16.9121 47.6947 17.3196 46.071 17.7271C45.6651 17.5234 45.6651 17.5234 45.4621 17.5234ZM52.9715 10.3917C52.5656 9.98417 52.3626 9.57664 51.9567 9.57664C51.7538 9.57664 51.3479 9.98417 51.3479 10.1879C51.3479 10.3917 51.7538 11.003 51.9567 11.003C52.1597 11.003 52.5656 10.5955 52.9715 10.3917Z" fill="#7C98BD"/>
  <path d="M50.5361 46.2542C50.739 46.6617 50.739 47.0692 51.1449 47.273C51.3479 47.4767 51.7538 47.273 52.1597 47.273C52.1597 47.0692 52.1597 47.0692 52.3627 46.8655C53.5804 47.6805 54.5952 48.6993 55.61 49.5144C56.4218 50.3294 56.4218 51.552 56.0159 52.5708C55.61 53.3858 55.8129 53.9971 56.4218 54.8122C57.8425 56.4423 59.0602 58.0723 59.4661 60.3137C60.2779 64.5927 57.8425 67.6491 53.9863 68.4642C52.1597 68.8717 50.739 68.2604 49.1154 67.8529C47.6947 67.6491 46.6799 68.0567 45.8681 69.0755C45.4622 69.8905 45.0563 70.9093 44.8533 71.9281C44.4474 76.0034 44.0415 80.2824 45.4622 84.3576C46.071 85.9877 47.0858 87.0065 48.3036 86.8028C49.5213 86.599 50.5361 86.1915 51.5508 85.5802C53.7834 84.1539 55.0011 81.9125 56.4218 79.8749C58.4513 76.6147 59.4661 73.1507 60.2779 69.483C60.6838 67.4454 61.6986 65.6115 63.1193 63.9814C65.5548 61.1288 71.2375 61.3325 73.2671 65.204C74.2819 66.8341 74.6878 68.668 74.8907 70.7056C75.0937 76.8184 72.8612 81.9125 69.4109 86.599C65.9607 91.2855 61.0898 94.7495 56.4218 98.0096C56.0159 98.2134 55.61 98.6209 55.204 99.0285C56.4218 99.6397 57.4366 99.6397 58.2484 99.2322C61.0898 98.6209 63.3223 96.7871 65.5548 94.9532C66.3666 94.3419 66.9755 93.5269 67.7873 92.9156C67.9903 92.7118 68.3962 92.7118 68.5991 92.7118C68.5991 93.1194 68.8021 93.5269 68.8021 93.7307C68.3962 94.5457 68.1932 95.5645 67.5843 96.1758C64.9459 99.2322 61.9016 101.474 57.8425 102.492C56.2188 102.9 54.5952 102.9 53.1745 102.085C51.1449 101.066 50.5361 98.8247 51.9568 97.1946C52.7686 96.1758 53.7834 95.3607 55.0011 94.7495C59.872 91.4893 64.1341 88.0253 67.1784 82.9313C68.3962 81.0974 68.8021 78.856 69.005 76.8184C69.208 75.1883 69.005 73.5582 68.5991 72.1319C68.3962 71.7244 67.9902 71.1131 67.5843 71.1131C67.1784 71.1131 66.5696 71.5206 66.3666 71.9281C65.7577 72.947 65.3518 74.1695 65.1489 75.1883C62.7134 83.3388 58.0454 89.2479 50.5361 93.1194C46.274 95.157 41.606 93.7307 39.1706 89.8592C37.9528 87.8216 37.344 85.5802 36.938 83.3388C36.1262 80.0786 35.9233 76.8184 35.7203 73.3545C35.5174 70.7056 35.5174 68.2604 36.5321 66.0191C37.9528 62.1476 41.809 60.11 45.8681 60.925C48.1006 61.3325 50.3331 61.9438 52.5656 62.5551C52.7686 62.5551 52.9715 62.7589 53.1745 62.7589C54.5952 62.7589 55.204 61.9438 54.7981 60.7212C53.9863 58.6836 52.3627 56.4423 49.3183 56.4423C48.3036 56.4423 47.4917 55.831 47.0858 54.8122C46.6799 53.7933 46.274 52.7745 46.071 52.1633C46.274 51.552 46.6799 51.1444 46.6799 50.9407C46.6799 50.7369 46.071 50.5332 45.8681 50.3294C45.6651 50.3294 45.6651 50.1256 45.6651 50.1256C45.4622 49.1068 45.0563 48.2918 44.8533 47.273C44.6504 45.4391 46.071 44.6241 47.6947 45.2354C47.8976 45.2354 48.3036 45.4391 48.5065 45.6429C49.3183 45.4391 49.9272 45.8466 50.5361 46.2542Z" fill="#52BFB9"/>
  <path d="M85.8501 47.6802C89.0974 48.699 91.1269 50.7366 92.3447 53.3855C93.5624 56.0344 94.7801 58.4796 96.2008 61.1285C97.2156 59.9059 97.2156 58.6833 96.6067 57.4607C96.2008 56.6457 96.2008 55.8306 95.9979 55.2194C95.9979 55.0156 96.2008 54.8118 96.2008 54.8118C96.2008 54.8118 96.4038 54.8118 96.6067 55.0156C97.6215 56.0344 98.4333 57.0532 99.4481 57.8683C101.884 59.9059 101.884 62.5548 100.869 65.2037C100.26 66.8338 99.6511 68.2601 98.8392 69.6864C97.8245 71.5203 97.8245 73.3542 98.2304 75.3918C98.6363 77.8369 99.0422 80.2821 99.2452 82.5234C99.4481 83.9498 99.2452 83.9498 98.0274 84.5611C97.0126 84.9686 96.8097 85.3761 97.0126 87.0062C97.0126 86.8024 97.2156 86.3949 97.2156 86.1911C97.4186 85.1723 97.6215 84.9686 98.6363 85.3761C99.854 85.7836 100.869 86.3949 101.478 87.4137C102.087 88.6363 101.681 89.2476 100.463 89.6551C99.854 89.8589 99.4481 90.0626 98.6363 90.2664C99.4481 90.2664 99.6511 90.6739 99.4481 91.2852C98.8392 93.119 98.2304 94.5454 96.6067 95.768C95.9979 96.1755 95.7949 95.9717 95.389 95.5642C94.7801 94.7491 94.1713 93.9341 93.5624 93.3228C93.3594 93.119 93.1565 92.9153 92.7506 92.9153C93.1565 93.3228 93.3595 93.7303 93.7654 94.1379C95.592 96.9905 94.7801 99.0281 91.5328 99.8432C90.3151 100.047 88.8944 100.047 87.6767 100.047C86.8649 100.047 86.256 99.6394 86.459 98.6206C86.6619 96.9905 86.8649 95.3604 87.0678 93.7303C87.0678 93.1191 87.0678 92.5078 86.8649 91.6927C86.6619 90.6739 86.459 89.4513 86.459 88.4325C86.459 86.8024 86.459 85.3761 86.6619 83.746C87.0678 80.6896 87.6767 77.8369 87.8797 74.7805C88.0826 72.5391 88.0826 70.2977 88.0826 68.0564C88.0826 67.0375 88.2856 67.0375 89.0974 67.4451C90.721 68.4639 92.1417 69.4827 92.9535 71.3165C93.3594 72.3354 93.3595 73.1504 92.7506 73.9654C91.7358 75.7993 90.924 77.4294 90.1122 79.2633C89.9092 79.6708 90.1122 79.8745 89.9092 80.2821C91.5328 77.4294 93.1565 74.5767 94.5772 71.5203C95.7949 69.2789 95.9979 66.8338 94.5772 64.3886C94.3742 63.9811 93.9683 63.5736 93.5624 63.3698C91.3299 61.536 89.5033 59.2946 88.4885 56.6457C87.8797 55.0156 87.6767 53.3855 87.2708 51.7554C86.8649 50.5328 86.459 49.3103 85.8501 47.6802ZM91.3299 95.9717C90.721 95.5642 90.3151 94.9529 90.1122 94.9529C89.7063 94.9529 89.0974 95.5642 89.0974 95.9717C89.0974 96.3792 89.7063 96.7868 90.1122 96.9905C90.3151 96.9905 90.721 96.583 91.3299 95.9717Z" fill="#52BFB9"/>
  <path d="M44.2442 43.1975C39.5762 42.5862 34.9083 38.3072 36.5319 32.1943C39.5762 32.1943 42.0117 33.4169 43.8383 36.0658C44.0413 36.2696 44.0413 36.6771 43.8383 36.8809C42.2147 38.3072 42.4176 39.9373 43.4324 41.5674C43.6354 42.1787 43.8383 42.5862 44.2442 43.1975Z" fill="#456CAA"/>
  <path d="M75.2968 106.975C73.8761 106.975 72.8613 105.956 72.8613 104.53C72.8613 103.104 73.8761 102.085 75.2968 102.085C76.5145 102.085 77.9352 103.308 77.7323 104.53C77.7323 105.956 76.9204 106.975 75.2968 106.975Z" fill="#52BFB9"/>
  <path d="M82.4002 102.696C81.3854 102.696 80.9795 102.289 80.9795 101.27C80.9795 100.455 81.5884 99.6396 82.4002 99.6396C83.212 99.6396 84.0238 100.455 84.0238 101.27C83.8209 102.085 83.415 102.696 82.4002 102.696Z" fill="#52BFB9"/>
  <path d="M82.8058 96.3797C82.8058 96.9909 82.6028 97.3985 81.791 97.3985C80.9792 97.3985 80.7762 96.9909 80.5732 96.3797C80.5732 95.7684 80.9792 95.3608 81.588 95.3608C82.3998 95.3608 83.0087 95.5646 82.8058 96.3797Z" fill="#52BFB9"/>
  <path d="M124.006 63.166C122.179 58.887 119.744 54.8117 117.106 50.7365C114.873 47.4763 112.235 44.2161 108.987 41.9748C107.567 40.9559 105.943 40.1409 104.319 39.1221C103.507 38.5108 102.899 37.8995 101.884 37.0845C101.275 38.7146 101.478 40.1409 101.681 41.771C101.681 42.1785 101.681 42.586 101.275 42.7898C100.666 43.1973 100.057 43.6048 99.4484 44.0124C99.0425 44.4199 98.4336 45.0312 98.2306 45.4387C97.8247 46.6613 97.2159 47.4763 96.404 48.0876C94.7804 49.3102 94.7804 49.3102 96.2011 50.9403C96.404 51.144 96.404 51.3478 96.607 51.5516C98.0277 53.5892 99.8543 54.4042 101.884 53.7929C102.899 53.5892 103.71 53.7929 104.319 54.608C105.537 55.8306 106.146 57.4606 106.349 59.2945C106.552 62.1472 105.74 64.5923 104.522 67.0375C103.913 68.0563 103.102 69.2788 102.696 70.5014C101.681 73.1503 101.884 76.2067 102.29 78.8556C102.899 82.9309 103.913 87.0061 105.334 90.8776C106.146 92.9152 105.943 94.3415 104.725 96.1754C100.666 101.881 95.7952 106.363 88.6917 107.586C87.474 107.79 86.2563 107.79 85.0385 106.975C84.2267 106.363 83.4149 105.956 82.4001 105.752C81.3853 105.345 80.5735 105.752 79.7617 106.567C79.1528 107.382 79.1528 108.197 79.3558 109.012C79.9646 110.642 81.3853 111.05 82.6031 111.458C86.4592 112.273 90.3154 112.069 93.9686 111.05C100.666 109.012 105.74 104.937 110.002 99.4356C111.22 98.0092 112.235 96.7867 114.264 96.3791C114.873 96.3791 115.279 96.1754 115.685 95.9716C116.7 95.3603 117.917 94.9528 118.526 93.934C119.541 92.3039 120.353 90.2663 121.165 88.4324C122.991 83.9497 124.006 79.0594 124.615 74.3729C125.833 70.0939 125.63 66.6299 124.006 63.166ZM101.478 46.05C101.478 46.6613 101.072 47.0688 100.463 47.2726C100.26 47.0688 100.463 47.2726 100.26 47.0688C100.26 46.865 100.26 46.2538 100.463 46.05C100.666 45.8462 101.072 46.05 101.275 45.8462C101.478 45.8462 101.478 45.8462 101.478 46.05Z" fill="#7C98BD"/>
  <path d="M203.768 34.2321C201.941 36.066 198.694 36.8811 194.432 36.8811C190.372 36.8811 187.328 36.066 185.502 34.2321C183.472 32.6021 182.66 29.3419 182.66 24.4516C182.66 22.0064 182.863 19.7651 183.472 18.135C184.081 16.5049 184.893 15.0785 186.11 14.2635C187.328 13.4485 188.546 12.8372 189.967 12.4296C191.387 12.0221 193.011 11.8184 194.837 11.8184C196.867 11.8184 198.694 12.0221 200.114 12.2259C201.535 12.4296 202.753 13.0409 203.768 14.0597C204.782 14.8748 205.594 16.0974 206 17.9312C206.406 19.5613 206.609 21.8027 206.609 24.2478C206.609 29.1381 205.594 32.3983 203.768 34.2321ZM197.273 19.9688C196.867 19.3575 196.055 18.95 194.635 18.95C193.417 18.95 192.605 19.3575 192.199 20.1726C191.793 20.9876 191.59 22.414 191.59 24.4516C191.59 26.693 191.793 28.3231 192.199 29.1381C192.605 29.9532 193.417 30.3607 194.635 30.3607C195.852 30.3607 196.664 29.9532 197.273 29.3419C197.882 28.7306 197.882 27.1005 197.882 24.8591C197.679 22.2102 197.476 20.7839 197.273 19.9688Z" fill="#52BFB9"/>
  </g>
  <defs>
  <clipPath id="clip0">
  <rect width="419.509" height="130" fill="white"/>
  </clipPath>
  </defs>
</svg>