<svg xmlns="http://www.w3.org/2000/svg" width="244" height="83" viewBox="0 0 244 83" fill="none">
  <g filter="url(#filter0_d)">
  <path d="M101.3 40.5C101 40.8 100.6 41 100.1 41H93.5001C92.5001 41 92.0001 40.4 92.0001 39.2V22.3H90.0001C88.7001 22.3 88.1001 21.7 88.1001 20.4V16.7C88.1001 16.2 88.2001 15.8 88.5001 15.4C88.8001 15 89.3001 14.8 89.9001 14.8H92.0001V13C92.0001 9.2 92.9001 6.5 94.7001 5C97.1001 3 101 2 106.3 2C107.9 2 108.8 2.5 108.9 3.6C109 4.3 109 5.6 109 7.7C109 8.8 108.4 9.4 107.2 9.5C105.4 9.6 104.2 9.8 103.6 10C102.9 10.2 102.5 10.6 102.2 11C101.9 11.5 101.7 12.3 101.7 13.5V14.7H105.3C106.5 14.7 107.1 15.3 107.1 16.6V20.5C107.1 21.6 106.5 22.2 105.2 22.2H101.6V39.3C101.8 39.8 101.6 40.1 101.3 40.5Z" fill="white"/>
  <path d="M132.5 39.1C132 39.6 131.3 40 130.3 40.3C129.2 40.6 127.4 40.9 125.1 41.2C122.8 41.5 120.8 41.6 119.1 41.6C115.1 41.6 112.3 40.8 110.9 39.3C109.4 37.8 108.7 35.7 108.7 33C108.7 30 109.7 27.8 111.6 26.4C113.2 25.2 116.1 24.6 120.1 24.6C121.2 24.6 122.5 24.7 123.8 24.8V24.4C123.8 23.7 123.7 23.2 123.6 22.8C123.3 22.1 122.2 21.8 120.2 21.8C118.6 21.8 117.1 21.9 115.6 22.1C114.4 22.3 113.5 22.4 113 22.4C112.2 22.4 111.7 21.9 111.5 21.1C111.2 19.8 111 18.4 111 17C111 16 111.5 15.4 112.4 15.1C114.6 14.3 117.7 14 121.5 14C126.6 14 129.9 14.7 131.4 16.2C132.7 17.5 133.4 20 133.4 23.4V36.2C133.2 37.7 133 38.6 132.5 39.1ZM121.3 30.6C119.7 30.6 118.8 30.8 118.3 31.1C117.8 31.4 117.6 32 117.6 32.8C117.6 34.1 118.4 34.8 120.1 34.8C121.4 34.8 122.4 34.6 123 34.3C123.3 34.2 123.5 33.9 123.5 33.6C123.6 33.3 123.6 32.6 123.6 31.8V30.7C123 30.6 122.2 30.6 121.3 30.6Z" fill="white"/>
  <path d="M138.6 16.5C138.6 15.3 139.1 14.7 140.2 14.7H146.7C147.7 14.7 148.3 15.3 148.3 16.5V30.5C148.3 31.6 148.4 32.3 148.6 32.7C148.9 33.5 149.7 33.8 150.9 33.8C151.9 33.8 152.6 33.7 153.1 33.6C153.7 33.4 154 33.3 154.1 33.2C154.3 33 154.5 32.6 154.5 32.1V16.5C154.5 15.9 154.7 15.5 155 15.2C155.3 14.9 155.7 14.7 156.2 14.7H162.6C163.6 14.7 164.2 15.3 164.2 16.5V36.6C164.2 38.4 163.5 39.6 162.1 40.1C159.4 41.1 155.2 41.7 149.6 41.7C146.2 41.7 143.8 41.4 142.3 40.8C140.8 40.2 139.8 39.3 139.4 38.1C138.9 36.9 138.7 34.8 138.7 32V16.5H138.6Z" fill="white"/>
  <path d="M179.1 40.5C178.8 40.8 178.4 41 177.9 41H171.5C170.5 41 169.9 40.4 169.9 39.2V19.5C169.9 17.8 170.6 16.6 172 16.1C173.6 15.5 175.8 15 178.8 14.6C181.8 14.2 184.4 14 186.9 14C191.4 14 194 15.1 194.8 17.3C195.2 18.3 195.4 20 195.4 22.4V39.2C195.4 40.4 194.9 41 193.8 41H187.3C186.3 41 185.7 40.4 185.7 39.2V24.7C185.7 23.9 185.6 23.3 185.5 22.9C185.3 22.1 184.5 21.8 183.2 21.8C182.5 21.8 181.7 21.9 180.9 22.1C180.4 22.2 180.1 22.4 179.9 22.6C179.7 22.8 179.5 23.2 179.5 23.7V39.3C179.6 39.8 179.4 40.2 179.1 40.5Z" fill="white"/>
  <path d="M223.9 39.1C223.4 39.6 222.7 40 221.7 40.3C220.6 40.6 218.8 40.9 216.5 41.2C214.2 41.5 212.2 41.6 210.5 41.6C206.5 41.6 203.7 40.8 202.3 39.3C200.8 37.8 200.1 35.7 200.1 33C200.1 30 201.1 27.8 203 26.4C204.6 25.2 207.5 24.6 211.5 24.6C212.6 24.6 213.9 24.7 215.2 24.8V24.4C215.2 23.7 215.1 23.2 215 22.8C214.7 22.1 213.6 21.8 211.6 21.8C210 21.8 208.5 21.9 207 22.1C205.8 22.3 204.9 22.4 204.4 22.4C203.6 22.4 203.1 21.9 202.9 21.1C202.6 19.8 202.4 18.4 202.4 17C202.4 16 202.9 15.4 203.8 15.1C206 14.3 209.1 14 212.9 14C218 14 221.3 14.7 222.8 16.2C224.1 17.5 224.8 20 224.8 23.4V36.2C224.6 37.7 224.4 38.6 223.9 39.1ZM212.7 30.6C211.1 30.6 210.2 30.8 209.7 31.1C209.2 31.4 209 32 209 32.8C209 34.1 209.8 34.8 211.5 34.8C212.8 34.8 213.8 34.6 214.4 34.3C214.7 34.2 214.9 33.9 214.9 33.6C215 33.3 215 32.6 215 31.8V30.7C214.4 30.6 213.6 30.6 212.7 30.6Z" fill="white"/>
  <path d="M165.8 75.6C161.9 75.6 159.9 73.7 159.9 69.9V45.7C159.9 44.5 160.5 43.9 161.6 43.9H168C169.1 43.9 169.6 44.5 169.6 45.7V65.9C169.6 67 170.2 67.6 171.4 67.6H182C182.6 67.6 183 67.7 183.3 68C183.6 68.3 183.7 68.7 183.7 69.3V74.3C183.7 75.2 183.1 75.7 182 75.7H165.8V75.6Z" fill="white"/>
  <path d="M209.6 73.9C209.2 74.4 208.5 74.8 207.5 75.1C206.4 75.4 204.7 75.7 202.4 76C200.1 76.3 198.2 76.4 196.5 76.4C192.6 76.4 189.9 75.7 188.5 74.2C187.1 72.7 186.3 70.7 186.3 68.1C186.3 65.2 187.2 63 189.1 61.7C190.7 60.6 193.4 60 197.4 60C198.5 60 199.7 60.1 201 60.2V59.8C201 59.2 200.9 58.7 200.8 58.3C200.5 57.7 199.4 57.3 197.5 57.3C195.9 57.3 194.5 57.4 193 57.6C191.8 57.8 190.9 57.9 190.4 57.9C189.7 57.9 189.2 57.5 188.9 56.6C188.6 55.3 188.4 54 188.4 52.6C188.4 51.7 188.9 51 189.8 50.7C192 50 195 49.6 198.7 49.6C203.7 49.6 206.9 50.3 208.4 51.8C209.7 53.1 210.4 55.5 210.4 58.8V71.3C210.3 72.4 210.1 73.4 209.6 73.9ZM198.7 65.5C197.2 65.5 196.2 65.7 195.8 66C195.4 66.3 195.1 66.9 195.1 67.6C195.1 68.9 195.9 69.6 197.6 69.6C198.9 69.6 199.8 69.4 200.4 69.1C200.7 69 200.9 68.7 200.9 68.4C201 68.1 201 67.5 201 66.6V65.5C200.4 65.6 199.7 65.5 198.7 65.5Z" fill="white"/>
  <path d="M214.6 32.6C214.6 31.3 215.1 30.6 216.2 30.6H222.4C223 30.6 223.5 30.8 223.7 31.1C223.9 31.4 224 31.9 224 32.6V51.1C226 50 228.4 49.4 231.2 49.4C234.3 49.4 236.5 50.4 237.9 52.4C239.3 54.4 240 57.7 240 62.3C240 65.2 239.7 67.6 239.2 69.4C238.6 71.3 237.8 72.7 236.5 73.7C235.3 74.7 233.9 75.4 232.4 75.7C230.9 76.1 228.9 76.3 226.6 76.3C222.4 76.3 219.1 75.9 216.7 75.1C215.7 74.8 215.1 74.3 214.9 73.5C214.7 72.9 214.6 72.4 214.6 71.8V32.6ZM224.3 68.4C224.5 68.6 224.8 68.8 225.3 68.9C225.6 69 226.1 69 226.7 69C228.4 69 229.4 68.6 229.9 67.8C230.4 67 230.6 65.3 230.6 62.8C230.6 60.5 230.4 58.9 230.1 58.1C229.8 57.3 229 56.9 227.8 56.9C226.4 56.9 225.3 57.1 224.6 57.5C224.4 57.7 224.2 57.9 224.1 58.1C224 58.3 224 58.6 224 59.1V67.1C224.1 67.8 224.1 68.2 224.3 68.4Z" fill="white"/>
  <path d="M71.4 36.9C71.1 36.9 70.8 36.6 70.8 36.3C70.8 36 71 35.7 71.4 35.7C71.7 35.7 72 36 72 36.3C71.9 36.7 71.7 36.9 71.4 36.9Z" fill="white"/>
  <path d="M73.1 35.9C72.9 35.9 72.7 35.8 72.7 35.5C72.7 35.3 72.8 35.1 73.1 35.1C73.3 35.1 73.5 35.3 73.5 35.5C73.5 35.7 73.3 35.9 73.1 35.9Z" fill="white"/>
  <path d="M73.2 34.3C73.2 34.4 73.1 34.6 73 34.6C72.8 34.6 72.7 34.5 72.7 34.3C72.7 34.1 72.8 34 73 34C73.1 34.1 73.2 34.1 73.2 34.3Z" fill="white"/>
  <path d="M13.4001 39.4C13.0001 39.7 12.6001 39.9 12.1001 39.9H5.8001C4.7001 39.9 4.1001 39.3 4.1001 38V10.2C4.1001 7.69999 4.6001 5.89999 5.7001 4.89999C6.7001 3.79999 8.4001 3.29999 10.8001 3.29999H15.4001C21.0001 3.29999 24.9001 3.79999 27.1001 4.69999C30.6001 6.09999 32.3001 9.39999 32.3001 14.6C32.3001 17.3 31.8001 19.5 30.8001 21.3C29.8001 23.1 28.0001 24.5 25.2001 25.3C22.9001 26 19.7001 26.3 15.7001 26.3H14.0001V38C14.0001 38.6 13.8001 39.1 13.4001 39.4ZM16.1001 18.9C17.8001 18.9 19.1001 18.8 20.0001 18.5C21.4001 18 22.1001 16.9 22.1001 15.2C22.1001 13.2 21.4001 12 20.1001 11.5C19.3001 11.3 18.0001 11.1 16.1001 11.1H15.3001C14.4001 11.1 14.0001 11.6 14.0001 12.7V18.9H16.1001Z" fill="white"/>
  <path d="M44.4002 39.4C44.1002 39.7 43.7002 39.9 43.2002 39.9H36.8002C35.8002 39.9 35.2002 39.3 35.2002 38.1V18.8C35.2002 17.8 35.3002 17.1 35.6002 16.6C35.9002 16.1 36.4002 15.6 37.1002 15.2C38.1002 14.6 39.7002 14.1 41.9002 13.6C44.1002 13.1 46.1002 12.9 48.1002 12.9C50.3002 12.9 51.8002 13 52.6002 13.3C53.4002 13.6 53.7002 14.2 53.7002 15.1C53.7002 17.1 53.6002 18.7 53.3002 19.9C53.1002 20.6 52.6002 20.9 51.6002 20.9C51.3002 20.9 50.7002 20.9 49.8002 20.8C48.9002 20.8 48.3002 20.7 47.9002 20.7C46.9002 20.7 46.1002 20.8 45.6002 21C45.3002 21.1 45.1002 21.3 45.0002 21.5C44.9002 21.7 44.8002 22.1 44.8002 22.7V37.9C44.8002 38.7 44.7002 39.1 44.4002 39.4Z" fill="white"/>
  <path d="M58.3002 28.6C58.2002 29 58.3002 29.3 58.4002 29.7C58.7002 30.8 59.5002 31.3 60.5002 31.6C60.8002 31.7 61.0002 31.7 61.3002 31.8C61.7002 31.8 61.9002 32.1 62.0002 32.3C62.5002 33.2 63.1002 34 63.8002 34.7C64.9002 35.8 66.3002 36.5 67.8002 36.9C68.8002 37.1 69.9002 37.3 70.9002 37.6C71.7002 37.8 72.3002 38.2 72.7002 38.9C73.0002 39.3 73.1002 39.4 73.6002 39.3C75.7002 38.9 77.5002 37.9 79.2002 36.6C79.5002 36.4 79.7002 36.2 80.0002 36C80.1002 35.9 80.2002 35.9 80.3002 35.9H80.4002V36C80.2002 36.2 80.1002 36.5 79.8002 36.7C79.3002 37.2 78.8002 37.7 78.3002 38.2C77.3002 39.1 76.2002 39.8 75.0002 40.4C74.1002 40.8 73.1002 41.2 72.2002 41.4C71.6002 41.5 71.1002 41.6 70.5002 41.7C69.6002 41.8 68.7002 41.8 67.8002 41.8C67.0002 41.8 66.3002 41.7 65.5002 41.5C64.7002 41.3 63.9002 41.1 63.1002 40.8C62.1002 40.4 61.2002 39.9 60.3002 39.3C59.5002 38.7 58.7002 38 58.0002 37.3C57.3002 36.6 56.7002 35.7 56.2002 34.9C55.6002 34 55.2002 33 54.9002 32C54.6002 30.7 54.8002 29.4 55.3002 28.1C55.7002 27.2 56.3002 26.4 56.9002 25.7V25.6C56.8002 25.6 56.7002 25.6 56.7002 25.7C56.1002 26.1 55.6002 26.6 55.2002 27.1C55.0002 27.3 54.9002 27.5 54.7002 27.7C54.6002 27.9 54.4002 27.8 54.3002 27.6C54.3002 27.5 54.2002 27.4 54.2002 27.2C54.2002 26.5 54.2002 25.8 54.4002 25.2C54.6002 24.6 55.0002 24.3 55.7002 24.2C56.3002 24.2 56.9002 24.3 57.5002 24.4C57.8002 24.5 58.1002 24.5 58.3002 24.3C58.8002 23.9 59.4002 23.9 60.0002 24C60.6002 24.1 61.2002 24 61.8002 23.7C62.1002 23.5 62.5002 23.3 62.8002 23.1C62.9002 23.1 63.1002 23.1 63.2002 23.2C64.0002 24.1 63.8002 25.3 62.8002 25.9C62.2002 26.3 61.6002 26.7 61.3002 27.4C61.1002 27.9 60.7002 27.9 60.3002 27.7C59.9002 27.5 59.6002 27.1 59.4002 26.7C59.4002 26.7 59.4002 26.7 59.3002 26.7C59.3002 26.8 59.3002 27 59.4002 27.1C59.7002 27.7 60.2002 28.1 60.7002 28.5C60.9002 28.6 61.1002 28.8 61.3002 28.9C61.8002 29.3 61.9002 30 61.5002 30.5C61.3002 30.7 61.2002 30.9 61.0002 31.1C60.5002 31.5 60.2002 31.5 59.6002 31.2C58.8002 30.8 58.3002 30.1 58.1002 29.2C58.4002 28.8 58.4002 28.7 58.3002 28.6C58.4002 28.6 58.3002 28.6 58.3002 28.6ZM61.1002 24.9C61.1002 24.7 61.0002 24.5 60.9002 24.5C60.7002 24.5 60.5002 24.7 60.5002 24.9C60.5002 25.1 60.6002 25.3 60.8002 25.3C61.0002 25.2 61.1002 25.1 61.1002 24.9Z" fill="white"/>
  <path d="M80.2 19.7C80.4 20.3 80.7 20.8 80.9 21.3C81.1 21.7 81.2 22.1 81.3 22.5C81.4 22.7 81.2 22.9 81 22.8C80.7 22.7 80.4 22.4 80.3 22.1C80.1 21.7 80 21.3 79.9 20.9C79.6 20.1 79.3 19.2 78.8 18.5C78.7 18.3 78.5 18.2 78.4 18.1C78.4 18.1 78.4 18.1 78.3 18.1C78.3 18.2 78.3 18.2 78.4 18.3C78.7 18.8 78.9 19.3 79 19.9C79 20.1 79.1 20.3 79 20.5C79 20.6 78.8 20.8 78.7 20.8C78.5 20.9 78.3 20.7 78.2 20.5C78.1 20.3 78 20 77.9 19.8C77.7 19.4 77.5 19 77.2 18.6C77.1 18.4 76.8 18.3 76.7 18.1C76.9 18.4 77 18.7 77.1 19.1C77.3 19.5 77.4 19.9 77.4 20.3C77.4 20.6 77.2 20.7 76.9 20.6C76.8 20.5 76.7 20.4 76.6 20.3C76.3 19.6 75.8 19 75.2 18.7C75.1 18.7 75.1 18.6 75 18.6C75.2 18.8 75.4 19 75.6 19.2C76.1 19.9 76.4 20.6 76.5 21.4C76.5 21.6 76.5 21.8 76.5 22C76.5 22.2 76.4 22.4 76.2 22.4C76.1 22.4 75.9 22.3 75.8 22.2C75.6 21.8 75.4 21.5 75.2 21.1C74.9 20.4 74.6 19.7 74 19.2C73.9 19.1 73.9 19.1 73.8 19.1C73.7 19.1 73.7 19.1 73.6 19.1C73.6 19.2 73.6 19.2 73.7 19.3C74.2 19.9 74.6 20.6 74.7 21.4C74.8 21.7 74.8 22.1 74.8 22.4C74.8 22.5 74.7 22.7 74.6 22.7C74.5 22.7 74.4 22.6 74.3 22.5C74.2 22.3 74 22 73.9 21.8C73.5 21 73 20.3 72.4 19.7C72.3 19.6 72.2 19.5 72.1 19.5C72.3 19.8 72.6 20.1 72.8 20.5C73 20.9 73.2 21.3 73.4 21.7C73.4 21.7 73.4 21.7 73.4 21.8C73.4 21.9 73.4 22.1 73.3 22.2C73.2 22.3 73 22.2 72.9 22.1C72.3 21.6 71.8 21.1 71.2 20.7C71.1 20.6 70.9 20.5 70.7 20.4C70.9 20.6 71.1 20.8 71.3 21C72 21.7 72.6 22.6 73.1 23.6C73.5 24.5 73.8 25.5 74 26.5C74.1 27 74.1 27.5 74.1 27.9C74.1 28.1 74.1 28.3 74.1 28.5C74.1 29.9 73.9 31.2 73.5 32.5C73.4 32.8 73.3 33.1 73.2 33.4C73.2 33.5 73.1 33.6 73.1 33.6C73 33.7 72.9 33.7 72.8 33.7C72.8 33.6 72.7 33.5 72.8 33.5C72.9 33.1 73 32.6 73.1 32.2V32.1C73 32.5 72.9 32.8 72.7 33.2C72.4 34 72 34.8 71.4 35.3C70.9 35.8 70.3 36.1 69.7 36.3C69.6 36.3 69.5 36.2 69.3 36.2C69.4 36.1 69.4 36 69.5 35.9C70.3 35.1 71 34.3 71.5 33.3C71.9 32.6 72.3 31.8 72.7 31C72.7 31 72.6 31 72.6 30.9L72.5 31C72.1 31.8 71.5 32.5 70.9 33.1C70.8 33.2 70.6 33.3 70.5 33.4C70.4 33.4 70.3 33.4 70.2 33.4C70.2 33.3 70.2 33.2 70.3 33.1C70.4 32.9 70.6 32.8 70.7 32.6C71.5 31.5 72.1 30.2 72.4 28.9C72.5 28.2 72.6 27.5 72.5 26.8C72.5 26.5 72.4 26.1 72.4 25.8C72.4 25.7 72.3 25.5 72.1 25.4C71.9 25.3 71.7 25.1 71.5 25L71.4 25.1C71.4 25.5 71.2 25.6 70.9 25.4C70.8 25.3 70.6 25.2 70.5 25C70.4 24.9 70.4 24.9 70.3 24.8C70.3 24.8 70.3 24.8 70.2 24.8C70.2 24.9 70.2 24.9 70.2 25C70.2 25.1 70.2 25.3 70.1 25.3C70 25.3 69.8 25.3 69.7 25.3C69.5 25.2 69.4 24.9 69.4 24.7C69.4 24.6 69.4 24.5 69.2 24.4C68.8 24.1 68.4 23.7 68 23.4C67.2 22.7 66.4 22 65.5 21.4C65.2 21.8 64.8 22.1 64.2 21.9C64.3 21.7 64.5 21.4 64.3 21.2L64.4 21.1C64.7 21 65 21.1 65.3 21.3C65.2 21 64.7 20.9 64.3 20.9C64.2 20.8 64.1 20.7 64.1 20.6C64.2 20.4 64.3 20.3 64.3 20.2C64.3 20.2 64.2 20 64.1 20C63.9 20 63.9 20.1 63.8 20.3C63.4 20.1 63 20 62.5 20C62.7 19.3 63.2 18.8 63.8 18.5C64.3 18.3 64.9 18.2 65.4 18.3C65.8 18.4 66.3 18.5 66.7 18.6C67.1 18.7 67.3 18.6 67.5 18.2C67.6 17.9 67.7 17.5 67.8 17.1C67.9 16.8 67.8 16.4 67.9 16.1C67.9 15.5 67.8 14.9 67.6 14.3C67.5 14.1 67.5 13.9 67.5 13.7C67.5 13.2 67.8 13 68.2 12.9C69.2 12.9 70.2 12.9 71.2 13.1C72.7 13.4 74.2 13.8 75.5 14.6C76.3 15 77.1 15.5 77.7 16.1C78.3 16.6 78.8 17.1 79.3 17.6C80 18.3 80.6 19.2 81.1 20.1C81.8 21.3 82.3 22.6 82.6 24C82.7 24.4 82.7 24.7 82.8 25.1C82.8 25.2 82.8 25.3 82.7 25.3C82.6 25.3 82.5 25.3 82.5 25.2C82.3 25 82.2 24.8 82.1 24.6C81.9 24.1 81.8 23.6 81.6 23C81.5 21.8 80.9 20.8 80.2 19.7C80.3 19.8 80.3 19.8 80.2 19.7Z" fill="white"/>
  <path d="M64.8002 16.4C65.2002 16.5 65.6002 16.5 66.0002 16.6C66.5002 16.7 66.9002 16.9 67.3002 17.3C67.4002 17.4 67.4002 17.5 67.5002 17.6C67.5002 17.7 67.5002 17.8 67.4002 17.9C67.4002 17.9 67.3002 17.9 67.2002 17.9C66.5002 17.7 65.8002 17.6 65.1002 17.6C64.2002 17.6 63.4002 17.9 62.9002 18.6C62.7002 18.9 62.5002 19.2 62.4002 19.6C62.2002 20 62.1002 20.4 62.0002 20.8C61.8002 21.4 61.4002 21.8 60.7002 22C60.6002 22 60.6002 22 60.6002 22.1C60.9002 22.1 61.1002 22 61.4002 22C61.8002 22 62.2002 22 62.7002 22C62.8002 22 63.0002 22.1 63.0002 22.2C63.1002 22.3 63.1002 22.4 63.0002 22.5C62.7002 22.8 62.4002 23 61.9002 22.9C61.5002 22.9 61.1002 22.9 60.7002 22.9C60.2002 22.9 59.8002 23 59.3002 23.1C59.1002 23.1 58.9002 23.2 58.8002 23.2C58.5002 23.3 58.2002 23.3 57.9002 23C57.6002 23.2 57.3002 23.3 56.9002 23.3C56.4002 23.3 55.9002 22.8 56.0002 22.2C56.0002 22 56.3002 22 56.5002 22.1C56.7002 22.2 56.9002 22.3 57.2002 22.4C57.4002 22.5 57.5002 22.4 57.4002 22.2C57.3002 21.7 57.2002 21.3 57.2002 20.8C57.2002 19.8 57.4002 18.8 58.2002 18.1C58.9002 17.4 59.8002 16.9 60.9002 16.9C61.3002 16.9 61.6002 16.7 61.9002 16.4C62.6002 15.9 63.3002 15.4 64.1002 15C64.2002 15 64.3002 14.9 64.4002 14.9L64.5002 14.8L64.4002 14.7C64.2002 14.7 64.0002 14.7 63.9002 14.8C63.5002 15 63.1002 15.3 62.8002 15.5C62.4002 15.8 62.1002 16.1 61.7002 16.4C61.2002 16.8 60.6002 16.8 59.9002 16.8C59.8002 16.8 59.6002 16.7 59.6002 16.6C59.6002 16.5 59.6002 16.4 59.7002 16.3C60.2002 15.9 60.7002 15.5 61.3002 15.1C62.0002 14.6 62.7002 14.2 63.6002 14C64.0002 13.9 64.4002 13.9 64.8002 13.8C65.5002 13.7 66.1002 13.8 66.7002 14.1C66.9002 14.2 67.2002 14.3 67.4002 14.4C67.6002 14.5 67.7002 14.8 67.6002 15.1C67.4002 15.7 66.8002 16.1 66.1002 16.3C65.6002 16.2 65.3002 16.3 64.8002 16.4C64.9002 16.4 64.8002 16.4 64.8002 16.4ZM66.5002 14.8C66.4002 14.7 66.3002 14.6 66.3002 14.6L66.2002 14.7C66.2002 14.8 66.3002 14.9 66.3002 14.9C66.3002 14.9 66.4002 14.8 66.5002 14.8Z" fill="white"/>
  <path d="M66 23C66 23.1 66.1 23.2 66.1 23.2C66.2 23.2 66.3 23.2 66.3 23.2V23.1C66.6 23.3 66.8 23.5 67.1 23.7C67.3 23.9 67.3 24.2 67.2 24.4C67.1 24.6 67.2 24.7 67.3 24.9C67.6 25.3 67.9 25.7 68 26.1C68.2 27.1 67.6 27.8 66.7 28C66.3 28.1 65.9 27.9 65.6 27.9C65.3 27.8 65 27.9 64.9 28.2C64.8 28.4 64.7 28.6 64.7 28.8C64.6 29.8 64.5 30.7 64.8 31.6C64.9 32 65.2 32.2 65.5 32.2C65.8 32.1 66 32.1 66.3 31.9C66.8 31.6 67.1 31.1 67.4 30.6C67.9 29.9 68.1 29.1 68.3 28.2C68.4 27.7 68.6 27.3 68.9 26.9C69.4 26.3 70.7 26.3 71.2 27.2C71.4 27.6 71.5 28 71.6 28.5C71.7 29.9 71.1 31.1 70.3 32.1C69.5 33.2 68.4 34 67.3 34.7C67.2 34.8 67.1 34.8 67 34.9C67.3 35.1 67.5 35 67.7 35C68.3 34.8 68.9 34.5 69.4 34C69.6 33.9 69.7 33.7 69.9 33.5C70 33.5 70 33.5 70.1 33.4C70.1 33.5 70.2 33.6 70.1 33.6C70 33.8 69.9 34 69.8 34.2C69.2 34.9 68.5 35.4 67.6 35.6C67.2 35.7 66.9 35.7 66.5 35.5C66 35.3 65.9 34.8 66.2 34.4C66.4 34.2 66.6 34 66.9 33.8C68 33.1 69 32.2 69.7 31.1C70 30.7 70.1 30.2 70.1 29.7C70.1 29.3 70.1 29 70 28.6C70 28.5 69.9 28.4 69.8 28.4C69.7 28.4 69.6 28.5 69.5 28.6C69.4 28.8 69.3 29.1 69.2 29.4C68.7 31.2 67.6 32.6 65.9 33.5C64.9 34 63.9 33.6 63.3 32.8C63 32.3 62.9 31.8 62.8 31.3C62.6 30.6 62.6 29.8 62.5 29C62.5 28.4 62.5 27.9 62.7 27.3C63 26.4 63.9 26 64.9 26.2C65.4 26.3 65.9 26.4 66.5 26.6H66.6C66.9 26.6 67.1 26.4 67 26.1C66.8 25.6 66.5 25.1 65.7 25.1C65.4 25.1 65.3 24.9 65.2 24.7C65.1 24.5 65 24.2 65 24.1C65.1 24 65.1 23.9 65.1 23.8C65.1 23.7 65 23.7 64.9 23.7C64.9 23.7 64.8 23.7 64.8 23.6C64.7 23.4 64.7 23.2 64.6 23C64.6 22.6 64.9 22.4 65.3 22.5C65.4 22.5 65.4 22.6 65.5 22.6C65.7 22.8 65.8 22.9 66 23Z" fill="white"/>
  <path d="M74.1001 23.3C74.8001 23.5 75.3001 24 75.6001 24.6C75.9001 25.2 76.2001 25.8 76.5001 26.4C76.7001 26.1 76.7001 25.8 76.6001 25.6C76.5001 25.4 76.5001 25.2 76.5001 25.1C76.5001 25.1 76.5001 25 76.6001 25H76.7001C76.9001 25.2 77.1001 25.5 77.3001 25.7C77.8001 26.2 77.9001 26.8 77.6001 27.4C77.5001 27.7 77.3001 28.1 77.1001 28.4C76.9001 28.8 76.9001 29.3 77.0001 29.7C77.1001 30.2 77.2001 30.8 77.3001 31.3C77.3001 31.6 77.3001 31.6 77.0001 31.7C76.8001 31.8 76.7001 31.9 76.8001 32.2C76.8001 32.1 76.8001 32.1 76.8001 32C76.8001 31.8 76.9001 31.7 77.1001 31.8C77.4001 31.9 77.6001 32 77.7001 32.3C77.8001 32.6 77.8001 32.7 77.5001 32.8C77.4001 32.8 77.3001 32.9 77.1001 33C77.3001 33 77.3001 33.1 77.3001 33.2C77.2001 33.6 77.0001 34 76.6001 34.2C76.5001 34.3 76.4001 34.3 76.3001 34.1C76.2001 33.9 76.0001 33.7 75.9001 33.6C75.9001 33.5 75.8001 33.5 75.7001 33.5C75.8001 33.6 75.9001 33.7 75.9001 33.8C76.3001 34.5 76.1001 34.9 75.4001 35.1C75.1001 35.2 74.8001 35.2 74.5001 35.1C74.3001 35.1 74.2001 35 74.2001 34.8C74.2001 34.4 74.3001 34.1 74.3001 33.7C74.3001 33.6 74.3001 33.4 74.3001 33.2C74.3001 33 74.2001 32.7 74.2001 32.5C74.2001 32.1 74.2001 31.8 74.3001 31.4C74.4001 30.7 74.5001 30 74.6001 29.3C74.7001 28.8 74.6001 28.3 74.7001 27.7C74.7001 27.5 74.7001 27.5 74.9001 27.6C75.3001 27.8 75.6001 28.1 75.8001 28.5C75.9001 28.7 75.9001 28.9 75.8001 29.1C75.6001 29.5 75.4001 29.9 75.2001 30.3C75.2001 30.4 75.2001 30.5 75.2001 30.5C75.6001 29.8 75.9001 29.2 76.3001 28.5C76.6001 28 76.6001 27.4 76.3001 26.9C76.2001 26.8 76.1001 26.7 76.1001 26.6C75.6001 26.2 75.2001 25.7 74.9001 25.1C74.8001 24.7 74.7001 24.4 74.6001 24C74.3001 24 74.2001 23.6 74.1001 23.3ZM75.3001 34.3C75.2001 34.2 75.1001 34.1 75.0001 34.1C74.9001 34.1 74.8001 34.2 74.8001 34.3C74.8001 34.4 74.9001 34.5 75.0001 34.5C75.1001 34.6 75.2001 34.4 75.3001 34.3Z" fill="white"/>
  <path d="M64.5002 22.3C63.4002 22.1 62.4002 21.2 62.7002 19.8C63.4002 19.8 64.0002 20.1 64.4002 20.7V20.9C64.0002 21.2 64.1002 21.6 64.3002 22C64.4002 22 64.4002 22.2 64.5002 22.3Z" fill="white"/>
  <path d="M82.8002 26.8C82.4002 25.8 81.8002 24.9 81.2002 24C80.7002 23.2 80.1002 22.5 79.3002 22C79.0002 21.8 78.6002 21.6 78.2002 21.4C78.0002 21.3 77.9002 21.1 77.7002 20.9C77.6002 21.3 77.6002 21.6 77.7002 22C77.7002 22.1 77.7002 22.2 77.6002 22.2C77.5002 22.3 77.3002 22.4 77.2002 22.5C77.1002 22.6 77.0002 22.7 76.9002 22.8C76.8002 23.1 76.7002 23.3 76.5002 23.4C76.1002 23.7 76.1002 23.7 76.5002 24L76.6002 24.1C76.9002 24.6 77.3002 24.7 77.8002 24.6C78.0002 24.5 78.2002 24.6 78.3002 24.8C78.6002 25.1 78.7002 25.5 78.8002 25.9C78.9002 26.5 78.7002 27.1 78.4002 27.7C78.3002 28 78.1002 28.2 78.0002 28.5C77.8002 29.1 77.8002 29.8 77.9002 30.4C78.0002 31.3 78.3002 32.3 78.6002 33.1C78.8002 33.6 78.7002 33.9 78.5002 34.3C77.6002 35.6 76.5002 36.6 74.8002 36.9C74.5002 37 74.2002 37 74.0002 36.8C73.8002 36.7 73.6002 36.6 73.4002 36.5C73.2002 36.4 73.0002 36.5 72.8002 36.7C72.6002 36.9 72.6002 37.1 72.7002 37.3C72.8002 37.7 73.1002 37.8 73.5002 37.9C74.4002 38.1 75.2002 38 76.1002 37.8C77.6002 37.4 78.8002 36.4 79.8002 35.1C80.1002 34.8 80.3002 34.5 80.8002 34.4C80.9002 34.4 81.0002 34.3 81.1002 34.3C81.3002 34.2 81.6002 34.1 81.7002 33.8C81.9002 33.4 82.1002 33 82.3002 32.6C82.7002 31.6 82.9002 30.5 83.1002 29.4C83.2002 28.4 83.2002 27.6 82.8002 26.8ZM77.6002 22.9C77.6002 23 77.5002 23.1 77.4002 23.2C77.4002 23.2 77.4002 23.2 77.3002 23.1C77.3002 23 77.3002 22.9 77.4002 22.9C77.4002 22.8 77.5002 22.9 77.6002 22.9C77.6002 22.9 77.7002 22.9 77.6002 22.9Z" fill="white"/>
  <path d="M6.8 56.8C7.1 57.3 7.7 57.5 8.5 57.5C9 57.5 9.6 57.4 10.1 57.3C10.3 57.2 10.4 57.2 10.5 57.2C10.6 57.2 10.7 57.3 10.8 57.4C10.9 58 11 58.4 11 58.5C11 58.7 10.9 58.8 10.7 58.9C10 59.2 9 59.3 7.8 59.3C6.5 59.3 5.6 58.9 5 58.2C4.4 57.5 4 56.2 4 54.5C4 52.7 4.3 51.4 4.9 50.6C5.5 49.8 6.6 49.4 8.1 49.4C9.1 49.4 9.9 49.5 10.4 49.6C10.6 49.7 10.8 49.8 10.8 50C10.8 50.4 10.7 50.8 10.6 51.2C10.5 51.3 10.4 51.4 10.3 51.4C10.2 51.4 10 51.4 9.8 51.3C9.4 51.2 8.9 51.2 8.5 51.2C7.7 51.2 7.1 51.4 6.8 51.9C6.5 52.3 6.3 53.2 6.3 54.3C6.3 55.5 6.4 56.4 6.8 56.8Z" fill="white"/>
  <path d="M13.8999 57.3C14.0999 57.5 14.4999 57.5 14.9999 57.5C15.5999 57.5 16.0999 57.5 16.4999 57.4C16.6999 57.4 16.7999 57.3 16.8999 57.3C17.0999 57.3 17.1999 57.4 17.2999 57.5C17.3999 57.8 17.4999 58.2 17.4999 58.5C17.4999 58.7 17.3999 58.8 17.2999 58.9C16.7999 59.1 15.9999 59.3 14.7999 59.3C13.5999 59.3 12.6999 59 12.1999 58.5C11.6999 57.9 11.3999 57 11.3999 55.8C11.3999 54.5 11.6999 53.6 12.1999 53C12.6999 52.4 13.5999 52.2 14.6999 52.2C15.0999 52.2 15.3999 52.2 15.6999 52.3C15.9999 52.4 16.1999 52.4 16.3999 52.5C16.5999 52.6 16.7999 52.7 16.8999 52.9C16.9999 53.1 17.1999 53.3 17.1999 53.4C17.2999 53.6 17.2999 53.8 17.3999 54.1C17.3999 54.4 17.4999 54.6 17.4999 54.9C17.4999 55.1 17.4999 55.4 17.4999 55.8C17.4999 56 17.3999 56.2 17.2999 56.3C17.1999 56.4 17.0999 56.4 16.9999 56.4H13.4999C13.4999 56.9 13.5999 57.2 13.8999 57.3ZM15.4999 54.9C15.4999 54.8 15.4999 54.8 15.4999 54.7C15.4999 54.3 15.3999 54.1 15.2999 53.9C15.1999 53.7 14.8999 53.7 14.4999 53.7C14.0999 53.7 13.8999 53.8 13.6999 54C13.4999 54.2 13.4999 54.5 13.3999 55H15.4999V54.9Z" fill="white"/>
  <path d="M20.6 59.2H19.2C19 59.2 18.8 59.1 18.8 58.8V53.7C18.8 53.3 19 53 19.3 52.9C19.7 52.7 20.3 52.6 21 52.5C21.7 52.4 22.4 52.3 23 52.3C23.6 52.3 24.1 52.4 24.4 52.5C24.7 52.6 24.9 52.9 25 53.1C25.1 53.4 25.1 53.8 25.1 54.4V58.8C25.1 59.1 25 59.2 24.7 59.2H23.3C23.1 59.2 22.9 59.1 22.9 58.8V54.9C22.9 54.7 22.9 54.5 22.8 54.3C22.7 54.1 22.5 53.9 22.1 53.9C21.7 53.9 21.4 53.9 21.2 54C21.1 54 21 54.1 20.9 54.1C21 54.2 21 54.4 21 54.5V58.7C21 59 20.9 59.2 20.6 59.2Z" fill="white"/>
  <path d="M29.6 57.3C29.7 57.4 30.1 57.5 30.7 57.6C30.9 57.6 31.1 57.8 31.1 58C31.1 58.4 31.1 58.7 31.1 58.9C31.1 59.2 30.9 59.3 30.6 59.3C29.8 59.3 29.2 59.2 28.7 59.1C28.3 59 28 58.8 27.7 58.5C27.5 58.3 27.3999 58 27.2999 57.7C27.1999 57.4 27.2 56.9 27.2 56.3V54.1H26.6C26.3 54.1 26.2 54 26.2 53.7V52.8C26.2 52.7 26.1999 52.6 26.2999 52.5C26.3999 52.4 26.5 52.4 26.6 52.4H27.2999C27.2999 52 27.3 51.6 27.4 51C27.4 50.7 27.5999 50.5 27.7999 50.5H29C29.2 50.5 29.4 50.7 29.4 51V52.3H30.4C30.7 52.3 30.9 52.4 30.9 52.7V53.6C30.9 53.9 30.8 54 30.5 54H29.4V56.2C29.4 56.8 29.5 57.1 29.6 57.3Z" fill="white"/>
  <path d="M33.9001 59.2H32.5001C32.3001 59.2 32.1001 59.1 32.1001 58.8V53.7C32.1001 53.5 32.1001 53.3 32.2001 53.1C32.3001 53 32.4001 52.9 32.6001 52.8C32.9001 52.6 33.3001 52.5 33.8001 52.4C34.4001 52.3 34.9001 52.2 35.4001 52.2C35.9001 52.2 36.3001 52.2 36.4001 52.3C36.6001 52.4 36.7001 52.5 36.7001 52.7C36.7001 53.1 36.7001 53.5 36.6001 53.8C36.6001 54 36.4001 54.1 36.2001 54.1C36.1001 54.1 36.0001 54.1 35.8001 54.1C35.6001 54.1 35.4001 54.1 35.4001 54.1C35.0001 54.1 34.8001 54.1 34.6001 54.2C34.5001 54.3 34.5001 54.3 34.4001 54.4C34.4001 54.4 34.4001 54.6 34.4001 54.7V58.8C34.3001 59 34.1001 59.2 33.9001 59.2Z" fill="white"/>
  <path d="M42.9 58.5C42.4 59 41.5 59.3 40.3 59.3C39.1 59.3 38.3 59 37.8 58.5C37.3 58 37 57.1 37 55.7C37 55 37.1 54.4 37.2 53.9C37.3 53.4 37.6 53.1 37.9 52.8C38.2 52.6 38.6 52.4 39 52.3C39.4 52.2 39.8 52.2 40.4 52.2C41 52.2 41.5 52.2 41.8 52.3C42.2 52.4 42.5 52.6 42.8 52.8C43.1 53 43.3 53.4 43.4 53.9C43.5 54.4 43.6 55 43.6 55.7C43.7 57.1 43.4 58 42.9 58.5ZM41.3 54.3C41.2 54.1 40.8 53.9 40.4 53.9C40 53.9 39.7 54 39.5 54.3C39.3 54.5 39.2 55 39.2 55.7C39.2 56.4 39.3 56.9 39.4 57.2C39.6 57.4 39.9 57.6 40.3 57.6C40.7 57.6 41.1 57.5 41.2 57.2C41.4 57 41.5 56.5 41.5 55.7C41.5 55 41.4 54.5 41.3 54.3Z" fill="white"/>
  <path d="M54.2 58.5C54.1 58.7 54 58.8 53.7 58.9C53.4 59 53 59.1 52.4 59.2C51.8 59.3 51.2999 59.3 50.7999 59.3C49.6999 59.3 48.9 59.1 48.4 58.6C47.9 58.1 47.7 57.2 47.7 55.9C47.7 54.5 48 53.5 48.5 53C49 52.5 49.8999 52.2 51.0999 52.2C51.5999 52.2 51.8999 52.2 52.0999 52.3V49.5C52.0999 49.2 52.2999 49 52.5999 49H53.9C54 49 54.1 49 54.2 49.1C54.3 49.2 54.2999 49.3 54.2999 49.5V58C54.1999 58.2 54.2 58.4 54.2 58.5ZM52.0999 54.4C52.0999 54.2 52 54 51.9 54C51.8 53.9 51.5999 53.9 51.2999 53.9C50.6999 53.9 50.3 54 50.2 54.3C50 54.6 49.9 55.1 49.9 55.9C49.9 56.5 49.9999 57 50.0999 57.2C50.2999 57.4 50.6 57.6 51 57.6C51.4 57.6 51.7 57.6 51.9 57.5C52 57.5 51.9999 57.4 52.0999 57.3C52.0999 57.3 52.0999 57.2 52.0999 57V54.4Z" fill="white"/>
  <path d="M58.1001 57.3C58.3001 57.5 58.7001 57.5 59.2001 57.5C59.8001 57.5 60.3001 57.5 60.7001 57.4C60.9001 57.4 61.0001 57.3 61.1001 57.3C61.3001 57.3 61.4001 57.4 61.5001 57.5C61.6001 57.8 61.7001 58.2 61.7001 58.5C61.7001 58.7 61.6001 58.8 61.5001 58.9C61.0001 59.1 60.2001 59.3 59.0001 59.3C57.8001 59.3 56.9001 59 56.4001 58.5C55.9001 57.9 55.6001 57 55.6001 55.8C55.6001 54.5 55.9001 53.6 56.4001 53C56.9001 52.4 57.8001 52.2 58.9001 52.2C59.3001 52.2 59.6001 52.2 59.9001 52.3C60.2001 52.4 60.4001 52.4 60.6001 52.5C60.8001 52.6 61.0001 52.7 61.1001 52.9C61.2001 53.1 61.4001 53.3 61.4001 53.4C61.5001 53.6 61.5001 53.8 61.6001 54.1C61.6001 54.4 61.7001 54.6 61.7001 54.9C61.7001 55.1 61.7001 55.4 61.7001 55.8C61.7001 56 61.6001 56.2 61.5001 56.3C61.4001 56.4 61.3001 56.4 61.2001 56.4H57.7001C57.8001 56.9 57.9001 57.2 58.1001 57.3ZM59.8001 54.9C59.8001 54.8 59.8001 54.8 59.8001 54.7C59.8001 54.3 59.7001 54.1 59.6001 53.9C59.5001 53.7 59.2001 53.7 58.8001 53.7C58.4001 53.7 58.2001 53.8 58.0001 54C57.8001 54.2 57.8001 54.5 57.7001 55H59.8001V54.9Z" fill="white"/>
  <path d="M67.8 59.1C67.3 59.1 66.9001 59 66.7001 58.7C66.4001 58.5 66.3 58.1 66.3 57.5V51.1C66.3 50.1 66.8 49.5 67.8 49.5H71.9001C72.2001 49.5 72.3001 49.6 72.3001 49.9V51C72.3001 51.2 72.2001 51.3 71.9001 51.3H68.9001C68.6001 51.3 68.5 51.5 68.5 51.8V53.1H71.6C71.9 53.1 72 53.2 72 53.5V54.6C72 54.8 71.9 54.9 71.6 54.9H68.5V56.5C68.5 56.7 68.5 56.8 68.6 56.9C68.7 57 68.8 57 69 57H72.2C72.5 57 72.6 57.1 72.6 57.4V58.5C72.6 58.7 72.5 58.9 72.2 58.9H67.8V59.1Z" fill="white"/>
  <path d="M75.2001 56.5C74.6001 56.4 74.1001 56.1 73.8001 55.8C73.5001 55.5 73.4001 55 73.4001 54.4C73.4001 53.7 73.6001 53.2 74.1001 52.8C74.6001 52.4 75.3001 52.2 76.2001 52.2C77.1001 52.2 77.8001 52.3 78.3001 52.5C78.5001 52.6 78.6001 52.7 78.6001 52.9C78.6001 53.1 78.5001 53.4 78.4001 53.9C78.4001 54.1 78.3001 54.2 78.1001 54.2C78.0001 54.2 77.9001 54.2 77.7001 54.1C77.2001 54 76.7001 53.9 76.2001 53.9C75.9001 53.9 75.8001 53.9 75.7001 54C75.6001 54.1 75.6001 54.2 75.6001 54.3C75.6001 54.4 75.6001 54.5 75.7001 54.6C75.8001 54.7 75.9001 54.7 76.2001 54.8L77.0001 55C77.7001 55.2 78.2001 55.4 78.4001 55.7C78.7001 56 78.8001 56.4 78.8001 57.1C78.8001 58.6 77.8001 59.3 75.9001 59.3C74.8001 59.3 74.0001 59.2 73.4001 59C73.2001 58.9 73.1001 58.8 73.1001 58.6C73.1001 58.4 73.2001 58.1 73.3001 57.6C73.4001 57.4 73.5001 57.3 73.7001 57.3C73.8001 57.3 73.9001 57.3 74.2001 57.4C74.7001 57.5 75.3001 57.6 76.0001 57.6C76.5001 57.6 76.7001 57.5 76.7001 57.2C76.7001 57.1 76.7001 57 76.6001 56.9C76.5001 56.8 76.4001 56.8 76.1001 56.7L75.2001 56.5Z" fill="white"/>
  <path d="M81.6 62.3H80.3C80.2 62.3 80.1 62.3 80 62.2C80 62.1 80 62 80 61.8V53.5C80 53.3 80 53.1 80.1 53C80.2 52.8 80.3 52.7 80.6 52.6C80.9 52.5 81.3 52.4 81.9 52.3C82.5 52.2 83 52.2 83.5 52.2C84.6 52.2 85.4 52.4 85.9 52.9C86.4 53.4 86.6 54.3 86.6 55.6C86.6 56.3 86.5 56.9 86.4 57.4C86.3 57.9 86.1 58.3 85.8 58.5C85.5 58.8 85.2 59 84.8 59.1C84.4 59.2 83.9 59.3 83.3 59.3C82.9 59.3 82.5 59.3 82.3 59.2V61.9C82.1 62.2 81.9 62.3 81.6 62.3ZM82.3 57.5C82.4 57.6 82.6 57.6 82.9 57.6C83.5 57.6 83.9 57.5 84.1 57.2C84.3 56.9 84.4 56.4 84.4 55.6C84.4 55 84.3 54.5 84.2 54.3C84 54.1 83.7 53.9 83.3 53.9C82.9 53.9 82.6 54 82.4 54.1C82.3 54.1 82.3 54.2 82.2 54.3C82.2 54.4 82.2 54.4 82.2 54.6V57.2C82.1 57.3 82.2 57.4 82.3 57.5Z" fill="white"/>
  <path d="M90.1001 57.3C90.3001 57.5 90.7001 57.5 91.2001 57.5C91.8001 57.5 92.3001 57.5 92.7001 57.4C92.9001 57.4 93.0001 57.3 93.1001 57.3C93.3001 57.3 93.4001 57.4 93.5001 57.5C93.6001 57.8 93.7001 58.2 93.7001 58.5C93.7001 58.7 93.6001 58.8 93.5001 58.9C93.0001 59.1 92.2001 59.3 91.0001 59.3C89.8001 59.3 88.9001 59 88.4001 58.5C87.9001 57.9 87.6001 57 87.6001 55.8C87.6001 54.5 87.9001 53.6 88.4001 53C88.9001 52.4 89.8001 52.2 90.9001 52.2C91.3001 52.2 91.6001 52.2 91.9001 52.3C92.2001 52.4 92.4001 52.4 92.6001 52.5C92.8001 52.6 93.0001 52.7 93.1001 52.9C93.2001 53.1 93.4001 53.3 93.4001 53.4C93.5001 53.6 93.5001 53.8 93.6001 54.1C93.6001 54.4 93.7001 54.6 93.7001 54.9C93.7001 55.1 93.7001 55.4 93.7001 55.8C93.7001 56 93.6001 56.2 93.5001 56.3C93.4001 56.4 93.3001 56.4 93.2001 56.4H89.7001C89.7001 56.9 89.9001 57.2 90.1001 57.3ZM91.8001 54.9C91.8001 54.8 91.8001 54.8 91.8001 54.7C91.8001 54.3 91.7001 54.1 91.6001 53.9C91.5001 53.7 91.2001 53.7 90.8001 53.7C90.4001 53.7 90.2001 53.8 90.0001 54C89.8001 54.2 89.8001 54.5 89.7001 55H91.8001V54.9Z" fill="white"/>
  <path d="M97.2 57.2C97.4 57.5 97.7 57.6 98.2 57.6C98.6 57.6 98.9 57.6 99.2 57.5C99.5 57.5 99.6 57.4 99.6 57.4C99.8 57.4 99.9 57.5 99.9 57.6C100 58 100.1 58.4 100.1 58.6C100.1 58.8 100 58.9 99.9 59C99.4 59.2 98.8 59.3 97.9 59.3C96.8 59.3 96 59 95.5 58.5C95 58 94.7 57.1 94.7 55.8C94.7 54.5 95 53.6 95.5 53C96 52.4 96.9 52.1 98.1 52.1C98.8 52.1 99.3 52.2 99.7 52.3C99.9 52.4 100 52.5 100 52.6C100 52.9 99.9 53.3 99.8 53.7C99.8 53.9 99.7 54 99.5 54C99.5 54 99.4 54 99.2 54H99C98.8 54 98.5 53.9 98.1 53.9C97.6 53.9 97.2 54 97 54.3C96.8 54.6 96.7 55 96.7 55.7C96.9 56.5 97 56.9 97.2 57.2Z" fill="white"/>
  <path d="M103.3 51.2C103.1 51.4 102.8 51.5 102.5 51.5C101.8 51.5 101.4 51.1 101.4 50.4C101.4 49.6 101.8 49.3 102.5 49.3C102.9 49.3 103.1 49.4 103.3 49.6C103.5 49.8 103.6 50.1 103.6 50.5C103.5 50.7 103.4 51 103.3 51.2ZM103.1 59.2H101.7C101.5 59.2 101.3 59.1 101.3 58.8V52.8C101.3 52.5 101.4 52.4 101.7 52.4H103.1C103.3 52.4 103.5 52.5 103.5 52.8V58.8C103.5 59 103.4 59.2 103.1 59.2Z" fill="white"/>
  <path d="M110.8 58.7C110.7 58.8 110.5 58.9 110.3 59C110 59.1 109.6 59.2 109 59.2C108.4 59.3 107.9 59.3 107.5 59.3C106.5 59.3 105.8 59.1 105.4 58.7C105 58.3 104.8 57.8 104.8 57.1C104.8 56.3 105.1 55.8 105.6 55.4C106 55.1 106.8 55 107.8 55C108.2 55 108.5 55 108.9 55V54.8C108.9 54.6 108.9 54.4 108.8 54.3C108.7 54.1 108.4 54 107.8 54C107.4 54 107 54 106.5 54.1C106.2 54.2 106 54.2 105.9 54.2C105.7 54.2 105.6 54.1 105.6 53.9C105.5 53.5 105.5 53.2 105.5 53C105.5 52.8 105.6 52.6 105.8 52.5C106.4 52.3 107.2 52.2 108.1 52.2C109.3 52.2 110.2 52.4 110.5 52.8C110.8 53.1 111 53.8 111 54.6V58C111 58.3 110.9 58.5 110.8 58.7ZM108 56.3C107.5 56.3 107.2 56.4 107 56.5C106.9 56.6 106.8 56.8 106.8 57C106.8 57.5 107.1 57.7 107.7 57.7C108.1 57.7 108.4 57.7 108.6 57.6C108.7 57.6 108.7 57.5 108.8 57.4C108.8 57.3 108.8 57.2 108.8 56.9V56.3C108.6 56.4 108.3 56.3 108 56.3Z" fill="white"/>
  <path d="M114.8 57.2C114.9 57.4 115.1 57.5 115.6 57.6C115.8 57.6 115.9 57.8 115.9 58C115.9 58.4 115.9 58.6 115.8 58.8C115.8 58.9 115.7 59 115.6 59.1C115.5 59.2 115.4 59.2 115.2 59.2C114.5 59.2 114 59.1 113.6 59C113.2 58.9 113 58.6 112.8 58.3C112.6 58 112.5 57.4 112.5 56.6V49.4C112.5 49.1 112.6 49 112.9 49H114.3C114.4 49 114.5 49 114.6 49.1C114.6 49.2 114.7 49.3 114.7 49.4V56.3C114.7 56.7 114.7 57 114.8 57.2Z" fill="white"/>
  <path d="M118.8 51.2C118.6 51.4 118.3 51.5 118 51.5C117.3 51.5 116.9 51.1 116.9 50.4C116.9 49.6 117.3 49.3 118 49.3C118.4 49.3 118.6 49.4 118.8 49.6C119 49.8 119.1 50.1 119.1 50.5C119 50.7 119 51 118.8 51.2ZM118.6 59.2H117.2C117 59.2 116.8 59.1 116.8 58.8V52.8C116.8 52.5 116.9 52.4 117.2 52.4H118.6C118.8 52.4 119 52.5 119 52.8V58.8C119 59 118.9 59.2 118.6 59.2Z" fill="white"/>
  <path d="M126.9 58.5C126.8 58.7 126.7 58.8 126.4 58.9C126.1 59 125.7 59.1 125.1 59.2C124.5 59.3 124 59.3 123.5 59.3C122.4 59.3 121.6 59.1 121.1 58.6C120.6 58.1 120.4 57.2 120.4 55.9C120.4 54.5 120.7 53.5 121.2 53C121.7 52.5 122.6 52.2 123.8 52.2C124.3 52.2 124.6 52.2 124.8 52.3V49.5C124.8 49.2 125 49 125.3 49H126.6C126.7 49 126.8 49 126.9 49.1C127 49.2 127 49.3 127 49.5V58C126.9 58.2 126.9 58.4 126.9 58.5ZM124.8 54.4C124.8 54.2 124.7 54 124.6 54C124.5 53.9 124.3 53.9 124 53.9C123.4 53.9 123 54 122.9 54.3C122.7 54.6 122.6 55.1 122.6 55.9C122.6 56.5 122.7 57 122.8 57.2C123 57.4 123.3 57.6 123.7 57.6C124.1 57.6 124.4 57.6 124.6 57.5C124.7 57.5 124.7 57.4 124.8 57.3C124.8 57.3 124.8 57.2 124.8 57V54.4Z" fill="white"/>
  <path d="M134.2 58.7C134.1 58.8 133.9 58.9 133.7 59C133.4 59.1 133 59.2 132.4 59.2C131.8 59.3 131.3 59.3 130.9 59.3C129.9 59.3 129.2 59.1 128.8 58.7C128.4 58.3 128.2 57.8 128.2 57.1C128.2 56.3 128.5 55.8 129 55.4C129.4 55.1 130.2 55 131.2 55C131.6 55 131.9 55 132.3 55V54.8C132.3 54.6 132.3 54.4 132.2 54.3C132.1 54.1 131.8 54 131.2 54C130.8 54 130.4 54 129.9 54.1C129.6 54.2 129.4 54.2 129.3 54.2C129.1 54.2 129 54.1 129 53.9C128.9 53.5 128.9 53.2 128.9 53C128.9 52.8 129 52.6 129.2 52.5C129.8 52.3 130.6 52.2 131.5 52.2C132.7 52.2 133.6 52.4 133.9 52.8C134.2 53.1 134.4 53.8 134.4 54.6V58C134.4 58.3 134.4 58.5 134.2 58.7ZM131.5 56.3C131 56.3 130.7 56.4 130.5 56.5C130.4 56.6 130.3 56.8 130.3 57C130.3 57.5 130.6 57.7 131.2 57.7C131.6 57.7 131.9 57.7 132.1 57.6C132.2 57.6 132.2 57.5 132.3 57.4C132.3 57.3 132.3 57.2 132.3 56.9V56.3C132 56.4 131.8 56.3 131.5 56.3Z" fill="white"/>
  <path d="M142.2 58.5C142.1 58.7 142 58.8 141.7 58.9C141.4 59 141 59.1 140.4 59.2C139.8 59.3 139.3 59.3 138.8 59.3C137.7 59.3 136.9 59.1 136.4 58.6C135.9 58.1 135.7 57.2 135.7 55.9C135.7 54.5 136 53.5 136.5 53C137 52.5 137.9 52.2 139.1 52.2C139.6 52.2 139.9 52.2 140.1 52.3V49.5C140.1 49.2 140.3 49 140.6 49H141.9C142 49 142.1 49 142.2 49.1C142.3 49.2 142.3 49.3 142.3 49.5V58C142.3 58.2 142.3 58.4 142.2 58.5ZM140.1 54.4C140.1 54.2 140 54 139.9 54C139.8 53.9 139.6 53.9 139.3 53.9C138.7 53.9 138.3 54 138.2 54.3C138 54.6 137.9 55.1 137.9 55.9C137.9 56.5 138 57 138.1 57.2C138.3 57.4 138.6 57.6 139 57.6C139.4 57.6 139.7 57.6 139.9 57.5C140 57.5 140 57.4 140.1 57.3C140.1 57.3 140.1 57.2 140.1 57V54.4Z" fill="white"/>
  <path d="M146.2 57.3C146.4 57.5 146.8 57.5 147.3 57.5C147.9 57.5 148.4 57.5 148.8 57.4C149 57.4 149.1 57.3 149.2 57.3C149.4 57.3 149.5 57.4 149.6 57.5C149.7 57.8 149.8 58.2 149.8 58.5C149.8 58.7 149.7 58.8 149.6 58.9C149.1 59.1 148.3 59.3 147.1 59.3C145.9 59.3 145 59 144.5 58.5C144 57.9 143.7 57 143.7 55.8C143.7 54.5 144 53.6 144.5 53C145 52.4 145.9 52.2 147 52.2C147.4 52.2 147.7 52.2 148 52.3C148.3 52.4 148.5 52.4 148.7 52.5C148.9 52.6 149.1 52.7 149.2 52.9C149.3 53.1 149.5 53.3 149.5 53.4C149.6 53.6 149.6 53.8 149.7 54.1C149.7 54.4 149.8 54.6 149.8 54.9C149.8 55.1 149.8 55.4 149.8 55.8C149.8 56 149.7 56.2 149.6 56.3C149.5 56.4 149.4 56.4 149.3 56.4H145.8C145.8 56.9 145.9 57.2 146.2 57.3ZM147.8 54.9C147.8 54.8 147.8 54.8 147.8 54.7C147.8 54.3 147.7 54.1 147.6 53.9C147.5 53.7 147.2 53.7 146.8 53.7C146.4 53.7 146.2 53.8 146 54C145.8 54.2 145.8 54.5 145.7 55H147.8V54.9Z" fill="white"/>
  <path d="M152.6 56.5C152 56.4 151.5 56.1 151.2 55.8C150.9 55.5 150.8 55 150.8 54.4C150.8 53.7 151 53.2 151.5 52.8C152 52.4 152.7 52.2 153.6 52.2C154.5 52.2 155.2 52.3 155.7 52.5C155.9 52.6 156 52.7 156 52.9C156 53.1 155.9 53.4 155.8 53.9C155.8 54.1 155.7 54.2 155.5 54.2C155.4 54.2 155.3 54.2 155.1 54.1C154.6 54 154.1 53.9 153.6 53.9C153.3 53.9 153.2 53.9 153.1 54C153 54.1 153 54.2 153 54.3C153 54.4 153 54.5 153.1 54.6C153.2 54.7 153.3 54.7 153.6 54.8L154.5 55C155.2 55.2 155.7 55.4 155.9 55.7C156.2 56 156.3 56.4 156.3 57.1C156.3 58.6 155.3 59.3 153.4 59.3C152.3 59.3 151.5 59.2 150.9 59C150.7 58.9 150.6 58.8 150.6 58.6C150.6 58.4 150.7 58.1 150.8 57.6C150.9 57.4 151 57.3 151.2 57.3C151.3 57.3 151.4 57.3 151.7 57.4C152.2 57.5 152.8 57.6 153.5 57.6C154 57.6 154.2 57.5 154.2 57.2C154.2 57.1 154.2 57 154.1 56.9C154 56.8 153.9 56.8 153.6 56.7L152.6 56.5Z" fill="white"/>
  <path d="M29.1999 74.4H27.7999C27.5999 74.4 27.3999 74.2 27.3999 73.9V66.3C27.3999 65.8 27.4999 65.4 27.6999 65.2C27.8999 64.9 28.2999 64.8 28.9999 64.8H29.4999C29.7999 64.8 29.9999 64.8 30.1999 64.9C30.3999 64.9 30.4999 65 30.5999 65.2C30.6999 65.4 30.7999 65.5 30.8999 65.7C30.9999 65.8 31.0999 66.1 31.1999 66.5C31.6999 68 32.0999 69.1 32.2999 69.9C32.3999 69.6 32.7999 68.4 33.3999 66.5C33.4999 66.2 33.5999 65.9 33.6999 65.8C33.7999 65.7 33.8999 65.5 33.9999 65.3C34.0999 65.1 34.2999 65 34.4999 65C34.6999 64.9 34.8999 64.9 35.2999 64.9H35.7999C36.0999 64.9 36.3999 64.9 36.5999 65C36.7999 65.1 36.8999 65.2 36.9999 65.3C37.0999 65.5 37.0999 65.6 37.1999 65.8C37.1999 66 37.1999 66.2 37.1999 66.4V73.9C37.1999 74.2 37.0999 74.4 36.7999 74.4H35.3999C35.0999 74.4 34.9999 74.2 34.9999 73.9C34.9999 70.1 34.9999 67.8 34.9999 67C34.6999 68 34.1999 69.6 33.4999 71.9C33.3999 72.2 33.2999 72.5 33.0999 72.6C32.9999 72.7 32.7999 72.8 32.4999 72.8H32.2999C31.9999 72.8 31.8999 72.7 31.6999 72.6C31.5999 72.5 31.4999 72.3 31.2999 71.9C30.3999 69.3 29.8999 67.6 29.6999 67C29.6999 67.8 29.6999 70.1 29.6999 73.9C29.5999 74.2 29.3999 74.4 29.1999 74.4Z" fill="white"/>
  <path d="M41.0999 72.6C41.2999 72.8 41.6999 72.8 42.1999 72.8C42.7999 72.8 43.2999 72.8 43.6999 72.7C43.8999 72.7 43.9999 72.6 44.0999 72.6C44.2999 72.6 44.3999 72.7 44.4999 72.8C44.5999 73.1 44.6999 73.5 44.6999 73.8C44.6999 74 44.5999 74.1 44.4999 74.2C43.9999 74.4 43.1999 74.6 41.9999 74.6C40.7999 74.6 39.8999 74.3 39.3999 73.8C38.8999 73.2 38.5999 72.3 38.5999 71.1C38.5999 69.8 38.8999 68.9 39.3999 68.3C39.8999 67.7 40.7999 67.5 41.8999 67.5C42.2999 67.5 42.5999 67.5 42.8999 67.6C43.1999 67.7 43.3999 67.7 43.5999 67.8C43.7999 67.9 43.9999 68 44.0999 68.2C44.1999 68.4 44.3999 68.6 44.3999 68.7C44.4999 68.9 44.4999 69.1 44.5999 69.4C44.5999 69.7 44.6999 69.9 44.6999 70.2C44.6999 70.4 44.6999 70.7 44.6999 71.1C44.6999 71.3 44.5999 71.5 44.4999 71.6C44.3999 71.7 44.2999 71.7 44.1999 71.7H40.6999C40.6999 72.1 40.8999 72.4 41.0999 72.6ZM41.6999 66.6C41.4999 66.6 41.1999 66.6 40.9999 66.6C40.7999 66.6 40.6999 66.5 40.6999 66.3C40.6999 66.2 40.6999 66.1 40.7999 66L41.8999 64.5C42.0999 64.3 42.2999 64.2 42.4999 64.2C42.8999 64.2 43.1999 64.2 43.4999 64.2C43.7999 64.2 43.8999 64.3 43.8999 64.5C43.8999 64.6 43.7999 64.7 43.6999 64.9L42.1999 66.4C42.1999 66.5 41.9999 66.6 41.6999 66.6ZM42.7999 70.2C42.7999 70.1 42.7999 70.1 42.7999 70C42.7999 69.6 42.6999 69.4 42.5999 69.2C42.4999 69 42.1999 69 41.7999 69C41.3999 69 41.1999 69.1 40.9999 69.3C40.7999 69.5 40.7999 69.8 40.6999 70.3H42.7999V70.2Z" fill="white"/>
  <path d="M52.2 73.7C52.1 73.9 52 74 51.7 74.1C51.4 74.2 51 74.3 50.4 74.4C49.8 74.5 49.2999 74.5 48.7999 74.5C47.6999 74.5 46.9 74.3 46.4 73.8C45.9 73.3 45.7 72.4 45.7 71.1C45.7 69.7 46 68.7 46.5 68.2C47 67.7 47.8999 67.4 49.0999 67.4C49.5999 67.4 49.8999 67.4 50.0999 67.5V64.7C50.0999 64.4 50.2999 64.2 50.5999 64.2H51.9C52 64.2 52.1 64.2 52.2 64.3C52.3 64.4 52.2999 64.5 52.2999 64.7V73.2C52.2999 73.5 52.3 73.6 52.2 73.7ZM50.2 69.7C50.2 69.5 50.1 69.3 50 69.3C49.9 69.2 49.7 69.2 49.4 69.2C48.8 69.2 48.3999 69.3 48.2999 69.6C48.0999 69.9 48 70.4 48 71.2C48 71.8 48.1 72.3 48.2 72.5C48.4 72.7 48.6999 72.9 49.0999 72.9C49.4999 72.9 49.8 72.9 50 72.8C50.1 72.8 50.1 72.7 50.2 72.6C50.2 72.6 50.2 72.5 50.2 72.3V69.7Z" fill="white"/>
  <path d="M55.9 66.4C55.7 66.6 55.4 66.7 55.1 66.7C54.4 66.7 54 66.3 54 65.6C54 64.8 54.4 64.5 55.1 64.5C55.5 64.5 55.7 64.6 55.9 64.8C56.1 65 56.2 65.3 56.2 65.7C56.2 65.9 56.1 66.2 55.9 66.4ZM55.8 74.4H54.4C54.2 74.4 54 74.3 54 74V68C54 67.7 54.1 67.6 54.4 67.6H55.8C56 67.6 56.2 67.7 56.2 68V74C56.2 74.3 56 74.4 55.8 74.4Z" fill="white"/>
  <path d="M60 72.4C60.2 72.7 60.5 72.8 61 72.8C61.4 72.8 61.7 72.8 62 72.7C62.3 72.7 62.4 72.6 62.4 72.6C62.6 72.6 62.7 72.7 62.7 72.8C62.8 73.2 62.9 73.6 62.9 73.8C62.9 74 62.8 74.1 62.7 74.2C62.2 74.4 61.6 74.5 60.7 74.5C59.6 74.5 58.8 74.2 58.3 73.7C57.8 73.2 57.5 72.3 57.5 71C57.5 69.7 57.8 68.8 58.3 68.2C58.8 67.6 59.7 67.3 60.9 67.3C61.6 67.3 62.1 67.4 62.5 67.5C62.7 67.6 62.8 67.7 62.8 67.8C62.8 68.1 62.7 68.5 62.6 68.9C62.6 69.1 62.5 69.2 62.3 69.2C62.3 69.2 62.2 69.2 62 69.2H61.8C61.6 69.2 61.3 69.1 60.9 69.1C60.4 69.1 60 69.2 59.8 69.5C59.6 69.8 59.5 70.2 59.5 70.9C59.7 71.7 59.8 72.2 60 72.4Z" fill="white"/>
  <path d="M69.5 73.9C69.4 74 69.2 74.1 69 74.2C68.7 74.3 68.3 74.4 67.7 74.4C67.1 74.5 66.6 74.5 66.2 74.5C65.2 74.5 64.5 74.3 64.1 73.9C63.7 73.5 63.5 73 63.5 72.3C63.5 71.5 63.8 71 64.3 70.6C64.7 70.3 65.5 70.2 66.5 70.2C66.9 70.2 67.2 70.2 67.6 70.2V70C67.6 69.8 67.6 69.6 67.5 69.5C67.4 69.3 67.1 69.2 66.5 69.2C66.1 69.2 65.7 69.2 65.2 69.3C64.9 69.4 64.7 69.4 64.6 69.4C64.4 69.4 64.3 69.3 64.3 69.1C64.2 68.7 64.2 68.4 64.2 68.2C64.2 68 64.3 67.8 64.5 67.7C65.1 67.5 65.9 67.4 66.8 67.4C68 67.4 68.9 67.6 69.2 68C69.5 68.3 69.7 69 69.7 69.8V73.2C69.7 73.5 69.6 73.7 69.5 73.9ZM66.8 71.6C66.3 71.6 66 71.7 65.8 71.8C65.7 71.9 65.6 72.1 65.6 72.3C65.6 72.8 65.9 73 66.5 73C66.9 73 67.2 73 67.4 72.9C67.5 72.9 67.5 72.8 67.6 72.7C67.6 72.6 67.6 72.5 67.6 72.2V71.6C67.3 71.6 67.1 71.6 66.8 71.6Z" fill="white"/>
  <path d="M72.7998 71.7C72.1998 71.6 71.6998 71.3 71.3998 71C71.0998 70.7 70.9998 70.2 70.9998 69.6C70.9998 68.9 71.1998 68.4 71.6998 68C72.1998 67.6 72.8998 67.4 73.7998 67.4C74.6998 67.4 75.3998 67.5 75.8998 67.7C76.0998 67.8 76.1998 67.9 76.1998 68.1C76.1998 68.3 76.0998 68.6 75.9998 69.1C75.9998 69.3 75.8998 69.4 75.6998 69.4C75.5998 69.4 75.4998 69.4 75.2998 69.3C74.7998 69.2 74.2998 69.1 73.7998 69.1C73.4998 69.1 73.3998 69.1 73.2998 69.2C73.1998 69.3 73.1998 69.4 73.1998 69.5C73.1998 69.6 73.1998 69.7 73.2998 69.8C73.3998 69.9 73.4998 69.9 73.7998 70L74.6998 70.2C75.3998 70.4 75.8998 70.6 76.0998 70.9C76.3998 71.2 76.4998 71.6 76.4998 72.3C76.4998 73.8 75.4998 74.5 73.5998 74.5C72.4998 74.5 71.6998 74.4 71.0998 74.2C70.8998 74.1 70.7998 74 70.7998 73.8C70.7998 73.6 70.8998 73.3 70.9998 72.8C71.0998 72.6 71.1998 72.5 71.3998 72.5C71.4998 72.5 71.5998 72.5 71.8998 72.6C72.3998 72.7 72.9998 72.8 73.6998 72.8C74.1998 72.8 74.3998 72.7 74.3998 72.4C74.3998 72.3 74.3998 72.2 74.2998 72.1C74.0998 72 73.9998 72 73.6998 71.9L72.7998 71.7Z" fill="white"/>
  <path d="M86.4999 65.3C86.5999 65.1 86.5999 65 86.6999 64.9C86.7999 64.8 86.8999 64.8 86.9999 64.8C87.6999 64.8 88.1999 64.8 88.4999 64.9C88.5999 64.9 88.6999 65 88.6999 65.2C88.6999 65.3 88.6999 65.5 88.5999 65.7L85.9999 73.4C85.8999 73.6 85.8999 73.8 85.7999 73.9C85.6999 74 85.5999 74.1 85.3999 74.3C85.1999 74.5 84.8999 74.5 84.5999 74.5H83.9999C83.6999 74.5 83.3999 74.4 83.1999 74.3C82.9999 74.2 82.7999 74.1 82.7999 73.9C82.6999 73.8 82.5999 73.6 82.4999 73.3L79.9999 65.7C79.8999 65.5 79.8999 65.4 79.8999 65.2C79.8999 65.1 79.9999 65 80.0999 64.9C80.2999 64.8 80.7999 64.8 81.7999 64.8C81.9999 64.8 82.0999 64.8 82.0999 64.9C82.1999 65 82.1999 65.1 82.2999 65.3C83.4999 69.2 84.1999 71.5 84.3999 72.1C84.3999 71.7 85.1999 69.5 86.4999 65.3Z" fill="white"/>
  <path d="M91.6 72.6C91.8 72.8 92.2 72.8 92.7 72.8C93.3 72.8 93.8 72.8 94.2 72.7C94.4 72.7 94.5 72.6 94.6 72.6C94.8 72.6 94.9 72.7 94.9 72.8C95 73.1 95.1 73.5 95.1 73.8C95.1 74 95 74.1 94.9 74.2C94.4 74.4 93.6 74.6 92.4 74.6C91.2 74.6 90.3 74.3 89.8 73.8C89.3 73.1 89 72.3 89 71C89 69.7 89.3 68.8 89.8 68.2C90.3 67.6 91.2 67.4 92.3 67.4C92.7 67.4 93 67.4 93.3 67.5C93.6 67.6 93.8 67.6 94 67.7C94.2 67.8 94.4 67.9 94.5 68.1C94.6 68.3 94.8 68.5 94.8 68.6C94.9 68.8 94.9 69 95 69.3C95 69.6 95.1 69.8 95.1 70.1C95.1 70.3 95.1 70.6 95.1 71C95.1 71.2 95 71.4 94.9 71.5C94.8 71.6 94.7 71.6 94.6 71.6H91.1C91.2 72.1 91.3 72.4 91.6 72.6ZM93.2 70.2C93.2 70.1 93.2 70.1 93.2 70C93.2 69.6 93.1 69.4 93 69.2C92.9 69 92.6 69 92.2 69C91.8 69 91.6 69.1 91.4 69.3C91.2 69.5 91.2 69.8 91.1 70.3H93.2V70.2Z" fill="white"/>
  <path d="M99.2998 72.5C99.3998 72.6 99.7998 72.7 100.4 72.8C100.6 72.8 100.7 73 100.7 73.2C100.7 73.6 100.7 73.9 100.7 74.1C100.7 74.4 100.5 74.5 100.2 74.5C99.3998 74.5 98.7998 74.4 98.2998 74.3C97.8998 74.2 97.5998 74 97.2998 73.7C97.0998 73.5 96.9998 73.2 96.8998 72.9C96.7998 72.6 96.7998 72.1 96.7998 71.5V69.3H96.1998C95.8998 69.3 95.7998 69.2 95.7998 68.9V68C95.7998 67.9 95.7998 67.8 95.8998 67.7C95.9998 67.6 96.0998 67.6 96.1998 67.6H96.9998C96.9998 67.2 96.9998 66.8 97.0998 66.2C97.0998 65.9 97.2998 65.7 97.4998 65.7H98.7998C98.9998 65.7 99.1998 65.9 99.1998 66.2V67.5H100.2C100.5 67.5 100.7 67.6 100.7 67.9V68.8C100.7 69.1 100.6 69.2 100.3 69.2H99.1998V71.4C99.0998 72 99.1998 72.3 99.2998 72.5Z" fill="white"/>
  <path d="M103.9 72.6C104.1 72.8 104.5 72.8 105 72.8C105.6 72.8 106.1 72.8 106.5 72.7C106.7 72.7 106.8 72.6 106.9 72.6C107.1 72.6 107.2 72.7 107.2 72.8C107.3 73.1 107.4 73.5 107.4 73.8C107.4 74 107.3 74.1 107.2 74.2C106.7 74.4 105.9 74.6 104.7 74.6C103.5 74.6 102.6 74.3 102.1 73.8C101.6 73.2 101.3 72.3 101.3 71.1C101.3 69.8 101.6 68.9 102.1 68.3C102.6 67.7 103.5 67.5 104.6 67.5C105 67.5 105.3 67.5 105.6 67.6C105.9 67.7 106.1 67.7 106.3 67.8C106.5 67.9 106.7 68 106.8 68.2C106.9 68.4 107.1 68.6 107.1 68.7C107.2 68.9 107.2 69.1 107.3 69.4C107.3 69.7 107.4 69.9 107.4 70.2C107.4 70.4 107.4 70.7 107.4 71.1C107.4 71.3 107.3 71.5 107.2 71.6C107.1 71.7 107 71.7 106.9 71.7H103.4C103.5 72.1 103.6 72.4 103.9 72.6ZM105.5 70.2C105.5 70.1 105.5 70.1 105.5 70C105.5 69.6 105.4 69.4 105.3 69.2C105.2 69 104.9 69 104.5 69C104.1 69 103.9 69.1 103.7 69.3C103.5 69.5 103.5 69.8 103.4 70.3H105.5V70.2Z" fill="white"/>
  <path d="M110.6 74.4H109.2C109 74.4 108.8 74.3 108.8 74V68.9C108.8 68.7 108.8 68.5 108.9 68.3C109 68.2 109.1 68.1 109.2 68C109.5 67.8 109.9 67.7 110.4 67.6C110.9 67.5 111.5 67.4 112 67.4C112.5 67.4 112.9 67.4 113 67.5C113.2 67.6 113.3 67.7 113.3 67.9C113.3 68.3 113.3 68.7 113.2 69C113.2 69.2 113 69.3 112.8 69.3C112.7 69.3 112.6 69.3 112.4 69.3C112.2 69.3 112 69.3 112 69.3C111.6 69.3 111.4 69.3 111.2 69.4C111.1 69.5 111.1 69.5 111 69.6C111 69.6 111 69.8 111 69.9V74C111 74.3 110.8 74.4 110.6 74.4Z" fill="white"/>
  <path d="M116.2 66.4C116 66.6 115.7 66.7 115.4 66.7C114.7 66.7 114.3 66.3 114.3 65.6C114.3 64.8 114.7 64.5 115.4 64.5C115.8 64.5 116 64.6 116.2 64.8C116.4 65 116.5 65.3 116.5 65.7C116.4 65.9 116.3 66.2 116.2 66.4ZM116 74.4H114.6C114.4 74.4 114.2 74.3 114.2 74V68C114.2 67.7 114.3 67.6 114.6 67.6H116C116.2 67.6 116.4 67.7 116.4 68V74C116.4 74.3 116.3 74.4 116 74.4Z" fill="white"/>
  <path d="M119.8 74.4H118.4C118.2 74.4 118 74.3 118 74V68.9C118 68.5 118.2 68.2 118.5 68.1C118.9 67.9 119.5 67.8 120.2 67.7C120.9 67.6 121.6 67.5 122.2 67.5C122.8 67.5 123.3 67.6 123.6 67.7C123.9 67.8 124.1 68.1 124.2 68.3C124.3 68.6 124.3 69 124.3 69.6V74C124.3 74.3 124.2 74.4 123.9 74.4H122.5C122.3 74.4 122.1 74.3 122.1 74V70.1C122.1 69.9 122.1 69.7 122 69.5C121.9 69.3 121.7 69.1 121.3 69.1C120.9 69.1 120.6 69.1 120.4 69.2C120.3 69.2 120.2 69.3 120.1 69.3C120 69.4 120 69.5 120 69.6V74C120.2 74.3 120.1 74.4 119.8 74.4Z" fill="white"/>
  <path d="M131.7 73.9C131.6 74 131.4 74.1 131.2 74.2C130.9 74.3 130.5 74.4 129.9 74.4C129.3 74.5 128.8 74.5 128.4 74.5C127.4 74.5 126.7 74.3 126.3 73.9C125.9 73.5 125.7 73 125.7 72.3C125.7 71.5 126 71 126.5 70.6C126.9 70.3 127.7 70.2 128.7 70.2C129.1 70.2 129.4 70.2 129.8 70.2V70C129.8 69.8 129.8 69.6 129.7 69.5C129.6 69.3 129.3 69.2 128.7 69.2C128.3 69.2 127.9 69.2 127.4 69.3C127.1 69.4 126.9 69.4 126.8 69.4C126.6 69.4 126.5 69.3 126.5 69.1C126.4 68.7 126.4 68.4 126.4 68.2C126.4 68 126.5 67.8 126.7 67.7C127.3 67.5 128.1 67.4 129 67.4C130.2 67.4 131.1 67.6 131.4 68C131.7 68.3 131.9 69 131.9 69.8V73.2C131.9 73.5 131.8 73.7 131.7 73.9ZM129 71.6C128.5 71.6 128.2 71.7 128 71.8C127.9 71.9 127.8 72.1 127.8 72.3C127.8 72.8 128.1 73 128.7 73C129.1 73 129.4 73 129.6 72.9C129.7 72.9 129.7 72.8 129.8 72.7C129.8 72.6 129.8 72.5 129.8 72.2V71.6C129.5 71.6 129.2 71.6 129 71.6Z" fill="white"/>
  <path d="M135.3 74.4H133.9C133.7 74.4 133.5 74.3 133.5 74V68.9C133.5 68.7 133.5 68.5 133.6 68.3C133.7 68.2 133.8 68.1 134 68C134.3 67.8 134.7 67.7 135.2 67.6C135.8 67.5 136.3 67.4 136.8 67.4C137.3 67.4 137.7 67.4 137.8 67.5C138 67.6 138.1 67.7 138.1 67.9C138.1 68.3 138.1 68.7 138 69C138 69.2 137.8 69.3 137.6 69.3C137.5 69.3 137.4 69.3 137.2 69.3C137 69.3 136.8 69.3 136.8 69.3C136.4 69.3 136.2 69.3 136 69.4C135.9 69.5 135.9 69.5 135.8 69.6C135.8 69.6 135.8 69.8 135.8 69.9V74C135.6 74.3 135.5 74.4 135.3 74.4Z" fill="white"/>
  <path d="M140.8 66.4C140.6 66.6 140.3 66.7 140 66.7C139.3 66.7 138.9 66.3 138.9 65.6C138.9 64.8 139.3 64.5 140 64.5C140.4 64.5 140.6 64.6 140.8 64.8C141 65 141.1 65.3 141.1 65.7C141.1 65.9 141 66.2 140.8 66.4ZM140.7 74.4H139.3C139.1 74.4 138.9 74.3 138.9 74V68C138.9 67.7 139 67.6 139.3 67.6H140.7C140.9 67.6 141.1 67.7 141.1 68V74C141.1 74.3 141 74.4 140.7 74.4Z" fill="white"/>
  <path d="M148.4 73.9C148.3 74 148.1 74.1 147.9 74.2C147.6 74.3 147.2 74.4 146.6 74.4C146 74.5 145.5 74.5 145.1 74.5C144.1 74.5 143.4 74.3 143 73.9C142.6 73.5 142.4 73 142.4 72.3C142.4 71.5 142.7 71 143.2 70.6C143.6 70.3 144.4 70.2 145.4 70.2C145.8 70.2 146.1 70.2 146.5 70.2V70C146.5 69.8 146.5 69.6 146.4 69.5C146.3 69.3 146 69.2 145.4 69.2C145 69.2 144.6 69.2 144.1 69.3C143.8 69.4 143.6 69.4 143.5 69.4C143.3 69.4 143.2 69.3 143.2 69.1C143.1 68.7 143.1 68.4 143.1 68.2C143.1 68 143.2 67.8 143.4 67.7C144 67.5 144.8 67.4 145.7 67.4C146.9 67.4 147.8 67.6 148.1 68C148.4 68.3 148.6 69 148.6 69.8V73.2C148.6 73.5 148.5 73.7 148.4 73.9ZM145.6 71.6C145.1 71.6 144.8 71.7 144.6 71.8C144.5 71.9 144.4 72.1 144.4 72.3C144.4 72.8 144.7 73 145.3 73C145.7 73 146 73 146.2 72.9C146.3 72.9 146.3 72.8 146.4 72.7C146.4 72.6 146.4 72.5 146.4 72.2V71.6C146.2 71.6 145.9 71.6 145.6 71.6Z" fill="white"/>
  <path d="M151.6 71.7C151 71.6 150.5 71.3 150.2 71C149.9 70.7 149.8 70.2 149.8 69.6C149.8 68.9 150 68.4 150.5 68C151 67.6 151.7 67.4 152.6 67.4C153.5 67.4 154.2 67.5 154.7 67.7C154.9 67.8 155 67.9 155 68.1C155 68.3 154.9 68.6 154.8 69.1C154.8 69.3 154.7 69.4 154.5 69.4C154.4 69.4 154.3 69.4 154.1 69.3C153.6 69.2 153.1 69.1 152.6 69.1C152.3 69.1 152.2 69.1 152.1 69.2C152 69.3 152 69.4 152 69.5C152 69.6 152 69.7 152.1 69.8C152.2 69.9 152.3 69.9 152.6 70L153.5 70.2C154.2 70.4 154.7 70.6 154.9 70.9C155.1 71.2 155.3 71.6 155.3 72.3C155.3 73.8 154.3 74.5 152.4 74.5C151.3 74.5 150.5 74.4 149.9 74.2C149.7 74.1 149.6 74 149.6 73.8C149.6 73.6 149.7 73.3 149.8 72.8C149.9 72.6 150 72.5 150.2 72.5C150.3 72.5 150.4 72.5 150.7 72.6C151.2 72.7 151.8 72.8 152.5 72.8C153 72.8 153.2 72.7 153.2 72.4C153.2 72.3 153.2 72.2 153.1 72.1C153 72 152.9 72 152.6 71.9L151.6 71.7Z" fill="white"/>
  </g>
  <defs>
  <filter id="filter0_d" x="0" y="0" width="244" height="82.4" filterUnits="userSpaceOnUse" color-interpolation-filters="sRGB">
  <feFlood flood-opacity="0" result="BackgroundImageFix"/>
  <feColorMatrix in="SourceAlpha" type="matrix" values="0 0 0 0 0 0 0 0 0 0 0 0 0 0 0 0 0 0 127 0"/>
  <feOffset dy="2"/>
  <feGaussianBlur stdDeviation="2"/>
  <feColorMatrix type="matrix" values="0 0 0 0 0 0 0 0 0 0 0 0 0 0 0 0 0 0 0.25 0"/>
  <feBlend mode="normal" in2="BackgroundImageFix" result="effect1_dropShadow"/>
  <feBlend mode="normal" in="SourceGraphic" in2="effect1_dropShadow" result="shape"/>
  </filter>
  </defs>
</svg>