<svg xmlns="http://www.w3.org/2000/svg" width="291" height="129" viewBox="0 0 291 129" fill="none">
  <g clip-path="url(#clip0)">
  <path d="M13.088 52.7726C12.5311 53.1914 11.9742 53.4707 11.278 53.4707L2.36699 53.3311C0.835407 53.3311 0 52.4934 0 50.6785L0.278469 11.8668C0.278469 8.37652 1.11388 5.86353 2.50622 4.46742C3.89856 3.07132 6.40479 2.23366 9.74641 2.37327H16.1512C23.9483 2.37327 29.3785 3.07132 32.4416 4.46742C37.3148 6.42197 39.6818 11.1687 39.6818 18.4285C39.6818 22.1979 38.9856 25.2694 37.5933 27.7824C36.201 30.2953 33.6947 32.1103 29.7962 33.2272C26.5938 34.2044 22.1383 34.6233 16.4297 34.6233H13.9234L13.7842 50.8181C13.7842 51.6557 13.5057 52.2142 13.088 52.7726ZM16.9866 24.1525C19.3536 24.1525 21.1636 24.0129 22.4167 23.594C24.366 22.896 25.3407 21.3603 25.4799 18.9869C25.4799 16.1947 24.6445 14.5194 22.8345 13.8213C21.7206 13.5421 19.9105 13.2629 17.2651 13.2629H16.1512C14.8981 13.2629 14.2019 13.9609 14.2019 15.357L14.0627 24.0129L16.9866 24.1525Z" fill="#456CAA"/>
  <path d="M54.7196 53.0519C54.3019 53.4708 53.7449 53.75 53.0488 53.75L44.1378 53.6104C42.7454 53.6104 41.91 52.7727 42.0493 51.0974L42.3277 24.1526C42.3277 22.7565 42.6062 21.7792 42.8847 21.0811C43.3024 20.3831 43.9985 19.685 44.9732 19.1266C46.3655 18.2889 48.7325 17.5909 51.6564 17.0324C54.7196 16.474 57.5043 16.0552 60.289 16.1948C63.3521 16.1948 65.4406 16.474 66.5545 16.8928C67.6684 17.3117 68.0861 18.1493 68.0861 19.4058C68.0861 22.198 67.8076 24.4318 67.3899 26.1071C67.1114 27.0844 66.4153 27.5032 65.0229 27.5032C64.6052 27.5032 63.7698 27.5032 62.5167 27.3636C61.2636 27.3636 60.4282 27.224 59.8713 27.224C58.4789 27.224 57.365 27.3636 56.6689 27.6428C56.2512 27.7824 55.9727 28.0617 55.8335 28.3409C55.6942 28.6201 55.555 29.1786 55.555 30.0162L55.4158 51.237C55.2765 52.0747 55.1373 52.6331 54.7196 53.0519Z" fill="#456CAA"/>
  <path d="M100.388 50.8183C97.4644 53.6105 92.7304 55.0066 86.0472 54.867C79.6424 54.867 75.0477 53.3313 72.263 50.6787C69.4783 47.8865 68.0859 42.8605 68.0859 35.4611C68.0859 31.6917 68.6429 28.4806 69.4783 25.828C70.4529 23.1754 71.706 21.2209 73.5161 19.9644C75.3261 18.5683 77.2754 17.7306 79.3639 17.1722C81.4524 16.6137 83.9587 16.4741 86.8826 16.4741C90.085 16.4741 92.7304 16.7533 94.8189 17.1722C96.9075 17.591 98.7175 18.5683 100.388 19.9644C102.059 21.3605 103.173 23.315 103.869 25.828C104.565 28.341 104.844 31.6917 104.844 35.6007C104.844 43.0001 103.312 48.1657 100.388 50.8183ZM90.6419 28.8994C90.085 27.7826 88.8319 27.2241 86.7433 27.2241C84.9333 27.2241 83.541 27.7826 82.8448 28.8994C82.1486 30.0163 81.7309 32.2501 81.7309 35.6007C81.7309 39.091 82.0094 41.4644 82.7056 42.5813C83.4017 43.6982 84.6548 44.3962 86.4649 44.3962C88.4142 44.3962 89.6673 43.8378 90.3634 42.7209C91.0596 41.604 91.3381 39.2306 91.4773 35.88C91.3381 32.2501 91.1988 30.0163 90.6419 28.8994Z" fill="#456CAA"/>
  <path d="M124.893 63.2435C124.476 63.6623 123.919 63.9415 123.223 63.9415L114.033 63.8019C112.641 63.8019 112.084 62.9643 112.084 61.2889L112.223 28.0617H109.438C107.628 28.0617 106.793 27.0844 106.793 25.4091V20.2435C106.793 19.5454 107.071 18.987 107.489 18.4285C107.907 17.8701 108.603 17.5909 109.438 17.5909H112.362V15.0779C112.362 9.77269 113.755 6.00321 116.261 3.90905C119.603 1.11684 125.033 -0.139648 132.412 -0.139648C134.64 -0.139648 135.893 0.698014 136.032 2.09412C136.171 3.07139 136.171 4.88633 136.171 7.81814C136.171 9.35386 135.336 10.1915 133.665 10.3311C131.159 10.4707 129.488 10.75 128.653 11.0292C127.678 11.3084 127.121 11.8668 126.704 12.4253C126.286 13.1233 126.007 14.2402 126.007 15.9155V17.5909H131.02C132.691 17.5909 133.526 18.4285 133.526 20.2435V25.6883C133.526 27.224 132.691 28.0617 130.881 28.0617H125.868L125.729 61.4285C125.59 62.2662 125.311 62.685 124.893 63.2435Z" fill="#456CAA"/>
  <path d="M166.803 52.2142C166.106 52.9123 165.132 53.4707 163.739 53.8895C162.208 54.3084 159.702 54.7272 156.499 55.146C153.297 55.4252 150.373 55.7045 148.145 55.5649C142.576 55.5649 138.677 54.448 136.728 52.2142C134.779 49.9804 133.526 47.0486 133.665 43.2791C133.665 39.0908 135.057 36.0194 137.703 34.0649C139.93 32.3895 143.968 31.6915 149.538 31.6915C151.069 31.6915 152.879 31.8311 154.689 31.9707V31.4123C154.689 30.435 154.55 29.7369 154.411 29.1785C153.993 28.2012 152.461 27.7824 149.677 27.7824C147.449 27.7824 145.361 27.922 143.272 28.2012C141.601 28.4804 140.348 28.6201 139.652 28.6201C138.538 28.6201 137.842 27.922 137.563 26.6655C137.146 24.8506 136.867 22.896 136.867 20.9415C136.867 19.5454 137.563 18.7077 138.817 18.2889C142.019 17.3116 146.196 16.7532 151.487 16.7532C158.588 16.7532 163.183 17.8701 165.271 19.9642C167.081 21.9188 168.056 25.2694 168.056 30.0162L167.917 47.8863C167.917 50.1201 167.499 51.3765 166.803 52.2142ZM151.348 40.0681C149.12 40.0681 147.867 40.3473 147.171 40.7662C146.474 41.185 146.196 42.0227 146.196 43.1395C146.196 44.9545 147.31 45.9317 149.677 45.9317C151.487 45.9317 152.879 45.7921 153.715 45.3733C154.132 45.2337 154.411 44.8149 154.411 44.396C154.55 43.9772 154.55 42.9999 154.55 41.883V40.3473C153.854 40.0681 152.74 40.0681 151.348 40.0681Z" fill="#456CAA"/>
  <path d="M174.322 20.6622C174.322 18.9868 175.018 18.1492 176.549 18.1492L185.6 18.2888C186.992 18.2888 187.827 19.1264 187.688 20.8018L187.549 40.3472C187.549 41.8829 187.688 42.8602 187.827 43.4187C188.245 44.5355 189.359 45.094 191.03 45.094C192.422 45.094 193.397 45.094 194.093 44.9544C194.928 44.6751 195.346 44.5355 195.485 44.3959C195.764 44.1167 196.042 43.5583 196.042 42.8602L196.181 20.9414C196.181 20.1037 196.46 19.5453 196.878 19.1264C197.295 18.7076 197.852 18.4284 198.548 18.4284L207.459 18.568C208.852 18.568 209.687 19.4057 209.548 21.081L209.269 49.1427C209.269 51.6557 208.295 53.331 206.346 54.029C202.586 55.4251 196.738 56.1232 188.941 56.1232C184.207 56.1232 180.866 55.5648 178.777 54.7271C176.689 53.8894 175.296 52.6329 174.739 50.9576C174.043 49.2823 173.765 46.3505 173.765 42.4414L174.322 20.6622Z" fill="#456CAA"/>
  <path d="M228.901 54.5877C228.484 55.0066 227.927 55.2858 227.23 55.2858L218.319 55.1462C216.927 55.1462 216.092 54.3085 216.231 52.6332L216.509 25.13C216.509 22.7566 217.484 21.2209 219.433 20.3832C221.661 19.5455 224.863 18.8475 228.901 18.289C232.939 17.7306 236.698 17.4514 240.179 17.591C246.445 17.591 250.065 19.2663 251.179 22.3377C251.736 23.7339 251.875 26.1072 251.875 29.4579L251.736 52.9124C251.736 54.5878 251.039 55.4254 249.508 55.4254L240.458 55.2858C239.065 55.2858 238.23 54.4481 238.369 52.7728L238.508 32.5293C238.508 31.4124 238.508 30.5748 238.369 30.0163C238.091 28.8994 236.977 28.4806 235.167 28.341C234.192 28.341 233.078 28.4806 231.964 28.6202C231.268 28.7598 230.851 29.039 230.572 29.3183C230.294 29.5975 230.015 30.1559 230.015 30.854L229.876 52.6332C229.597 53.4709 229.319 54.1689 228.901 54.5877Z" fill="#456CAA"/>
  <path d="M289.746 53.1915C289.05 53.8896 288.075 54.448 286.683 54.8669C285.151 55.2857 282.645 55.7045 279.443 56.1234C276.24 56.4026 273.317 56.6818 271.089 56.5422C265.519 56.5422 261.621 55.4253 259.672 53.1915C257.583 50.9578 256.608 48.026 256.608 44.3961C256.608 40.2078 258.001 37.1364 260.646 35.1818C262.874 33.5065 266.912 32.8084 272.481 32.8084C274.013 32.8084 275.823 32.948 277.633 33.0877V32.5292C277.633 31.5519 277.494 30.8539 277.354 30.2954C276.937 29.3182 275.405 28.8993 272.62 28.8993C270.393 28.8993 268.304 29.0389 266.216 29.3182C264.545 29.5974 263.292 29.737 262.595 29.737C261.482 29.737 260.785 29.0389 260.507 27.7825C260.089 25.9675 259.811 24.013 259.811 22.0584C259.811 20.6623 260.507 19.8247 261.76 19.4058C264.962 18.4286 269.14 17.8701 274.43 17.8701C281.531 17.8701 286.126 18.987 288.215 21.0812C290.025 23.0357 290.999 26.3863 290.999 31.1331L290.86 49.0032C290.86 51.0974 290.442 52.4935 289.746 53.1915ZM274.291 41.0454C272.063 41.0454 270.81 41.3247 270.114 41.7435C269.418 42.1623 269.139 43 269.139 44.1169C269.139 45.9318 270.253 46.9091 272.62 46.9091C274.43 46.9091 275.823 46.7695 276.658 46.3506C277.076 46.211 277.354 45.7922 277.354 45.3734C277.494 44.9545 277.494 43.9773 277.494 42.8604V41.3247C276.797 41.1851 275.684 41.0454 274.291 41.0454Z" fill="#456CAA"/>
  <path d="M103.73 85.0226C105.401 87.1168 106.236 90.4674 106.236 95.3538C106.236 100.799 104.566 104.847 101.502 107.779C98.4392 110.571 93.1483 111.967 85.7689 111.967C79.5033 111.967 74.2124 111.13 69.8961 109.873C68.5038 109.454 67.8076 108.477 67.8076 106.941C67.8076 105.964 68.2253 104.149 68.9215 101.497C69.4784 99.8213 70.4531 98.9836 71.8454 99.1232C72.5416 99.1232 73.5162 99.4025 75.0478 99.8213C78.2502 100.659 82.0095 101.078 86.1866 101.078C89.9459 101.078 91.8952 99.8213 91.8952 97.0291C91.8952 95.4934 91.6167 94.3765 91.0598 93.6784C90.5028 92.9804 89.2497 92.4219 87.5789 92.1427L81.8703 90.8862C77.4148 89.909 74.2124 88.2336 72.1239 85.8603C70.0354 83.4869 69.0607 79.857 69.2 75.1103C69.3392 64.2207 75.8832 58.7758 88.832 58.9155C95.0976 58.9155 99.6923 59.6135 102.895 60.7304C104.287 61.2888 104.844 62.1265 104.844 63.5226C104.844 65.0583 104.566 67.0129 103.869 69.107C103.452 70.5031 102.755 71.2012 101.502 71.2012C100.388 71.2012 99.4138 71.0616 98.4392 70.7823C94.6799 70.2239 91.199 69.8051 87.7181 69.8051C84.7942 69.8051 83.2626 71.0616 83.2626 73.8538C83.2626 76.2271 84.5158 77.7629 87.3004 78.3213L93.7052 79.857C98.7177 81.2531 102.059 82.9284 103.73 85.0226Z" fill="#456CAA"/>
  <path d="M124.337 110.711C123.919 111.13 123.362 111.409 122.666 111.409L113.755 111.269C112.363 111.269 111.527 110.432 111.666 108.756L112.084 60.0324C112.084 57.9382 113.059 56.9609 114.869 56.9609H122.944C123.919 56.9609 124.615 57.2402 125.033 57.7986C125.451 58.357 125.59 59.0551 125.59 60.172L125.311 75.948C126.286 75.3895 127.818 74.8311 130.045 74.4122C132.273 73.9934 134.083 73.7142 135.754 73.7142C141.88 73.7142 145.361 75.3895 146.614 78.4609C147.171 79.857 147.31 82.2304 147.31 85.5811L147.171 109.036C147.171 110.711 146.475 111.549 144.943 111.549L135.893 111.409C134.501 111.409 133.665 110.571 133.805 108.896L133.944 88.6525C133.944 87.6752 133.944 86.8376 133.805 86.2791C133.387 85.1622 132.412 84.4642 130.602 84.4642C129.628 84.4642 128.653 84.6038 127.678 84.7434C126.982 84.883 126.425 85.1622 125.868 85.7207C125.59 85.9999 125.311 86.8376 125.311 88.094L125.033 108.896C125.033 109.594 124.894 110.152 124.337 110.711Z" fill="#456CAA"/>
  <path d="M208.156 129H199.941C199.106 129 198.549 128.86 198.131 128.442C197.713 128.023 197.574 127.325 197.574 126.208L197.992 81.5325C197.992 80.5552 198.131 79.7175 198.41 78.8799C198.688 77.9026 199.663 77.0649 201.194 76.5065C202.726 75.9481 205.093 75.3896 208.295 74.9708C211.498 74.552 214.422 74.4124 217.206 74.4124C223.472 74.4124 227.927 75.8085 230.573 78.3214C233.218 80.8344 234.471 85.8604 234.471 93.1201C234.471 97.0292 234.054 100.38 233.218 102.893C232.383 105.406 231.269 107.5 229.598 109.036C228.067 110.571 226.117 111.549 223.89 112.107C221.662 112.666 219.016 112.945 215.814 112.945C213.725 112.945 212.194 112.666 211.08 112.247L210.941 126.208C211.08 128.023 210.105 129 208.156 129ZM212.194 101.776C212.612 102.055 213.447 102.195 214.7 102.195C217.346 102.195 219.016 101.636 219.852 100.38C220.687 99.1234 221.105 96.6104 221.105 92.7013C221.105 89.7695 220.826 87.6753 220.13 86.6981C219.434 85.5812 218.181 85.0227 216.371 85.0227C214.7 85.0227 213.447 85.1623 212.612 85.5812C212.333 85.7208 212.055 86 211.915 86.4188C211.776 86.6981 211.776 87.1169 211.776 87.6753L211.637 99.8214C211.358 100.799 211.637 101.497 212.194 101.776Z" fill="#456CAA"/>
  <path d="M158.867 96.7499C158.727 97.3083 158.867 97.8667 159.006 98.2856C159.424 99.8213 160.537 100.519 161.93 100.938C162.348 101.078 162.765 101.078 163.044 101.217C163.601 101.217 163.879 101.636 164.018 102.055C164.715 103.312 165.55 104.428 166.525 105.406C168.195 106.941 170.005 107.919 172.233 108.477C173.626 108.756 175.157 109.036 176.549 109.454C177.663 109.734 178.499 110.292 179.195 111.269C179.613 111.828 179.752 111.967 180.448 111.828C183.372 111.269 186.017 109.873 188.384 108.058C188.802 107.779 189.081 107.5 189.498 107.221C189.637 107.081 189.777 107.081 189.916 107.081H190.055V107.221C189.777 107.5 189.498 107.919 189.22 108.198C188.524 108.896 187.827 109.734 187.131 110.292C185.739 111.549 184.207 112.526 182.537 113.363C181.283 113.922 179.891 114.48 178.499 114.76C177.663 114.899 176.967 115.039 176.132 115.178C174.879 115.318 173.626 115.318 172.372 115.318C171.259 115.318 170.284 115.178 169.17 114.899C168.056 114.62 166.942 114.341 165.828 113.922C164.436 113.364 163.183 112.665 161.93 111.688C160.677 110.851 159.563 109.873 158.727 108.896C157.753 107.779 156.917 106.662 156.221 105.545C155.386 104.289 154.829 102.893 154.411 101.497C153.993 99.5421 154.272 97.7271 154.968 96.0518C155.525 94.7953 156.36 93.6784 157.196 92.7012V92.5616C157.057 92.5616 156.917 92.5616 156.917 92.7012C156.082 93.2596 155.386 93.9577 154.829 94.6557C154.55 94.9349 154.411 95.2142 154.133 95.4934C153.993 95.7726 153.715 95.633 153.576 95.3538C153.576 95.2142 153.437 95.0745 153.437 94.7953C153.437 93.818 153.437 92.8408 153.715 92.0031C153.993 91.1654 154.55 90.607 155.525 90.607C156.36 90.607 157.196 90.7466 158.17 90.8862C158.588 91.0258 159.006 91.0258 159.284 90.7466C159.981 90.1882 160.816 90.1882 161.651 90.3278C162.487 90.4674 163.322 90.3278 164.158 89.909C164.575 89.6297 165.132 89.3505 165.55 89.0713C165.689 89.0713 165.968 89.0713 166.107 89.2109C167.221 90.4674 166.942 92.1427 165.55 92.9804C164.715 93.5388 163.879 94.2369 163.461 95.0745C163.183 95.7726 162.626 95.7726 162.069 95.4934C161.512 95.2142 161.094 94.6557 160.816 94.0973C160.816 94.0973 160.816 94.0973 160.677 94.0973C160.677 94.2369 160.677 94.5161 160.816 94.6557C161.234 95.4934 161.93 96.0518 162.626 96.6102C162.904 96.7499 163.183 97.0291 163.461 97.1687C164.158 97.7271 164.297 98.7044 163.74 99.4025C163.461 99.6817 163.322 99.9609 163.044 100.24C162.348 100.799 161.93 100.799 161.094 100.38C159.981 99.8213 159.284 98.844 159.006 97.5875C159.006 97.0291 159.006 96.8895 158.867 96.7499C159.006 96.7499 158.867 96.7499 158.867 96.7499ZM162.904 91.3051C162.904 91.0258 162.765 90.7466 162.626 90.7466C162.348 90.7466 162.069 91.0258 162.069 91.3051C162.069 91.5843 162.208 91.8635 162.487 91.8635C162.626 91.8635 162.904 91.7239 162.904 91.3051Z" fill="#456CAA"/>
  <path d="M189.777 84.0454C190.056 84.8831 190.473 85.5811 190.752 86.2792C191.03 86.8376 191.17 87.396 191.309 87.9545C191.448 88.2337 191.17 88.5129 190.891 88.3733C190.474 88.2337 190.056 87.8149 189.917 87.396C189.638 86.8376 189.499 86.2792 189.36 85.7207C188.942 84.6038 188.524 83.3473 187.828 82.3701C187.689 82.0908 187.41 81.9512 187.271 81.8116C187.271 81.8116 187.271 81.8116 187.132 81.8116C187.132 81.9512 187.132 81.9512 187.271 82.0908C187.689 82.7889 187.967 83.487 188.246 84.3246C188.246 84.6038 188.385 84.8831 188.246 85.1623C188.246 85.3019 187.967 85.5811 187.828 85.5811C187.55 85.7207 187.271 85.4415 187.132 85.1623C186.993 84.8831 186.853 84.4642 186.714 84.185C186.436 83.6266 186.018 83.0681 185.74 82.5097C185.6 82.2305 185.183 82.0908 184.904 81.8116C185.183 82.2305 185.322 82.7889 185.6 83.2077C185.879 83.7662 186.018 84.3246 186.018 84.8831C186.018 85.3019 185.74 85.4415 185.322 85.3019C185.183 85.1623 185.043 85.0227 184.904 84.7434C184.486 83.7662 183.79 82.9285 182.955 82.3701C182.816 82.3701 182.816 82.2305 182.676 82.2305C182.955 82.5097 183.233 82.7889 183.512 83.0681C184.208 84.0454 184.765 85.0227 184.904 86.1395C184.904 86.4188 184.904 86.698 184.904 86.9772C184.904 87.2564 184.765 87.5357 184.486 87.5357C184.347 87.5357 184.069 87.396 183.929 87.2564C183.651 86.698 183.373 86.1395 183.094 85.7207C182.676 84.7434 182.259 83.7662 181.423 83.0681C181.284 82.9285 181.284 82.9285 181.145 82.9285C181.006 82.9285 181.006 82.9285 180.866 82.9285C180.866 83.0681 180.866 83.0681 181.006 83.2077C181.702 84.0454 182.259 85.0227 182.398 86.1395C182.537 86.5584 182.537 87.1168 182.537 87.5357C182.537 87.6753 182.398 87.9545 182.259 87.9545C182.119 87.9545 181.98 87.8149 181.841 87.6753C181.562 87.396 181.423 86.9772 181.284 86.5584C180.727 85.4415 180.031 84.4642 179.195 83.6266C179.056 83.487 178.917 83.3473 178.778 83.3473C179.195 83.7662 179.474 84.185 179.752 84.7434C180.031 85.3019 180.309 85.8603 180.588 86.4188C180.588 86.4188 180.588 86.4188 180.588 86.5584C180.588 86.698 180.588 86.9772 180.449 87.1168C180.309 87.2564 180.031 87.1168 179.892 86.9772C179.056 86.2792 178.36 85.5811 177.525 84.8831C177.385 84.7434 177.107 84.6038 176.829 84.4642C177.107 84.7434 177.385 85.0227 177.664 85.3019C178.639 86.4188 179.474 87.5357 180.17 88.9318C180.866 90.1882 181.284 91.5843 181.423 92.9805C181.562 93.6785 181.562 94.3766 181.562 94.935C181.562 95.2142 181.562 95.4934 181.562 95.7727C181.562 97.7272 181.284 99.6817 180.727 101.497C180.588 101.916 180.449 102.334 180.309 102.753C180.309 102.893 180.17 103.032 180.17 103.032C180.031 103.172 179.892 103.172 179.752 103.172C179.752 103.032 179.613 102.893 179.752 102.893C179.892 102.334 180.031 101.636 180.17 101.078V100.938C180.031 101.497 179.892 101.916 179.613 102.474C179.195 103.591 178.639 104.708 177.803 105.545C177.107 106.243 176.272 106.662 175.436 106.941C175.297 106.941 175.158 106.802 174.879 106.802C175.018 106.662 175.018 106.523 175.158 106.383C176.272 105.266 177.246 104.149 177.942 102.753C178.499 101.636 179.056 100.659 179.613 99.5421C179.613 99.5421 179.474 99.5421 179.474 99.4025L179.335 99.5421C178.778 100.659 177.942 101.636 177.107 102.474C176.968 102.614 176.689 102.753 176.55 102.893C176.411 102.893 176.272 102.893 176.132 102.893C176.132 102.753 176.132 102.614 176.272 102.474C176.411 102.195 176.689 102.055 176.829 101.776C177.942 100.24 178.778 98.4253 179.195 96.4707C179.335 95.4934 179.474 94.5162 179.335 93.5389C179.335 93.1201 179.195 92.5616 179.195 92.1428C179.195 92.0032 179.056 91.724 178.778 91.5843C178.499 91.4447 178.221 91.1655 177.942 91.0259L177.803 91.1655C177.803 91.724 177.525 91.8636 177.107 91.5843C176.968 91.4447 176.689 91.3051 176.55 91.0259C176.411 90.8863 176.411 90.8863 176.272 90.7467C176.272 90.7467 176.272 90.7467 176.132 90.7467C176.132 90.8863 176.132 90.8863 176.132 91.0259C176.132 91.1655 176.132 91.4447 175.993 91.4447C175.854 91.4447 175.575 91.4447 175.436 91.4447C175.158 91.3051 175.018 90.8863 175.018 90.6071C175.018 90.4675 175.018 90.3279 174.74 90.1882C174.183 89.7694 173.626 89.211 173.069 88.7921C171.955 87.8149 170.841 86.8376 169.588 85.9999C169.171 86.5584 168.474 86.9772 167.639 86.698C167.778 86.4188 168.057 85.9999 167.778 85.7207L167.918 85.5811C168.335 85.4415 168.753 85.5811 169.171 85.8603C169.031 85.4415 168.335 85.1623 167.778 85.3019C167.639 85.1623 167.5 84.8831 167.361 84.8831C167.5 84.6038 167.639 84.4642 167.639 84.3246C167.639 84.3246 167.5 84.0454 167.361 84.0454C167.082 84.0454 167.082 84.185 166.943 84.4642C166.386 84.0454 165.829 84.0454 165.133 84.0454C165.411 83.0681 166.107 82.3701 166.943 81.9512C167.639 81.672 168.474 81.5324 169.171 81.672C169.867 81.8116 170.424 81.9512 170.981 82.0908C171.538 82.2305 171.816 82.0908 172.095 81.5324C172.234 81.1136 172.373 80.5551 172.512 79.9967C172.651 79.5779 172.512 79.0194 172.651 78.6006C172.651 77.7629 172.512 76.9253 172.095 76.0876C171.955 75.8084 171.955 75.5292 171.955 75.2499C171.955 74.5519 172.373 74.1331 172.93 74.1331C174.322 74.1331 175.715 74.1331 177.107 74.4123C179.195 74.8311 181.284 75.5292 183.233 76.5064C184.347 77.0649 185.461 77.7629 186.436 78.6006C187.271 79.2986 187.967 79.9967 188.663 80.8344C189.638 81.8116 190.473 83.0681 191.17 84.3246C192.144 85.9999 192.84 87.8149 193.258 89.7694C193.397 90.3279 193.397 90.8863 193.537 91.3051C193.537 91.4447 193.537 91.5843 193.397 91.5843C193.258 91.5843 193.119 91.5843 193.119 91.4447C192.84 91.1655 192.562 90.8863 192.562 90.6071C192.284 89.909 192.144 89.0714 191.866 88.3733C191.448 87.1168 190.752 85.5811 189.777 84.0454C189.917 84.185 189.777 84.185 189.777 84.0454Z" fill="#456CAA"/>
  <path d="M168.056 79.4383C168.613 79.5779 169.17 79.5779 169.727 79.7175C170.423 79.8572 171.119 80.1364 171.537 80.6948C171.676 80.8344 171.676 80.974 171.815 81.1137C171.815 81.2533 171.815 81.3929 171.676 81.5325C171.676 81.5325 171.537 81.5325 171.397 81.5325C170.423 81.2533 169.448 81.1137 168.334 81.1137C167.081 81.1137 165.967 81.5325 165.132 82.5098C164.853 82.9286 164.575 83.3474 164.436 83.9059C164.157 84.4643 164.018 85.0227 163.879 85.5812C163.6 86.4188 163.043 86.9773 162.069 87.2565C161.93 87.2565 161.93 87.2565 161.93 87.3961C162.347 87.3961 162.626 87.2565 163.043 87.2565C163.6 87.2565 164.157 87.2565 164.853 87.2565C164.993 87.2565 165.271 87.3961 165.271 87.5357C165.41 87.6753 165.41 87.815 165.271 87.9546C164.853 88.3734 164.436 88.6526 163.74 88.6526C163.183 88.6526 162.626 88.6526 162.069 88.6526C161.373 88.6526 160.816 88.7922 160.119 88.9318C159.841 88.9318 159.563 89.0714 159.423 89.0714C159.006 89.2111 158.588 89.2111 158.17 88.7922C157.753 89.0714 157.335 89.2111 156.778 89.2111C156.082 89.2111 155.386 88.513 155.525 87.5357C155.525 87.2565 155.942 87.2565 156.221 87.3961C156.499 87.5357 156.778 87.6753 157.196 87.815C157.474 87.9546 157.613 87.815 157.474 87.5357C157.335 86.8377 157.196 86.2792 157.196 85.5812C157.196 84.1851 157.474 82.789 158.588 81.8117C159.563 80.8344 160.816 80.1364 162.347 80.1364C162.904 80.1364 163.322 79.8572 163.74 79.4383C164.714 78.7403 165.689 77.9026 166.942 77.4838C167.081 77.4838 167.22 77.3442 167.36 77.3442L167.499 77.2046L167.36 77.065C167.081 77.065 166.803 77.065 166.664 77.2046C166.107 77.4838 165.55 77.9026 165.132 78.1818C164.575 78.6007 164.157 79.0195 163.6 79.4383C162.904 79.9968 161.93 79.9968 161.094 79.9968C160.955 79.9968 160.676 79.8572 160.676 79.7175C160.676 79.5779 160.676 79.4383 160.816 79.2987C161.512 78.7403 162.208 78.1818 163.043 77.6234C164.018 76.9253 165.132 76.3669 166.246 76.0877C166.803 75.9481 167.36 75.9481 167.917 75.8085C168.891 75.6688 169.727 75.8085 170.701 76.2273C170.98 76.3669 171.397 76.5065 171.676 76.7857C171.954 76.9253 172.094 77.3442 171.954 77.763C171.676 78.6007 170.841 79.2987 169.866 79.4383C169.17 79.1591 168.613 79.2987 168.056 79.4383ZM170.423 77.065C170.284 76.9253 170.144 76.7857 170.144 76.7857L170.005 76.9253C170.005 77.065 170.144 77.2046 170.144 77.2046C170.144 77.3442 170.284 77.2046 170.423 77.065Z" fill="#456CAA"/>
  <path d="M169.587 88.6525C169.587 88.7921 169.727 88.9317 169.727 88.9317C169.866 88.9317 170.005 88.9317 170.005 88.9317V88.7921C170.423 89.0713 170.701 89.3505 171.119 89.6297C171.398 89.909 171.398 90.3278 171.258 90.607C171.119 90.8862 171.258 91.0259 171.398 91.3051C171.815 91.8635 172.233 92.422 172.372 93.12C172.651 94.5161 171.815 95.4934 170.562 95.7726C170.005 95.9122 169.448 95.633 169.031 95.633C168.613 95.4934 168.195 95.633 168.056 96.0518C167.917 96.3311 167.777 96.6103 167.777 97.0291C167.638 98.4252 167.499 99.6817 167.917 101.078C168.056 101.636 168.474 101.915 168.891 101.915C169.309 101.776 169.587 101.776 170.005 101.497C170.701 101.078 171.119 100.38 171.537 99.6817C172.233 98.7044 172.511 97.4479 172.79 96.331C172.929 95.633 173.208 95.0746 173.765 94.5161C174.461 93.6784 176.41 93.6785 177.106 94.9349C177.385 95.4934 177.524 96.0518 177.663 96.7499C177.802 98.7044 176.967 100.38 175.853 101.915C174.739 103.451 173.208 104.568 171.676 105.685C171.537 105.825 171.398 105.825 171.258 105.964C171.676 106.243 171.954 106.104 172.233 106.104C173.208 105.825 173.904 105.266 174.6 104.708C174.878 104.568 175.018 104.289 175.296 104.01C175.435 104.01 175.435 104.01 175.575 103.87C175.575 104.01 175.714 104.149 175.575 104.149C175.435 104.428 175.296 104.708 175.157 104.987C174.321 105.964 173.347 106.662 172.094 107.081C171.537 107.221 171.119 107.221 170.562 106.941C169.866 106.662 169.727 105.964 170.144 105.406C170.423 105.126 170.701 104.847 171.119 104.568C172.651 103.591 174.043 102.334 175.018 100.799C175.435 100.24 175.575 99.5421 175.575 98.844C175.575 98.2856 175.575 97.8668 175.435 97.3083C175.435 97.1687 175.296 97.0291 175.157 97.0291C175.018 97.0291 174.878 97.1687 174.739 97.3083C174.6 97.5875 174.461 98.0064 174.321 98.4252C173.625 101.078 172.094 103.032 169.587 104.149C168.195 104.847 166.664 104.289 165.967 103.172C165.55 102.474 165.41 101.776 165.271 101.078C164.993 99.9609 164.993 98.9836 164.854 97.8668C164.854 97.0291 164.854 96.1914 165.132 95.4934C165.55 94.2369 166.803 93.6784 168.195 93.8181C168.891 93.9577 169.727 94.0973 170.423 94.3765C170.423 94.3765 170.562 94.3765 170.701 94.3765C171.119 94.3765 171.398 94.0973 171.258 93.6785C170.98 92.9804 170.423 92.2823 169.448 92.2823C169.031 92.2823 168.891 92.0031 168.752 91.7239C168.613 91.4447 168.474 91.0259 168.334 90.8862C168.474 90.7466 168.474 90.607 168.474 90.4674C168.474 90.3278 168.334 90.3278 168.195 90.3278C168.195 90.3278 168.056 90.3278 168.056 90.1882C167.917 89.909 167.917 89.6298 167.777 89.2109C167.777 88.6525 168.195 88.3733 168.752 88.5129C168.891 88.5129 168.891 88.6525 169.031 88.6525C169.309 88.3733 169.448 88.5129 169.587 88.6525C169.727 88.6525 169.727 88.6525 169.587 88.6525Z" fill="#456CAA"/>
  <path d="M181.145 89.2109C182.119 89.4902 182.815 90.1882 183.233 91.0259C183.651 91.8635 184.068 92.7012 184.486 93.5389C184.765 93.12 184.765 92.7012 184.625 92.422C184.486 92.1427 184.486 91.8635 184.486 91.7239C184.486 91.7239 184.486 91.5843 184.625 91.5843H184.765C185.043 91.8635 185.322 92.2824 185.739 92.5616C186.435 93.2596 186.575 94.0973 186.157 94.935C186.018 95.4934 185.739 95.9122 185.461 96.3311C185.182 96.8895 185.182 97.5876 185.182 98.146C185.322 98.9837 185.461 99.6817 185.6 100.519C185.6 100.938 185.6 101.078 185.182 101.217C184.904 101.357 184.765 101.497 184.904 101.915C184.904 101.776 184.904 101.776 184.904 101.636C184.904 101.357 185.043 101.217 185.322 101.357C185.739 101.497 186.018 101.636 186.157 102.055C186.296 102.474 186.296 102.614 185.878 102.753C185.739 102.753 185.6 102.893 185.322 103.032C185.6 103.032 185.6 103.172 185.6 103.312C185.461 103.87 185.182 104.428 184.625 104.708C184.486 104.847 184.347 104.847 184.208 104.568C184.068 104.289 183.79 104.01 183.651 103.87C183.651 103.73 183.512 103.73 183.372 103.73C183.512 103.87 183.651 104.01 183.651 104.149C184.208 105.127 183.929 105.825 182.955 105.964C182.537 106.104 182.119 106.104 181.701 105.964C181.423 105.964 181.284 105.825 181.284 105.545C181.284 104.987 181.423 104.428 181.423 104.01C181.423 103.73 181.423 103.591 181.423 103.312C181.423 103.032 181.284 102.614 181.284 102.334C181.284 101.776 181.284 101.357 181.423 100.799C181.562 99.8213 181.701 98.8441 181.841 97.8668C181.98 97.1687 181.841 96.4707 181.98 95.633C181.98 95.3538 181.98 95.3538 182.258 95.4934C182.815 95.7726 183.233 96.1915 183.512 96.7499C183.651 97.0291 183.651 97.3083 183.512 97.5876C183.233 98.146 182.955 98.7044 182.676 99.2629C182.676 99.4025 182.676 99.5421 182.676 99.5421C183.233 98.5648 183.651 97.7272 184.208 96.7499C184.625 96.0518 184.625 95.2142 184.208 94.5161C184.068 94.3765 183.929 94.2369 183.929 94.0973C183.233 93.5389 182.676 92.8408 182.258 92.0031C182.119 91.4447 181.98 91.0259 181.841 90.4674C181.423 90.0486 181.284 89.6298 181.145 89.2109ZM182.815 104.708C182.676 104.568 182.537 104.428 182.398 104.428C182.258 104.428 182.119 104.568 182.119 104.708C182.119 104.847 182.258 104.987 182.398 104.987C182.537 105.127 182.676 104.847 182.815 104.708Z" fill="#456CAA"/>
  <path d="M167.639 87.8149C166.107 87.5357 164.576 86.2792 165.133 84.1851C166.107 84.1851 166.943 84.6039 167.5 85.4416V85.7208C166.943 86.1396 167.082 86.698 167.36 87.2565C167.5 87.3961 167.5 87.5357 167.639 87.8149Z" fill="#456CAA"/>
  <path d="M177.664 108.198C177.246 108.198 176.828 107.919 176.828 107.36C176.828 106.942 177.107 106.523 177.664 106.523C178.081 106.523 178.499 106.942 178.499 107.36C178.36 107.919 178.22 108.198 177.664 108.198Z" fill="#456CAA"/>
  <path d="M179.891 106.941C179.613 106.941 179.474 106.802 179.474 106.383C179.474 106.104 179.613 105.824 179.891 105.824C180.17 105.824 180.448 106.104 180.448 106.383C180.448 106.662 180.309 106.941 179.891 106.941Z" fill="#456CAA"/>
  <path d="M180.17 104.847C180.17 104.987 180.031 105.127 179.891 105.127C179.613 105.127 179.474 104.987 179.474 104.847C179.474 104.568 179.613 104.568 179.752 104.568C180.031 104.568 180.17 104.568 180.17 104.847Z" fill="#456CAA"/>
  <path d="M193.396 94.0973C192.839 92.7012 192.004 91.3051 191.169 90.0486C190.472 88.9317 189.637 87.9544 188.523 87.2564C188.105 86.9772 187.548 86.6979 186.992 86.2791C186.713 86.1395 186.574 85.8603 186.295 85.5811C186.156 86.1395 186.156 86.5583 186.295 87.1168C186.295 87.2564 186.295 87.396 186.156 87.396C186.017 87.5356 185.738 87.6752 185.599 87.8148C185.46 87.9544 185.321 88.094 185.181 88.3733C185.042 88.7921 184.903 89.0713 184.625 89.2109C184.068 89.6298 184.068 89.6298 184.625 90.0486L184.764 90.1882C185.181 90.8862 185.738 91.0259 186.435 90.8862C186.713 90.7466 186.992 90.8863 187.131 91.1655C187.548 91.5843 187.688 92.1427 187.827 92.7012C187.966 93.5389 187.688 94.3765 187.27 95.2142C186.992 95.633 186.852 95.9122 186.713 96.3311C186.435 97.1687 186.435 98.146 186.574 98.9837C186.713 100.24 187.131 101.636 187.548 102.893C187.827 103.591 187.688 104.01 187.409 104.568C186.156 106.383 184.485 107.919 182.258 108.198C181.84 108.338 181.422 108.338 181.144 107.919C180.865 107.779 180.587 107.639 180.308 107.5C180.03 107.36 179.751 107.5 179.473 107.779C179.194 108.058 179.194 108.338 179.334 108.617C179.473 109.175 179.891 109.315 180.448 109.454C181.701 109.734 182.954 109.594 184.068 109.315C186.295 108.617 187.966 107.36 189.219 105.545C189.637 105.127 189.915 104.708 190.612 104.568C190.751 104.568 190.89 104.428 191.169 104.428C191.447 104.289 191.865 104.149 192.004 103.73C192.422 103.172 192.561 102.614 192.839 101.915C193.396 100.519 193.675 98.9837 193.953 97.3083C193.953 96.4707 193.953 95.2142 193.396 94.0973ZM186.156 88.6525C186.156 88.7921 186.017 88.9317 185.738 89.0713C185.738 89.0713 185.738 89.0713 185.599 88.9317C185.599 88.7921 185.599 88.6525 185.738 88.5129C185.878 88.5129 186.017 88.5129 186.156 88.6525C186.156 88.6525 186.156 88.5129 186.156 88.6525Z" fill="#456CAA"/>
  </g>
  <defs>
  <clipPath id="clip0">
  <rect width="291" height="129" fill="white"/>
  </clipPath>
  </defs>
</svg>