<svg xmlns="http://www.w3.org/2000/svg" width="259" height="95" viewBox="0 0 259 95" fill="none">
  <path d="M85.2739 39.2367C85.2739 37.8506 85.9095 37.1042 87.0747 37.1042H93.7483C94.4898 37.1042 94.9136 37.3175 95.1254 37.6374C95.3373 37.9572 95.4432 38.4903 95.4432 39.3433V55.4432C97.5618 54.2704 100.21 53.6306 103.176 53.6306C106.46 53.6306 108.896 54.6968 110.485 56.8293C111.968 58.9617 112.816 62.5869 112.816 67.5981C112.816 70.7967 112.498 73.3557 111.862 75.3815C111.227 77.4073 110.273 78.9 109.002 80.0728C107.731 81.139 106.248 81.8854 104.553 82.3119C102.858 82.7384 100.74 82.9516 98.1974 82.9516C93.6424 82.9516 90.1467 82.5251 87.4984 81.6722C86.4391 81.3523 85.8035 80.8192 85.4858 79.9662C85.2739 79.3265 85.168 78.6867 85.168 78.1536V39.2367H85.2739ZM95.761 74.2086C95.9729 74.4219 96.2907 74.6351 96.8203 74.7417C97.1381 74.8484 97.6678 74.8484 98.3033 74.8484C100.104 74.8484 101.269 74.4219 101.799 73.5689C102.329 72.7159 102.541 70.9034 102.541 68.1312C102.541 65.5723 102.329 63.8663 102.011 63.12C101.693 62.267 100.846 61.8405 99.4686 61.8405C97.8796 61.8405 96.7144 62.0537 95.9729 62.4802C95.761 62.6935 95.5492 62.9067 95.4432 63.12C95.3373 63.3332 95.3373 63.6531 95.3373 64.1862V72.9292C95.4432 73.4623 95.5492 73.9954 95.761 74.2086Z" fill="#456CAA"/>
  <path d="M128.176 74.1019C129.023 74.5284 130.294 74.7417 131.989 74.7417C134.426 74.7417 136.332 74.5284 137.921 74.2085C138.027 74.2085 138.133 74.2085 138.451 74.1019C138.663 73.9953 138.981 73.9953 139.193 73.9953C139.404 73.9953 139.616 73.8887 139.828 73.8887C140.57 73.8887 141.099 74.3152 141.417 75.0615C141.947 76.4476 142.159 77.9403 142.159 79.5396C142.159 80.286 141.841 80.8191 141.205 81.2456C139.299 82.3118 135.909 82.7383 130.718 82.7383C125.528 82.7383 121.926 81.5655 119.807 79.3264C117.689 76.9807 116.629 73.3556 116.629 68.3443C116.629 63.1199 117.795 59.2815 120.019 57.0424C122.244 54.6968 125.739 53.5239 130.506 53.5239C132.095 53.5239 133.578 53.6305 134.849 53.9504C136.121 54.1637 137.18 54.5901 138.027 54.91C138.875 55.3365 139.616 55.8696 140.146 56.7226C140.782 57.4689 141.205 58.2153 141.523 58.9616C141.841 59.708 142.159 60.6676 142.265 61.8404C142.476 63.0133 142.582 64.1861 142.582 65.1457C142.582 66.1053 142.688 67.3848 142.688 68.8775C142.688 69.8371 142.476 70.5834 141.947 70.9033C141.629 71.1165 141.205 71.2231 140.57 71.2231H126.905C126.905 72.6092 127.328 73.5688 128.176 74.1019ZM133.155 64.6126C133.155 64.506 133.26 64.2927 133.26 63.8662C133.26 62.6934 133.049 61.7338 132.625 61.2007C132.201 60.6676 131.354 60.4543 130.188 60.4543C129.129 60.4543 128.388 60.7742 127.858 61.4139C127.328 62.0537 127.117 63.1199 127.117 64.6126H133.155V64.6126Z" fill="#456CAA"/>
  <path d="M171.078 80.1795C170.654 80.7126 169.807 81.1391 168.747 81.459C167.582 81.7789 165.675 82.0987 163.239 82.4186C160.802 82.7385 158.684 82.8451 156.883 82.8451C152.646 82.8451 149.786 81.9921 148.197 80.3928C146.608 78.7935 145.866 76.5544 145.866 73.6756C145.866 70.477 146.82 68.1313 148.832 66.6386C150.527 65.3591 153.493 64.7194 157.836 64.7194C159.002 64.7194 160.379 64.826 161.756 64.9326V64.5061C161.756 63.7598 161.65 63.2267 161.544 62.8002C161.226 62.0538 160.061 61.734 157.942 61.734C156.247 61.734 154.658 61.8406 153.069 62.0538C151.798 62.2671 150.845 62.3737 150.315 62.3737C149.468 62.3737 148.938 61.9472 148.726 60.9876C148.409 59.6015 148.197 58.1088 148.197 56.6161C148.197 55.5499 148.726 54.9102 149.68 54.5903C152.01 53.7373 155.294 53.4175 159.319 53.4175C164.722 53.4175 168.218 54.1638 169.807 55.7632C171.184 57.1492 171.925 59.7082 171.925 63.4399V76.9809C171.925 78.5802 171.607 79.6464 171.078 80.1795ZM159.319 71.1167C157.73 71.1167 156.671 71.3299 156.247 71.6498C155.824 71.9697 155.506 72.6094 155.506 73.4624C155.506 74.8485 156.353 75.5948 158.154 75.5948C159.531 75.5948 160.591 75.3816 161.12 75.0617C161.438 74.9551 161.65 74.6352 161.65 74.3153C161.756 73.9955 161.756 73.3557 161.756 72.3962V71.2233C161.12 71.1167 160.273 71.1167 159.319 71.1167Z" fill="#456CAA"/>
  <path d="M177.645 56.1895C177.645 54.91 178.175 54.2703 179.234 54.2703H186.12C187.179 54.2703 187.709 54.91 187.709 56.1895V71.0099C187.709 72.1827 187.815 72.9291 188.026 73.3556C188.344 74.2085 189.192 74.5284 190.463 74.5284C191.522 74.5284 192.264 74.4218 192.793 74.3152C193.429 74.1019 193.747 73.9953 193.853 73.8887C194.064 73.6754 194.276 73.2489 194.276 72.7158V56.1895C194.276 55.5497 194.488 55.1232 194.806 54.8034C195.124 54.4835 195.547 54.2703 196.077 54.2703H202.857C203.916 54.2703 204.446 54.91 204.446 56.1895V77.5138C204.446 79.433 203.704 80.6058 202.221 81.2456C199.361 82.3118 195.018 82.9515 189.086 82.9515C185.59 82.9515 182.942 82.6317 181.353 81.9919C179.764 81.3522 178.705 80.3926 178.281 79.1131C177.751 77.8337 177.539 75.7012 177.539 72.6092V56.1895H177.645Z" fill="#456CAA"/>
  <path d="M223.513 73.6755C223.937 73.9953 225.208 74.3152 227.327 74.5284C228.386 74.6351 228.81 75.2748 228.81 76.341C228.81 78.1536 228.704 79.5397 228.598 80.6059C228.492 81.8853 227.75 82.5251 226.373 82.5251C222.772 82.5251 220.018 82.3118 218.217 81.8853C216.416 81.4589 214.933 80.6059 213.979 79.433C213.132 78.3668 212.708 77.194 212.496 75.8079C212.285 74.4218 212.179 72.5026 212.179 69.8371V62.3736H209.848C209.319 62.3736 208.895 62.2669 208.577 61.9471C208.259 61.6272 208.047 61.2007 208.047 60.6676V56.2961C208.047 55.763 208.259 55.3365 208.577 54.91C208.895 54.5902 209.424 54.3769 209.954 54.3769H212.391C212.391 52.7776 212.496 51.0716 212.708 49.0458C212.814 47.6598 213.45 47.02 214.615 47.02H220.759C221.818 47.02 222.348 47.7664 222.348 49.1525V54.3769H225.95C227.327 54.3769 228.068 55.0167 228.068 56.1895V60.561C228.068 61.0941 227.856 61.5206 227.539 61.8404C227.221 62.1603 226.691 62.2669 226.161 62.2669H222.454V69.9437C222.454 71.8629 222.772 73.1424 223.513 73.6755Z" fill="#456CAA"/>
  <path d="M232.199 56.1895C232.199 54.91 232.729 54.2703 233.788 54.2703H240.674C241.733 54.2703 242.263 54.91 242.263 56.1895V71.4364C242.263 72.2893 242.369 72.9291 242.475 73.3556C242.687 74.2085 243.534 74.5284 244.911 74.5284C245.759 74.5284 246.5 74.4218 247.348 74.2085C247.877 74.1019 248.195 73.8887 248.407 73.6754C248.619 73.4622 248.831 73.0357 248.831 72.5026V56.1895C248.831 55.5497 249.042 55.1232 249.36 54.8034C249.678 54.4835 250.102 54.2703 250.631 54.2703H257.411C258.47 54.2703 259 54.91 259 56.1895V79.1131C259 82.6316 258.894 85.0839 258.576 86.3634C257.835 89.5621 255.61 91.8011 251.903 93.0806C248.195 94.36 243.216 94.9998 237.072 94.9998C236.331 94.9998 235.801 94.8931 235.483 94.5733C235.166 94.36 234.954 93.8269 234.954 93.1872C234.848 92.0144 234.742 90.6283 234.742 89.0289C234.742 87.5362 235.377 86.7899 236.543 86.7899C240.992 86.5766 244.064 86.2568 245.653 85.8303C247.348 85.4038 248.195 84.7641 248.513 83.9111C248.619 83.378 248.725 82.7383 248.725 81.8853V81.3522C246.924 82.2052 244.487 82.525 241.204 82.525C236.543 82.525 233.682 81.3522 232.835 79.0065C232.411 77.9403 232.199 76.1277 232.199 73.5688V56.1895V56.1895Z" fill="#456CAA"/>
  <path d="M9.95746 41.0495C9.53374 41.3693 9.11002 41.5826 8.58037 41.5826H1.80082C0.635583 41.5826 0 40.8362 0 39.5568V9.8093C0 7.14375 0.529652 5.33118 1.69489 4.15834C2.75419 2.9855 4.66094 2.45239 7.09734 2.45239H11.9701C17.9022 2.45239 22.0335 2.9855 24.364 3.9451C28.0716 5.4378 29.8724 8.95632 29.8724 14.5007C29.8724 17.3794 29.3427 19.7251 28.2834 21.6443C27.2241 23.5635 25.3174 25.0562 22.3513 25.9092C19.9149 26.6555 16.5252 26.9754 12.2879 26.9754H10.4871V39.4502C10.4871 40.1965 10.2753 40.623 9.95746 41.0495ZM12.7117 19.192C14.5125 19.192 15.8896 19.0854 16.8429 18.7655C18.326 18.2324 19.0675 17.0596 19.0675 15.247C19.0675 13.1146 18.326 11.8351 16.9489 11.302C16.1014 11.0888 14.7243 10.8755 12.7117 10.8755H11.8642C10.9108 10.8755 10.4871 11.4086 10.4871 12.5815V19.192H12.7117Z" fill="#456CAA"/>
  <path d="M41.6309 41.0495C41.3131 41.3693 40.8893 41.5826 40.3597 41.5826H33.5801C32.5208 41.5826 31.8853 40.9428 31.8853 39.6634V19.0854C31.8853 18.0191 31.9912 17.2728 32.309 16.7397C32.6268 16.2066 33.1564 15.6735 33.8979 15.247C34.9572 14.6072 36.6521 14.0741 38.9826 13.541C41.3131 13.1145 43.5376 12.7947 45.5503 12.7947C47.8808 12.7947 49.4697 12.9013 50.3172 13.2212C51.1646 13.541 51.4824 14.1808 51.4824 15.1404C51.4824 17.2728 51.3765 18.9787 51.0587 20.2582C50.8468 21.0046 50.3172 21.3244 49.2579 21.3244C48.9401 21.3244 48.3045 21.3244 47.3511 21.2178C46.3977 21.2178 45.7621 21.1112 45.3384 21.1112C44.2791 21.1112 43.4317 21.2178 42.902 21.431C42.5842 21.5377 42.3724 21.7509 42.2664 21.9642C42.1605 22.1774 42.0546 22.6039 42.0546 23.2436V39.4501C42.0546 40.3031 41.9486 40.7296 41.6309 41.0495Z" fill="#456CAA"/>
  <path d="M95.0197 41.0494C94.7019 41.3692 94.2782 41.5825 93.8545 41.5825H86.8631C85.8038 41.5825 85.2741 40.9428 85.2741 39.6633V21.6442H83.1555C81.7784 21.6442 81.1428 21.0045 81.1428 19.6184V15.6734C81.1428 15.1403 81.2488 14.7138 81.5665 14.2873C81.8843 13.8608 82.414 13.6476 83.0496 13.6476H85.2741V11.7284C85.2741 7.67677 86.2275 4.79798 88.1342 3.19865C90.6766 1.06622 94.8079 0 100.422 0C102.117 0 103.07 0.533109 103.176 1.70595C103.282 2.4523 103.282 3.83838 103.282 6.07744C103.282 7.25028 102.647 7.89001 101.376 7.99663C99.4688 8.10326 98.1976 8.3165 97.562 8.52974C96.8205 8.74299 96.3968 9.16947 96.079 9.59596C95.7612 10.1291 95.5494 10.982 95.5494 12.2615V13.541H99.3629C100.634 13.541 101.27 14.1807 101.27 15.5668V19.725C101.27 20.8979 100.634 21.5376 99.2569 21.5376H95.4434V39.7699C95.5494 40.303 95.3375 40.6229 95.0197 41.0494Z" fill="#456CAA"/>
  <path d="M126.905 39.5567C126.375 40.0899 125.634 40.5163 124.574 40.8362C123.409 41.1561 121.502 41.4759 119.066 41.7958C116.63 42.1157 114.511 42.2223 112.71 42.2223C108.473 42.2223 105.507 41.3693 104.024 39.77C102.541 38.1707 101.693 35.9316 101.693 33.0528C101.693 29.8542 102.753 27.5085 104.765 26.0158C106.46 24.7363 109.532 24.0966 113.769 24.0966C114.935 24.0966 116.312 24.2032 117.689 24.3098V23.8833C117.689 23.137 117.583 22.6039 117.477 22.1774C117.159 21.431 115.994 21.1112 113.875 21.1112C112.18 21.1112 110.592 21.2178 109.003 21.431C107.731 21.6443 106.778 21.7509 106.248 21.7509C105.401 21.7509 104.871 21.2178 104.659 20.3648C104.342 18.9787 104.13 17.486 104.13 15.9933C104.13 14.9271 104.659 14.2874 105.613 13.9675C107.943 13.1145 111.227 12.7947 115.252 12.7947C120.655 12.7947 124.151 13.541 125.74 15.1404C127.117 16.5264 127.858 19.192 127.858 22.8171V36.4647C127.752 38.064 127.434 39.0236 126.905 39.5567ZM115.041 30.4939C113.346 30.4939 112.392 30.7071 111.863 31.027C111.439 31.3469 111.121 31.9866 111.121 32.8396C111.121 34.2257 111.969 34.972 113.769 34.972C115.147 34.972 116.206 34.7588 116.841 34.4389C117.159 34.3323 117.371 34.0124 117.371 33.6925C117.477 33.3727 117.477 32.6263 117.477 31.7734V30.6005C116.947 30.4939 116.1 30.4939 115.041 30.4939Z" fill="#456CAA"/>
  <path d="M132.413 15.4602C132.413 14.1807 132.943 13.541 134.108 13.541H140.993C142.053 13.541 142.688 14.1807 142.688 15.4602V30.3873C142.688 31.5601 142.794 32.3064 143.006 32.7329C143.324 33.5859 144.171 33.9058 145.443 33.9058C146.502 33.9058 147.243 33.7992 147.773 33.6925C148.409 33.4793 148.726 33.3727 148.832 33.266C149.044 33.0528 149.256 32.6263 149.256 32.0932V15.4602C149.256 14.8205 149.468 14.394 149.786 14.0741C150.103 13.7543 150.527 13.541 151.057 13.541H157.836C158.896 13.541 159.531 14.1807 159.531 15.4602V36.8912C159.531 38.8104 158.79 40.0898 157.307 40.6229C154.447 41.6892 149.998 42.3289 144.065 42.3289C140.464 42.3289 137.921 42.009 136.333 41.3693C134.744 40.7296 133.684 39.77 133.261 38.4905C132.731 37.211 132.519 34.972 132.519 31.9866V15.4602H132.413Z" fill="#456CAA"/>
  <path d="M174.15 41.0495C173.832 41.3693 173.408 41.5826 172.878 41.5826H166.099C165.04 41.5826 164.404 40.9428 164.404 39.6634V18.6589C164.404 16.8463 165.146 15.5668 166.629 15.0337C168.323 14.394 170.654 13.8609 173.832 13.4344C176.904 13.0079 179.764 12.7947 182.412 12.7947C187.179 12.7947 189.933 13.9675 190.781 16.3132C191.204 17.3794 191.416 19.192 191.416 21.7509V39.6634C191.416 40.9428 190.887 41.5826 189.721 41.5826H182.836C181.777 41.5826 181.141 40.9428 181.141 39.6634V24.2032C181.141 23.3502 181.035 22.7105 180.929 22.284C180.717 21.431 179.87 21.1112 178.493 21.1112C177.751 21.1112 176.904 21.2178 176.056 21.431C175.527 21.5377 175.209 21.7509 174.997 21.9642C174.785 22.1774 174.573 22.6039 174.573 23.137V39.77C174.679 40.3031 174.467 40.7296 174.15 41.0495Z" fill="#456CAA"/>
  <path d="M220.441 39.5567C219.912 40.0899 219.17 40.5163 218.111 40.8362C216.946 41.1561 215.039 41.4759 212.603 41.7958C210.166 42.1157 208.048 42.2223 206.247 42.2223C202.01 42.2223 199.043 41.3693 197.56 39.77C196.077 38.1707 195.23 35.9316 195.23 33.0528C195.23 29.8542 196.289 27.5085 198.302 26.0158C199.997 24.7363 203.069 24.0966 207.306 24.0966C208.471 24.0966 209.848 24.2032 211.225 24.3098V23.8833C211.225 23.137 211.12 22.6039 211.014 22.1774C210.696 21.431 209.531 21.1112 207.412 21.1112C205.717 21.1112 204.128 21.2178 202.539 21.431C201.268 21.6443 200.315 21.7509 199.785 21.7509C198.938 21.7509 198.408 21.2178 198.196 20.3648C197.878 18.9787 197.666 17.486 197.666 15.9933C197.666 14.9271 198.196 14.2874 199.149 13.9675C201.48 13.1145 204.764 12.7947 208.789 12.7947C214.192 12.7947 217.687 13.541 219.276 15.1404C220.653 16.5264 221.395 19.192 221.395 22.8171V36.4647C221.289 38.064 220.971 39.0236 220.441 39.5567ZM208.577 30.4939C206.882 30.4939 205.929 30.7071 205.399 31.027C204.87 31.3469 204.658 31.9866 204.658 32.8396C204.658 34.2257 205.505 34.972 207.306 34.972C208.683 34.972 209.742 34.7588 210.378 34.4389C210.696 34.3323 210.908 34.0124 210.908 33.6925C211.014 33.3727 211.014 32.6263 211.014 31.7734V30.6005C210.484 30.4939 209.636 30.4939 208.577 30.4939Z" fill="#456CAA"/>
  <path d="M54.4482 28.6814C54.3423 29.1079 54.4482 29.5344 54.5541 29.8542C54.8719 31.0271 55.7193 31.5602 56.7787 31.88C57.0964 31.9867 57.4142 31.9867 57.6261 32.0933C58.0498 32.0933 58.2617 32.4131 58.3676 32.733C58.8973 33.6926 59.5328 34.5456 60.2744 35.2919C61.5455 36.4648 62.9226 37.3177 64.6175 37.6376C65.7827 37.8509 66.842 38.0641 68.0073 38.384C68.8547 38.5972 69.4903 39.0237 70.02 39.77C70.3378 40.1965 70.4437 40.3032 70.9733 40.1965C73.1979 39.77 75.2106 38.7038 77.0114 37.3177C77.3292 37.1045 77.541 36.8913 77.8588 36.678C77.9648 36.5714 78.0707 36.5714 78.1766 36.5714H78.2825V36.678C78.0707 36.8913 77.8588 37.2111 77.647 37.4244C77.1173 37.9575 76.5877 38.5972 76.058 39.1303C74.9987 40.0899 73.8335 40.8363 72.5623 41.476C71.6089 41.9025 70.5496 42.329 69.4903 42.5422C68.8547 42.6488 68.2191 42.7555 67.6895 42.8621C66.7361 42.9687 65.7827 42.9687 64.8294 42.9687C63.9819 42.9687 63.2404 42.8621 62.393 42.6488C61.5455 42.4356 60.6981 42.2223 59.8506 41.9025C58.7913 41.476 57.838 40.9429 56.8846 40.1965C55.9312 39.5568 55.0838 38.8104 54.3423 37.9575C53.6007 37.1045 52.9652 36.2515 52.4355 35.2919C51.7999 34.3323 51.3762 33.2661 51.0584 32.1999C50.7406 30.7072 50.8465 29.3211 51.4821 28.0416C51.9059 27.0821 52.5414 26.2291 53.177 25.3761V25.2695C53.0711 25.2695 52.9652 25.2695 52.9652 25.3761C52.3296 25.8026 51.7999 26.3357 51.3762 26.8688C51.1643 27.0821 51.0584 27.2953 50.8465 27.5085C50.6347 27.7218 50.5288 27.6152 50.4228 27.4019C50.4228 27.2953 50.3169 27.1887 50.3169 26.9754C50.3169 26.2291 50.3169 25.4827 50.6347 24.7364C50.8465 24.0966 51.2703 23.6702 52.0118 23.6702C52.6474 23.6702 53.3889 23.7768 54.0245 23.8834C54.3423 23.99 54.66 23.99 54.8719 23.7768C55.4016 23.3503 56.0371 23.3503 56.6727 23.4569C57.3083 23.5635 57.9439 23.4569 58.5795 23.137C58.8973 22.9238 59.321 22.7106 59.6388 22.4973C59.7447 22.4973 59.9566 22.4973 60.0625 22.6039C60.9099 23.5635 60.6981 24.843 59.6388 25.4827C58.8973 25.9092 58.3676 26.4423 58.0498 27.0821C57.838 27.6152 57.4142 27.6152 56.9905 27.4019C56.5668 27.1887 56.249 26.7622 56.0371 26.3357C56.0371 26.3357 56.0371 26.3357 55.9312 26.3357C55.9312 26.4423 55.9312 26.6556 56.0371 26.7622C56.3549 27.4019 56.8846 27.8284 57.4142 28.2549C57.6261 28.3615 57.838 28.5748 58.0498 28.6814C58.5795 29.1079 58.6854 29.8542 58.2617 30.3873C58.0498 30.6006 57.9439 30.8138 57.732 31.0271C57.2024 31.4535 56.8846 31.4535 56.249 31.1337C55.4016 30.7072 54.8719 29.9608 54.66 29.0012C54.5541 28.8946 54.5541 28.788 54.4482 28.6814ZM57.4142 24.6298C57.4142 24.4165 57.3083 24.2033 57.0964 24.2033C56.8846 24.2033 56.6727 24.4165 56.6727 24.6298C56.6727 24.843 56.7787 25.0562 56.9905 25.0562C57.3083 25.0562 57.4142 24.843 57.4142 24.6298Z" fill="#456CAA"/>
  <path d="M78.0705 19.0854C78.2823 19.7251 78.6001 20.2583 78.812 20.7914C79.0238 21.2179 79.1298 21.6443 79.2357 22.1775C79.3416 22.3907 79.1298 22.6039 78.9179 22.4973C78.6001 22.3907 78.2823 22.0708 78.1764 21.751C77.9645 21.3245 77.8586 20.898 77.7527 20.4715C77.4349 19.6185 77.1171 18.6589 76.5874 17.9126C76.4815 17.6993 76.2696 17.5927 76.1637 17.4861C76.1637 17.4861 76.1637 17.4861 76.0578 17.4861C76.0578 17.5927 76.0578 17.5927 76.1637 17.6993C76.4815 18.2324 76.6934 18.7656 76.9052 19.4053C76.9052 19.6185 77.0111 19.8318 76.9052 20.1516C76.9052 20.2583 76.6934 20.4715 76.5874 20.4715C76.3756 20.5781 76.1637 20.3649 76.0578 20.1516C75.9519 19.9384 75.8459 19.6185 75.74 19.4053C75.5281 18.9788 75.2103 18.5523 74.9985 18.1258C74.8925 17.9126 74.5747 17.806 74.3629 17.5927C74.5747 17.9126 74.6807 18.3391 74.8925 18.6589C75.1044 19.0854 75.2103 19.5119 75.2103 19.9384C75.2103 20.2583 74.9985 20.3649 74.6807 20.2583C74.5748 20.1516 74.4688 20.045 74.3629 19.8318C74.0451 19.0854 73.5155 18.4457 72.8799 18.0192C72.7739 18.0192 72.7739 17.9126 72.668 17.9126C72.8799 18.1258 73.0917 18.3391 73.3036 18.5523C73.8332 19.2987 74.257 20.045 74.3629 20.898C74.3629 21.1112 74.3629 21.3245 74.3629 21.5377C74.3629 21.751 74.257 21.9642 74.0451 21.9642C73.9392 21.9642 73.6214 21.8576 73.6214 21.751C73.4095 21.3245 73.1977 20.898 72.9858 20.4715C72.668 19.7252 72.3502 18.9788 71.7146 18.4457C71.6087 18.3391 71.6087 18.3391 71.5028 18.3391C71.3968 18.3391 71.3968 18.3391 71.2909 18.3391C71.2909 18.4457 71.2909 18.4457 71.3968 18.5523C71.9265 19.192 72.3502 19.9384 72.4561 20.7914C72.5621 21.1112 72.5621 21.5377 72.5621 21.8576C72.5621 21.9642 72.4561 22.1775 72.3502 22.1775C72.2443 22.1775 72.1384 22.0708 72.0324 21.9642C71.8206 21.751 71.7146 21.4311 71.6087 21.1112C71.185 20.2583 70.6553 19.5119 69.9138 18.8722C69.8079 18.7656 69.7019 18.6589 69.596 18.6589C69.9138 18.9788 70.1257 19.2987 70.4435 19.7251C70.6553 20.1516 70.8672 20.5781 71.079 21.0046C71.079 21.0046 71.079 21.0046 71.079 21.1112C71.079 21.2179 71.079 21.4311 70.9731 21.5377C70.8672 21.6443 70.6553 21.4311 70.5494 21.4311C69.9138 20.898 69.3842 20.3649 68.7486 19.8318C68.6427 19.7252 68.4308 19.6185 68.2189 19.5119C68.4308 19.7251 68.6426 19.9384 68.8545 20.1516C69.702 21.0046 70.2316 21.8576 70.7613 22.9238C71.2909 23.8834 71.6087 24.9496 71.7146 26.0158C71.8206 26.5489 71.8206 27.0821 71.8206 27.6152C71.8206 27.8284 71.8206 28.0416 71.8206 28.2549C71.8206 29.7476 71.6087 31.2403 71.185 32.6264C71.079 32.9463 70.9731 33.2661 70.8672 33.586C70.8672 33.6926 70.7613 33.7992 70.7613 33.7992C70.6553 33.9058 70.5494 33.9058 70.4435 33.9058C70.4435 33.7992 70.3375 33.6926 70.4435 33.6926C70.5494 33.2661 70.6553 32.733 70.7613 32.3065V32.1999C70.6553 32.6264 70.5494 32.9463 70.3375 33.3727C70.0197 34.2257 69.596 35.0787 68.9604 35.7184C68.4308 36.2515 67.7952 36.5714 67.0537 36.7846C66.9478 36.7846 66.8418 36.678 66.63 36.678C66.7359 36.5714 66.7359 36.4648 66.8418 36.3581C67.6893 35.5052 68.4308 34.5456 68.9604 33.586C69.3842 32.733 69.8079 31.9867 70.2316 31.1337C70.2316 31.1337 70.1257 31.1337 70.1257 31.0271L70.0197 31.1337C69.4901 31.9867 68.9604 32.733 68.3249 33.3727C68.2189 33.4794 68.0071 33.586 67.9011 33.6926C67.7952 33.6926 67.6893 33.6926 67.5833 33.6926C67.5833 33.586 67.5833 33.4794 67.6893 33.3727C67.7952 33.1595 68.0071 33.0529 68.113 32.8396C69.0664 31.6668 69.596 30.2807 69.9138 28.788C70.0197 28.0416 70.1257 27.2953 70.0197 26.5489C70.0197 26.2291 69.9138 25.8026 69.9138 25.4827C69.9138 25.3761 69.8079 25.1629 69.596 25.0562C69.3842 24.843 69.1723 24.7364 68.9604 24.6298L68.8545 24.7364C68.8545 25.1629 68.6426 25.2695 68.3249 25.0562C68.2189 24.9496 68.0071 24.843 67.9011 24.6298C67.7952 24.5231 67.7952 24.4165 67.6893 24.4165C67.6893 24.4165 67.6893 24.4165 67.5833 24.4165C67.5833 24.5231 67.5833 24.5231 67.5833 24.6298C67.5833 24.7364 67.5833 24.9496 67.4774 24.9496C67.3715 24.9496 67.1596 24.9496 67.0537 24.9496C66.8418 24.843 66.7359 24.5231 66.7359 24.3099C66.7359 24.2033 66.7359 24.0966 66.524 23.99C66.1003 23.6702 65.6766 23.2437 65.2529 22.9238C64.4054 22.1775 63.558 21.4311 62.6046 20.7914C62.2868 21.2179 61.7572 21.5377 61.1216 21.3245C61.2275 21.1112 61.4394 20.7914 61.2275 20.5781L61.3335 20.4715C61.6512 20.3649 62.075 20.4715 62.2868 20.6847C62.1809 20.3649 61.6512 20.1516 61.2275 20.2583C61.1216 20.1516 61.0157 19.9384 60.9097 19.9384C61.0157 19.7252 61.1216 19.6185 61.1216 19.5119C61.1216 19.5119 61.0157 19.2987 60.9097 19.2987C60.6979 19.2987 60.6979 19.4053 60.5919 19.6185C60.1682 19.2987 59.7445 19.2987 59.2148 19.2987C59.4267 18.5523 59.9564 18.0192 60.5919 17.6993C61.1216 17.4861 61.7572 17.3795 62.2868 17.4861C62.8165 17.5927 63.2402 17.6993 63.7699 17.806C64.1936 17.9126 64.4054 17.806 64.6173 17.3795C64.7232 17.0596 64.8292 16.6331 64.9351 16.2066C65.041 15.8868 64.9351 15.4603 65.041 15.1404C65.041 14.5007 64.9351 13.861 64.6173 13.2212C64.5114 13.008 64.5114 12.7947 64.5114 12.5815C64.5114 12.0484 64.8292 11.7285 65.2529 11.7285C66.3122 11.7285 67.3715 11.7285 68.4308 11.9418C70.0197 12.2616 71.6087 12.7947 73.0917 13.5411C73.9392 13.9676 74.7866 14.5007 75.5281 15.247C76.1637 15.7801 76.6934 16.3133 77.3289 16.953C78.0705 17.806 78.706 18.6589 79.2357 19.6185C79.9772 20.898 80.5069 22.3907 80.8246 23.8834C80.9306 24.3099 80.9306 24.7364 81.0365 25.0562C81.0365 25.1629 81.0365 25.2695 80.9306 25.2695C80.8246 25.2695 80.7187 25.2695 80.7187 25.1629C80.5069 24.9496 80.295 24.7364 80.295 24.4165C80.0831 23.8834 79.9772 23.2437 79.7653 22.7106C79.3416 21.3245 78.812 20.2583 78.0705 19.0854C78.0705 19.0854 78.1764 19.0854 78.0705 19.0854Z" fill="#456CAA"/>
  <path d="M61.4397 15.4602C61.8634 15.5668 62.2871 15.5668 62.7108 15.6734C63.2405 15.7801 63.7702 15.9933 64.0879 16.4198C64.1939 16.5264 64.1939 16.633 64.2998 16.7397C64.2998 16.8463 64.2998 16.9529 64.1939 17.0595C64.1939 17.0595 64.0879 17.0595 63.982 17.0595C63.2405 16.8463 62.499 16.633 61.6515 16.7397C60.6982 16.7397 59.8507 17.0595 59.2151 17.8059C59.0033 18.1258 58.7914 18.4456 58.6855 18.8721C58.4736 19.2986 58.3677 19.7251 58.2618 20.1516C58.0499 20.7913 57.6262 21.2178 56.8847 21.431C56.7787 21.431 56.7787 21.431 56.7787 21.5376C57.0965 21.5376 57.3084 21.431 57.6262 21.431C58.0499 21.431 58.5796 21.431 59.0033 21.431C59.1092 21.431 59.3211 21.5376 59.3211 21.6443C59.427 21.7509 59.427 21.8575 59.3211 21.9641C59.0033 22.284 58.6855 22.4972 58.1558 22.4972C57.7321 22.4972 57.3084 22.4972 56.8847 22.4972C56.355 22.4972 55.9313 22.6039 55.4016 22.7105C55.1898 22.7105 54.9779 22.8171 54.7661 22.8171C54.4483 22.9237 54.1305 22.9237 53.8127 22.6039C53.4949 22.8171 53.1771 22.9237 52.7534 22.9237C52.2237 22.9237 51.6941 22.3906 51.8 21.6443C51.8 21.431 52.1178 21.431 52.3297 21.5376C52.5415 21.6443 52.7534 21.7509 53.0712 21.8575C53.283 21.9641 53.389 21.8575 53.283 21.6443C53.1771 21.1112 53.0712 20.578 53.0712 20.1516C53.0712 19.0853 53.283 18.0191 54.1305 17.1662C54.872 16.4198 55.8254 15.8867 56.9906 15.7801C57.4143 15.7801 57.7321 15.4602 58.0499 15.247C58.7914 14.7139 59.6389 14.0741 60.4863 13.7543C60.5922 13.7543 60.6982 13.6476 60.8041 13.6476L60.91 13.541L60.8041 13.4344C60.5922 13.4344 60.3804 13.4344 60.2744 13.541C59.8507 13.7543 59.427 14.0741 59.0033 14.2874C58.5796 14.6072 58.1558 14.9271 57.838 15.247C57.3084 15.6735 56.5669 15.6734 55.9313 15.6734C55.8254 15.6734 55.6135 15.5668 55.6135 15.4602C55.6135 15.3536 55.6135 15.247 55.7194 15.1403C56.2491 14.7139 56.7787 14.2874 57.4143 13.8609C58.1558 13.3278 59.0033 12.9013 59.8507 12.688C60.2744 12.5814 60.6982 12.5814 61.1219 12.4748C61.8634 12.3682 62.499 12.4748 63.2405 12.7947C63.4524 12.9013 63.7702 13.0079 63.982 13.2211C64.1939 13.3278 64.2998 13.6476 64.1939 13.9675C63.982 14.6072 63.3464 15.1403 62.6049 15.247C62.2871 15.247 61.9693 15.3536 61.4397 15.4602ZM63.2405 13.6476C63.1346 13.541 63.0286 13.4344 63.0286 13.4344L62.9227 13.541C62.9227 13.6476 63.0286 13.7543 63.0286 13.7543C63.1346 13.8609 63.1346 13.7543 63.2405 13.6476Z" fill="#456CAA"/>
  <path d="M62.7108 22.6039C62.7108 22.7106 62.8167 22.8172 62.8167 22.8172C62.9226 22.8172 63.0286 22.8172 63.0286 22.8172V22.7106C63.3463 22.9238 63.5582 23.137 63.876 23.3503C64.0879 23.5635 64.0879 23.8834 63.9819 24.0966C63.876 24.3099 63.9819 24.5231 64.0879 24.6298C64.4057 25.0562 64.7234 25.4827 64.8294 26.0158C65.0412 27.0821 64.4057 27.8284 63.4523 28.0416C63.0286 28.1483 62.6048 27.935 62.287 27.935C61.9693 27.8284 61.6515 27.935 61.5455 28.2549C61.4396 28.4681 61.3337 28.6814 61.3337 29.0012C61.2277 30.0675 61.1218 31.0271 61.4396 32.0933C61.5455 32.5198 61.8633 32.733 62.1811 32.733C62.4989 32.6264 62.7108 32.6264 63.0286 32.4131C63.5582 32.0933 63.876 31.5602 64.1938 31.0271C64.7234 30.2807 64.9353 29.3211 65.1472 28.4681C65.2531 27.935 65.465 27.5085 65.8887 27.0821C66.5243 26.3357 67.9014 26.4423 68.431 27.4019C68.6429 27.8284 68.7488 28.2549 68.8547 28.788C68.9607 30.2807 68.3251 31.5602 67.4776 32.733C66.6302 33.9058 65.465 34.7588 64.2997 35.6118C64.1938 35.7184 64.0879 35.7184 63.9819 35.825C64.2997 36.0383 64.5116 35.9317 64.7234 35.9317C65.465 35.7184 65.9946 35.2919 66.5243 34.8654C66.7361 34.6522 66.8421 34.5456 67.0539 34.3323C67.1598 34.3323 67.1598 34.3323 67.2658 34.2257C67.2658 34.3323 67.3717 34.439 67.2658 34.439C67.1598 34.6522 67.0539 34.8654 66.948 35.0787C66.3124 35.825 65.5709 36.3581 64.5116 36.678C64.0879 36.7846 63.7701 36.7846 63.3463 36.5714C62.8167 36.3581 62.7108 35.825 63.0286 35.3986C63.2404 35.1853 63.4523 34.9721 63.7701 34.7588C64.9353 34.0125 65.9946 33.0529 66.842 31.88C67.1598 31.4535 67.2658 30.9204 67.2658 30.3873C67.3717 29.9608 67.2658 29.641 67.1598 29.2145C67.1598 29.1079 67.0539 29.0012 66.948 29.0012C66.8421 29.0012 66.7361 29.1079 66.6302 29.2145C66.5243 29.4277 66.4183 29.7476 66.3124 30.0675C65.7827 32.0933 64.6175 33.586 62.7108 34.5456C61.6515 35.0787 60.4862 34.6522 59.9566 33.7992C59.6388 33.2661 59.5329 32.733 59.4269 32.1999C59.2151 31.3469 59.2151 30.6006 59.1091 29.7476C59.1091 29.1079 59.1091 28.4681 59.321 27.935C59.6388 26.9754 60.6981 26.4423 61.6515 26.6556C62.1811 26.7622 62.8167 26.8688 63.3463 27.0821C63.3463 27.0821 63.4523 27.0821 63.5582 27.0821C63.876 27.0821 64.0879 26.8688 63.9819 26.5489C63.7701 26.0158 63.3463 25.4827 62.6048 25.4827C62.287 25.4827 62.1811 25.2695 62.0752 25.0562C61.9693 24.843 61.8633 24.5231 61.7574 24.4165C61.8633 24.3099 61.8633 24.2033 61.8633 24.0966C61.8633 23.99 61.7574 23.99 61.6515 23.99C61.6515 23.99 61.5455 23.99 61.5455 23.8834C61.4396 23.6702 61.4396 23.4569 61.3337 23.137C61.3337 22.7106 61.6515 22.4973 62.0752 22.6039C62.1811 22.6039 62.1811 22.7106 62.287 22.7106C62.393 22.3907 62.4989 22.4973 62.7108 22.6039Z" fill="#456CAA"/>
  <path d="M71.397 22.9238C72.1385 23.1371 72.6681 23.6702 72.9859 24.3099C73.3037 24.9496 73.6215 25.5894 73.9393 26.2291C74.1512 25.9092 74.1512 25.5894 74.0452 25.3761C73.9393 25.1629 73.9393 24.9496 73.9393 24.843C73.9393 24.843 73.9393 24.7364 74.0452 24.7364H74.1512C74.363 24.9496 74.5749 25.2695 74.8927 25.4828C75.4223 26.0159 75.5283 26.6556 75.2105 27.2953C75.1045 27.7218 74.8927 28.0417 74.6808 28.3615C74.469 28.788 74.469 29.3211 74.469 29.7476C74.5749 30.3874 74.6808 30.9205 74.7868 31.5602C74.7868 31.8801 74.7868 31.9867 74.469 32.0933C74.1512 32.1999 74.1512 32.3065 74.1512 32.733C74.1512 32.6264 74.1512 32.6264 74.1512 32.5198C74.1512 32.3065 74.2571 32.1999 74.469 32.3065C74.7868 32.4132 74.9986 32.5198 75.1046 32.8397C75.2105 33.1595 75.2105 33.2661 74.8927 33.3728C74.7868 33.3728 74.6808 33.4794 74.469 33.586C74.6808 33.586 74.6808 33.6926 74.6808 33.7993C74.5749 34.2257 74.363 34.6522 73.9393 34.8655C73.8334 34.9721 73.7274 34.9721 73.6215 34.7588C73.5156 34.5456 73.3037 34.3324 73.1978 34.2257C73.1978 34.1191 73.0919 34.1191 72.9859 34.1191C73.0919 34.2257 73.1978 34.3324 73.1978 34.439C73.6215 35.1853 73.4097 35.7184 72.6681 35.8251C72.3503 35.9317 72.0326 35.9317 71.7148 35.8251C71.5029 35.8251 71.397 35.7184 71.397 35.5052C71.397 35.0787 71.5029 34.6522 71.5029 34.3324C71.5029 34.1191 71.5029 34.0125 71.5029 33.7993C71.5029 33.586 71.397 33.2661 71.397 33.0529C71.397 32.6264 71.397 32.3065 71.5029 31.8801C71.6088 31.1337 71.7148 30.3874 71.8207 29.641C71.9266 29.1079 71.8207 28.4682 71.9266 27.9351C71.9266 27.7218 71.9266 27.7218 72.1385 27.8284C72.5622 28.0417 72.88 28.3615 73.0919 28.788C73.1978 29.0013 73.1978 29.2145 73.0919 29.4278C72.88 29.8542 72.6681 30.2807 72.4563 30.7072C72.4563 30.8138 72.4563 30.9205 72.4563 30.9205C72.88 30.1741 73.1978 29.5344 73.6215 28.788C73.9393 28.2549 73.9393 27.6152 73.6215 27.0821C73.5156 26.9755 73.4097 26.8688 73.4097 26.7622C72.88 26.3357 72.3503 25.8026 72.1385 25.0563C72.0326 24.6298 71.9266 24.2033 71.8207 23.8834C71.6088 23.6702 71.5029 23.3503 71.397 22.9238ZM72.7741 34.8655C72.6681 34.7589 72.5622 34.6522 72.4563 34.6522C72.3503 34.6522 72.2444 34.7589 72.2444 34.8655C72.2444 34.9721 72.3503 35.0787 72.4563 35.0787C72.5622 35.1853 72.6681 35.0787 72.7741 34.8655Z" fill="#456CAA"/>
  <path d="M61.1217 21.8576C59.9564 21.6444 58.7912 20.6848 59.2149 19.0854C59.9564 19.0854 60.592 19.4053 61.0157 20.045V20.2583C60.592 20.5782 60.698 21.0046 60.9098 21.4311C61.0157 21.5378 61.0157 21.6444 61.1217 21.8576Z" fill="#456CAA"/>
  <path d="M68.7489 37.6376C68.4311 37.6376 68.1133 37.4244 68.1133 36.9979C68.1133 36.678 68.3251 36.3582 68.7489 36.3582C69.0667 36.3582 69.3844 36.678 69.3844 36.9979C69.3844 37.3178 69.1726 37.6376 68.7489 37.6376Z" fill="#456CAA"/>
  <path d="M70.5497 36.5715C70.3379 36.5715 70.2319 36.4649 70.2319 36.145C70.2319 35.9318 70.3379 35.7185 70.5497 35.7185C70.7616 35.7185 70.9734 35.9318 70.9734 36.145C70.9734 36.3582 70.7616 36.5715 70.5497 36.5715Z" fill="#456CAA"/>
  <path d="M70.6556 34.9722C70.6556 35.0788 70.5497 35.1855 70.4438 35.1855C70.2319 35.1855 70.126 35.0788 70.126 34.8656C70.126 34.6523 70.2319 34.6523 70.3378 34.6523C70.5497 34.759 70.6556 34.759 70.6556 34.9722Z" fill="#456CAA"/>
  <path d="M80.825 26.7622C80.4013 25.696 79.7657 24.6298 79.1301 23.6702C78.6004 22.8172 77.9649 22.0709 77.1174 21.5378C76.7996 21.3245 76.3759 21.1113 75.9522 20.7914C75.7403 20.6848 75.6344 20.4715 75.4225 20.2583C75.3166 20.6848 75.3166 21.0047 75.4225 21.4311C75.4225 21.5378 75.4225 21.6444 75.3166 21.6444C75.2107 21.751 74.9988 21.8576 74.8929 21.9642C74.7869 22.0709 74.681 22.1775 74.5751 22.3907C74.4691 22.7106 74.3632 22.9238 74.1514 23.0305C73.7276 23.3503 73.7276 23.3503 74.1514 23.6702L74.2573 23.7768C74.5751 24.3099 74.9988 24.4165 75.5285 24.3099C75.7403 24.2033 75.9522 24.3099 76.164 24.5232C76.4818 24.843 76.5878 25.2695 76.6937 25.696C76.7996 26.3357 76.5878 26.9755 76.27 27.6152C76.0581 27.9351 75.9522 28.1483 75.8462 28.4682C75.6344 29.1079 75.6344 29.8543 75.7403 30.6006C75.8462 31.6668 76.164 32.6264 76.4818 33.586C76.6937 34.1191 76.5878 34.439 76.3759 34.8655C75.4225 36.2516 74.1514 37.4244 72.4565 37.7443C72.1387 37.8509 71.8209 37.8509 71.609 37.531C71.3972 37.4244 71.1853 37.3178 70.9734 37.2112C70.7616 37.1045 70.5497 37.2112 70.3379 37.4244C70.126 37.6377 70.126 37.8509 70.2319 38.0641C70.3379 38.4906 70.7616 38.5972 71.0794 38.7039C72.0327 38.9171 72.9861 38.8105 73.8336 38.5972C75.5284 38.0641 76.7996 37.1045 77.8589 35.7185C78.1767 35.3986 78.3886 35.0787 78.9182 34.9721C79.0242 34.9721 79.1301 34.8655 79.3419 34.8655C79.5538 34.7589 79.8716 34.5456 80.0835 34.3324C80.4012 33.9059 80.5072 33.4794 80.719 32.9463C81.1428 31.7735 81.4606 30.6006 81.5665 29.4278C81.2487 28.4682 81.2487 27.6152 80.825 26.7622ZM75.3166 22.4974C75.3166 22.604 75.2107 22.7106 74.9988 22.8172C74.9988 22.8172 74.9988 22.8172 74.8929 22.7106C74.8929 22.604 74.8929 22.4974 74.9988 22.3907C74.9988 22.4974 75.2107 22.4974 75.3166 22.4974C75.3166 22.4974 75.2107 22.4974 75.3166 22.4974Z" fill="#456CAA"/>
</svg>