<svg xmlns="http://www.w3.org/2000/svg" width="453" height="102" viewBox="0 0 453 102" fill="none">
  <g clip-path="url(#clip0)">
  <path fill-rule="evenodd" clip-rule="evenodd" d="M265.5 77.4751C266.2 77.4751 266.8 77.1751 267.3 76.6751C267.7 76.1751 268 75.575 268 75.075V48.875H273.5C275.4 48.875 276.4 48.0751 276.4 46.2752V40.175C276.4 38.2751 275.5 37.2752 273.6 37.2752H268V35.4752C268 33.7752 268.2 32.4751 268.7 31.675C269.2 30.9751 269.9 30.3751 270.9 30.0751C271.9 29.7752 273.8 29.4752 276.5 29.2752C278.4 29.0751 279.3 28.075 279.3 26.4751C279.3 23.2751 279.2 21.175 279.1 20.175C279 18.4751 277.6 17.675 275.1 17.675C266.9 17.675 261 19.175 257.2 22.175C254.4 24.575 253 28.6751 253 34.4752V37.2752H249.7C248.8 37.2752 248.1 37.575 247.6 38.175C247.1 38.7751 246.9 39.4751 246.9 40.175V45.875C246.9 47.7751 247.9 48.7752 249.9 48.7752H253V74.7752C253 76.5751 253.8 77.4751 255.3 77.4751H265.5ZM140.6 77.4751C141.4 77.4751 142 77.1751 142.6 76.6751C143.2 76.1751 143.5 75.4751 143.4 74.575V56.675H146.1C152.4 56.675 157.4 56.1751 160.9 55.0751C165.1 53.8751 168 51.7752 169.5 48.9752C171 46.0751 171.8 42.6751 171.8 38.5751C171.8 30.6751 169.1 25.575 163.7 23.375C160.3 21.875 154.2 21.175 145.6 21.175H138.4C134.7 21.175 132 21.9752 130.4 23.5751C128.8 25.1751 128 27.9752 128 31.7752V74.575C128 76.4751 128.9 77.4751 130.7 77.4751H140.6ZM152.8 44.5751C151.5 44.9752 149.5 45.175 146.8 45.175H143.4V35.5751C143.4 33.9752 144.1 33.175 145.5 33.175H146.8C149.8 33.175 151.8 33.3751 153 33.7752C155.1 34.4752 156.1 36.3751 156.1 39.4752C156.1 42.1751 155 43.8751 152.8 44.5751ZM187.1 77.375C187.9 77.375 188.5 77.1751 189 76.6751C189.5 76.1751 189.8 75.5751 189.7 74.6751V51.2749C189.7 50.2749 189.7 49.675 189.9 49.375C190.1 48.9749 190.5 48.775 190.9 48.5751C191.7 48.275 192.9 48.0751 194.5 48.0751C195 48.0751 196 48.075 197.4 48.175C198.8 48.2749 199.7 48.2749 200.2 48.2749C201.7 48.2749 202.5 47.7749 202.8 46.675C203.2 44.875 203.4 42.4749 203.4 39.375C203.4 37.9749 202.8 37.075 201.6 36.675C200.5 36.2749 198.2 36.0751 194.7 36.0751C191.7 36.0751 188.5 36.4749 185.1 37.175C181.7 37.875 179.2 38.6751 177.6 39.5751C176.5 40.1751 175.7 40.875 175.3 41.675C174.9 42.4749 174.7 43.5751 174.7 45.0751V74.6751C174.7 76.475 175.5 77.375 177.1 77.375H187.1ZM239.9 73.875C236.7 76.9751 231.4 78.4751 224 78.4751C216.9 78.4751 211.8 76.9751 208.6 73.9751C205.4 70.9751 203.8 65.3751 203.8 57.2752C203.8 53.0751 204.3 49.575 205.3 46.675C206.3 43.7751 207.8 41.675 209.7 40.175C211.7 38.675 213.8 37.6751 216.2 37.0751C218.6 36.4752 221.4 36.175 224.6 36.175C228.2 36.175 231.1 36.4752 233.5 36.9752C235.8 37.4752 237.9 38.4751 239.7 39.875C241.5 41.375 242.8 43.4752 243.6 46.2752C244.4 49.0751 244.8 52.6751 244.8 57.0751C244.8 65.0751 243.2 70.7751 239.9 73.875ZM228.8 49.675C228.2 48.4751 226.7 47.875 224.4 47.875C222.3 47.875 220.9 48.4752 220.1 49.7752C219.3 51.0751 218.9 53.4752 218.9 57.0751C218.9 60.9752 219.3 63.5751 220 64.7752C220.7 65.9752 222.1 66.6751 224.2 66.6751C226.3 66.6751 227.8 66.0751 228.5 64.7752C229.3 63.5751 229.6 60.9751 229.6 57.175C229.7 53.4751 229.4 50.875 228.8 49.675ZM314 74.6751C313.3 75.3751 312.2 76.075 310.6 76.4749C308.8 76.9749 306.1 77.4749 302.5 77.875C298.9 78.2749 295.8 78.4749 293.1 78.4749C286.9 78.4749 282.6 77.2749 280.3 74.9749C278 72.575 276.8 69.3751 276.8 65.275C276.8 60.6751 278.3 57.2749 281.2 55.175C283.7 53.375 288.1 52.4749 294.4 52.4749C296.035 52.4749 297.753 52.5574 299.627 52.6475L300.2 52.675V52.0751C300.2 51.0751 300.1 50.2749 299.9 49.675C299.5 48.675 297.7 48.175 294.6 48.175C292.1 48.175 289.7 48.375 287.4 48.675C285.5 48.9749 284.1 49.175 283.3 49.175C282.1 49.175 281.3 48.475 281 47.0751C280.5 45.0751 280.2 42.9749 280.2 40.7749C280.2 39.2749 280.9 38.2749 282.4 37.875C285.9 36.675 290.6 36.0751 296.6 36.0751C304.5 36.0751 309.7 37.175 312 39.4749C314.1 41.575 315.1 45.275 315.1 50.5751V70.275C315.1 72.3751 314.8 73.8751 314 74.6751ZM296.6 61.4749C294.2 61.4749 292.7 61.7749 292 62.2749C291.3 62.7749 291 63.675 291 64.875C291 66.9749 292.3 67.9749 294.9 67.9749C296.9 67.9749 298.4 67.775 299.3 67.275C299.8 67.0751 300.1 66.6751 300.1 66.1751C300.2 65.6751 300.3 64.675 300.3 63.375V61.675C299.4 61.4749 298.1 61.4749 296.6 61.4749ZM324.4 37.175C322.8 37.175 322 38.075 322 39.875H322.1V63.5751C322.1 67.9752 322.4 71.075 323.2 72.9751C323.9 74.7751 325.4 76.075 327.7 77.075C330 77.9751 333.8 78.4751 339 78.4751C347.6 78.4751 354.1 77.675 358.3 76.075C360.4 75.2751 361.5 73.5751 361.5 70.7752V39.875C361.5 38.075 360.7 37.175 359.1 37.175H349.1C348.3 37.175 347.7 37.375 347.2 37.875C346.7 38.375 346.5 38.9751 346.5 39.875V63.9752C346.5 64.8751 346.3 65.4752 345.9 65.7752C345.7 65.8751 345.2 66.075 344.3 66.375C343.5 66.4751 342.4 66.575 340.9 66.575C339 66.575 337.8 65.9752 337.3 64.7752C337 64.1751 336.9 62.9751 336.9 61.375V39.875C336.9 38.075 336.1 37.175 334.5 37.175H324.4ZM383.1 76.6751C382.6 77.1751 382 77.375 381.2 77.375H371.2C369.6 77.375 368.8 76.4752 368.8 74.6751V44.4752C368.8 41.7752 369.9 40.0753 372 39.2752C374.5 38.2752 378 37.5752 382.5 36.875C387 36.2751 391.2 35.9752 395.1 35.9752C402 35.9752 406.1 37.675 407.4 41.0752C408 42.5752 408.3 45.175 408.3 48.875V74.6751C408.3 76.4752 407.5 77.375 405.9 77.375H395.8C394.2 77.375 393.4 76.4752 393.4 74.6751V52.375C393.4 51.175 393.3 50.2751 393.2 49.675C392.9 48.4751 391.7 47.875 389.6 47.875C388.5 47.875 387.3 47.9752 386.1 48.2752C385.3 48.4752 384.8 48.7752 384.5 48.9752C384.1 49.2752 383.9 49.8751 383.9 50.7752V74.6751C383.9 75.5753 383.6 76.1751 383.1 76.6751ZM447.6 76.4749C449.2 76.075 450.3 75.3751 451 74.6751C451.7 73.8751 452.1 72.3751 452.1 70.275V50.5751C452.1 45.275 451.1 41.575 449 39.4749C446.7 37.175 441.5 36.0751 433.6 36.0751C427.6 36.0751 422.9 36.675 419.4 37.875C417.9 38.2749 417.2 39.2749 417.2 40.7749C417.2 42.9749 417.5 45.0751 418 47.0751C418.3 48.475 419.1 49.175 420.3 49.175C421.1 49.175 422.5 48.9749 424.4 48.675C426.7 48.375 429.1 48.175 431.6 48.175C434.7 48.175 436.5 48.675 436.9 49.675C437.1 50.2749 437.2 51.0751 437.2 52.0751V52.675L436.627 52.6475C434.752 52.5574 433.035 52.4749 431.4 52.4749C425.1 52.4749 420.7 53.375 418.2 55.175C415.3 57.2749 413.8 60.6751 413.8 65.275C413.8 69.3751 415 72.575 417.3 74.9749C419.6 77.2749 423.9 78.4749 430.1 78.4749C432.8 78.4749 435.9 78.2749 439.5 77.875C443.1 77.4749 445.8 76.9749 447.6 76.4749ZM429 62.2749C429.7 61.7749 431.2 61.4749 433.6 61.4749C435.1 61.4749 436.3 61.4749 437.3 61.675V63.375C437.3 64.675 437.2 65.6751 437.1 66.1751C437.1 66.6751 436.8 67.0751 436.3 67.275C435.4 67.775 433.9 67.9749 431.9 67.9749C429.3 67.9749 428 66.9749 428 64.875C428 63.675 428.3 62.7749 429 62.2749Z" fill="white"/>
  <path d="M15 55.775C14.5 57.075 14.8 58.375 15.2 59.675C16.3 63.375 19 65.375 22.6 66.375C23.6 66.675 24.5 66.875 25.5 66.975C26.8 67.075 27.5 67.875 28 68.875C29.7 72.075 31.9 74.775 34.4 77.175C38.5 80.975 43.2 83.575 48.8 84.775C52.5 85.575 56.2 86.375 59.9 87.075C62.7 87.675 64.9 89.175 66.5 91.575C67.5 93.175 67.8 93.175 69.5 92.775C77 91.275 83.4 87.775 89.4 83.275C90.3 82.575 91.2 81.875 92.2 81.175C92.5 80.975 92.8 80.775 93.1 80.675C93.2 80.575 93.4 80.675 93.6 80.675C93.6 80.875 93.6 80.975 93.5 81.175C92.9 82.075 92.3 82.975 91.5 83.775C89.8 85.575 88.1 87.475 86.2 89.175C82.7 92.275 78.8 94.875 74.5 96.875C71.3 98.375 67.9 99.575 64.4 100.375C62.4 100.775 60.4 101.175 58.3 101.375C55.1 101.575 51.9 101.775 48.7 101.675C46 101.575 43.3 101.175 40.7 100.575C37.8 99.875 35 98.975 32.2 97.975C28.6 96.675 25.4 94.675 22.3 92.575C19.3 90.475 16.5 88.175 14 85.375C11.6 82.775 9.49997 79.875 7.69997 76.875C5.69997 73.675 4.09997 70.375 3.19997 66.675C2.19997 61.875 2.79997 57.275 4.79997 52.875C6.19997 49.775 8.19997 46.875 10.5 44.375C10.6 44.275 10.6 44.175 10.6 43.875C10.3 43.975 10.1 44.075 9.79997 44.175C7.69997 45.475 5.99997 47.275 4.39997 49.075C3.99997 49.875 3.39997 50.575 2.79997 51.275C2.29997 51.875 1.59997 51.675 1.29997 50.975C1.19997 50.575 0.99997 50.175 0.99997 49.675C0.99997 47.275 0.89997 44.875 1.89997 42.575C2.79997 40.475 4.09997 39.275 6.49997 39.075C8.69997 38.975 10.9 39.375 13.1 39.775C14.1 39.975 15.2 39.975 16 39.375C17.9 37.875 19.9 38.075 22.1 38.475C24.3 38.875 26.4 38.475 28.4 37.275C29.6 36.575 30.8 35.875 32 35.275C32.3 35.175 33.1 35.375 33.4 35.775C36.3 38.875 35.6 43.075 31.9 45.175C29.6 46.475 27.8 48.175 26.6 50.575C25.8 52.275 24.4 52.475 23 51.675C21.5 50.775 20.4 49.675 19.9 48.075C19.8 48.075 19.7 48.075 19.7 48.175C19.8 48.675 19.7 49.175 19.9 49.575C20.8 51.775 22.7 53.175 24.6 54.475C25.3 54.975 26.1 55.375 26.8 55.975C28.7 57.475 29 59.775 27.5 61.675C27 62.375 26.3 63.075 25.7 63.675C24 65.175 22.8 65.075 20.8 64.075C17.9 62.575 16.2 60.175 15.5 56.975C15.4 56.675 15.4 56.275 15.4 55.975C15.2 55.775 15.1 55.775 15 55.775ZM25 42.475C25 41.775 24.5 40.975 24.1 40.975C23.5 40.975 22.8 41.675 22.8 42.375C22.8 43.175 23.3 43.775 23.9 43.775C24.5 43.775 25 43.175 25 42.475Z" fill="white"/>
  <path d="M93.0998 24.275C93.8998 26.275 94.8 27.975 95.5 29.775C96 31.175 96.4999 32.675 96.8999 34.075C97.0999 34.875 96.6 35.375 95.8 35.075C94.6 34.675 93.8 33.775 93.3 32.675C92.7 31.275 92.3 29.775 91.8 28.375C90.8 25.475 89.8 22.575 87.9 20.075C87.5 19.475 86.9 19.075 86.4 18.575C86.3 18.675 86.2998 18.675 86.1998 18.775C86.2998 18.975 86.3 19.175 86.4 19.375C87.4 21.175 88.2998 22.975 88.6998 25.075C88.8998 25.775 88.8998 26.575 88.6998 27.375C88.5998 27.775 88.0998 28.275 87.5998 28.475C86.7998 28.775 86.2 28.175 85.9 27.575C85.5 26.775 85.1998 25.775 84.6998 24.975C83.8998 23.575 83.0998 22.075 82.1998 20.775C81.6998 20.075 80.9 19.675 80.3 19.075C80.2 19.175 80.1998 19.175 80.0998 19.175C80.5998 20.275 81.1998 21.475 81.6998 22.575C82.2998 23.875 82.9 25.275 82.8 26.775C82.7 27.775 81.8998 28.275 81.0998 27.775C80.5998 27.475 80.2 26.975 80 26.575C78.8 24.175 77.3 22.175 75 20.775C74.8 20.675 74.4998 20.575 74.1998 20.475C74.8998 21.175 75.5998 21.875 76.1998 22.675C77.9998 24.975 79.1998 27.575 79.5998 30.475C79.6998 31.175 79.7 31.875 79.8 32.575C79.8 33.275 79.5 33.975 78.8 34.075C78.3 34.175 77.6 33.775 77.3 33.375C76.5 32.075 75.8 30.775 75.3 29.375C74.3 26.975 73.0998 24.575 71.0998 22.675C70.8998 22.475 70.7 22.275 70.5 22.175C70.3 22.075 70.1 22.075 69.8 21.975C69.9 22.175 69.9 22.475 70 22.675C71.7 24.875 73.0998 27.275 73.6998 29.975C73.9998 31.075 74 32.275 73.9 33.475C73.9 33.875 73.3998 34.375 73.0998 34.575C72.8998 34.675 72.2 34.375 72 33.975C71.5 33.175 71.0998 32.175 70.5998 31.375C69.1998 28.575 67.4998 26.075 65.1998 23.875C64.8998 23.575 64.5 23.275 64 23.175C64.9 24.275 65.8998 25.375 66.5998 26.575C67.3998 27.875 67.9998 29.275 68.6998 30.675C68.6998 30.775 68.8 30.775 68.8 30.875C68.7 31.375 68.8 32.075 68.5 32.375C68 32.775 67.5998 32.175 67.1998 31.875C65.1998 30.175 63.3 28.475 61.2 26.775C60.8 26.375 60.2 26.175 59.5 25.875C60.3 26.675 60.9 27.375 61.5 28.075C64.1 30.675 66.1 33.775 67.8 37.075C69.4 40.275 70.4998 43.675 71.0998 47.175C71.3998 48.875 71.4998 50.575 71.5998 52.175C71.6998 52.875 71.7998 53.575 71.6998 54.275C71.5998 59.075 70.9998 63.875 69.5998 68.575C69.2998 69.675 68.9 70.675 68.5 71.775C68.4 72.075 68.3 72.275 68 72.475C67.8 72.675 67.3998 72.675 67.0998 72.775C66.9998 72.475 66.9 72.275 66.9 71.975C67.3 70.375 67.6998 68.875 68.0998 67.275C68.0998 67.175 68.0998 66.975 68.0998 66.775C67.6998 68.075 67.2 69.275 66.8 70.575C65.7 73.375 64.5 76.075 62.2 78.075C60.4 79.675 58.3998 80.875 56.0998 81.475C56.0998 81.475 56 81.475 55.9 81.475C55.5 81.375 54.9998 81.275 54.5998 81.175C54.7998 80.775 54.9999 80.375 55.2999 80.075C58.1999 77.375 60.5 74.375 62.4 70.975C63.9 68.375 65.1998 65.575 66.6998 62.975C66.5998 62.875 66.5 62.875 66.4 62.775C66.3 62.875 66.1 63.075 66 63.175C64.4 65.875 62.5999 68.375 60.2999 70.575C59.8999 70.975 59.2999 71.275 58.7999 71.475C58.4999 71.575 58.0999 71.375 57.7999 71.275C57.8999 70.875 57.8998 70.475 58.0998 70.175C58.4998 69.575 59.1 69.075 59.5 68.475C62.5 64.575 64.4 60.175 65.4 55.375C65.9 52.975 66 50.475 65.9 47.975C65.8 46.775 65.7 45.675 65.4 44.475C65.3 43.975 64.9 43.475 64.5 43.175C63.8 42.675 63 42.275 62.2 41.875C62.1 41.975 62 42.075 62 42.075C61.9 43.275 61.1998 43.775 60.0998 43.175C59.5998 42.875 59.1999 42.375 58.7999 41.975C58.4999 41.675 58.3 41.475 58 41.175C57.9 41.275 57.7999 41.275 57.7999 41.375C57.7999 41.575 57.9 41.775 57.9 41.975C57.8 42.375 57.8998 43.075 57.5998 43.175C57.1998 43.375 56.6 43.275 56.2 43.075C55.4 42.575 54.9998 41.775 55.0998 40.875C55.1998 40.375 54.9998 40.075 54.5998 39.775C53.0998 38.575 51.6999 37.475 50.2999 36.175C47.4999 33.675 44.6 31.275 41.4 29.175C40.2 30.575 38.6998 31.475 36.5998 30.875C37.0998 30.075 37.4998 29.275 37.0998 28.375C37.0998 28.375 37.3998 28.075 37.5998 28.075C38.7998 27.675 39.9 27.975 40.9 28.675C40.5 27.675 38.8 27.075 37.4 27.475C37.1 27.075 36.7 26.575 36.5 26.375C36.8 25.775 37.0998 25.375 37.0998 24.875C37.0998 24.675 36.5999 24.375 36.2999 24.275C35.5999 24.175 35.5 24.775 35.2 25.375C33.9 24.475 32.4 24.275 30.7 24.375C31.6 21.975 33 20.175 35.4 19.275C37.3 18.475 39.2 18.275 41.2 18.675C42.8 18.975 44.4 19.275 46 19.575C47.3 19.875 48.2 19.475 48.7 18.275C49.2 17.075 49.5999 15.775 49.7999 14.475C49.9999 13.275 50 12.075 50 10.975C50 8.875 49.4999 6.775 48.7999 4.775C48.5999 4.175 48.3999 3.475 48.2999 2.775C48.1999 1.175 49.2 0.175 50.9 0.075C54.4 -0.125 58 0.0749999 61.5 0.675C66.9 1.675 72 3.275 76.9 5.875C79.8 7.375 82.5 9.175 84.9 11.275C86.9 12.975 88.8998 14.775 90.6998 16.675C93.1998 19.275 95.2999 22.275 97.0999 25.375C99.5999 29.675 101.4 34.275 102.5 39.075C102.8 40.375 103 41.675 103.2 43.075C103.2 43.375 103.1 43.775 102.8 43.875C102.6 43.975 102.1 43.875 101.9 43.675C101.3 42.975 100.7 42.275 100.3 41.375C99.6 39.575 99.1 37.675 98.5 35.775C97.4 31.775 95.5 27.975 93.3 24.475C93.4 24.475 93.2998 24.475 93.0998 24.275Z" fill="white"/>
  <path d="M38.1999 12.675C39.5999 12.875 40.9999 12.975 42.2999 13.375C43.9999 13.875 45.6999 14.575 46.8999 15.875C47.1999 16.175 47.3999 16.475 47.4999 16.875C47.5999 17.175 47.3999 17.575 47.1999 17.775C47.0999 17.875 46.6999 17.975 46.4999 17.875C43.9999 17.175 41.4999 16.675 38.8999 16.775C35.7999 16.875 32.8999 17.775 30.8999 20.275C30.0999 21.275 29.5999 22.475 29.0999 23.675C28.4999 24.975 28.0999 26.375 27.6999 27.775C26.8999 29.975 25.3999 31.375 23.0999 31.875C22.8999 31.875 22.6999 31.975 22.5999 32.175C23.4999 32.075 24.3999 31.875 25.3999 31.775C26.8999 31.675 28.3999 31.675 29.8999 31.675C30.2999 31.675 30.7999 31.975 31.0999 32.275C31.2999 32.475 31.3999 33.175 31.1999 33.375C30.2999 34.575 29.0999 35.175 27.3999 34.975C25.9999 34.775 24.4999 34.975 23.0999 35.075C21.4999 35.275 19.7999 35.575 18.1999 35.875C17.4999 35.975 16.8999 36.175 16.2999 36.375C15.0999 36.775 14.0999 36.575 13.1999 35.675C12.0999 36.275 10.9999 36.775 9.69991 36.775C7.99991 36.775 6.19991 34.975 6.49991 32.775C6.59991 32.075 7.49991 31.975 8.19991 32.375C8.99991 32.775 9.69991 33.175 10.5999 33.475C11.2999 33.775 11.4999 33.475 11.3999 32.675C11.0999 30.975 10.6999 29.375 10.5999 27.675C10.4999 24.075 11.3999 20.675 14.0999 18.175C16.6999 15.675 19.7999 14.075 23.5999 13.775C24.9999 13.675 25.9999 12.875 27.0999 12.075C29.5999 10.175 32.1999 8.37502 35.0999 7.07502C35.3999 6.97502 35.7999 6.87502 36.0999 6.67502C36.2999 6.57502 36.3999 6.47502 36.4999 6.27502C36.3999 6.17502 36.1999 5.87502 36.0999 5.87502C35.4999 5.87502 34.7999 5.87502 34.2999 6.07502C32.8999 6.87502 31.5999 7.77502 30.2999 8.67502C28.8999 9.67502 27.6999 10.775 26.2999 11.675C24.3999 12.975 22.1999 13.175 19.9999 12.975C19.5999 12.975 19.0999 12.675 18.9999 12.375C18.8999 12.075 19.1999 11.575 19.3999 11.375C21.1999 9.97502 22.9999 8.47502 24.9999 7.27502C27.4999 5.67502 30.1999 4.17502 33.0999 3.47502C34.4999 3.17502 35.9999 3.07502 37.4999 2.87502C39.8999 2.57502 42.1999 2.97502 44.3999 3.97502C45.1999 4.37502 45.9999 4.77502 46.7999 5.17502C47.5999 5.57502 47.7999 6.47502 47.4999 7.47502C46.7999 9.57502 44.6999 11.175 42.2999 11.575C40.9999 11.775 39.6999 12.075 38.3999 12.375C38.2999 12.575 38.1999 12.675 38.1999 12.675ZM44.2999 6.87502C43.8999 6.57502 43.6999 6.27502 43.4999 6.27502C43.2999 6.27502 42.9999 6.57502 42.9999 6.77502C42.9999 6.97502 43.2999 7.37502 43.4999 7.37502C43.5999 7.37502 43.8999 7.07502 44.2999 6.87502Z" fill="white"/>
  <path d="M42.2 35.8749C42.3 36.1749 42.4 36.4749 42.7 36.6749C42.9 36.7749 43.2 36.6749 43.5 36.6749C43.5 36.5749 43.6 36.4749 43.6 36.3749C44.5 37.0749 45.5 37.7749 46.3 38.5749C47 39.2749 47 40.1749 46.7 40.9749C46.4 41.6749 46.6 42.1749 47.1 42.6749C48.2 43.9749 49.2 45.3749 49.6 47.0749C50.3 50.4749 48.2 52.9749 45.1 53.6749C43.7 53.9749 42.4 53.4749 41.1 53.1749C40 52.9749 39 53.2749 38.5 54.2749C38.1 54.9749 37.8 55.7749 37.7 56.5749C37.4 59.9749 37.1 63.2749 38.1 66.5749C38.5 67.8749 39.5 68.7749 40.4 68.5749C41.3 68.3749 42.3 68.0749 43.1 67.5749C44.9 66.4749 46 64.6749 47.1 62.8749C48.7 60.2749 49.6 57.4749 50.3 54.4749C50.7 52.7749 51.5 51.3749 52.6 49.9749C54.5 47.6749 59.2 47.8749 60.9 50.8749C61.7 52.2749 62.1 53.7749 62.2 55.2749C62.4 60.1749 60.5 64.2749 57.7 68.0749C54.8 71.8749 51 74.6749 47.1 77.3749C46.8 77.5749 46.5 77.8749 46.1 78.1749C47 78.6749 47.8 78.5749 48.7 78.3749C51 77.7749 52.8 76.4749 54.6 74.9749C55.2 74.4749 55.8 73.8749 56.4 73.2749C56.6 73.0749 56.9 73.0749 57.1 73.0749C57.1 73.3749 57.3 73.6749 57.2 73.8749C56.9 74.5749 56.6 75.3749 56.1 75.8749C53.9 78.2749 51.4 80.1749 48.2 80.9749C46.9 81.2749 45.6 81.2749 44.4 80.6749C42.8 79.8749 42.3 78.0749 43.5 76.7749C44.2 75.9749 45.1 75.3749 45.9 74.7749C49.8 72.1749 53.4 69.2749 55.9 65.2749C56.9 63.7749 57.2 62.0749 57.5 60.2749C57.7 58.9749 57.5 57.6749 57.1 56.4749C57 56.1749 56.6 55.6749 56.3 55.6749C56 55.6749 55.5 55.9749 55.3 56.2749C54.9 57.1749 54.5 58.0749 54.3 58.9749C52.4 65.4749 48.5 70.3749 42.4 73.4749C38.9 75.1749 35.1 73.9749 33.1 70.8749C32 69.2749 31.6 67.3749 31.2 65.5749C30.6 62.9749 30.4 60.2749 30.2 57.5749C30.1 55.4749 30.1 53.5749 30.8 51.5749C32 48.4749 35.2 46.8749 38.5 47.5749C40.4 47.9749 42.2 48.4749 44 48.8749C44.2 48.8749 44.4 48.9749 44.5 48.9749C45.6 49.0749 46.2 48.3749 45.8 47.2749C45.1 45.5749 43.9 43.7749 41.3 43.7749C40.4 43.7749 39.8 43.1749 39.4 42.4749C39 41.6749 38.8 40.8749 38.5 40.2749C38.7 39.7749 39 39.4749 39 39.2749C39 39.0749 38.6 38.9749 38.3 38.7749C38.2 38.6749 38.1 38.6749 38.1 38.5749C37.9 37.7749 37.6 37.0749 37.5 36.2749C37.3 34.8749 38.5 34.0749 39.8 34.5749C40 34.6749 40.2 34.7749 40.4 34.8749C41 35.1749 41.5 35.4749 42.1 35.6749C42.3 35.7749 42.3 35.7749 42.2 35.8749Z" fill="white"/>
  <path d="M71.2 36.875C73.8 37.675 75.5 39.275 76.6 41.575C77.6 43.675 78.6 45.675 79.7 47.875C80.5 46.875 80.5 45.875 80.1 44.975C79.8 44.375 79.7 43.775 79.6 43.075C79.6 42.975 79.7 42.775 79.8 42.775C79.9 42.775 80 42.875 80.1 42.875C80.9 43.675 81.6 44.475 82.4 45.275C84.3 46.975 84.4 49.075 83.5 51.275C83 52.475 82.4 53.675 81.8 54.875C80.9 56.375 81 57.875 81.3 59.475C81.7 61.375 81.9 63.375 82.2 65.275C82.3 66.375 82.2 66.475 81.1 66.875C80.3 67.075 80.1 67.575 80.3 68.775C80.4 68.575 80.4 68.275 80.5 68.075C80.6 67.275 80.9 67.175 81.7 67.375C82.7 67.675 83.5 68.175 84 69.075C84.4 70.075 84.2 70.575 83.2 70.975C82.8 71.175 82.3 71.275 81.7 71.475C82.4 71.575 82.5 71.775 82.3 72.275C81.9 73.675 81.2 74.975 80 75.775C79.5 76.075 79.3 75.975 79 75.575C78.6 74.875 78 74.275 77.5 73.675C77.3 73.475 77.1 73.375 76.9 73.275C77.2 73.575 77.5 73.975 77.7 74.275C79.2 76.575 78.5 78.275 75.9 78.875C74.9 79.075 73.8 79.075 72.7 79.075C72 79.075 71.6 78.675 71.7 77.875C71.9 76.575 72 75.275 72.1 73.875C72.1 73.375 72.1 72.775 72 72.275C71.9 71.375 71.7 70.575 71.7 69.675C71.7 68.375 71.7 67.175 71.9 65.875C72.2 63.475 72.7 61.075 72.9 58.575C73.1 56.775 73 54.875 73.1 53.075C73.1 52.375 73.3 52.275 73.9 52.675C75.2 53.475 76.4 54.375 77.1 55.875C77.4 56.575 77.4 57.275 77 58.075C76.2 59.475 75.5 60.975 74.8 62.375C74.7 62.575 74.7 62.975 74.7 63.175C76 60.875 77.3 58.475 78.6 56.175C79.6 54.275 79.8 52.375 78.6 50.475C78.4 50.175 78.1 49.875 77.7 49.575C76 48.075 74.4 46.375 73.5 44.175C73 42.975 72.8 41.575 72.5 40.275C72 39.275 71.6 38.175 71.2 36.875ZM75.6 75.875C75.1 75.475 74.8 75.075 74.5 75.075C74.2 75.175 73.7 75.575 73.7 75.875C73.7 76.175 74.2 76.575 74.5 76.675C74.8 76.775 75.1 76.275 75.6 75.875Z" fill="white"/>
  <path d="M37.1 33.3751C33.2 32.8751 29.5 29.4751 30.8 24.4751C33.3 24.4751 35.4 25.5751 36.8 27.6751C36.9 27.8751 36.9 28.1751 36.8 28.2751C35.5 29.4751 35.7 30.7751 36.5 32.0751C36.6 32.5751 36.8 32.8751 37.1 33.3751Z" fill="white"/>
  <path d="M62.5 84.675C61.3 84.675 60.5 83.875 60.5 82.675C60.5 81.575 61.3 80.775 62.5 80.675C63.6 80.675 64.6 81.675 64.5 82.675C64.4 83.875 63.8 84.675 62.5 84.675Z" fill="white"/>
  <path d="M68.3 81.2749C67.5 81.2749 67.1 80.8749 67.1 80.0749C67.1 79.3749 67.6 78.8749 68.3 78.7749C68.9 78.7749 69.7 79.4749 69.6 80.0749C69.5 80.7749 69.1 81.3749 68.3 81.2749Z" fill="white"/>
  <path d="M68.7 76.1749C68.7 76.6749 68.5 76.9749 67.9 77.0749C67.3 77.0749 67 76.7749 67 76.1749C67 75.5749 67.3 75.2749 67.8 75.2749C68.4 75.2749 68.7 75.5749 68.7 76.1749Z" fill="white"/>
  <path d="M102.3 49.375C100.7 45.875 98.9 42.575 96.7 39.375C94.8 36.675 92.7 34.175 90 32.275C88.8 31.475 87.5 30.775 86.3 29.975C85.7 29.575 85.1 28.975 84.4 28.375C83.9 29.675 84 30.875 84.2 32.075C84.3 32.375 84.1 32.775 83.9 32.875C83.5 33.275 82.9 33.575 82.5 33.975C82.1 34.375 81.7 34.775 81.5 35.175C81.2 36.075 80.7 36.775 79.9 37.375C78.6 38.375 78.6 38.475 79.7 39.575C79.8 39.675 79.9 39.875 80 39.975C81.2 41.575 82.6 42.175 84.3 41.775C85.1 41.575 85.7 41.775 86.2 42.375C87.1 43.475 87.7 44.775 87.8 46.075C88 48.275 87.4 50.375 86.2 52.275C85.7 53.175 85 54.075 84.7 54.975C83.9 57.175 84.1 59.475 84.4 61.775C84.9 65.075 85.7 68.375 86.9 71.475C87.5 73.075 87.4 74.275 86.4 75.675C83.1 80.275 79.2 83.875 73.3 84.875C72.3 85.075 71.3 85.075 70.3 84.375C69.7 83.875 68.9 83.575 68.2 83.375C67.4 83.075 66.7 83.375 66.1 83.975C65.5 84.575 65.5 85.275 65.8 85.975C66.3 87.175 67.4 87.675 68.5 87.975C71.6 88.675 74.7 88.475 77.8 87.575C83.3 85.975 87.5 82.575 90.9 78.175C91.8 76.975 92.8 75.975 94.3 75.775C94.7 75.675 95.2 75.575 95.5 75.375C96.3 74.875 97.3 74.475 97.8 73.775C98.7 72.375 99.3 70.875 99.9 69.375C101.4 65.675 102.2 61.875 102.8 57.975C103.7 55.075 103.6 52.175 102.3 49.375ZM83.9 35.575C83.8 36.075 83.6 36.375 83 36.575C82.8 36.375 83.1 36.675 82.8 36.375C82.9 36.175 82.8 35.675 83 35.475C83.2 35.275 83.6 35.475 83.7 35.275C83.8 35.575 83.9 35.475 83.9 35.575Z" fill="white"/>
  </g>
  <defs>
  <clipPath id="clip0">
  <rect width="453" height="102" fill="white"/>
  </clipPath>
  </defs>
</svg>