<svg xmlns="http://www.w3.org/2000/svg" width="291" height="130" viewBox="0 0 291 130" fill="none">
  <path fill-rule="evenodd" clip-rule="evenodd" d="M111.916 51.8321L111.916 51.7773V28.2548H109.136C107.328 28.2548 106.494 27.4197 106.494 25.6103V20.4604C106.494 19.7645 106.633 19.2077 107.05 18.651C107.467 18.0942 108.162 17.8158 108.997 17.8158H111.916V15.3105C111.916 10.0214 113.167 6.26338 115.67 4.17559C119.006 1.39186 124.428 0 131.797 0C134.021 0 135.272 0.695931 135.411 2.22698C135.551 3.20128 135.551 5.01071 135.551 7.93362C135.551 9.46467 134.716 10.2998 133.048 10.439C130.546 10.5782 128.877 10.8565 128.043 11.1349C127.07 11.4133 126.514 11.97 126.097 12.5268C125.68 13.2227 125.402 14.3362 125.402 16.0064V17.6767H130.407C132.075 17.6767 132.909 18.5118 132.909 20.3212V25.7495C132.909 27.2805 132.075 28.1156 130.268 28.1156H125.263V46.9922C125.362 47.3694 125.402 47.8439 125.402 48.4369V106.895C125.359 107.197 125.329 107.485 125.3 107.764L125.3 107.764C125.236 108.387 125.177 108.963 124.985 109.54C124.707 110.514 123.734 111.349 122.204 111.906C120.675 112.463 118.312 113.019 115.114 113.437C111.916 113.854 108.997 113.994 106.216 113.994C99.9601 113.994 95.5113 112.741 92.8698 110.236C90.2283 107.73 88.838 102.859 88.838 95.4819C88.838 91.5847 89.2551 88.2442 89.9502 85.5997C90.6453 82.9551 91.8966 81.0065 93.4259 79.4755C94.9551 77.9444 96.9015 76.9701 99.1259 76.4134C101.35 75.8566 103.992 75.5783 107.189 75.5783C109.414 75.5783 110.943 75.8566 111.916 76.2742V51.8321ZM11.2611 54.2827C11.9562 54.2827 12.5123 54.0043 13.0685 53.5867C13.4855 53.03 13.7636 52.4732 13.7636 51.4989V35.2141H16.127C21.6881 35.2141 26.1369 34.7966 29.3345 33.8223C33.2272 32.7088 35.7297 30.7602 37.12 28.2548C38.5102 25.7495 39.2054 22.6874 39.2054 18.9293C39.2054 11.6917 36.8419 7.09851 31.976 5.1499C28.9174 3.89722 23.4954 3.20129 15.71 3.20129H9.31475C6.11715 3.20129 3.61468 3.89722 2.22442 5.42827C0.695131 6.95932 0 9.32549 0 12.8051V51.6381C0 53.3084 0.834157 54.2827 2.36344 54.2827H11.2611ZM22.1052 24.4968C20.8539 24.9144 19.0466 25.0535 16.6831 25.0535H13.7636V16.424C13.7636 14.8929 14.3197 14.197 15.5709 14.197H16.6831C19.3246 14.197 21.132 14.4754 22.2442 14.7538C24.0515 15.4497 25.0247 17.1199 25.0247 19.9036C25.0247 22.2698 24.0515 23.8009 22.1052 24.4968ZM52.969 54.2826C53.6642 54.2826 54.2203 54.0043 54.6374 53.5867C55.0544 53.1691 55.1935 52.6124 55.1935 51.4989V30.3426C55.1935 29.5075 55.3325 28.9507 55.4715 28.6723C55.6105 28.394 55.8886 28.1156 56.3057 27.9764C57.0008 27.698 58.113 27.5589 59.5033 27.5589C59.7257 27.5589 59.9926 27.5811 60.313 27.6079C60.7934 27.6479 61.394 27.698 62.1448 27.698C63.396 27.8372 64.2302 27.8372 64.6472 27.8372C66.0375 27.8372 66.7326 27.4197 67.0107 26.4454C67.4278 24.7751 67.5668 22.5481 67.5668 19.7644C67.5668 18.5117 67.1497 17.6766 66.0375 17.2591C64.9253 16.8415 62.8399 16.7023 59.7813 16.7023C57.1398 16.7023 54.2203 17.1199 51.1617 17.6766C48.1031 18.3726 45.8787 19.0685 44.4884 19.9036C43.5153 20.4604 42.8201 21.1563 42.4031 21.8522C41.986 22.5481 41.847 23.5225 41.847 24.9143V51.7773C41.847 53.4475 42.6811 54.2826 44.0714 54.2826H52.969ZM100.238 50.9421C97.3182 53.7258 92.5913 55.1177 86.0571 55.1177C79.6619 55.1177 75.074 53.7258 72.2935 50.9421C69.3739 48.1584 67.9837 43.1477 67.9837 35.7708C67.9837 32.0128 68.4008 28.8115 69.3739 26.167C70.2081 23.5224 71.5984 21.5738 73.4057 20.182C75.213 18.7901 77.1594 17.955 79.2448 17.3982C81.3302 16.8415 83.8327 16.5631 86.7522 16.5631C89.9498 16.5631 92.5913 16.8415 94.6767 17.259C96.7621 17.6766 98.5694 18.6509 100.238 19.9036C101.906 21.1563 103.018 23.1049 103.713 25.7494C104.409 28.2548 104.826 31.5952 104.826 35.4924C104.548 43.1477 103.157 48.1584 100.238 50.9421ZM90.2279 29.0899C89.6718 27.9764 88.4205 27.4196 86.3351 27.4196C84.5278 27.4196 83.1375 27.9764 82.4424 29.0899C81.7473 30.2034 81.3302 32.4303 81.3302 35.7708C81.3302 39.2505 81.6082 41.6166 82.3034 42.7301C82.9985 43.8436 84.2497 44.4004 86.0571 44.4004C88.0034 44.4004 89.2547 43.8436 89.9498 42.7301C90.6449 41.6166 90.923 39.2505 90.923 35.7708C91.062 32.5695 90.784 30.2034 90.2279 29.0899ZM166.553 51.6381C165.858 52.334 164.885 52.8908 163.495 53.3083C161.965 53.7259 159.463 54.1434 156.265 54.561C153.068 54.9786 150.287 55.1177 147.924 55.1177C142.363 55.1177 138.47 54.0042 136.524 51.9165C134.577 49.8287 133.465 46.9058 133.465 43.1477C133.465 38.9721 134.855 35.91 137.497 33.9614C139.721 32.2912 143.753 31.4561 149.314 31.4561C150.843 31.4561 152.651 31.5953 154.458 31.7344V31.1777C154.458 30.2034 154.319 29.5075 154.18 28.9507C153.763 27.9764 152.234 27.5589 149.453 27.5589C147.229 27.5589 145.143 27.698 143.058 27.9764C141.39 28.2548 140.138 28.394 139.443 28.394C138.331 28.394 137.636 27.698 137.358 26.5846C136.941 24.7751 136.663 22.8265 136.663 20.8779C136.663 19.4861 137.358 18.6509 138.609 18.2334C141.668 17.1199 145.977 16.7023 151.26 16.7023C158.351 16.7023 162.939 17.6766 165.024 19.7644C166.831 21.5738 167.805 25.0535 167.805 29.7858V47.6017C167.666 49.6895 167.248 50.9422 166.553 51.6381ZM150.982 39.8073C148.758 39.8073 147.507 40.0856 146.812 40.5032C146.255 40.9207 145.838 41.7559 145.838 42.8693C145.838 44.6788 146.951 45.6531 149.314 45.6531C151.121 45.6531 152.512 45.3747 153.346 44.9571C153.763 44.818 154.041 44.4004 154.041 43.9828C154.18 43.5653 154.18 42.591 154.18 41.4775V39.9464C153.485 39.8073 152.373 39.8073 150.982 39.8073ZM176.007 17.6766C174.478 17.6766 173.783 18.5118 173.783 20.182H173.922V41.7559C173.922 45.6531 174.2 48.576 174.895 50.2462C175.451 51.9165 176.841 53.1691 178.927 54.0043C181.012 54.8394 184.349 55.2569 189.076 55.2569C196.861 55.2569 202.7 54.4218 206.454 53.03C208.4 52.334 209.373 50.6638 209.373 48.1584V20.182C209.373 18.5118 208.539 17.6766 207.149 17.6766H198.251C197.556 17.6766 197 17.955 196.583 18.3726C196.166 18.7901 195.888 19.3469 195.888 20.182V41.8951C195.888 42.591 195.61 43.1477 195.332 43.4261C195.193 43.5653 194.776 43.7045 193.941 43.9829C193.246 44.122 192.273 44.2612 190.883 44.2612C189.215 44.2612 188.102 43.8437 187.685 42.7302C187.407 42.1734 187.268 41.1991 187.268 39.6681V20.182C187.268 18.5118 186.434 17.6766 185.044 17.6766H176.007ZM228.559 53.5867C228.142 54.0043 227.586 54.2826 226.891 54.2826H217.993C216.603 54.2826 215.769 53.4475 215.769 51.7773V24.3576C215.769 21.9914 216.742 20.3212 218.688 19.6252C220.913 18.7901 223.971 18.0942 228.142 17.5374C232.174 16.9807 235.927 16.7023 239.403 16.7023C245.659 16.7023 249.274 18.2334 250.386 21.2955C250.942 22.6873 251.22 25.0535 251.22 28.394V51.7773C251.22 53.4475 250.525 54.2826 248.996 54.2826H239.959C238.569 54.2826 237.735 53.4475 237.735 51.7773V31.5953C237.735 30.4818 237.596 29.6467 237.457 29.0899C237.179 27.9764 236.066 27.5589 234.259 27.5589C233.286 27.5589 232.174 27.698 231.061 27.9764C230.366 28.1156 229.949 28.394 229.671 28.6723C229.393 28.9507 229.115 29.5075 229.115 30.2034V51.9165C229.254 52.6124 228.976 53.1691 228.559 53.5867ZM286.255 53.3083C287.645 52.8908 288.618 52.334 289.313 51.6381C290.008 50.9422 290.425 49.6895 290.564 47.6017V29.7858C290.564 25.0535 289.591 21.5738 287.784 19.7644C285.698 17.6766 281.111 16.7023 274.02 16.7023C268.737 16.7023 264.427 17.1199 261.369 18.2334C260.118 18.6509 259.423 19.4861 259.423 20.8779C259.423 22.8265 259.701 24.7751 260.118 26.5846C260.396 27.698 261.091 28.394 262.203 28.394C262.898 28.394 264.149 28.2548 265.818 27.9764C267.903 27.698 269.989 27.5589 272.213 27.5589C274.993 27.5589 276.523 27.9764 276.94 28.9507C277.079 29.5075 277.218 30.2034 277.218 31.1777V31.7344C275.411 31.5953 273.603 31.4561 272.074 31.4561C266.513 31.4561 262.481 32.2912 260.257 33.9614C257.615 35.91 256.225 38.9721 256.225 43.1477C256.225 46.9058 257.337 49.8287 259.284 51.9165C261.23 54.0042 265.123 55.1177 270.684 55.1177C273.047 55.1177 275.828 54.9786 279.025 54.561C282.223 54.1434 284.725 53.7259 286.255 53.3083ZM269.571 40.5032C270.267 40.0856 271.518 39.8073 273.742 39.8073C275.133 39.8073 276.245 39.8073 276.94 39.9464V41.4775C276.94 42.591 276.94 43.5653 276.801 43.9828C276.801 44.4004 276.523 44.818 276.106 44.9571C275.272 45.3747 273.881 45.6531 272.074 45.6531C269.71 45.6531 268.598 44.6788 268.598 42.8693C268.598 41.7559 268.876 40.9207 269.571 40.5032ZM51.7179 110.375C51.4398 111.488 51.0227 112.184 50.6057 112.602C50.1886 113.019 49.4935 113.159 48.6593 113.159C42.9592 113.159 39.4836 113.019 38.3714 112.741C37.5372 112.602 37.1201 111.906 37.1201 111.071C37.1201 110.375 37.2592 109.54 37.6762 108.426L50.1886 69.8716C51.1618 66.8095 52.274 64.5825 53.6642 63.469C55.0545 62.3555 57.4179 61.6596 60.8936 61.6596H64.2302C65.8985 61.6596 67.2888 61.7988 68.401 62.0772C69.5132 62.3555 70.3474 62.9123 71.0425 63.7474C71.7376 64.5825 72.1547 65.2785 72.4328 65.9744C72.7108 66.6703 73.1279 67.7838 73.684 69.4541L86.0573 108.287C86.0926 108.411 86.128 108.532 86.1627 108.652L86.1627 108.652C86.4015 109.474 86.6134 110.203 86.6134 110.932C86.6134 111.767 86.1964 112.463 85.5012 112.741C84.8061 113.019 81.4695 113.159 75.2133 113.159C74.3791 113.159 73.684 112.88 73.1279 112.463C72.7108 112.045 72.2937 111.349 72.0157 110.236L69.5132 101.884H54.2203L51.7179 110.375ZM66.5937 91.0279C63.8131 80.4498 62.4229 74.4648 62.1448 73.2121C61.8668 74.6039 60.3375 80.4498 57.557 91.0279H66.5937ZM111.082 86.7132C111.638 86.9915 111.916 87.6875 111.916 88.8009H111.777V100.632C111.777 101.189 111.777 101.606 111.638 101.884C111.499 102.302 111.221 102.58 110.943 102.72C110.109 103.137 108.858 103.416 107.189 103.416C105.243 103.416 103.992 102.72 103.297 101.745C102.602 100.771 102.185 98.6832 102.185 95.7603C102.185 91.8631 102.602 89.3577 103.436 88.105C104.27 86.8523 105.938 86.2956 108.58 86.2956C109.831 86.2956 110.665 86.4348 111.082 86.7132ZM182.958 130H174.756C173.922 130 173.366 129.861 172.949 129.443C172.531 129.026 172.392 128.33 172.392 127.216V82.6768C172.392 81.7025 172.531 80.8673 172.81 80.0322C173.088 79.0579 174.061 78.2228 175.59 77.6661C177.119 76.9701 179.483 76.5526 182.68 76.135C185.878 75.7175 188.798 75.5783 191.578 75.5783C197.834 75.5783 202.283 76.8309 204.925 79.3363C207.566 81.8417 208.956 86.7132 208.956 94.09C208.956 97.9873 208.539 101.328 207.844 103.972C207.149 106.617 205.898 108.565 204.368 110.096C202.839 111.628 200.893 112.602 198.668 113.159C196.444 113.715 193.802 113.994 190.605 113.994C188.519 113.994 186.99 113.715 185.878 113.298V127.216C185.878 129.165 184.905 130 182.958 130ZM186.573 102.859C186.99 103.137 187.824 103.276 189.076 103.276C191.717 103.276 193.385 102.58 194.22 101.467C195.054 100.214 195.471 97.7089 195.471 93.8117C195.471 90.8888 195.054 88.801 194.359 87.8267C193.663 86.8524 192.412 86.1564 190.466 86.1564C188.798 86.1564 187.546 86.4348 186.712 86.8524C186.434 86.9915 186.156 87.2699 186.017 87.6875C185.878 87.9659 185.878 88.3834 185.878 88.9402V101.049C185.878 102.024 186.156 102.72 186.573 102.859ZM236.066 103.276C233.286 102.998 231.617 102.58 231.061 102.163C230.088 101.328 229.671 99.7966 229.671 97.152V87.1306H234.676C235.371 87.1306 236.066 86.9914 236.483 86.5739C236.9 86.1563 237.179 85.5996 237.179 84.9036V79.0578C237.179 77.5268 236.205 76.6917 234.398 76.6917H229.671V69.8715C229.671 68.0621 228.837 67.0878 227.447 67.0878H219.244C217.715 67.0878 216.881 67.9229 216.742 69.7323C216.464 72.2377 216.325 74.6039 216.325 76.6917H213.127C212.432 76.6917 211.737 76.97 211.32 77.3876C210.903 77.9443 210.625 78.5011 210.625 79.197V84.9036C210.625 85.5996 210.903 86.1563 211.32 86.5739C211.737 86.9914 212.293 87.1306 212.988 87.1306H216.047V97.0128C216.047 100.493 216.186 102.998 216.464 104.807C216.881 106.617 217.437 108.148 218.549 109.54C219.8 111.21 221.747 112.323 224.11 112.88C226.613 113.437 230.227 113.715 234.954 113.715C236.761 113.715 237.735 112.88 237.874 111.21C238.013 109.957 238.152 108.009 238.152 105.642C238.152 104.251 237.457 103.415 236.066 103.276ZM134.16 95.2034C134.021 95.7601 134.16 96.3168 134.299 96.7344C134.716 98.2655 135.829 98.9614 137.219 99.379C137.41 99.4428 137.601 99.4773 137.779 99.5095C137.989 99.5474 138.181 99.582 138.331 99.6573C138.887 99.6573 139.165 100.075 139.304 100.492C139.999 101.745 140.834 102.859 141.807 103.833C143.475 105.364 145.282 106.477 147.507 106.895C149.036 107.173 150.426 107.452 151.956 107.869C153.068 108.148 153.902 108.704 154.597 109.679C155.014 110.235 155.153 110.375 155.848 110.235C158.768 109.679 161.409 108.287 163.773 106.477C163.981 106.338 164.155 106.199 164.329 106.06C164.503 105.921 164.676 105.782 164.885 105.642C165.024 105.503 165.163 105.503 165.302 105.503H165.441V105.642C165.302 105.781 165.163 105.955 165.024 106.129L165.024 106.129C164.885 106.303 164.746 106.477 164.607 106.617C164.259 106.965 163.912 107.347 163.564 107.73C163.217 108.113 162.869 108.496 162.522 108.844C161.131 110.096 159.602 111.071 157.934 111.906C156.682 112.462 155.292 113.019 153.902 113.298L153.9 113.298C153.067 113.437 152.233 113.576 151.539 113.715C150.287 113.854 149.036 113.854 147.785 113.854C146.673 113.854 145.699 113.715 144.587 113.437L144.587 113.437C143.475 113.158 142.363 112.88 141.251 112.462C139.86 111.906 138.609 111.21 137.358 110.235C136.107 109.4 134.994 108.426 134.021 107.313C133.048 106.199 132.214 105.086 131.519 103.833C130.685 102.58 130.129 101.188 129.711 99.7965C129.294 97.8479 129.433 96.0385 130.268 94.3682C130.824 93.1156 131.658 92.0022 132.492 90.8888L132.492 90.8886V90.7494C132.353 90.7494 132.214 90.7494 132.214 90.8886C131.38 91.4453 130.685 92.1413 130.128 92.8372C129.989 92.9764 129.885 93.1155 129.781 93.2547C129.677 93.3939 129.572 93.5331 129.433 93.6723C129.155 93.9507 129.016 93.8115 128.877 93.5331C128.877 93.4755 128.853 93.4178 128.825 93.3503C128.786 93.2548 128.738 93.1395 128.738 92.9764C128.738 92.0021 128.738 91.0278 129.155 90.0535C129.433 89.2183 129.989 88.6616 130.963 88.6616C131.797 88.6616 132.77 88.8008 133.604 88.94C134.021 89.0792 134.438 89.0792 134.716 88.8008C135.411 88.244 136.246 88.244 137.08 88.3832C137.914 88.5224 138.748 88.3832 139.582 87.9657C139.791 87.8265 140.034 87.6873 140.277 87.5481C140.521 87.409 140.764 87.2698 140.973 87.1306C141.112 87.1306 141.39 87.1306 141.529 87.2697C142.641 88.5224 142.363 90.1927 140.973 91.0278C139.999 91.5845 139.304 92.2804 138.887 93.1156C138.609 93.8115 138.053 93.8115 137.497 93.5331C136.941 93.2547 136.524 92.698 136.246 92.1413H136.107C136.107 92.2804 136.107 92.5588 136.246 92.698C136.663 93.5331 137.358 94.0899 138.053 94.6466C138.192 94.7162 138.331 94.8206 138.47 94.925C138.609 95.0294 138.748 95.1338 138.887 95.2034C139.582 95.7601 139.721 96.7344 139.165 97.4303C139.026 97.5695 138.922 97.7087 138.818 97.8479C138.713 97.9871 138.609 98.1263 138.47 98.2655C137.775 98.8222 137.358 98.8222 136.524 98.4046C135.411 97.8479 134.716 96.8736 134.438 95.6209C134.369 95.5513 134.334 95.4817 134.299 95.4121C134.265 95.3425 134.23 95.2729 134.16 95.2034ZM138.192 89.9143C138.192 89.6359 138.053 89.3575 137.775 89.3575C137.497 89.3575 137.219 89.6359 137.219 89.9143C137.219 90.1926 137.358 90.471 137.636 90.471C137.914 90.471 138.192 90.1926 138.192 89.9143ZM165.75 83.9136C165.544 83.4848 165.329 83.0359 165.163 82.5374C166.275 84.0685 166.97 85.5995 167.387 87.2698C167.526 87.6177 167.631 88.0005 167.735 88.3832C167.839 88.766 167.944 89.1488 168.083 89.4968C168.083 89.9143 168.361 90.1927 168.639 90.4711C168.639 90.6102 168.778 90.6102 168.917 90.6102C169.056 90.6102 169.056 90.4711 169.056 90.3319C168.982 90.1101 168.947 89.8491 168.91 89.5696C168.878 89.3229 168.843 89.0619 168.778 88.8008C168.361 86.8522 167.665 84.9036 166.692 83.2334C165.997 81.9807 165.163 80.8672 164.19 79.7537C163.356 78.9186 162.661 78.2227 161.826 77.5267C160.853 76.5524 159.741 75.8565 158.629 75.2998C156.682 74.3255 154.597 73.6295 152.512 73.212C151.121 72.9336 149.731 72.9336 148.341 72.9336C147.785 72.9336 147.368 73.3512 147.368 74.0471C147.368 74.3255 147.368 74.6038 147.507 74.8822C147.924 75.7173 148.063 76.5524 148.063 77.3876C147.993 77.5963 147.993 77.8399 147.993 78.0835C147.993 78.3271 147.993 78.5706 147.924 78.7794C147.785 79.3362 147.646 79.8929 147.507 80.3105C147.229 80.8672 146.951 81.0064 146.395 80.8672C146.047 80.7976 145.734 80.728 145.421 80.6584C145.108 80.5888 144.796 80.5192 144.448 80.4496C143.753 80.3105 142.919 80.4496 142.224 80.728C141.43 81.1255 140.762 81.7751 140.459 82.6769L140.416 82.6766C139.86 84.7644 141.39 86.0171 142.919 86.2955C142.919 86.0171 142.78 85.8779 142.641 85.7387C142.363 85.182 142.224 84.6252 142.78 84.2077V83.9293C142.474 83.4699 142.084 83.1368 141.633 82.9301C141.834 82.9919 142.029 83.0869 142.224 83.2334C142.237 83.2073 142.249 83.1824 142.259 83.1587L142.274 83.1274L142.289 83.0942C142.372 82.9086 142.414 82.8158 142.641 82.8158C142.78 82.8158 142.919 83.0942 142.919 83.0942C142.919 83.1802 142.866 83.2662 142.792 83.3851C142.747 83.4586 142.694 83.5446 142.641 83.6509C142.733 83.6509 142.826 83.7747 142.919 83.8984C142.965 83.9602 143.012 84.0221 143.058 84.0685C143.614 83.9293 144.309 84.2077 144.448 84.6252C144.17 84.3469 143.614 84.2077 143.197 84.3469L143.058 84.4861C143.303 84.7311 143.116 85.0841 142.974 85.3549C142.954 85.3917 142.935 85.427 142.919 85.4604C143.753 85.7387 144.448 85.3212 144.865 84.7644C146.116 85.5995 147.228 86.5737 148.341 87.5479L148.341 87.548L148.341 87.5481C148.619 87.7569 148.897 88.0005 149.175 88.2441C149.453 88.4877 149.731 88.7312 150.009 88.94C150.287 89.0792 150.287 89.2184 150.287 89.3576C150.287 89.6359 150.426 90.0535 150.704 90.1927H151.26C151.399 90.1927 151.399 89.9143 151.399 89.7751V89.4968H151.538C151.624 89.4968 151.657 89.5499 151.703 89.6234C151.731 89.6688 151.763 89.722 151.817 89.7751C151.913 89.9692 152.078 90.0956 152.216 90.2016C152.248 90.2263 152.279 90.2499 152.307 90.273C152.321 90.2848 152.335 90.2965 152.348 90.3081C152.356 90.316 152.365 90.324 152.373 90.3319C152.79 90.6102 153.068 90.4711 153.068 89.9143L153.207 89.7751C153.485 89.9143 153.763 90.0535 154.041 90.3319C154.319 90.4711 154.458 90.7494 154.458 90.8886C154.458 91.0974 154.493 91.341 154.528 91.5846C154.562 91.8281 154.597 92.0717 154.597 92.2805C154.736 93.2548 154.597 94.2291 154.458 95.2034C154.041 97.152 153.346 98.9614 152.095 100.492C152.025 100.632 151.921 100.736 151.817 100.84C151.712 100.945 151.608 101.049 151.538 101.188C151.399 101.328 151.399 101.467 151.399 101.606H151.817C151.886 101.536 151.99 101.467 152.095 101.397C152.199 101.328 152.303 101.258 152.373 101.188C153.207 100.353 153.902 99.379 154.597 98.2655L154.736 98.1263C154.736 98.2655 154.875 98.2655 154.875 98.2655C154.597 98.8222 154.319 99.3442 154.041 99.8661C153.763 100.388 153.485 100.91 153.207 101.467C152.512 102.719 151.538 103.972 150.426 105.086C150.357 105.155 150.322 105.225 150.287 105.294C150.252 105.364 150.218 105.434 150.148 105.503C150.311 105.503 150.426 105.551 150.522 105.591C150.589 105.618 150.647 105.642 150.704 105.642C151.677 105.364 152.512 104.946 153.207 104.251C154.041 103.415 154.597 102.302 155.014 101.188C155.292 100.632 155.431 100.214 155.57 99.6573V99.7965C155.501 100.075 155.431 100.388 155.362 100.701C155.292 101.014 155.223 101.328 155.153 101.606C155.067 101.606 155.087 101.659 155.116 101.733C155.133 101.778 155.153 101.831 155.153 101.884C155.292 101.884 155.431 101.884 155.57 101.745C155.57 101.745 155.709 101.606 155.709 101.467L156.126 100.214C156.682 98.4047 156.96 96.4561 156.96 94.5075V93.6723C156.96 92.9764 156.96 92.2805 156.821 91.5846C156.682 90.1927 156.265 88.8008 155.57 87.5481C154.875 86.1563 154.18 85.0428 153.068 83.9293L152.234 83.0942C152.512 83.2334 152.79 83.3726 152.929 83.5117C153.346 83.8597 153.728 84.2077 154.11 84.5556C154.493 84.9036 154.875 85.2516 155.292 85.5995C155.344 85.5995 155.415 85.6381 155.491 85.6794C155.619 85.7489 155.761 85.8261 155.848 85.7387C155.987 85.5995 155.987 85.3212 155.987 85.182V85.0428L155.153 83.3726C155.066 83.2567 154.985 83.1468 154.908 83.0417L154.908 83.0408C154.614 82.6415 154.371 82.3111 154.041 81.9807C154.18 81.9807 154.319 82.1199 154.458 82.2591C155.431 83.0942 156.126 84.0685 156.682 85.182C156.821 85.5995 156.96 86.0171 157.239 86.2955C157.378 86.4347 157.517 86.5738 157.656 86.5738C157.795 86.5738 157.934 86.2955 157.934 86.1563V86.1562C157.934 85.7386 157.934 85.1819 157.795 84.7644C157.656 83.6509 157.1 82.6766 156.404 81.8415C156.324 81.7615 156.29 81.7275 156.276 81.6866C156.265 81.6563 156.265 81.6223 156.265 81.5631H156.543C156.602 81.5631 156.636 81.5631 156.667 81.5738C156.708 81.5883 156.742 81.6223 156.821 81.7023C157.656 82.3983 158.073 83.3726 158.49 84.3469L159.324 86.0171C159.324 86.1563 159.741 86.2955 159.88 86.2955C160.158 86.2955 160.297 86.0171 160.297 85.7387V84.9036C160.158 83.7901 159.602 82.8158 158.907 81.8415L158.073 81.0064C158.142 81.0064 158.177 81.0412 158.212 81.076C158.246 81.1108 158.281 81.1456 158.351 81.1456C159.185 81.7023 159.88 82.5374 160.297 83.5117C160.436 83.7901 160.575 83.9293 160.714 84.0685C161.131 84.2077 161.409 84.0685 161.409 83.6509C161.409 83.0942 161.27 82.5374 160.992 81.9807C160.853 81.7719 160.749 81.5283 160.645 81.2847C160.54 81.0412 160.436 80.7976 160.297 80.5888C160.413 80.705 160.553 80.797 160.688 80.8849C160.875 81.0077 161.05 81.1226 161.131 81.2848C161.27 81.5632 161.444 81.8415 161.618 82.1199L161.618 82.12C161.792 82.3984 161.965 82.6767 162.104 82.955C162.174 83.0942 162.243 83.2682 162.313 83.4422C162.383 83.6161 162.452 83.7901 162.522 83.9293C162.661 84.2077 162.939 84.4861 163.217 84.3469C163.356 84.3469 163.634 84.0685 163.634 83.9293C163.729 83.644 163.694 83.4236 163.662 83.2238C163.648 83.1313 163.634 83.0431 163.634 82.955C163.356 82.1199 163.078 81.424 162.661 80.728C162.581 80.648 162.547 80.614 162.532 80.5731C162.522 80.5428 162.522 80.5088 162.522 80.4496H162.661C162.703 80.4918 162.757 80.5339 162.817 80.5799C162.955 80.6859 163.12 80.8123 163.217 81.0064C163.829 81.8649 164.226 82.9396 164.597 83.9447L164.598 83.9478L164.603 83.9616C164.635 84.0493 164.668 84.1364 164.7 84.2228L164.746 84.3469L164.746 84.347C164.885 84.9037 165.024 85.4604 165.302 86.0171C165.441 86.4347 165.858 86.8522 166.275 86.9914C166.553 87.1306 166.831 86.8522 166.692 86.5738C166.553 85.8779 166.414 85.3212 166.136 84.7644C166.024 84.484 165.89 84.2036 165.751 83.9141L165.75 83.9136ZM143.336 77.9443C143.614 78.0139 143.892 78.0487 144.17 78.0835C144.448 78.1183 144.726 78.1531 145.004 78.2227C145.699 78.3618 146.395 78.6402 146.812 79.197C146.881 79.2666 146.916 79.3362 146.951 79.4057C146.985 79.4753 147.02 79.5449 147.09 79.6145C147.09 79.7537 147.09 79.8929 146.951 80.0321H146.673C145.699 79.7537 144.726 79.4753 143.614 79.6145C142.363 79.6145 141.251 80.0321 140.417 81.0064C140.138 81.4239 139.86 81.8415 139.721 82.3982C139.443 82.9549 139.304 83.5116 139.165 84.0683L139.165 84.0685C138.887 84.9036 138.331 85.4603 137.358 85.7387C137.219 85.7387 137.219 85.7387 137.219 85.8779C137.427 85.8779 137.601 85.8431 137.775 85.8083C137.949 85.7735 138.123 85.7387 138.331 85.7387H140.138C140.277 85.7387 140.556 85.8779 140.556 86.0171C140.695 86.1563 140.695 86.2955 140.556 86.4346C140.138 86.8522 139.721 87.1306 139.026 87.1306H137.358C136.764 87.1306 136.272 87.2321 135.708 87.3484L135.708 87.3485L135.586 87.3736C135.529 87.3853 135.471 87.3971 135.412 87.4089C135.273 87.4089 135.134 87.4437 134.994 87.4785C134.855 87.5133 134.716 87.5481 134.577 87.5481C134.16 87.6873 133.743 87.6873 133.326 87.2698C132.909 87.5481 132.492 87.6873 131.936 87.6873C131.241 87.6873 130.546 86.9914 130.685 86.0171C130.685 85.7387 131.102 85.7387 131.38 85.8779C131.658 86.0171 131.936 86.1563 132.353 86.2955C132.631 86.4346 132.77 86.2955 132.631 86.0171L132.631 86.0168C132.492 85.321 132.353 84.6251 132.353 84.0685C132.353 82.6766 132.631 81.2847 133.743 80.1713C134.716 79.197 135.968 78.501 137.497 78.3618C137.936 78.3618 138.288 78.102 138.622 77.8556C138.711 77.7896 138.799 77.7247 138.887 77.6659C138.969 77.6077 139.051 77.5485 139.134 77.4887L139.141 77.4836C140.052 76.8294 141.068 76.0989 142.085 75.7173C142.154 75.7173 142.224 75.6825 142.293 75.6477C142.363 75.6129 142.432 75.5781 142.502 75.5781L142.641 75.4389L142.502 75.2997C142.224 75.2997 141.946 75.2997 141.807 75.4389C141.529 75.5781 141.251 75.7521 140.973 75.9261C140.695 76.1001 140.417 76.274 140.138 76.4132L140.138 76.4135C139.582 76.831 139.026 77.2484 138.609 77.6659C137.914 78.2227 136.941 78.2227 136.107 78.2227C135.968 78.2227 135.69 78.0835 135.69 77.9443C135.69 77.8051 135.69 77.6659 135.829 77.5267C136.524 76.97 137.219 76.4132 138.053 75.8565C139.026 75.1606 140.138 74.6038 141.251 74.3254C141.529 74.2559 141.807 74.2211 142.085 74.1863C142.363 74.1515 142.641 74.1167 142.919 74.0471C143.892 73.9079 144.726 74.0471 145.699 74.4646C145.765 74.4975 145.839 74.5303 145.916 74.565C146.167 74.6773 146.46 74.8087 146.673 75.0214C146.951 75.1606 147.09 75.5781 146.951 75.9957C146.673 76.8308 145.839 77.5267 144.865 77.6659C144.662 77.6659 144.309 77.7405 143.862 77.835L143.862 77.8351L143.862 77.8351C143.699 77.8697 143.522 77.907 143.336 77.9443ZM145.839 75.5781L145.56 75.2997L145.421 75.4389C145.421 75.5781 145.56 75.7173 145.56 75.7173C145.56 75.8565 145.699 75.7173 145.839 75.5781ZM145.143 87.5482C145.143 87.5482 145.004 87.409 145.004 87.2698C144.865 86.9914 144.587 86.9914 144.448 87.409C144.379 87.409 144.344 87.3742 144.309 87.3394C144.274 87.3046 144.24 87.2698 144.17 87.2698C143.614 87.1306 143.197 87.409 143.197 87.9657C143.258 88.1488 143.292 88.3051 143.323 88.4464C143.363 88.6274 143.397 88.7837 143.475 88.94C143.475 89.0792 143.614 89.0792 143.614 89.0792C143.753 89.0792 143.892 89.0792 143.892 89.2184C143.892 89.3576 143.892 89.4968 143.753 89.636C143.846 89.7288 143.938 89.9453 144.031 90.1618C144.077 90.2701 144.124 90.3783 144.17 90.4711C144.309 90.7495 144.448 91.0278 144.865 91.0278C145.838 91.0278 146.394 91.7238 146.673 92.4197C146.812 92.8373 146.533 93.1156 146.116 93.1156H145.838C145.241 92.8762 144.54 92.7398 143.913 92.6177C143.811 92.5979 143.711 92.5784 143.614 92.5589C142.363 92.2805 140.972 92.9764 140.555 94.2291C140.277 94.9251 140.277 95.7602 140.277 96.5953C140.322 96.9549 140.353 97.2999 140.383 97.6398V97.64C140.445 98.3526 140.506 99.0427 140.694 99.7966C140.833 100.493 140.972 101.188 141.39 101.884C142.085 102.998 143.614 103.555 145.004 102.859C147.507 101.606 149.036 99.6574 149.731 97.0128L149.731 97.0124C149.87 96.595 150.009 96.1776 150.148 95.8994C150.287 95.7602 150.426 95.621 150.565 95.621C150.704 95.621 150.843 95.7602 150.843 95.8994C150.857 95.9547 150.871 96.0086 150.884 96.0614L150.886 96.0658C151.008 96.5428 151.107 96.9305 150.982 97.4304C150.982 98.1263 150.843 98.8223 150.426 99.379C149.314 100.91 147.924 102.163 146.394 103.137C145.977 103.415 145.699 103.694 145.421 103.972C145.004 104.529 145.143 105.225 145.838 105.503C146.394 105.782 146.812 105.782 147.368 105.642C148.758 105.225 149.731 104.529 150.565 103.555L150.982 102.719C151.068 102.719 151.048 102.666 151.02 102.593C151.003 102.547 150.982 102.494 150.982 102.441C150.902 102.521 150.868 102.555 150.827 102.57C150.797 102.58 150.763 102.58 150.704 102.58L150.009 103.276C149.314 103.833 148.619 104.39 147.646 104.668C147.578 104.668 147.511 104.676 147.441 104.685C147.225 104.711 146.988 104.74 146.673 104.529C146.742 104.459 146.812 104.425 146.881 104.39C146.951 104.355 147.02 104.32 147.09 104.251C148.619 103.137 150.148 102.024 151.26 100.493C152.373 98.9615 153.207 97.2912 153.068 95.3426C152.929 94.6467 152.79 94.0899 152.512 93.5332C151.816 92.2805 150.009 92.1413 149.175 93.1156C148.619 93.6724 148.341 94.2291 148.202 94.9251L148.146 95.1479C147.885 96.2032 147.6 97.3557 146.951 98.2655C146.533 98.9615 146.116 99.6574 145.421 100.075C145.129 100.27 144.904 100.329 144.653 100.394C144.546 100.422 144.434 100.451 144.309 100.493C143.892 100.493 143.475 100.214 143.336 99.6574C142.929 98.2987 143.052 97.0727 143.187 95.7204L143.197 95.621C143.197 95.2034 143.336 94.9251 143.475 94.6467C143.614 94.2291 144.031 94.0899 144.448 94.2291C144.603 94.2291 144.778 94.2677 144.965 94.309C145.279 94.3785 145.628 94.4557 145.977 94.3683C147.229 94.0899 148.063 93.1156 147.785 91.7238C147.646 91.0278 147.229 90.4711 146.812 89.9144C146.673 89.7752 146.533 89.4968 146.673 89.2184C146.812 88.94 146.812 88.5225 146.533 88.2441C146.325 88.1049 146.151 87.9658 145.977 87.8266C145.804 87.6874 145.63 87.5482 145.421 87.409V87.5482H145.143ZM156.543 87.6874C157.517 87.9658 158.212 88.6617 158.629 89.4968L159.88 92.0022C160.158 91.5846 160.158 91.167 160.019 90.8887C159.88 90.6103 159.88 90.3319 159.88 90.1927C159.88 90.1927 159.88 90.0535 160.019 90.0535H160.158C160.246 90.1417 160.334 90.2438 160.427 90.351C160.626 90.5824 160.846 90.8376 161.131 91.0279C161.826 91.7238 161.965 92.5589 161.548 93.394C161.409 93.9508 161.131 94.3683 160.853 94.7859C160.575 95.3426 160.575 96.0386 160.575 96.5953C160.645 97.0127 160.714 97.3954 160.784 97.778L160.784 97.7785C160.853 98.1613 160.923 98.544 160.992 98.9615C160.992 99.379 160.992 99.5182 160.575 99.6574C160.297 99.7966 160.158 99.9358 160.297 100.493V100.214C160.297 99.9358 160.436 99.7966 160.714 99.9358C161.131 100.075 161.409 100.214 161.548 100.632C161.687 101.049 161.687 101.188 161.27 101.328C161.184 101.328 161.099 101.381 160.98 101.454L160.98 101.454L160.979 101.455L160.979 101.455C160.905 101.5 160.82 101.553 160.714 101.606C160.992 101.606 160.992 101.745 160.992 101.884C160.853 102.441 160.575 102.998 160.019 103.276C159.88 103.415 159.741 103.415 159.602 103.137C159.463 102.859 159.185 102.58 159.046 102.441C159.046 102.302 158.907 102.302 158.768 102.302C158.907 102.441 159.046 102.58 159.046 102.72C159.602 103.694 159.324 104.39 158.351 104.529C157.934 104.668 157.517 104.668 157.1 104.529C156.822 104.529 156.682 104.39 156.682 104.111C156.682 103.813 156.722 103.515 156.759 103.238L156.76 103.237C156.792 102.998 156.822 102.774 156.822 102.58V101.884C156.822 101.745 156.787 101.571 156.752 101.397C156.717 101.223 156.682 101.049 156.682 100.91C156.682 100.353 156.683 99.9358 156.822 99.379L157.239 96.4561C157.308 96.1082 157.308 95.7254 157.308 95.3426C157.308 94.9599 157.308 94.5771 157.378 94.2291C157.378 93.9508 157.378 93.9508 157.656 94.09C158.212 94.3683 158.629 94.7859 158.907 95.3426C159.046 95.621 159.046 95.8994 158.907 96.1777L158.073 97.848V98.1264C158.351 97.6392 158.594 97.1869 158.837 96.7345C159.081 96.2821 159.324 95.8298 159.602 95.3426C160.019 94.6467 160.019 93.8116 159.602 93.1156C159.463 92.9765 159.324 92.8373 159.324 92.6981C158.629 92.1413 157.934 91.4454 157.656 90.4711C157.517 89.9144 157.378 89.3576 157.239 88.9401C156.867 88.6919 156.716 88.2225 156.589 87.8277L156.564 87.7487L156.543 87.6874ZM158.212 103.276C158.073 103.137 157.934 102.998 157.795 102.998C157.656 102.998 157.517 103.137 157.517 103.276C157.517 103.415 157.656 103.555 157.795 103.555C157.899 103.659 158.003 103.529 158.108 103.398C158.142 103.355 158.177 103.311 158.212 103.276ZM153.068 106.756C152.651 106.756 152.234 106.478 152.234 105.921C152.234 105.503 152.512 105.086 153.068 105.086C153.485 105.086 153.902 105.503 153.902 105.921C153.763 106.478 153.485 106.756 153.068 106.756ZM154.875 104.947C154.875 105.364 155.014 105.503 155.292 105.503C155.709 105.503 155.848 105.225 155.848 104.947C155.848 104.668 155.57 104.39 155.292 104.39C155.014 104.39 154.875 104.668 154.875 104.947ZM155.57 103.415C155.57 103.555 155.431 103.694 155.292 103.694C155.014 103.694 154.875 103.555 154.875 103.276C154.875 102.998 155.014 102.998 155.153 102.998C155.431 102.998 155.57 103.137 155.57 103.415ZM166.693 88.6617C167.527 89.9144 168.361 91.3063 168.917 92.6981C169.139 93.2907 169.282 93.8833 169.43 94.4968C169.561 95.0362 169.695 95.5917 169.89 96.1778C169.751 97.7088 169.334 99.2399 168.778 100.771C168.711 100.938 168.653 101.096 168.596 101.249C168.417 101.734 168.261 102.157 167.944 102.58C167.666 102.859 167.249 103.137 166.971 103.276C166.808 103.276 166.693 103.324 166.597 103.364C166.53 103.392 166.472 103.415 166.414 103.415C165.837 103.531 165.548 103.838 165.227 104.178C165.162 104.248 165.095 104.319 165.024 104.39C163.634 106.199 161.966 107.452 159.741 108.148C158.629 108.426 157.378 108.565 156.127 108.287C156.095 108.276 156.063 108.266 156.03 108.255C155.628 108.124 155.143 107.967 155.014 107.452C154.875 107.173 154.875 106.895 155.153 106.617C155.431 106.338 155.709 106.199 155.988 106.338L156.822 106.756C157.1 107.173 157.517 107.173 157.934 107.034C160.158 106.617 161.827 105.086 163.078 103.276C163.356 102.72 163.495 102.302 163.217 101.606L163.217 101.606C162.8 100.353 162.383 99.1006 162.244 97.7088C162.105 96.7345 162.105 95.7602 162.383 94.9251C162.522 94.5075 162.661 94.2292 162.939 93.8116C163.356 92.9765 163.634 92.1414 163.495 91.3063C163.356 90.7495 163.217 90.1928 162.8 89.7752C162.522 89.4968 162.244 89.3577 161.966 89.4968C161.27 89.636 160.714 89.4968 160.297 88.8009L160.158 88.6617C159.88 88.4529 159.741 88.3485 159.741 88.2442C159.741 88.1398 159.88 88.0354 160.158 87.8266C160.436 87.6874 160.575 87.409 160.714 86.9915C160.853 86.7131 160.992 86.5739 161.131 86.4347C161.201 86.3652 161.305 86.2956 161.41 86.226C161.514 86.1564 161.618 86.0868 161.688 86.0172C161.827 86.0172 161.827 85.878 161.827 85.7388C161.688 85.1821 161.688 84.7645 161.827 84.2078C161.925 84.3064 162.006 84.405 162.082 84.4974C162.221 84.6659 162.342 84.8138 162.522 84.9037C162.871 85.1658 163.22 85.3731 163.535 85.5599C163.721 85.6707 163.896 85.7744 164.051 85.878C165.163 86.5739 165.997 87.5482 166.693 88.6617ZM161.131 87.5482C161.41 87.409 161.549 87.2699 161.549 87.1307C161.479 87.1307 161.41 87.0959 161.34 87.0611C161.27 87.0263 161.201 86.9915 161.131 86.9915C160.992 87.1307 160.992 87.2699 160.992 87.409L161.131 87.5482Z" fill="white"/>
</svg>