<svg xmlns="http://www.w3.org/2000/svg" width="294" height="130" viewBox="0 0 294 130" fill="none">
<path d="M13.2108 53.2648C12.6487 53.6865 12.0865 53.9675 11.3838 53.9675L2.38922 53.827C0.843274 53.827 3.05176e-05 52.9838 3.05176e-05 51.1567L0.281111 11.9459C0.281111 8.43242 1.12436 5.90271 2.52976 4.4973C3.93517 3.0919 6.4649 2.24865 9.83787 2.38919H16.3027C24.173 2.38919 29.6541 3.0919 32.746 4.4973C37.6649 6.46487 40.0541 11.2432 40.0541 18.5514C40.0541 22.3459 39.3514 25.4378 37.946 27.9675C36.5406 30.4973 34.0108 32.3243 30.0757 33.4487C26.8433 34.4324 22.346 34.8541 16.5838 34.8541H14.0541L13.9135 51.2973C13.9135 52.1405 13.773 52.7027 13.2108 53.2648ZM17.146 24.454C19.5352 24.454 21.3622 24.3135 22.6271 23.8919C24.5946 23.1892 25.5784 21.6432 25.719 19.2541C25.719 16.4432 24.8757 14.7567 23.0487 14.054C21.9244 13.773 20.0973 13.4919 17.4271 13.4919H16.3027C15.0379 13.4919 14.3352 14.1946 14.3352 15.6L14.1946 24.3135L17.146 24.454Z" fill="white"/>
<path d="M55.2323 53.5459C54.8106 53.9676 54.2485 54.2486 53.5458 54.2486L44.5512 54.1081C43.1458 54.1081 42.3025 53.2649 42.4431 51.5784L42.7242 24.454C42.7242 23.0486 43.0052 22.0649 43.2863 21.3622C43.7079 20.6595 44.4106 19.9568 45.3944 19.3946C46.7998 18.5514 49.189 17.8487 52.1404 17.2865C55.2323 16.7243 58.0431 16.3027 60.8539 16.4433C63.9458 16.4433 66.0539 16.7243 67.1782 17.146C68.3025 17.5676 68.7242 18.4108 68.7242 19.6757C68.7242 22.4865 68.4431 24.7352 68.0215 26.4216C67.7404 27.4054 67.0377 27.827 65.6323 27.827C65.2106 27.827 64.3674 27.827 63.1025 27.6865C61.8377 27.6865 60.9944 27.5459 60.4323 27.5459C59.0269 27.5459 57.9025 27.6865 57.1998 27.9676C56.7782 28.1081 56.4971 28.3892 56.3566 28.6703C56.216 28.9513 56.0755 29.5135 56.0755 30.3568L55.935 51.7189C55.935 52.5622 55.6539 53.1243 55.2323 53.5459Z" fill="white"/>
<path d="M101.33 51.2973C98.3782 54.1081 93.5998 55.5135 86.8539 55.373C80.389 55.373 75.7512 53.827 72.9403 51.1568C70.1295 48.346 68.7241 43.2865 68.7241 35.8379C68.7241 32.0433 69.2863 28.8108 70.1295 26.1406C71.1133 23.4703 72.3782 21.5027 74.2052 20.2378C76.0322 18.8324 77.9998 17.9892 80.1079 17.427C82.216 16.8649 84.7457 16.7243 87.6971 16.7243C90.9295 16.7243 93.5998 17.0054 95.7079 17.427C97.816 17.8487 99.643 18.8324 101.33 20.2378C103.016 21.6433 104.14 23.6108 104.843 26.1406C105.546 28.6703 105.827 32.0433 105.827 35.9784C105.827 43.4271 104.281 48.627 101.33 51.2973ZM91.4917 29.2325C90.9295 28.1082 89.6647 27.546 87.5566 27.546C85.7295 27.546 84.3241 28.1082 83.6214 29.2325C82.9187 30.3568 82.4971 32.6054 82.4971 35.9784C82.4971 39.4919 82.7782 41.8811 83.4809 43.0054C84.1836 44.1298 85.4484 44.8324 87.2755 44.8324C89.243 44.8324 90.5079 44.2703 91.2106 43.146C91.9133 42.0217 92.1944 39.6325 92.3349 36.2595C92.3349 32.6055 92.0539 30.3568 91.4917 29.2325Z" fill="white"/>
<path d="M126.206 63.8054C125.784 64.227 125.222 64.5081 124.519 64.5081L115.243 64.3676C113.838 64.3676 113.276 63.5243 113.276 61.8378L113.416 28.3892H110.606C108.778 28.3892 107.935 27.4054 107.935 25.7189V20.5189C107.935 19.8162 108.216 19.2541 108.638 18.6919C109.06 18.1298 109.762 17.8487 110.606 17.8487H113.557V15.3189C113.557 9.97837 114.962 6.1838 117.492 4.07569C120.865 1.26488 126.346 0 133.795 0C136.043 0 137.308 0.843252 137.449 2.24866C137.589 3.23244 137.589 5.05948 137.589 8.01083C137.589 9.55677 136.746 10.4 135.06 10.5405C132.53 10.6811 130.843 10.9622 130 11.2432C129.016 11.5243 128.454 12.0865 128.033 12.6486C127.611 13.3513 127.33 14.4757 127.33 16.1622V17.8487H132.389C134.076 17.8487 134.919 18.6919 134.919 20.5189V26C134.919 27.5459 134.076 28.3892 132.249 28.3892H127.189L127.049 61.9784C126.768 62.8216 126.487 63.2432 126.206 63.8054Z" fill="white"/>
<path d="M168.508 52.7027C167.805 53.4054 166.822 53.9676 165.416 54.3892C163.87 54.8108 161.341 55.2324 158.108 55.654C154.876 55.9351 151.924 56.2162 149.676 56.0756C144.054 56.0756 140.119 54.9513 138.151 52.7027C136.184 50.454 135.059 47.5027 135.059 43.8486C135.059 39.6324 136.465 36.5405 139.135 34.573C141.384 32.8865 145.459 32.1837 151.081 32.1837C152.627 32.1837 154.454 32.3243 156.281 32.4648V31.9027C156.281 30.9189 156.141 30.2162 156 29.654C155.578 28.6703 154.032 28.2486 151.222 28.2486C148.973 28.2486 146.865 28.3892 144.757 28.6702C143.07 28.9513 141.805 29.0919 141.103 29.0919C139.978 29.0919 139.276 28.3892 138.995 27.1243C138.573 25.2973 138.292 23.3297 138.292 21.3622C138.292 19.9567 138.995 19.1135 140.259 18.6919C143.492 17.7081 147.708 17.1459 153.049 17.1459C160.216 17.1459 164.854 18.2702 166.962 20.3784C168.789 22.3459 169.773 25.7189 169.773 30.4973L169.632 48.4865C169.492 50.5946 169.211 51.8594 168.508 52.7027ZM152.768 40.4757C150.519 40.4757 149.254 40.7568 148.551 41.1784C147.849 41.6 147.568 42.4432 147.568 43.5675C147.568 45.3946 148.692 46.3784 151.081 46.3784C152.908 46.3784 154.314 46.2378 155.157 45.8162C155.578 45.6757 155.859 45.254 155.859 44.8324C156 44.4108 156 43.427 156 42.3027V40.7567C155.297 40.6162 154.173 40.4757 152.768 40.4757Z" fill="white"/>
<path d="M175.956 20.9405C175.956 19.2541 176.659 18.4108 178.205 18.4108L187.34 18.5514C188.745 18.5514 189.589 19.3946 189.448 21.0811L189.308 40.7568C189.308 42.3027 189.448 43.2865 189.589 43.8487C190.01 44.973 191.135 45.5351 192.821 45.5351C194.226 45.5351 195.21 45.5352 195.913 45.3946C196.756 45.1135 197.178 44.973 197.318 44.8324C197.599 44.5514 197.881 43.9892 197.881 43.2865L198.021 21.2216C198.021 20.3784 198.302 19.8163 198.724 19.3946C199.145 18.973 199.708 18.6919 200.41 18.6919L209.405 18.8324C210.81 18.8324 211.654 19.6757 211.513 21.3622L211.232 49.6108C211.232 52.1406 210.248 53.8271 208.281 54.5298C204.486 55.9352 198.583 56.6379 190.713 56.6379C185.935 56.6379 182.562 56.0757 180.454 55.2325C178.345 54.3892 176.94 53.1243 176.378 51.4379C175.675 49.7514 175.394 46.8 175.394 42.8649L175.956 20.9405Z" fill="white"/>
<path d="M231.048 55.0919C230.627 55.5135 230.065 55.7946 229.362 55.7946L220.367 55.6541C218.962 55.6541 218.119 54.8109 218.259 53.1244L218.54 25.4379C218.54 23.0487 219.524 21.5027 221.492 20.6595C223.74 19.8162 226.973 19.1135 231.048 18.5514C235.124 17.9892 238.919 17.7081 242.432 17.8487C248.756 17.8487 252.41 19.5352 253.535 22.6271C254.097 24.0325 254.238 26.4217 254.238 29.7946L254.097 53.4054C254.097 55.0919 253.394 55.9352 251.848 55.9352L242.713 55.7946C241.308 55.7946 240.465 54.9514 240.605 53.2649L240.746 32.8865C240.746 31.7622 240.746 30.9189 240.605 30.3568C240.324 29.2325 239.2 28.8108 237.373 28.6703C236.389 28.6703 235.265 28.8108 234.14 28.9514C233.438 29.0919 233.016 29.373 232.735 29.6541C232.454 29.9352 232.173 30.4973 232.173 31.2L232.032 53.1244C231.751 53.9676 231.47 54.6703 231.048 55.0919Z" fill="white"/>
<path d="M292.605 53.6865C291.902 54.3892 290.919 54.9514 289.513 55.373C287.967 55.7946 285.437 56.2163 282.205 56.6379C278.973 56.919 276.021 57.2 273.773 57.0595C268.151 57.0595 264.216 55.9352 262.248 53.6865C260.14 51.4379 259.156 48.4865 259.156 44.8324C259.156 40.6162 260.562 37.5244 263.232 35.5568C265.481 33.8703 269.556 33.1676 275.178 33.1676C276.724 33.1676 278.551 33.3081 280.378 33.4487V32.8865C280.378 31.9027 280.237 31.2 280.097 30.6379C279.675 29.6541 278.129 29.2325 275.319 29.2325C273.07 29.2325 270.962 29.373 268.854 29.6541C267.167 29.9352 265.902 30.0757 265.2 30.0757C264.075 30.0757 263.373 29.373 263.092 28.1081C262.67 26.2811 262.389 24.3135 262.389 22.3459C262.389 20.9405 263.092 20.0973 264.356 19.6757C267.589 18.6919 271.805 18.1297 277.146 18.1297C284.313 18.1297 288.951 19.2541 291.059 21.3622C292.886 23.3298 293.87 26.7027 293.87 31.4811L293.729 49.4703C293.589 51.5784 293.308 52.9838 292.605 53.6865ZM276.864 41.4595C274.616 41.4595 273.351 41.7406 272.648 42.1622C271.946 42.5838 271.664 43.4271 271.664 44.5514C271.664 46.3784 272.789 47.3622 275.178 47.3622C277.005 47.3622 278.41 47.2217 279.254 46.8C279.675 46.6595 279.956 46.2379 279.956 45.8162C280.097 45.3946 280.097 44.4108 280.097 43.2865V41.7406C279.394 41.6 278.27 41.4595 276.864 41.4595Z" fill="white"/>
<path d="M104.843 85.7298C106.529 87.8379 107.373 91.2108 107.373 96.1298C107.373 101.611 105.686 105.687 102.594 108.638C99.5023 111.449 94.1618 112.854 86.7131 112.854C80.3888 112.854 75.0482 112.011 70.6915 110.746C69.2861 110.324 68.5834 109.341 68.5834 107.795C68.5834 106.811 69.005 104.984 69.7077 102.314C70.2699 100.627 71.2536 99.7838 72.6591 99.9244C73.3618 99.9244 74.3455 100.205 75.8915 100.627C79.1239 101.47 82.9185 101.892 87.1347 101.892C90.9293 101.892 92.8969 100.627 92.8969 97.8163C92.8969 96.2703 92.6158 95.146 92.0537 94.4433C91.4915 93.7406 90.2266 93.1784 88.5401 92.8973L82.778 91.6325C78.2807 90.6487 75.0482 88.9622 72.9401 86.573C70.832 84.1838 69.8482 80.5298 69.9888 75.7514C70.1293 64.7892 76.7347 59.3082 89.805 59.4487C96.1293 59.4487 100.767 60.1514 104 61.2757C105.405 61.8379 105.967 62.6811 105.967 64.0865C105.967 65.6325 105.686 67.6 104.983 69.7082C104.562 71.1136 103.859 71.8163 102.594 71.8163C101.47 71.8163 100.486 71.6757 99.5023 71.3947C95.7077 70.8325 92.1942 70.4109 88.6807 70.4109C85.7293 70.4109 84.1834 71.6757 84.1834 74.4865C84.1834 76.8757 85.4483 78.4217 88.2591 78.9838L94.7239 80.5298C99.7834 81.9352 103.156 83.6217 104.843 85.7298Z" fill="white"/>
<path d="M125.643 111.589C125.221 112.011 124.659 112.292 123.956 112.292L114.962 112.151C113.556 112.151 112.713 111.308 112.853 109.622L113.275 60.573C113.275 58.4649 114.259 57.4811 116.086 57.4811H124.237C125.221 57.4811 125.924 57.7622 126.345 58.3243C126.767 58.8865 126.907 59.5892 126.907 60.7135L126.767 76.5946C127.751 76.0324 129.297 75.4703 131.545 75.0486C133.794 74.627 135.621 74.3459 137.307 74.3459C143.491 74.3459 147.005 76.0325 148.27 79.1244C148.832 80.5298 148.972 82.9189 148.972 86.2919L148.832 109.903C148.832 111.589 148.129 112.432 146.583 112.432L137.448 112.292C136.043 112.292 135.199 111.449 135.34 109.762L135.48 89.3838C135.48 88.4 135.48 87.5568 135.34 86.9946C134.918 85.8703 133.935 85.1676 132.107 85.1676C131.124 85.1676 130.14 85.3081 129.156 85.4487C128.453 85.5892 127.891 85.8703 127.329 86.4324C127.048 86.7135 126.767 87.5568 126.767 88.8216L126.626 109.762C126.345 110.465 126.064 111.027 125.643 111.589Z" fill="white"/>
<path d="M210.249 130H201.957C201.114 130 200.551 129.859 200.13 129.438C199.708 129.016 199.568 128.314 199.568 127.189L199.989 82.2162C199.989 81.2324 200.13 80.3892 200.411 79.546C200.692 78.5622 201.676 77.7189 203.222 77.1568C204.768 76.5946 207.157 76.0325 210.389 75.6108C213.622 75.1892 216.573 75.0486 219.384 75.0486C225.708 75.0486 230.205 76.4541 232.876 78.9838C235.546 81.5135 236.811 86.573 236.811 93.8811C236.811 97.8162 236.389 101.189 235.546 103.719C234.703 106.249 233.578 108.357 231.892 109.903C230.346 111.449 228.378 112.432 226.13 112.995C223.881 113.557 221.211 113.838 217.978 113.838C215.87 113.838 214.324 113.557 213.2 113.135L213.06 127.189C213.2 129.016 212.216 130 210.249 130ZM214.184 102.595C214.605 102.876 215.449 103.016 216.714 103.016C219.384 103.016 221.07 102.454 221.914 101.189C222.757 99.9243 223.178 97.3946 223.178 93.4595C223.178 90.5081 222.897 88.4 222.195 87.4162C221.492 86.2919 220.227 85.7297 218.4 85.7297C216.714 85.7297 215.449 85.8703 214.605 86.2919C214.324 86.4324 214.043 86.7135 213.903 87.1351C213.762 87.4162 213.762 87.8378 213.762 88.4L213.622 100.627C213.341 101.611 213.622 102.314 214.184 102.595Z" fill="white"/>
<path d="M160.497 97.5351C160.357 98.0973 160.497 98.6595 160.638 99.0811C161.059 100.627 162.184 101.33 163.589 101.751C164.011 101.892 164.432 101.892 164.713 102.032C165.276 102.032 165.557 102.454 165.697 102.876C166.4 104.141 167.243 105.265 168.227 106.249C169.913 107.795 171.74 108.778 173.989 109.341C175.395 109.622 176.94 109.903 178.346 110.324C179.47 110.605 180.313 111.168 181.016 112.151C181.438 112.714 181.578 112.854 182.281 112.714C185.232 112.151 187.903 110.746 190.292 108.919C190.713 108.638 190.995 108.357 191.416 108.076C191.557 107.935 191.697 107.935 191.838 107.935H191.978V108.076C191.697 108.357 191.416 108.778 191.135 109.059C190.432 109.762 189.73 110.605 189.027 111.168C187.622 112.432 186.076 113.416 184.389 114.26C183.124 114.822 181.719 115.384 180.313 115.665C179.47 115.805 178.768 115.946 177.924 116.087C176.659 116.227 175.395 116.227 174.13 116.227C173.005 116.227 172.022 116.087 170.897 115.805C169.773 115.524 168.649 115.243 167.524 114.822C166.119 114.26 164.854 113.557 163.589 112.573C162.324 111.73 161.2 110.746 160.357 109.762C159.373 108.638 158.53 107.514 157.827 106.389C156.984 105.124 156.422 103.719 156 102.314C155.578 100.346 155.859 98.5189 156.562 96.8324C157.124 95.5676 157.968 94.4433 158.811 93.4595V93.3189C158.67 93.3189 158.53 93.3189 158.53 93.4595C157.686 94.0216 156.984 94.7243 156.422 95.427C156.14 95.7081 156 95.9892 155.719 96.2703C155.578 96.5514 155.297 96.4108 155.157 96.1297C155.157 95.9892 155.016 95.8487 155.016 95.5676C155.016 94.5838 155.016 93.6 155.297 92.7568C155.578 91.9135 156.14 91.3514 157.124 91.3514C157.968 91.3514 158.811 91.4919 159.795 91.6325C160.216 91.773 160.638 91.773 160.919 91.4919C161.622 90.9298 162.465 90.9298 163.308 91.0703C164.151 91.2109 164.995 91.0703 165.838 90.6487C166.259 90.3676 166.822 90.0865 167.243 89.8054C167.384 89.8054 167.665 89.8054 167.805 89.946C168.93 91.2108 168.649 92.8973 167.243 93.7406C166.4 94.3027 165.557 95.0054 165.135 95.8487C164.854 96.5514 164.292 96.5514 163.73 96.2703C163.168 95.9892 162.746 95.4271 162.465 94.8649C162.465 94.8649 162.465 94.8649 162.324 94.8649C162.324 95.0054 162.324 95.2865 162.465 95.427C162.886 96.2703 163.589 96.8325 164.292 97.3946C164.573 97.5352 164.854 97.8163 165.135 97.9568C165.838 98.519 165.978 99.5028 165.416 100.205C165.135 100.487 164.995 100.768 164.713 101.049C164.011 101.611 163.589 101.611 162.746 101.189C161.622 100.627 160.919 99.6433 160.638 98.3784C160.497 97.8162 160.497 97.6757 160.497 97.5351ZM164.432 92.0541C164.432 91.773 164.292 91.4919 164.151 91.4919C163.87 91.4919 163.589 91.773 163.589 92.0541C163.589 92.3352 163.73 92.6162 164.011 92.6162C164.292 92.6162 164.432 92.4757 164.432 92.0541Z" fill="white"/>
<path d="M191.557 84.746C191.838 85.5892 192.259 86.2919 192.54 86.9946C192.822 87.5567 192.962 88.1189 193.103 88.6811C193.243 88.9622 192.962 89.2432 192.681 89.1027C192.259 88.9621 191.838 88.5406 191.697 88.1189C191.416 87.5568 191.276 86.9946 191.135 86.4324C190.713 85.3081 190.292 84.0432 189.589 83.0595C189.449 82.7784 189.167 82.6378 189.027 82.4973C189.027 82.4973 189.027 82.4973 188.886 82.4973C188.886 82.6378 188.886 82.6378 189.027 82.7784C189.449 83.4811 189.73 84.1838 190.011 85.027C190.011 85.3081 190.151 85.5892 190.011 85.8703C190.011 86.0108 189.73 86.2919 189.589 86.2919C189.308 86.4324 189.027 86.1514 188.886 85.8703C188.746 85.5892 188.605 85.1676 188.465 84.8865C188.184 84.3243 187.762 83.7622 187.481 83.2C187.34 82.9189 186.919 82.7784 186.638 82.4973C186.919 82.9189 187.059 83.4811 187.34 83.9027C187.622 84.4649 187.762 85.027 187.762 85.5892C187.762 86.0108 187.481 86.1514 187.059 86.0108C186.919 85.8703 186.778 85.7297 186.638 85.4487C186.216 84.4649 185.513 83.6216 184.67 83.0595C184.53 83.0595 184.53 82.9189 184.389 82.9189C184.67 83.2 184.951 83.4811 185.232 83.7622C185.935 84.7459 186.497 85.7297 186.638 86.8541C186.638 87.1352 186.638 87.4162 186.638 87.6973C186.638 87.9784 186.497 88.2595 186.216 88.2595C186.076 88.2595 185.795 88.1189 185.654 87.9784C185.373 87.4162 185.092 86.854 184.811 86.4324C184.389 85.4486 183.967 84.4649 183.124 83.7622C182.984 83.6216 182.984 83.6216 182.843 83.6216C182.703 83.6216 182.703 83.6216 182.562 83.6216C182.562 83.7622 182.562 83.7622 182.703 83.9027C183.405 84.746 183.967 85.7297 184.108 86.8541C184.249 87.2757 184.249 87.8379 184.249 88.2595C184.249 88.4 184.108 88.6811 183.967 88.6811C183.827 88.6811 183.686 88.5405 183.546 88.4C183.265 88.1189 183.124 87.6973 182.984 87.2757C182.422 86.1514 181.719 85.1676 180.876 84.3243C180.735 84.1838 180.594 84.0433 180.454 84.0433C180.876 84.4649 181.157 84.8865 181.438 85.4487C181.719 86.0108 182 86.573 182.281 87.1351C182.281 87.1351 182.281 87.1351 182.281 87.2757C182.281 87.4162 182.281 87.6973 182.14 87.8378C182 87.9784 181.719 87.8378 181.578 87.6973C180.735 86.9946 180.032 86.2919 179.189 85.5892C179.049 85.4486 178.767 85.3081 178.486 85.1676C178.767 85.4487 179.049 85.7297 179.33 86.0108C180.313 87.1351 181.157 88.2595 181.859 89.6649C182.562 90.9297 182.984 92.3351 183.124 93.7406C183.265 94.4433 183.265 95.1459 183.265 95.7081C183.265 95.9892 183.265 96.2703 183.265 96.5514C183.265 98.5189 182.984 100.487 182.422 102.314C182.281 102.735 182.14 103.157 182 103.578C182 103.719 181.859 103.859 181.859 103.859C181.719 104 181.578 104 181.438 104C181.438 103.859 181.297 103.719 181.438 103.719C181.578 103.157 181.719 102.454 181.859 101.892V101.751C181.719 102.313 181.578 102.735 181.297 103.297C180.876 104.422 180.313 105.546 179.47 106.389C178.767 107.092 177.924 107.514 177.081 107.795C176.94 107.795 176.8 107.654 176.519 107.654C176.659 107.514 176.659 107.373 176.8 107.232C177.924 106.108 178.908 104.984 179.611 103.578C180.173 102.454 180.735 101.47 181.297 100.346C181.297 100.346 181.157 100.346 181.157 100.205L181.016 100.346C180.454 101.47 179.611 102.454 178.767 103.297C178.627 103.438 178.346 103.578 178.205 103.719C178.065 103.719 177.924 103.719 177.784 103.719C177.784 103.578 177.784 103.438 177.924 103.297C178.065 103.016 178.346 102.876 178.486 102.595C179.611 101.049 180.454 99.2216 180.876 97.2541C181.016 96.2703 181.157 95.2865 181.016 94.3027C181.016 93.8811 180.876 93.3189 180.876 92.8973C180.876 92.7568 180.735 92.4757 180.454 92.3351C180.173 92.1946 179.892 91.9135 179.611 91.773L179.47 91.9135C179.47 92.4757 179.189 92.6162 178.767 92.3351C178.627 92.1946 178.346 92.0541 178.205 91.773C178.065 91.6325 178.065 91.6324 177.924 91.4919C177.924 91.4919 177.924 91.4919 177.784 91.4919C177.784 91.6324 177.784 91.6325 177.784 91.773C177.784 91.9135 177.784 92.1946 177.643 92.1946C177.503 92.1946 177.222 92.1946 177.081 92.1946C176.8 92.0541 176.659 91.6324 176.659 91.3513C176.659 91.2108 176.659 91.0703 176.378 90.9297C175.816 90.5081 175.254 89.946 174.692 89.5243C173.567 88.5406 172.443 87.5568 171.178 86.7135C170.757 87.2757 170.054 87.6973 169.211 87.4162C169.351 87.1351 169.632 86.7135 169.351 86.4324L169.492 86.2919C169.913 86.1513 170.335 86.2919 170.757 86.573C170.616 86.1514 169.913 85.8703 169.351 86.0108C169.211 85.8703 169.07 85.5892 168.93 85.5892C169.07 85.3081 169.211 85.1676 169.211 85.027C169.211 85.027 169.07 84.746 168.93 84.746C168.649 84.746 168.649 84.8865 168.508 85.1676C167.946 84.7459 167.384 84.746 166.681 84.746C166.962 83.7622 167.665 83.0595 168.508 82.6379C169.211 82.3568 170.054 82.2162 170.757 82.3568C171.459 82.4973 172.022 82.6378 172.584 82.7784C173.146 82.9189 173.427 82.7784 173.708 82.2162C173.849 81.7946 173.989 81.2324 174.13 80.6703C174.27 80.2486 174.13 79.6865 174.27 79.2648C174.27 78.4216 174.13 77.5784 173.708 76.7351C173.567 76.4541 173.567 76.173 173.567 75.8919C173.567 75.1892 173.989 74.7676 174.551 74.7676C175.957 74.7676 177.362 74.7676 178.767 75.0486C180.876 75.4703 182.984 76.173 184.951 77.1567C186.076 77.7189 187.2 78.4216 188.184 79.2648C189.027 79.9676 189.73 80.6703 190.432 81.5135C191.416 82.4973 192.259 83.7622 192.962 85.027C193.946 86.7135 194.649 88.5405 195.07 90.5081C195.211 91.0703 195.211 91.6324 195.351 92.054C195.351 92.1946 195.351 92.3351 195.211 92.3351C195.07 92.3351 194.93 92.3351 194.93 92.1946C194.649 91.9135 194.367 91.6324 194.367 91.3513C194.086 90.6486 193.946 89.8054 193.665 89.1027C193.384 87.8378 192.54 86.2919 191.557 84.746C191.697 84.8865 191.697 84.8865 191.557 84.746Z" fill="white"/>
<path d="M169.632 80.1081C170.194 80.2486 170.757 80.2486 171.319 80.3892C172.021 80.5297 172.724 80.8108 173.146 81.3729C173.286 81.5135 173.286 81.654 173.427 81.7946C173.427 81.9351 173.427 82.0756 173.286 82.2162C173.286 82.2162 173.146 82.2162 173.005 82.2162C172.021 81.9351 171.038 81.654 169.913 81.7946C168.648 81.7946 167.524 82.2162 166.681 83.2C166.4 83.6216 166.119 84.0432 165.978 84.6054C165.697 85.1675 165.557 85.7297 165.416 86.2918C165.135 87.1351 164.573 87.6973 163.589 87.9783C163.448 87.9783 163.448 87.9784 163.448 88.1189C163.87 88.1189 164.151 87.9783 164.573 87.9783C165.135 87.9783 165.697 87.9783 166.4 87.9783C166.54 87.9783 166.821 88.1189 166.821 88.2594C166.962 88.4 166.962 88.5405 166.821 88.6811C166.4 89.1027 165.978 89.3838 165.275 89.3838C164.713 89.3838 164.151 89.3838 163.589 89.3838C162.886 89.3838 162.324 89.5243 161.621 89.6649C161.34 89.6649 161.059 89.8054 160.919 89.8054C160.497 89.9459 160.075 89.9459 159.654 89.5243C159.232 89.8054 158.811 89.9459 158.248 89.9459C157.546 89.9459 156.843 89.2432 156.984 88.2594C156.984 87.9784 157.405 87.9784 157.686 88.1189C157.967 88.2594 158.248 88.4 158.67 88.5405C158.951 88.681 159.092 88.5405 158.951 88.2594C158.811 87.5567 158.67 86.9945 158.67 86.2918C158.67 84.8864 158.951 83.4811 160.075 82.4973C161.059 81.5135 162.324 80.8108 163.87 80.8108C164.432 80.8108 164.854 80.5297 165.275 80.1081C166.259 79.4054 167.243 78.5621 168.508 78.1405C168.648 78.1405 168.789 78 168.93 78L169.07 77.8594L168.93 77.7189C168.648 77.7189 168.367 77.7189 168.227 77.8594C167.665 78.1405 167.102 78.5621 166.681 78.8432C166.119 79.2648 165.697 79.6864 165.135 80.1081C164.432 80.6702 163.448 80.6702 162.605 80.6702C162.465 80.6702 162.184 80.5297 162.184 80.3892C162.184 80.2486 162.184 80.1081 162.324 79.9675C163.027 79.4054 163.73 78.8432 164.573 78.2811C165.557 77.5784 166.681 77.0162 167.805 76.7351C168.367 76.5946 168.93 76.5945 169.492 76.454C170.475 76.3135 171.319 76.454 172.302 76.8757C172.584 77.0162 173.005 77.1567 173.286 77.4378C173.567 77.5783 173.708 78 173.567 78.4216C173.286 79.2649 172.443 79.9675 171.459 80.1081C170.897 79.827 170.335 79.9675 169.632 80.1081C169.773 80.1081 169.773 80.1081 169.632 80.1081ZM172.162 77.7189C172.021 77.5784 171.881 77.4378 171.881 77.4378L171.74 77.5784C171.74 77.7189 171.881 77.8594 171.881 77.8594C171.881 78 172.021 77.8594 172.162 77.7189Z" fill="white"/>
<path d="M171.319 89.3838C171.319 89.5243 171.46 89.6649 171.46 89.6649C171.6 89.6649 171.741 89.6649 171.741 89.6649V89.5243C172.162 89.8054 172.444 90.0865 172.865 90.3676C173.146 90.6487 173.146 91.0703 173.006 91.3514C172.865 91.6324 173.006 91.773 173.146 92.0541C173.568 92.6162 173.99 93.1784 174.13 93.8811C174.411 95.2865 173.568 96.2703 172.303 96.5514C171.741 96.6919 171.179 96.4108 170.757 96.4108C170.335 96.2703 169.914 96.4108 169.773 96.8324C169.633 97.1135 169.492 97.3946 169.492 97.8162C169.352 99.2216 169.211 100.486 169.633 101.892C169.773 102.454 170.195 102.735 170.617 102.735C171.038 102.595 171.319 102.595 171.741 102.314C172.444 101.892 172.865 101.189 173.287 100.486C173.99 99.5027 174.271 98.2378 174.552 97.1135C174.692 96.4108 174.973 95.8487 175.535 95.2865C176.238 94.4433 178.206 94.4433 178.908 95.7081C179.19 96.2703 179.33 96.8324 179.471 97.5351C179.611 99.5027 178.768 101.189 177.644 102.735C176.519 104.281 174.973 105.405 173.427 106.53C173.287 106.67 173.146 106.67 173.006 106.811C173.427 107.092 173.708 106.951 173.99 106.951C174.973 106.67 175.676 106.108 176.379 105.546C176.66 105.405 176.8 105.124 177.081 104.843C177.222 104.843 177.222 104.843 177.362 104.703C177.362 104.843 177.503 104.984 177.362 104.984C177.222 105.265 177.081 105.546 176.941 105.827C176.098 106.811 175.114 107.514 173.849 107.935C173.287 108.076 172.865 108.076 172.303 107.795C171.6 107.514 171.46 106.811 171.881 106.249C172.163 105.968 172.444 105.686 172.865 105.405C174.411 104.422 175.817 103.157 176.8 101.611C177.222 101.049 177.362 100.346 177.362 99.6432C177.362 99.0811 177.363 98.6595 177.222 98.0973C177.222 97.9568 177.081 97.8162 176.941 97.8162C176.8 97.8162 176.66 97.9568 176.519 98.0973C176.379 98.3784 176.238 98.8 176.098 99.2216C175.395 101.892 173.849 103.859 171.319 104.984C169.914 105.687 168.368 105.124 167.665 104C167.244 103.297 167.103 102.595 166.963 101.892C166.681 100.768 166.681 99.7838 166.541 98.6595C166.541 97.8162 166.541 96.973 166.822 96.2703C167.244 95.0054 168.508 94.4433 169.914 94.5838C170.617 94.7243 171.46 94.8649 172.162 95.146C172.162 95.146 172.303 95.146 172.444 95.146C172.865 95.146 173.146 94.8649 173.006 94.4433C172.725 93.7406 172.163 93.0379 171.179 93.0379C170.757 93.0379 170.617 92.7568 170.476 92.4757C170.335 92.1946 170.195 91.773 170.054 91.6324C170.195 91.4919 170.195 91.3513 170.195 91.2108C170.195 91.0703 170.054 91.0703 169.914 91.0703C169.914 91.0703 169.773 91.0703 169.773 90.9297C169.633 90.6487 169.633 90.3676 169.492 89.9459C169.492 89.3838 169.914 89.1027 170.476 89.2432C170.617 89.2432 170.617 89.3838 170.757 89.3838C170.898 89.1027 171.179 89.2433 171.319 89.3838Z" fill="white"/>
<path d="M182.843 89.946C183.827 90.227 184.53 90.9298 184.951 91.773C185.373 92.6162 185.794 93.4595 186.216 94.3027C186.497 93.8811 186.497 93.4595 186.357 93.1784C186.216 92.8973 186.216 92.6162 186.216 92.4757C186.216 92.4757 186.216 92.3352 186.357 92.3352H186.497C186.778 92.6162 187.059 93.0378 187.481 93.3189C188.184 94.0216 188.324 94.8649 187.903 95.7081C187.762 96.2703 187.481 96.6919 187.2 97.1135C186.919 97.6757 186.919 98.3784 186.919 98.9405C187.059 99.7838 187.2 100.487 187.34 101.33C187.34 101.751 187.34 101.892 186.919 102.032C186.638 102.173 186.497 102.314 186.638 102.735C186.638 102.595 186.638 102.595 186.638 102.454C186.638 102.173 186.778 102.032 187.059 102.173C187.481 102.314 187.762 102.454 187.903 102.876C188.043 103.297 188.043 103.438 187.621 103.578C187.481 103.578 187.34 103.719 187.059 103.859C187.34 103.859 187.34 104 187.34 104.141C187.2 104.703 186.919 105.265 186.357 105.546C186.216 105.687 186.076 105.686 185.935 105.405C185.794 105.124 185.513 104.843 185.373 104.703C185.373 104.562 185.232 104.562 185.092 104.562C185.232 104.703 185.373 104.843 185.373 104.984C185.935 105.968 185.654 106.67 184.67 106.811C184.248 106.951 183.827 106.951 183.405 106.811C183.124 106.811 182.984 106.67 182.984 106.389C182.984 105.827 183.124 105.265 183.124 104.843C183.124 104.562 183.124 104.422 183.124 104.141C183.124 103.859 182.984 103.438 182.984 103.157C182.984 102.595 182.984 102.173 183.124 101.611C183.265 100.627 183.405 99.6433 183.546 98.6595C183.686 97.9568 183.546 97.2541 183.686 96.4108C183.686 96.1297 183.686 96.1297 183.967 96.2703C184.53 96.5514 184.951 96.973 185.232 97.5351C185.373 97.8162 185.373 98.0973 185.232 98.3784C184.951 98.9405 184.67 99.5027 184.389 100.065C184.389 100.205 184.389 100.346 184.389 100.346C184.951 99.3622 185.373 98.5189 185.935 97.5351C186.357 96.8324 186.357 95.9892 185.935 95.2865C185.794 95.146 185.654 95.0054 185.654 94.8649C184.951 94.3027 184.389 93.6 183.967 92.7568C183.827 92.1946 183.686 91.773 183.546 91.2108C183.124 90.7892 182.984 90.3676 182.843 89.946ZM184.67 105.546C184.53 105.405 184.389 105.265 184.249 105.265C184.108 105.265 183.967 105.405 183.967 105.546C183.967 105.687 184.108 105.827 184.249 105.827C184.249 105.968 184.389 105.687 184.67 105.546Z" fill="white"/>
<path d="M169.211 88.5405C167.665 88.2595 166.119 86.9946 166.681 84.8865C167.665 84.8865 168.508 85.3081 169.07 86.1514V86.4324C168.508 86.8541 168.649 87.4162 168.93 87.9784C169.07 88.1189 169.211 88.2595 169.211 88.5405Z" fill="white"/>
<path d="M179.33 109.059C178.908 109.059 178.487 108.778 178.487 108.216C178.487 107.795 178.768 107.373 179.33 107.373C179.752 107.373 180.173 107.795 180.173 108.216C180.173 108.778 179.892 109.059 179.33 109.059Z" fill="white"/>
<path d="M181.719 107.795C181.438 107.795 181.298 107.654 181.298 107.232C181.298 106.951 181.438 106.67 181.719 106.67C182 106.67 182.281 106.951 182.281 107.232C182.141 107.514 182 107.795 181.719 107.795Z" fill="white"/>
<path d="M181.86 105.686C181.86 105.827 181.719 105.968 181.579 105.968C181.298 105.968 181.157 105.827 181.157 105.686C181.157 105.405 181.298 105.405 181.438 105.405C181.719 105.405 181.86 105.405 181.86 105.686Z" fill="white"/>
<path d="M195.211 94.8649C194.649 93.4594 193.805 92.054 192.962 90.7892C192.26 89.6649 191.416 88.6811 190.292 87.9784C189.87 87.6973 189.308 87.4162 188.746 86.9946C188.465 86.854 188.324 86.573 188.043 86.2919C187.903 86.854 187.903 87.2757 188.043 87.8378C188.043 87.9784 188.043 88.1189 187.903 88.1189C187.762 88.2595 187.481 88.4 187.341 88.5405C187.2 88.6811 187.06 88.8216 186.919 89.1027C186.778 89.5243 186.638 89.8054 186.357 89.9459C185.795 90.3676 185.795 90.3676 186.357 90.7892L186.497 90.9297C186.919 91.6324 187.481 91.773 188.184 91.6324C188.465 91.4919 188.746 91.6324 188.887 91.9135C189.308 92.3351 189.449 92.8973 189.589 93.4594C189.73 94.3027 189.449 95.146 189.027 95.9892C188.746 96.4108 188.605 96.6919 188.465 97.1135C188.184 97.9568 188.184 98.9405 188.324 99.7838C188.465 101.049 188.887 102.454 189.308 103.719C189.589 104.422 189.449 104.843 189.168 105.405C187.903 107.232 186.216 108.778 183.968 109.059C183.546 109.2 183.124 109.2 182.843 108.778C182.562 108.638 182.281 108.497 182 108.357C181.719 108.216 181.438 108.357 181.157 108.638C180.876 108.919 180.876 109.2 181.016 109.481C181.157 110.043 181.578 110.184 182.141 110.324C183.405 110.605 184.67 110.465 185.795 110.184C188.043 109.481 189.73 108.216 190.995 106.389C191.416 105.968 191.697 105.546 192.4 105.405C192.541 105.405 192.681 105.265 192.962 105.265C193.243 105.124 193.665 104.984 193.805 104.562C194.227 104 194.368 103.438 194.649 102.735C195.211 101.33 195.492 99.7838 195.773 98.0973C195.773 97.2541 195.773 95.9892 195.211 94.8649ZM187.903 89.3838C187.903 89.5243 187.762 89.6648 187.481 89.8054C187.481 89.8054 187.481 89.8054 187.341 89.6649C187.341 89.5243 187.341 89.3838 187.481 89.2432C187.622 89.2432 187.762 89.2432 187.903 89.3838C187.903 89.3838 187.903 89.2432 187.903 89.3838Z" fill="white"/>
</svg>