<svg xmlns="http://www.w3.org/2000/svg" width="598" height="162" viewBox="0 0 598 162" fill="none">
<path d="M212.271 69.3011C207.347 70.0101 203.126 70.2465 198.671 70.0101C198.671 63.8654 198.671 58.9023 198.671 53.4666C198.671 51.1032 199.609 50.1579 201.954 49.9215C205.94 49.6852 208.52 49.4488 212.271 50.1579C216.727 50.8669 218.602 53.9392 218.368 59.6113C218.602 64.8107 216.492 68.8285 212.271 69.3011ZM221.651 35.505C210.396 34.3233 197.968 34.0869 186.712 35.0323C179.912 35.7413 180.381 43.7768 180.381 43.7768L180.147 109.478C180.147 113.969 180.85 114.678 185.306 114.678C187.885 114.678 190.23 114.678 192.809 114.678C197.968 114.678 198.671 113.969 198.671 108.769C198.671 100.734 198.671 92.4621 198.671 83.7177C203.83 83.7177 206.878 83.954 211.568 83.7177C225.637 82.536 237.361 79.2273 237.83 59.375C238.065 46.8491 233.375 36.4503 221.651 35.505Z" fill="white"/>
<path d="M305.597 70.4828H306.3C307.941 70.4828 310.052 71.1918 311.693 72.1372C313.335 73.0825 314.742 75.6822 314.976 77.5729C315.445 83.245 315.445 88.9171 314.976 94.3528C314.507 99.3159 311.459 101.207 306.535 101.443H305.831C300.672 101.207 297.624 99.0796 297.39 94.3528C296.921 88.6808 296.921 83.0087 297.39 77.5729C297.624 75.6822 299.031 73.3189 300.672 72.1372C302.079 70.9555 303.955 70.4828 305.597 70.4828ZM332.093 72.6099C331.156 63.3927 325.059 57.957 315.914 56.539C313.1 56.0663 309.348 56.0663 306.3 55.83C306.3 55.83 306.3 55.83 306.066 55.83C306.066 55.83 306.066 55.83 305.831 55.83C302.783 55.83 299.031 56.0663 296.217 56.539C287.072 57.957 280.976 63.1564 280.038 72.6099C279.1 80.409 278.631 88.4444 279.569 96.0072C281.21 108.769 286.603 113.969 299.735 115.387C301.845 115.623 303.721 115.623 305.831 115.623H306.066C306.066 115.623 306.066 115.623 306.3 115.623C306.535 115.623 306.3 115.623 306.535 115.623H306.769C308.879 115.623 310.99 115.623 312.866 115.387C325.997 113.969 331.39 108.769 333.031 96.0072C333.5 88.4444 333.031 80.409 332.093 72.6099Z" fill="white"/>
<path d="M393.998 102.861C390.949 102.625 389.308 100.498 389.308 97.1888C389.308 94.1164 390.715 92.2257 393.763 91.7531C397.749 91.2804 402.205 91.2804 406.191 91.0441C407.129 101.916 402.908 103.097 393.998 102.861ZM409.239 56.5389C400.329 56.0662 382.039 58.6659 381.57 58.6659C378.053 59.1386 376.88 60.3203 376.88 62.92C376.88 63.8653 377.115 67.6467 377.349 68.5921C378.053 71.4281 379.225 72.8461 382.508 72.3735L398.922 70.7191C403.846 70.4828 405.956 71.1918 405.722 79.6999C404.55 79.6999 402.439 79.6999 401.267 79.9362C395.874 80.1726 390.246 80.1726 384.853 81.1179C375.708 82.7723 371.487 88.6807 371.722 98.3705C371.956 108.06 376.646 114.205 385.556 115.623C393.529 117.041 401.267 116.568 409.005 115.15C411.819 114.678 421.901 110.424 422.605 95.7708C423.074 87.9717 422.605 80.4089 422.37 72.6098C422.37 61.9746 418.853 57.2479 409.239 56.5389Z" fill="white"/>
<path d="M567.517 102.861C564.469 102.625 562.827 100.498 562.827 97.1888C562.827 94.1164 564.234 92.2257 567.282 91.7531C571.269 91.2804 575.724 91.2804 579.71 91.0441C580.883 101.916 576.662 103.097 567.517 102.861ZM582.993 56.5389C574.082 56.0662 555.793 58.6659 555.324 58.6659C551.806 59.1386 550.634 60.3203 550.634 62.92C550.634 63.8653 550.868 67.6467 551.103 68.5921C551.806 71.4281 552.979 72.8461 556.262 72.3735L572.676 70.7191C577.6 70.4828 579.71 71.1918 579.476 79.6999C578.303 79.6999 576.193 79.6999 575.02 79.9362C569.627 80.1726 564 80.1726 558.606 81.1179C549.462 82.7723 545.241 88.6807 545.475 98.3705C545.71 108.06 550.399 114.205 559.31 115.623C567.282 117.041 575.02 116.568 582.758 115.15C585.572 114.678 595.655 110.424 596.359 95.7708C596.828 87.9717 596.359 80.4089 596.124 72.6098C595.89 61.9746 592.607 57.2479 582.993 56.5389Z" fill="white"/>
<path d="M477.24 57.4843H468.799C465.516 57.4843 464.109 58.9023 464.109 62.211C464.109 72.6098 464.109 81.3543 464.109 91.7531C464.109 94.5891 464.343 100.97 455.667 100.97C446.757 100.97 447.226 94.5891 447.226 91.7531C447.226 81.3543 447.226 72.6098 447.226 62.211C447.226 58.9023 445.819 57.4843 442.536 57.4843H434.095C430.108 57.4843 429.639 59.3749 429.639 62.4473C429.639 66.7014 429.639 87.499 429.874 97.4252C430.108 106.17 432.219 112.314 438.784 114.678C448.398 118.223 463.405 117.041 472.316 114.678C478.412 113.023 480.992 106.17 481.226 97.4252C481.461 87.2627 481.461 66.7014 481.461 62.4473C481.695 59.3749 480.992 57.4843 477.24 57.4843Z" fill="white"/>
<path d="M529.53 56.3026C517.337 55.3572 505.378 56.5389 493.654 60.0839C489.902 61.2656 488.026 64.8107 488.026 67.8831C487.792 74.7368 488.026 81.8269 488.026 88.6807C488.026 95.7708 488.026 102.861 488.026 109.951C488.026 113.023 489.199 114.441 492.482 114.441H501.158C504.909 114.678 506.316 113.023 506.082 109.242C505.847 98.3705 506.316 87.7354 505.847 76.8639C505.847 72.8461 507.489 71.4281 511.006 70.9554C512.413 70.7191 513.585 70.7191 514.992 70.4828C521.323 69.7738 523.199 71.6644 523.434 78.0455C523.434 88.4444 523.434 99.0795 523.434 109.478C523.434 112.787 524.372 114.441 527.889 114.205H537.268C539.848 114.205 541.255 113.023 541.255 110.66C541.255 96.0072 541.255 81.5906 540.551 66.9377C540.082 60.3203 536.565 57.0116 529.53 56.3026Z" fill="white"/>
<path d="M365.625 44.9584C366.563 44.9584 366.797 44.7221 367.501 44.7221C372.894 44.7221 373.832 43.3041 373.832 39.05C373.832 38.1047 373.832 34.5596 373.832 34.0869C374.066 31.0146 372.425 29.8329 369.611 29.8329C364.687 29.8329 359.997 30.0692 355.308 31.0146C344.756 33.3779 339.128 40.9407 339.363 51.1032C339.363 51.1032 339.363 98.6069 339.363 109.478C339.363 113.969 340.066 114.678 344.521 114.678C347.101 114.678 349.445 114.678 352.025 114.678C356.714 114.678 357.183 114.205 357.183 109.478C357.183 98.8432 357.183 72.8462 357.183 72.8462L366.797 72.6098C370.315 72.8462 371.487 71.1918 371.487 67.8831C371.487 66.4651 371.487 65.7561 371.487 63.1564C371.487 60.5567 370.315 59.375 367.735 59.375C364.921 59.375 357.652 59.375 357.652 59.375C357.652 50.3942 357.652 45.6675 365.625 44.9584Z" fill="white"/>
<path d="M274.176 56.3025C263.155 54.8845 251.665 57.7205 246.272 60.0839C242.286 61.9746 240.41 64.5743 240.644 68.8284V110.187C240.644 113.26 241.817 114.678 245.099 114.678H253.775C257.527 114.914 258.7 113.26 258.7 109.478C258.465 98.6068 258.7 87.9716 258.7 77.1002C258.7 72.6098 259.872 71.4281 264.327 71.1917C265.734 71.1917 271.127 71.1917 272.065 71.1917C276.286 70.9554 277.693 70.01 278.162 66.7013C278.396 65.2833 278.396 63.1563 278.162 60.5566C278.162 57.7205 276.52 56.5389 274.176 56.3025Z" fill="white"/>
<path d="M185.071 130.276C183.664 130.276 182.726 131.221 182.726 132.876V139.257C182.726 140.911 183.664 141.856 185.071 141.856C187.181 141.856 187.181 140.438 187.416 139.493C187.416 138.784 188.119 138.548 188.823 138.548C189.761 138.548 190.23 138.784 190.23 139.966C190.23 142.802 188.119 144.456 184.837 144.456C182.023 144.456 179.678 143.038 179.678 139.257V132.876C179.678 129.094 182.023 127.676 184.837 127.676C187.885 127.676 190.23 129.331 190.23 131.93C190.23 133.112 189.761 133.348 188.823 133.348C187.885 133.348 187.416 133.112 187.416 132.403C187.416 131.93 187.181 130.276 185.071 130.276Z" fill="white"/>
<path d="M197.968 137.839C198.437 137.839 198.671 137.839 198.671 137.13C198.671 136.184 197.733 135.239 196.795 135.239C195.857 135.239 194.919 135.948 194.919 136.893V137.602H197.968V137.839ZM201.251 137.602C201.251 139.493 200.078 139.729 199.14 139.729H194.685V139.966C194.685 141.384 195.623 142.093 197.264 142.093C198.671 142.093 199.375 141.147 200.078 141.147C200.782 141.147 201.251 142.093 201.251 142.329C201.251 143.038 199.609 144.22 197.264 144.22C193.982 144.22 191.871 142.329 191.871 139.493V137.602C191.871 135.239 193.982 133.112 196.795 133.112C199.14 133.348 201.251 135.003 201.251 137.602Z" fill="white"/>
<path d="M205.94 143.275C205.94 143.747 205.237 144.22 204.533 144.22C203.595 144.22 203.126 143.747 203.126 143.275V134.294C203.126 133.821 203.595 133.349 204.533 133.349C205.237 133.349 205.706 133.821 205.706 134.294V135.003C206.175 134.058 207.113 133.349 208.754 133.349C210.864 133.349 212.506 135.476 212.506 137.839V143.275C212.506 143.984 211.802 144.22 211.099 144.22C210.396 144.22 209.692 143.984 209.692 143.275V137.839C209.692 136.894 208.754 135.712 207.816 135.712C206.878 135.712 205.94 136.421 205.94 137.839V143.275Z" fill="white"/>
<path d="M217.665 140.439C217.665 141.384 217.899 141.62 218.837 141.62H219.775C220.713 141.62 220.947 142.329 220.947 142.802C220.947 143.511 220.478 143.984 219.775 143.984H218.837C216.258 143.984 214.616 142.802 214.616 140.439V129.567C214.616 129.095 215.32 128.622 216.023 128.622C216.727 128.622 217.43 129.095 217.43 129.567V133.349H220.009C220.478 133.349 220.713 133.821 220.713 134.294C220.713 134.767 220.478 135.239 220.009 135.239H217.43V140.439H217.665Z" fill="white"/>
<path d="M227.982 135.948C226.575 135.948 225.403 137.13 225.403 139.257V143.275C225.403 143.747 224.699 144.22 223.996 144.22C223.058 144.22 222.589 143.747 222.589 143.275V134.294C222.589 133.821 223.058 133.349 223.996 133.349C224.699 133.349 225.403 133.821 225.403 134.294V135.239C225.872 134.294 227.044 133.349 228.216 133.349H228.92C229.389 133.349 229.858 133.821 229.858 134.53C229.858 135.239 229.389 135.712 228.92 135.712H227.982V135.948Z" fill="white"/>
<path d="M237.127 137.839C237.127 136.894 236.189 135.712 235.251 135.712C234.079 135.712 233.375 136.657 233.375 137.839V139.73C233.375 140.675 234.313 141.857 235.251 141.857C236.423 141.857 237.127 140.911 237.127 139.73V137.839ZM239.941 137.839V139.73C239.941 142.093 237.596 144.456 235.016 144.456C232.437 144.456 230.092 142.329 230.092 139.73V137.839C230.092 135.476 232.203 133.349 235.016 133.349C237.83 133.349 239.941 135.476 239.941 137.839Z" fill="white"/>
<path d="M248.851 139.729C248.851 140.675 249.789 141.856 250.727 141.856C251.899 141.856 252.837 140.675 252.837 140.202V137.839C252.837 136.657 251.899 135.712 250.727 135.712C249.555 135.712 248.851 136.657 248.851 137.839V139.729ZM255.886 128.149V143.275C255.886 143.747 255.182 144.22 254.479 144.22C253.775 144.22 253.072 143.747 253.072 143.275V142.566C252.603 143.511 251.43 144.456 250.024 144.456C247.913 144.456 246.037 142.329 246.037 139.729V137.839C246.037 135.239 247.913 133.348 250.024 133.348C251.43 133.348 252.368 134.294 252.837 135.003V128.149C252.837 127.676 253.541 127.204 254.244 127.204C255.182 127.204 255.886 127.676 255.886 128.149Z" fill="white"/>
<path d="M263.858 137.839C264.327 137.839 264.562 137.839 264.562 137.13C264.562 136.184 263.624 135.239 262.686 135.239C261.748 135.239 260.81 135.948 260.81 136.893V137.602H263.858V137.839ZM267.141 137.602C267.141 139.493 265.969 139.729 265.031 139.729H260.575V139.966C260.575 141.384 261.513 142.093 263.155 142.093C264.562 142.093 265.265 141.147 265.969 141.147C266.672 141.147 267.141 142.093 267.141 142.329C267.141 143.038 265.5 144.22 263.155 144.22C259.872 144.22 257.762 142.329 257.762 139.493V137.602C257.762 135.239 259.872 133.112 262.686 133.112C265.031 133.348 267.141 135.003 267.141 137.602Z" fill="white"/>
<path d="M276.52 134.766H280.038C280.507 134.766 280.976 135.239 280.976 135.948C280.976 136.421 280.741 137.13 280.038 137.13H276.52V141.62H282.852C283.321 141.62 283.789 142.329 283.789 143.038C283.789 143.747 283.555 144.22 282.852 144.22H274.879C274.176 144.22 273.707 143.983 273.707 143.274V128.622C273.707 127.913 274.41 127.676 274.879 127.676H282.852C283.555 127.676 283.789 128.385 283.789 128.858C283.789 129.567 283.555 130.276 282.852 130.276H276.52V134.766Z" fill="white"/>
<path d="M290.355 141.148C290.355 139.257 284.962 140.439 284.962 136.657C284.962 135.003 285.9 133.349 288.948 133.349C290.824 133.349 292.465 134.058 292.465 134.767C292.465 135.239 291.996 136.185 291.528 136.185C291.059 136.185 290.355 135.476 288.948 135.476C287.776 135.476 287.307 135.948 287.307 136.421C287.307 138.075 292.7 136.894 292.7 140.911C292.7 143.038 291.293 144.22 288.479 144.22C286.134 144.22 284.493 143.275 284.493 142.329C284.493 141.857 284.962 141.148 285.431 141.148C286.134 141.148 286.603 142.093 288.479 142.093C289.886 142.093 290.355 141.62 290.355 141.148Z" fill="white"/>
<path d="M301.376 137.839C301.376 136.894 300.438 135.712 299.266 135.712C298.328 135.712 297.39 136.421 297.39 137.839V140.202C297.39 140.675 298.328 141.857 299.266 141.857C300.438 141.857 301.376 140.911 301.376 139.73V137.839ZM297.39 134.294V135.003C297.859 134.058 299.031 133.349 300.438 133.349C302.783 133.349 304.424 135.476 304.424 137.839V139.73C304.424 142.093 302.548 144.456 300.438 144.456C299.031 144.456 297.859 143.511 297.39 142.566V148.238C297.39 148.71 296.686 149.183 295.983 149.183C295.045 149.183 294.576 148.71 294.576 148.238V134.294C294.576 133.821 295.279 133.349 295.983 133.349C296.686 133.585 297.39 133.821 297.39 134.294Z" fill="white"/>
<path d="M311.928 137.839C312.397 137.839 312.631 137.839 312.631 137.13C312.631 136.184 311.693 135.239 310.755 135.239C309.817 135.239 308.879 135.948 308.879 136.893V137.602H311.928V137.839ZM315.445 137.602C315.445 139.493 314.273 139.729 313.335 139.729H308.879V139.966C308.879 141.384 310.052 142.093 311.459 142.093C312.866 142.093 313.569 141.147 314.273 141.147C314.976 141.147 315.445 142.093 315.445 142.329C315.445 143.038 313.804 144.22 311.459 144.22C308.176 144.22 306.066 142.329 306.066 139.493V137.602C306.066 135.239 308.176 133.112 310.99 133.112C313.1 133.348 315.445 135.003 315.445 137.602Z" fill="white"/>
<path d="M316.617 139.73V138.075C316.617 135.476 318.024 133.349 321.542 133.349C323.652 133.349 325.059 134.294 325.059 135.003C325.059 135.476 324.59 136.421 323.886 136.421C323.418 136.421 322.949 135.712 321.776 135.712C320.135 135.712 319.666 136.421 319.666 137.839V139.73C319.666 141.148 320.369 141.857 321.776 141.857C323.183 141.857 323.418 141.148 324.121 141.148C324.824 141.148 325.293 141.857 325.293 142.566C325.293 143.511 323.652 144.456 321.542 144.456C318.259 144.456 316.617 142.329 316.617 139.73Z" fill="white"/>
<path d="M329.749 134.294V143.275C329.749 143.747 329.045 144.22 328.342 144.22C327.404 144.22 326.935 143.747 326.935 143.275V134.294C326.935 133.821 327.638 133.349 328.342 133.349C329.045 133.585 329.749 133.821 329.749 134.294ZM329.749 129.567C329.749 130.276 329.045 130.985 328.107 130.985C327.169 130.985 326.466 130.276 326.466 129.567C326.466 128.858 327.169 128.149 328.107 128.149C329.045 128.149 329.749 128.858 329.749 129.567Z" fill="white"/>
<path d="M337.487 139.493H337.252C335.845 139.493 334.438 139.73 334.438 140.911C334.438 141.857 334.907 142.093 335.611 142.093C336.549 142.093 337.721 141.148 337.721 139.966V139.493H337.487ZM340.3 137.839V143.275C340.3 143.747 339.597 144.22 338.894 144.22C338.19 144.22 337.487 143.747 337.487 143.275V142.566C336.783 143.511 335.611 144.456 333.969 144.456C332.328 144.456 331.156 143.511 331.156 141.384C331.156 138.784 333.266 138.075 336.314 138.075H337.252V137.839C337.252 136.894 336.783 135.712 335.376 135.712C333.735 135.712 333.266 136.421 332.797 136.421C332.093 136.421 331.859 135.712 331.859 135.003C331.859 134.058 333.969 133.349 335.376 133.349C339.128 133.349 340.3 135.476 340.3 137.839Z" fill="white"/>
<path d="M345.694 128.149V143.275C345.694 143.747 344.99 144.22 344.287 144.22C343.349 144.22 342.88 143.747 342.88 143.275V128.149C342.88 127.676 343.349 127.204 344.287 127.204C344.99 127.204 345.694 127.676 345.694 128.149Z" fill="white"/>
<path d="M351.087 134.294V143.275C351.087 143.747 350.383 144.22 349.68 144.22C348.742 144.22 348.273 143.747 348.273 143.275V134.294C348.273 133.821 348.976 133.349 349.68 133.349C350.383 133.585 351.087 133.821 351.087 134.294ZM351.087 129.567C351.087 130.276 350.383 130.985 349.445 130.985C348.507 130.985 347.804 130.276 347.804 129.567C347.804 128.858 348.507 128.149 349.445 128.149C350.383 128.149 351.087 128.858 351.087 129.567Z" fill="white"/>
<path d="M355.777 139.729C355.777 140.675 356.714 141.856 357.652 141.856C358.825 141.856 359.763 140.675 359.763 140.202V137.839C359.763 136.657 358.825 135.712 357.652 135.712C356.48 135.712 355.777 136.657 355.777 137.839V139.729ZM362.577 128.149V143.275C362.577 143.747 361.873 144.22 361.17 144.22C360.466 144.22 359.763 143.747 359.763 143.275V142.566C359.294 143.511 358.121 144.456 356.714 144.456C354.604 144.456 352.728 142.329 352.728 139.729V137.839C352.728 135.239 354.604 133.348 356.714 133.348C358.121 133.348 359.059 134.294 359.528 135.003V128.149C359.528 127.676 360.232 127.204 360.935 127.204C362.108 127.204 362.577 127.676 362.577 128.149Z" fill="white"/>
<path d="M370.315 139.493H370.08C368.673 139.493 367.266 139.73 367.266 140.911C367.266 141.857 367.735 142.093 368.439 142.093C369.377 142.093 370.549 141.148 370.549 139.966V139.493H370.315ZM373.363 137.839V143.275C373.363 143.747 372.659 144.22 371.956 144.22C371.253 144.22 370.549 143.747 370.549 143.275V142.566C369.846 143.511 368.673 144.456 367.032 144.456C365.39 144.456 364.218 143.511 364.218 141.384C364.218 138.784 366.328 138.075 369.377 138.075H370.315V137.839C370.315 136.894 369.846 135.712 368.439 135.712C366.797 135.712 366.328 136.421 365.859 136.421C365.156 136.421 364.921 135.712 364.921 135.003C364.921 134.058 367.032 133.349 368.439 133.349C371.956 133.349 373.363 135.476 373.363 137.839Z" fill="white"/>
<path d="M378.053 139.729C378.053 140.675 378.991 141.856 379.929 141.856C381.101 141.856 382.039 140.675 382.039 140.202V137.839C382.039 136.657 381.101 135.712 379.929 135.712C378.756 135.712 378.053 136.657 378.053 137.839V139.729ZM384.853 128.149V143.275C384.853 143.747 384.149 144.22 383.446 144.22C382.742 144.22 382.039 143.747 382.039 143.275V142.566C381.57 143.511 380.397 144.456 378.991 144.456C376.88 144.456 375.004 142.329 375.004 139.729V137.839C375.004 135.239 376.88 133.348 378.991 133.348C380.397 133.348 381.335 134.294 381.804 135.003V128.149C381.804 127.676 382.508 127.204 383.211 127.204C384.149 127.204 384.853 127.676 384.853 128.149Z" fill="white"/>
<path d="M392.825 137.839C393.294 137.839 393.529 137.839 393.529 137.13C393.529 136.184 392.591 135.239 391.653 135.239C390.715 135.239 389.777 135.948 389.777 136.893V137.602H392.825V137.839ZM396.342 137.602C396.342 139.493 395.17 139.729 394.232 139.729H389.777V139.966C389.777 141.384 390.715 142.093 392.356 142.093C393.763 142.093 394.467 141.147 395.17 141.147C395.874 141.147 396.342 142.093 396.342 142.329C396.342 143.038 394.701 144.22 392.356 144.22C389.073 144.22 386.963 142.329 386.963 139.493V137.602C386.963 135.239 389.073 133.112 391.887 133.112C393.998 133.348 396.342 135.003 396.342 137.602Z" fill="white"/>
<path d="M402.908 141.148C402.908 139.257 397.515 140.439 397.515 136.657C397.515 135.003 398.453 133.349 401.501 133.349C403.377 133.349 405.018 134.058 405.018 134.767C405.018 135.239 404.549 136.185 404.081 136.185C403.612 136.185 402.908 135.476 401.501 135.476C400.329 135.476 399.86 135.948 399.86 136.421C399.86 138.075 405.253 136.894 405.253 140.911C405.253 143.038 403.846 144.22 401.032 144.22C398.687 144.22 397.046 143.275 397.046 142.329C397.046 141.857 397.515 141.148 397.984 141.148C398.687 141.148 399.156 142.093 401.032 142.093C402.674 142.093 402.908 141.62 402.908 141.148Z" fill="white"/>
<path d="M419.322 138.311C419.088 138.784 418.619 138.784 418.384 138.784C417.915 138.784 417.681 138.548 417.446 138.311L414.867 133.348V143.274C414.867 143.983 414.163 144.22 413.46 144.22C412.756 144.22 412.053 143.983 412.053 143.274V129.094C412.053 127.913 412.756 127.676 413.46 127.676C414.398 127.676 415.101 127.913 415.805 129.331L418.619 134.294L421.432 129.331C422.136 127.913 422.605 127.676 423.777 127.676C424.481 127.676 425.184 128.149 425.184 129.094V143.274C425.184 143.983 424.481 144.22 423.777 144.22C423.074 144.22 422.37 143.983 422.37 143.274V133.585L419.322 138.311Z" fill="white"/>
<path d="M433.157 137.839C433.626 137.839 433.86 137.839 433.86 137.13C433.86 136.185 432.922 135.239 431.984 135.239C431.046 135.239 430.108 135.948 430.108 136.894V137.603H433.157V137.839ZM430.812 131.221H430.577C430.108 131.221 429.639 130.512 429.639 130.04C429.639 129.803 429.639 129.567 430.108 129.331L433.157 127.913H433.391C433.86 127.913 434.329 128.622 434.329 129.094C434.329 129.331 434.329 129.567 433.86 129.803L430.812 131.221ZM436.44 137.603C436.44 139.493 435.267 139.73 434.329 139.73H429.874V139.966C429.874 141.384 430.812 142.093 432.453 142.093C433.86 142.093 434.564 141.148 435.267 141.148C435.971 141.148 436.44 142.093 436.44 142.329C436.44 143.038 434.798 144.22 432.453 144.22C429.17 144.22 427.06 142.329 427.06 139.493V137.603C427.06 135.239 429.17 133.112 431.984 133.112C434.329 133.348 436.44 135.003 436.44 137.603Z" fill="white"/>
<path d="M440.66 139.729C440.66 140.675 441.598 141.856 442.536 141.856C443.709 141.856 444.646 140.675 444.646 140.202V137.839C444.646 136.657 443.709 135.712 442.536 135.712C441.364 135.712 440.66 136.657 440.66 137.839V139.729ZM447.695 128.149V143.275C447.695 143.747 446.991 144.22 446.288 144.22C445.584 144.22 444.881 143.747 444.881 143.275V142.566C444.412 143.511 443.24 144.456 441.833 144.456C439.722 144.456 437.846 142.329 437.846 139.729V137.839C437.846 135.239 439.722 133.348 441.833 133.348C443.24 133.348 444.178 134.294 444.646 135.003V128.149C444.646 127.676 445.35 127.204 446.053 127.204C446.991 127.204 447.695 127.676 447.695 128.149Z" fill="white"/>
<path d="M452.853 134.294V143.275C452.853 143.747 452.15 144.22 451.447 144.22C450.509 144.22 450.04 143.747 450.04 143.275V134.294C450.04 133.821 450.743 133.349 451.447 133.349C452.15 133.585 452.853 133.821 452.853 134.294ZM452.853 129.567C452.853 130.276 452.15 130.985 451.212 130.985C450.274 130.985 449.571 130.276 449.571 129.567C449.571 128.858 450.274 128.149 451.212 128.149C452.15 128.149 452.853 128.858 452.853 129.567Z" fill="white"/>
<path d="M454.729 139.73V138.075C454.729 135.476 456.136 133.349 459.654 133.349C461.764 133.349 463.171 134.294 463.171 135.003C463.171 135.476 462.702 136.421 461.998 136.421C461.529 136.421 461.06 135.712 459.888 135.712C458.247 135.712 457.778 136.421 457.778 137.839V139.73C457.778 141.148 458.481 141.857 459.888 141.857C461.295 141.857 461.529 141.148 462.233 141.148C462.936 141.148 463.405 141.857 463.405 142.566C463.405 143.511 461.764 144.456 459.654 144.456C456.136 144.456 454.729 142.329 454.729 139.73Z" fill="white"/>
<path d="M470.205 139.493H469.971C468.564 139.493 467.157 139.73 467.157 140.911C467.157 141.857 467.626 142.093 468.33 142.093C469.267 142.093 470.44 141.148 470.44 139.966V139.493H470.205ZM473.254 137.839V143.275C473.254 143.747 472.55 144.22 471.847 144.22C471.143 144.22 470.44 143.747 470.44 143.275V142.566C469.736 143.511 468.564 144.456 466.923 144.456C465.281 144.456 464.109 143.511 464.109 141.384C464.109 138.784 466.219 138.075 469.267 138.075H470.205V137.839C470.205 136.894 469.736 135.712 468.33 135.712C466.688 135.712 466.219 136.421 465.75 136.421C465.047 136.421 464.812 135.712 464.812 135.003C464.812 134.058 466.923 133.349 468.33 133.349C471.847 133.349 473.254 135.476 473.254 137.839Z" fill="white"/>
<path d="M480.288 141.148C480.288 139.257 474.895 140.439 474.895 136.657C474.895 135.003 475.833 133.349 478.881 133.349C480.757 133.349 482.399 134.058 482.399 134.767C482.399 135.239 481.93 136.185 481.226 136.185C480.757 136.185 480.054 135.476 478.647 135.476C477.474 135.476 477.006 135.948 477.006 136.421C477.006 138.075 482.399 136.894 482.399 140.911C482.399 143.038 480.992 144.22 478.178 144.22C475.833 144.22 474.192 143.275 474.192 142.329C474.192 141.857 474.661 141.148 475.13 141.148C475.833 141.148 476.302 142.093 478.178 142.093C480.054 142.093 480.288 141.62 480.288 141.148Z" fill="white"/>
<path d="M488.261 129.094C488.261 129.094 488.261 128.858 488.261 129.094C488.261 128.149 489.199 127.676 490.137 127.676C490.606 127.676 491.075 127.913 491.075 128.149L494.592 140.438L498.109 128.149C498.109 127.676 498.578 127.676 499.047 127.676C499.751 127.676 500.923 128.149 500.923 128.858V129.094L496.702 143.274C496.468 143.983 495.764 144.22 494.826 144.22C493.888 144.22 493.185 143.983 492.951 143.274L488.261 129.094Z" fill="white"/>
<path d="M506.785 137.839C507.254 137.839 507.489 137.839 507.489 137.13C507.489 136.184 506.551 135.239 505.613 135.239C504.675 135.239 503.737 135.948 503.737 136.893V137.602H506.785V137.839ZM510.068 137.602C510.068 139.493 508.895 139.729 507.958 139.729H503.502V139.966C503.502 141.384 504.44 142.093 506.082 142.093C507.489 142.093 508.192 141.147 508.896 141.147C509.599 141.147 510.068 142.093 510.068 142.329C510.068 143.038 508.427 144.22 506.082 144.22C502.799 144.22 500.689 142.329 500.689 139.493V137.602C500.689 135.239 502.799 133.112 505.613 133.112C507.958 133.348 510.068 135.003 510.068 137.602Z" fill="white"/>
<path d="M514.758 140.439C514.758 141.384 514.992 141.62 515.93 141.62H516.868C517.806 141.62 518.04 142.329 518.04 142.802C518.04 143.511 517.571 143.984 516.868 143.984H515.93C513.351 143.984 511.709 142.802 511.709 140.439V129.567C511.709 129.095 512.413 128.622 513.116 128.622C513.82 128.622 514.523 129.095 514.523 129.567V133.349H517.102C517.571 133.349 517.806 133.821 517.806 134.294C517.806 134.767 517.571 135.239 517.102 135.239H514.523V140.439H514.758Z" fill="white"/>
<path d="M525.31 137.839C525.778 137.839 526.013 137.839 526.013 137.13C526.013 136.184 525.075 135.239 524.137 135.239C523.199 135.239 522.261 135.948 522.261 136.893V137.602H525.31V137.839ZM528.592 137.602C528.592 139.493 527.42 139.729 526.482 139.729H522.027V139.966C522.027 141.384 522.965 142.093 524.606 142.093C526.013 142.093 526.716 141.147 527.42 141.147C528.123 141.147 528.592 142.093 528.592 142.329C528.592 143.038 526.951 144.22 524.606 144.22C521.323 144.22 519.213 142.329 519.213 139.493V137.602C519.213 135.239 521.323 133.112 524.137 133.112C526.482 133.348 528.592 135.003 528.592 137.602Z" fill="white"/>
<path d="M535.861 135.948C534.454 135.948 533.282 137.13 533.282 139.257V143.275C533.282 143.747 532.579 144.22 531.875 144.22C530.937 144.22 530.468 143.747 530.468 143.275V134.294C530.468 133.821 530.937 133.349 531.875 133.349C532.579 133.349 533.282 133.821 533.282 134.294V135.239C533.751 134.294 534.923 133.349 536.096 133.349H536.799C537.268 133.349 537.737 133.821 537.737 134.53C537.737 135.239 537.268 135.712 536.799 135.712H535.861V135.948Z" fill="white"/>
<path d="M541.724 134.294V143.275C541.724 143.747 541.02 144.22 540.317 144.22C539.379 144.22 538.91 143.747 538.91 143.275V134.294C538.91 133.821 539.613 133.349 540.317 133.349C541.02 133.585 541.724 133.821 541.724 134.294ZM541.724 129.567C541.724 130.276 541.02 130.985 540.082 130.985C539.144 130.985 538.441 130.276 538.441 129.567C538.441 128.858 539.144 128.149 540.082 128.149C541.02 128.149 541.724 128.858 541.724 129.567Z" fill="white"/>
<path d="M546.882 143.275C546.882 143.747 546.179 144.22 545.475 144.22C544.537 144.22 544.068 143.747 544.068 143.275V134.294C544.068 133.821 544.537 133.349 545.475 133.349C546.179 133.349 546.648 133.821 546.648 134.294V135.003C547.117 134.058 548.055 133.349 549.696 133.349C551.806 133.349 553.448 135.476 553.448 137.839V143.275C553.448 143.984 552.744 144.22 552.041 144.22C551.337 144.22 550.634 143.984 550.634 143.275V137.839C550.634 136.894 549.696 135.712 548.758 135.712C547.82 135.712 546.882 136.421 546.882 137.839V143.275Z" fill="white"/>
<path d="M561.186 139.493H560.951C559.544 139.493 558.137 139.73 558.137 140.911C558.137 141.857 558.606 142.093 559.31 142.093C560.248 142.093 561.42 141.148 561.42 139.966V139.493H561.186ZM564 137.839V143.275C564 143.747 563.296 144.22 562.593 144.22C561.889 144.22 561.186 143.747 561.186 143.275V142.566C560.482 143.511 559.31 144.456 557.668 144.456C556.027 144.456 554.855 143.511 554.855 141.384C554.855 138.784 556.965 138.075 560.013 138.075H560.951V137.839C560.951 136.894 560.482 135.712 559.075 135.712C557.434 135.712 556.965 136.421 556.496 136.421C555.793 136.421 555.558 135.712 555.558 135.003C555.558 134.058 557.669 133.349 559.075 133.349C562.827 133.349 564 135.476 564 137.839Z" fill="white"/>
<path d="M571.738 135.948C570.331 135.948 569.158 137.13 569.158 139.257V143.275C569.158 143.747 568.455 144.22 567.751 144.22C566.813 144.22 566.344 143.747 566.344 143.275V134.294C566.344 133.821 566.813 133.349 567.751 133.349C568.455 133.349 569.158 133.821 569.158 134.294V135.239C569.627 134.294 570.8 133.349 571.972 133.349H572.676C573.145 133.349 573.613 133.821 573.613 134.53C573.613 135.239 573.145 135.712 572.676 135.712H571.738V135.948Z" fill="white"/>
<path d="M577.6 134.294V143.275C577.6 143.747 576.896 144.22 576.193 144.22C575.255 144.22 574.786 143.747 574.786 143.275V134.294C574.786 133.821 575.489 133.349 576.193 133.349C576.896 133.585 577.6 133.821 577.6 134.294ZM577.6 129.567C577.6 130.276 576.896 130.985 575.958 130.985C575.02 130.985 574.317 130.276 574.317 129.567C574.317 128.858 575.02 128.149 575.958 128.149C576.896 128.149 577.6 128.858 577.6 129.567Z" fill="white"/>
<path d="M585.338 139.493H585.103C583.696 139.493 582.289 139.73 582.289 140.911C582.289 141.857 582.758 142.093 583.462 142.093C584.4 142.093 585.572 141.148 585.572 139.966V139.493H585.338ZM588.152 137.839V143.275C588.152 143.747 587.448 144.22 586.745 144.22C586.041 144.22 585.338 143.747 585.338 143.275V142.566C584.634 143.511 583.462 144.456 581.82 144.456C580.179 144.456 579.007 143.511 579.007 141.384C579.007 138.784 581.117 138.075 584.165 138.075H585.103V137.839C585.103 136.894 584.634 135.712 583.227 135.712C581.586 135.712 581.117 136.421 580.648 136.421C579.945 136.421 579.71 135.712 579.71 135.003C579.71 134.058 581.82 133.349 583.227 133.349C586.979 133.349 588.152 135.476 588.152 137.839Z" fill="white"/>
<path d="M595.421 141.148C595.421 139.257 590.027 140.439 590.027 136.657C590.027 135.003 590.965 133.349 594.014 133.349C595.89 133.349 597.531 134.058 597.531 134.767C597.531 135.239 597.062 136.185 596.359 136.185C595.89 136.185 595.186 135.476 593.779 135.476C592.607 135.476 592.138 135.948 592.138 136.421C592.138 138.075 597.531 136.894 597.531 140.911C597.531 143.038 596.124 144.22 593.31 144.22C590.965 144.22 589.324 143.275 589.324 142.329C589.324 141.857 589.793 141.148 590.262 141.148C590.965 141.148 591.434 142.093 593.31 142.093C595.186 142.093 595.421 141.62 595.421 141.148Z" fill="white"/>
<path d="M66.6559 10.6897C67.1249 10.6897 67.5938 11.1623 67.5938 11.635C67.5938 12.344 67.1249 12.8167 66.6559 12.8167C66.1869 12.8167 65.718 12.344 65.718 11.8714C65.4835 11.1623 65.9524 10.6897 66.6559 10.6897ZM69.9387 24.3972C64.3111 20.8522 59.3869 21.3248 59.3869 21.3248C57.511 21.5612 57.9799 21.0885 57.9799 21.0885C59.6213 19.9068 62.2007 19.6705 62.2007 19.6705C70.8766 19.6705 72.7525 13.5257 72.7525 13.5257C73.925 10.6897 72.0491 9.74433 72.0491 9.74433L68.2973 7.85363C59.1524 3.59957 48.1316 7.6173 48.1316 7.6173C37.8142 11.8714 30.0762 18.7251 30.0762 18.7251C27.2623 21.0885 30.0762 21.5612 30.0762 21.5612C36.6418 22.7428 42.0349 18.2525 42.0349 18.2525C48.366 12.5804 52.5868 10.6897 52.5868 10.6897C56.3385 9.27165 56.1041 11.635 56.1041 11.635C50.4764 13.053 39.4556 21.7975 39.4556 21.7975C38.2832 22.7429 36.6418 22.7428 36.6418 22.7428C28.2003 22.9792 22.1037 28.8876 22.1037 28.8876C11.5518 38.3411 17.414 53.4666 17.414 53.4666C15.5381 54.8847 11.7863 52.0486 11.7863 52.0486C10.1449 50.8669 9.44145 52.5213 9.44145 52.5213C8.738 56.0663 11.5518 57.957 11.5518 57.957C15.0691 60.5567 19.7588 57.0117 19.7588 57.0117C20.6968 58.9024 23.5106 58.4297 23.5106 58.4297C30.7796 55.83 41.8004 55.83 41.8004 55.83C42.5039 56.0663 43.9108 55.83 43.9108 55.83C46.0212 55.5937 47.6626 53.2303 47.6626 53.2303C48.1316 52.0486 46.2557 51.1033 46.2557 51.1033C44.3798 49.9216 35.2349 51.5759 35.2349 51.5759C34.2969 51.8123 33.8279 51.5759 33.8279 51.5759C33.8279 51.1033 34.7659 50.8669 34.7659 50.8669C40.628 49.4489 41.566 45.4312 42.5039 42.3588C43.4418 39.2864 44.6143 36.6867 44.6143 36.6867C46.9591 28.8876 55.8696 27.4696 55.8696 27.4696C63.6076 26.0516 71.1111 28.8876 71.1111 28.8876C71.8146 29.3603 72.2836 28.6513 72.2836 28.6513C73.925 26.7606 69.9387 24.3972 69.9387 24.3972Z" fill="white"/>
<path d="M56.3386 45.1949L56.1041 44.9586C56.1041 44.7222 55.8696 44.4859 55.6351 44.2496C55.4006 44.0132 55.4006 43.7769 55.1661 43.5406C54.9317 43.0679 54.4627 42.8315 53.9937 42.3589C53.5247 41.8862 53.2903 41.6499 52.8213 41.4135C52.3523 41.1772 51.8833 40.9408 51.4144 40.7045C51.1799 40.7045 50.9454 40.4682 50.7109 40.4682C50.4764 40.4682 50.2419 40.2318 50.0075 40.2318C49.773 40.2318 49.5385 39.9955 49.304 39.9955C49.0695 39.9955 48.835 39.7592 48.6005 39.7592C48.1316 39.7592 47.4281 39.5228 46.9592 39.5228C44.8488 49.6853 53.5247 52.7577 56.1041 53.4667C56.5731 53.703 56.5731 53.2304 56.3386 52.994C53.0558 48.5036 55.6351 45.9039 56.3386 45.1949Z" fill="white"/>
<path d="M62.6697 46.1401C62.2007 45.6674 61.4972 45.431 61.0283 45.1947C60.3248 44.9584 59.8558 44.9584 59.1524 44.9584C58.9179 44.9584 58.4489 44.9584 58.2144 44.9584C57.98 44.9584 57.98 44.9584 57.7455 44.9584H57.2765H57.042C57.98 46.6127 57.2765 48.0308 56.573 48.7398C56.3386 48.9761 56.573 49.2124 56.8075 49.4488C60.5593 50.3941 62.6697 47.5581 63.3731 46.6127C63.1386 46.6127 62.9042 46.3764 62.6697 46.1401Z" fill="white"/>
<path d="M114.491 122.004C113.788 122.004 113.084 121.295 113.084 120.586C113.084 119.877 113.788 119.168 114.491 119.168C115.194 119.168 115.898 119.877 115.898 120.586C115.898 121.295 115.429 122.004 114.491 122.004ZM125.043 107.115C125.043 107.115 124.105 106.642 123.87 107.824C123.87 107.824 123.87 109.006 123.636 109.478C123.636 109.478 123.401 109.951 123.167 109.478C123.167 109.478 122.463 106.642 125.043 106.17C125.043 106.17 126.215 106.17 126.215 104.988C126.215 104.988 126.45 102.625 124.574 93.171C124.574 93.171 123.87 90.8077 125.512 87.9716C125.512 87.9716 130.905 79.2272 128.56 75.2094C128.56 75.2094 127.857 73.3188 124.808 71.1917C124.808 71.1917 123.636 70.4827 123.167 69.301C123.167 69.301 122.698 67.6467 122.229 69.301C122.229 69.301 121.994 70.719 123.167 72.1371C123.167 72.1371 124.339 74.0278 122.932 76.3911C122.932 76.3911 122.698 76.8638 122.463 76.3911C122.463 76.3911 119.181 71.4281 117.539 66.9377C117.539 66.9377 115.663 61.7382 110.505 59.8475C109.567 59.3749 109.332 59.3749 109.801 60.5566C109.801 60.5566 111.208 64.1016 112.146 69.301C112.146 69.301 112.381 73.5551 119.884 80.1725C119.884 80.1725 123.167 83.2449 120.822 89.3897C120.822 89.3897 115.429 98.3704 114.725 101.443C114.725 101.443 113.788 101.443 114.256 99.7885C114.256 99.7885 115.429 96.2434 118.008 92.6984C118.008 92.6984 120.119 89.626 112.85 84.8993C112.85 84.8993 112.381 84.6629 112.146 84.6629C111.677 84.6629 111.677 84.8993 111.912 85.6083C111.912 85.6083 112.381 90.5713 110.974 100.497C110.974 100.497 108.863 107.588 110.036 116.096C110.036 116.096 110.505 118.223 109.567 124.604C109.567 124.604 109.098 125.786 110.974 126.022C111.208 126.022 116.836 126.967 119.415 123.658C119.415 123.658 121.057 121.059 117.539 117.277C117.539 117.277 117.305 117.277 117.305 117.041C117.305 116.805 117.539 116.568 118.008 117.041C118.008 117.041 120.119 118.695 121.057 120.822C121.057 120.822 121.526 121.295 121.76 121.295C121.76 121.295 124.808 120.113 125.981 114.678C125.981 114.678 125.981 114.441 125.746 114.441C125.512 114.441 125.043 114.678 124.339 115.15C124.339 115.15 123.401 115.623 123.636 115.15C123.636 115.15 123.401 114.678 127.388 113.26C127.388 113.26 128.56 113.023 128.56 112.551C129.264 111.842 129.967 108.533 125.043 107.115Z" fill="white"/>
<path d="M105.581 121.059C105.581 121.768 105.112 122.477 104.174 122.477C103.47 122.477 102.767 122.004 102.767 121.059C102.767 120.35 103.236 119.641 104.174 119.641C104.877 119.641 105.581 120.35 105.581 121.059Z" fill="white"/>
<path d="M106.753 127.204C106.753 128.149 105.815 129.094 104.877 129.094C103.939 129.094 103.001 128.385 103.001 127.204C103.001 126.258 103.939 125.313 104.877 125.313C106.049 125.313 106.753 126.022 106.753 127.204Z" fill="white"/>
<path d="M99.0149 131.222C99.0149 132.876 97.608 134.294 95.9666 134.294C94.3252 134.294 92.9183 132.876 92.9183 131.222C92.9183 129.567 94.3252 128.149 95.9666 128.149C97.608 128.149 99.0149 129.567 99.0149 131.222Z" fill="white"/>
<path d="M127.388 58.9023C127.388 58.9023 126.919 56.7753 129.029 56.0663C129.029 56.0663 129.498 56.5389 129.498 57.2479C129.264 58.1933 128.56 59.375 127.388 58.9023ZM156.698 77.3366C145.443 53.7029 135.595 50.6305 135.595 50.6305C133.484 49.9215 130.67 46.8491 130.67 46.8491C129.967 45.9038 129.733 46.6128 129.733 46.6128C129.029 48.5035 129.498 51.5759 129.967 52.5212C129.967 52.7575 129.967 52.9939 129.967 52.9939C129.029 53.7029 126.919 55.3573 126.684 55.3573C125.981 55.8299 125.746 56.5389 125.746 56.5389L125.043 58.666L124.808 59.1386L122.229 61.502C121.526 61.9747 121.994 62.4474 121.994 62.4474C122.698 63.8654 123.401 63.8654 123.401 63.8654C126.45 68.8284 130.67 67.1741 130.67 67.1741C133.25 66.4651 134.657 70.0101 134.657 70.0101C138.643 77.1002 133.015 85.1357 133.015 85.1357C125.981 92.2258 134.657 114.914 134.657 114.914C135.595 117.277 134.891 118.223 134.657 118.459C126.919 131.221 117.539 134.766 112.381 135.239C109.332 135.475 108.863 134.53 108.863 134.53C105.346 131.694 103.001 133.112 103.001 133.112C100.422 134.766 102.063 137.366 102.063 137.366C105.112 141.148 112.146 140.202 112.146 140.202C129.498 140.438 140.753 123.895 140.753 123.895C142.864 121.059 144.505 120.823 144.505 120.823C150.602 119.405 151.305 117.277 151.305 117.277C156.933 107.115 158.574 95.7708 159.278 89.1534C159.981 84.1903 157.636 78.9909 156.698 77.3366Z" fill="white"/>
<path d="M34.5314 67.6469C34.5314 65.7562 36.8763 65.2835 36.8763 65.2835C39.6901 68.3559 36.8763 70.0102 36.8763 70.0102C34.2969 70.2466 34.5314 67.6469 34.5314 67.6469ZM140.988 130.04C121.994 145.874 106.518 147.529 106.518 147.529C103.705 148.238 103.001 147.056 103.001 147.056C96.6701 136.185 90.8079 139.493 71.3456 134.057C52.1178 128.385 43.2074 110.66 43.2074 110.66C41.3315 106.642 38.9866 106.642 38.9866 106.642C19.9933 104.515 22.3382 89.6262 22.3382 89.6262C22.8071 87.4991 23.0416 88.9172 23.0416 88.9172C23.5106 97.4253 30.7796 101.443 30.7796 101.443C35.2349 104.043 37.5797 102.152 37.5797 102.152C37.5797 102.152 49.0695 94.3529 38.9866 87.9718C28.9038 81.5907 29.6072 77.1003 29.6072 77.1003C30.0762 75.6823 30.3107 76.6276 30.3107 76.6276C31.2486 80.6454 35.9383 82.7724 35.9383 82.7724C38.7522 83.9541 39.9246 80.8817 39.9246 80.8817C42.7384 74.737 49.0695 71.6646 49.0695 71.6646C55.4006 67.1742 52.8213 60.7931 52.8213 60.7931C52.3523 59.8477 51.4144 58.1934 51.4144 58.1934C49.773 55.83 48.6005 56.7754 48.6005 56.7754L47.8971 57.4844C46.7247 57.4844 43.4419 59.8477 43.4419 59.8477C39.9246 62.9201 33.5935 62.2111 33.5935 62.2111C27.2624 60.3204 24.4485 63.3928 24.4485 63.3928C22.1037 64.8108 20.2278 64.3381 20.2278 64.3381C9.44147 61.7384 6.86213 63.6291 6.86213 63.6291C0.296539 65.9925 0.999995 78.5183 0.999995 78.5183C1.70345 84.4268 3.81382 81.3544 3.81382 81.3544C9.20699 74.0279 13.8967 70.9556 13.8967 70.9556C15.7726 69.7739 16.2416 70.0102 16.2416 70.0102C16.7105 70.0102 16.2416 70.7192 16.2416 70.7192C-3.68971 93.4076 3.11036 111.133 17.414 130.276C30.7796 148.474 51.1799 155.8 51.1799 155.8C80.7251 166.672 107.691 159.109 123.87 148.474C137.471 139.493 144.271 128.622 144.271 128.622C144.271 127.204 140.988 130.04 140.988 130.04Z" fill="white"/>
<path d="M111.912 7.38093C95.4976 0.290828 80.9595 0.999838 80.9595 0.999838C73.925 0.527164 72.987 4.07222 74.6284 7.61727C79.0836 18.4888 75.3319 28.4149 75.3319 28.4149C74.1595 32.1963 71.3456 31.96 71.3456 31.96C69.7042 31.7236 67.5939 31.0146 67.5939 31.0146C51.6488 26.7605 47.6626 36.923 46.9591 39.0501C47.4281 39.0501 47.8971 38.8137 48.6005 38.8137C49.0695 38.8137 49.773 38.8137 50.2419 39.0501C50.7109 39.0501 51.4144 39.2864 51.8833 39.5227C52.3523 39.7591 53.0558 39.9954 53.5247 40.2317L53.7592 40.4681V40.2317C53.7592 39.2864 54.4627 38.5774 55.1661 38.5774C56.1041 38.5774 56.573 39.2864 56.573 40.2317C56.573 41.1771 55.8696 41.6498 55.1661 41.8861C55.4006 42.1224 55.6351 42.3588 55.8696 42.8314C56.1041 43.0678 56.3386 43.3041 56.3386 43.5405L56.573 43.7768C56.8075 43.7768 57.042 43.7768 57.042 43.7768C57.511 43.7768 57.7455 43.7768 58.2144 43.7768C58.9179 43.7768 59.8558 44.0131 60.5593 44.2495C61.2628 44.4858 61.9662 45.1948 62.4352 45.6675C62.6697 45.9038 62.9042 46.3765 62.9042 46.6128C69.7042 50.8669 79.0836 59.6114 79.0836 59.6114C81.194 61.502 82.8354 62.9201 84.4768 63.8654C84.2423 64.5744 84.2423 65.2834 84.2423 65.9924C84.4768 66.9378 85.1803 67.8831 85.8837 68.5921C86.1182 68.8285 86.5872 69.0648 87.0562 69.0648C87.5251 69.0648 87.7596 68.8285 87.9941 68.5921C88.2286 68.1195 88.2286 67.6468 88.2286 67.1741C88.2286 66.7015 87.9941 66.2288 87.9941 65.7561C88.6976 65.9924 89.1665 65.9924 89.6355 66.2288C89.87 67.4105 90.8079 68.3558 91.7459 68.8285C92.2148 69.0648 92.6838 69.3012 93.1528 69.3012C93.6217 69.3012 94.0907 69.0648 94.5597 68.8285C95.0287 68.3558 94.7942 68.3558 94.7942 67.8831C94.7942 67.6468 94.5597 67.1741 94.5597 66.9378C95.7321 66.9378 99.9529 69.0648 100.187 70.7192C104.877 93.1712 90.1045 110.66 90.1045 110.66C87.5251 113.023 88.6976 113.496 88.6976 113.496C89.87 114.441 91.9804 112.551 91.9804 112.551C97.3735 107.588 101.36 100.261 101.36 100.261C101.594 99.7886 101.829 99.7886 102.063 99.7886C102.298 99.7886 102.063 100.498 102.063 100.498C94.3252 119.405 84.2423 127.913 84.2423 127.913C82.3664 130.04 86.8217 129.094 86.8217 129.094C91.7459 127.44 95.4976 123.895 95.4976 123.895C100.656 118.932 103.939 108.297 105.112 103.334C105.581 101.679 105.581 102.388 105.346 103.334C105.112 107.351 103.705 112.078 103.705 112.078C102.298 115.623 103.236 115.387 103.236 115.387C104.408 116.096 105.581 113.023 105.581 113.023C121.057 65.7561 91.7459 42.5951 91.7459 42.5951C91.0424 41.8861 91.2769 41.8861 91.2769 41.8861C91.5114 41.4134 91.9804 41.8861 91.9804 41.8861C96.6701 43.7768 103.236 51.1032 103.236 51.1032C104.643 52.7576 105.346 52.0486 105.346 52.0486C106.049 51.3396 105.815 50.3942 105.815 50.3942C103.47 43.3041 98.5459 38.5774 98.5459 38.5774C97.8425 37.8684 97.8425 37.8684 97.8425 37.632C98.3115 37.1594 99.2494 37.8684 99.2494 37.8684C105.815 43.5405 109.332 52.0486 109.332 52.0486C111.677 57.957 113.319 54.4119 113.319 54.4119C114.96 46.3765 107.456 36.923 107.456 36.923C106.753 36.214 106.987 35.9777 106.987 35.9777C107.222 35.2687 108.16 35.9777 108.16 35.9777C111.912 38.341 115.429 46.3765 115.663 46.8492C118.243 55.121 120.822 54.8846 120.822 54.8846C122.463 54.6483 122.698 52.2849 122.698 52.2849C122.463 41.1771 114.491 34.087 114.491 34.087C113.788 33.6143 113.788 33.1416 114.256 33.1416C114.491 33.1416 114.96 33.378 114.96 33.378C121.057 36.6867 123.167 43.0678 123.167 43.0678C124.574 45.6675 126.215 45.1948 126.215 45.1948C129.967 44.2495 123.401 32.1963 123.401 32.1963C121.994 29.8329 125.512 32.669 125.512 32.669C129.029 35.9777 131.139 42.1224 131.139 42.1224C133.25 48.5035 135.829 45.4311 135.829 45.4311C138.643 42.3588 132.546 31.7236 132.546 31.7236C131.608 30.0693 133.484 31.2509 133.484 31.2509C139.346 36.923 142.629 51.3396 142.629 51.3396C145.443 57.957 148.491 56.7753 148.491 56.7753C150.133 55.83 145.443 45.6675 143.333 40.7044C142.16 38.1047 143.333 39.2864 144.271 40.7044C151.54 52.9939 152.478 60.5567 152.478 60.5567C153.885 66.4651 155.291 67.6468 155.291 67.6468C158.105 72.3735 158.809 69.7738 158.809 69.7738C154.354 36.6867 131.139 15.6527 111.912 7.38093Z" fill="white"/>
<path d="M83.0699 114.205C94.0907 104.515 95.2631 92.9349 95.2631 92.9349C95.9666 88.9171 95.2631 85.1357 94.3252 83.0087C91.5114 76.3913 85.6492 77.573 85.6492 77.573C78.8491 77.8093 76.9733 88.2081 76.9733 88.2081C75.3319 97.4253 69.9387 103.806 69.9387 103.806C65.9524 109.715 61.7317 109.242 61.7317 109.242C55.1661 109.242 57.511 90.3351 57.511 90.3351C57.511 90.3351 57.9799 83.0087 64.0766 85.1357C70.1732 87.4991 73.925 82.7724 73.925 82.7724C79.5526 76.3913 72.0491 68.8285 71.8146 68.3558C70.6422 66.9378 71.3456 65.5198 71.3456 65.5198C72.7525 61.5021 67.8283 59.375 67.8283 59.375C67.3594 59.1387 66.8904 58.9024 66.6559 58.666C66.4214 58.666 66.4214 58.666 66.4214 58.9024C66.1869 59.375 65.718 59.375 65.0145 59.1387C64.5455 58.9024 64.0766 58.4297 64.3111 57.957C64.3111 57.957 64.3111 57.7207 64.5455 57.7207V57.4843C62.4352 56.3027 61.2627 55.83 61.2627 55.83C59.8558 55.121 58.9179 55.83 58.4489 56.3027C57.2765 57.248 57.9799 58.9024 57.9799 58.9024L58.9179 61.9747C58.9179 61.9747 58.9179 62.2111 59.1524 61.9747C59.1524 61.9747 59.1524 61.9747 59.3869 61.9747C59.8558 61.7384 60.3248 62.2111 60.3248 62.6837C60.5593 63.1564 60.3248 63.8654 59.8558 63.8654H59.6213C59.3869 63.8654 59.6213 64.1018 59.6213 64.1018L60.0903 65.7561C61.2627 70.0102 63.3731 69.7739 65.249 70.0102C67.1249 70.0102 68.7663 71.9009 68.7663 71.9009C71.8146 75.2096 71.1111 77.1003 71.1111 77.1003C70.8766 78.991 67.3594 77.8093 67.3594 77.8093C63.8421 76.3913 61.4972 76.1549 61.4972 76.1549C47.4281 73.0826 46.9591 86.7901 46.9591 86.7901C46.7246 101.207 50.2419 110.424 50.2419 110.424C55.1661 120.823 64.0766 117.278 64.0766 117.278C80.2561 110.424 84.0078 93.6439 84.0078 93.6439C84.9458 88.9171 86.5872 88.6808 86.5872 88.6808C87.9941 88.2081 88.4631 90.3351 88.4631 90.3351C90.1045 96.0072 87.5251 102.152 87.5251 102.152C83.3044 111.133 71.5801 118.459 71.5801 118.459C65.9525 121.532 66.4214 124.131 66.4214 124.131C66.1869 128.385 71.3456 128.622 71.3456 128.622C76.9733 129.567 84.0078 123.186 84.0078 123.186C89.87 118.223 88.2286 116.096 88.2286 116.096C87.7596 115.387 85.8837 117.514 85.8837 117.514C76.2698 126.258 72.0491 124.368 72.0491 124.368C68.7663 123.659 72.0491 123.895 83.0699 114.205Z" fill="white"/>
</svg>